G04 ================== begin FILE IDENTIFICATION RECORD ==================*
G04 Layout Name:  D:/SOP1HC/MIC/SCHE/RELEASE_011/SCHE/allegro/STM32F746NGH_V110_4.brd*
G04 Film Name:    FILM_BOTTOM*
G04 File Format:  Gerber RS274X*
G04 File Origin:  Cadence Allegro 16.6-P004*
G04 Origin Date:  Sat Feb 06 22:13:17 2016*
G04 *
G04 Layer:  VIA CLASS/BOTTOM*
G04 Layer:  PIN/BOTTOM*
G04 Layer:  ETCH/BOTTOM*
G04 Layer:  BOARD GEOMETRY/OUTLINE*
G04 *
G04 Offset:    (0.0000 0.0000)*
G04 Mirror:    No*
G04 Mode:      Positive*
G04 Rotation:  0*
G04 FullContactRelief:  No*
G04 UndefLineWidth:     0.0000*
G04 ================== end FILE IDENTIFICATION RECORD ====================*
%FSLAX25Y25*MOMM*%
%IR0*IPPOS*OFA0.00000B0.00000*MIA0B0*SFA1.00000B1.00000*%
%ADD29R,1.2X.6*%
%ADD19R,1.45X.4*%
%ADD22R,.9X1.6*%
%ADD12C,.6*%
%ADD11C,.6096*%
%ADD24C,.889*%
%ADD30O,1.5X4.*%
%ADD25R,1.2X1.4*%
%ADD31O,3.5X1.5*%
%ADD33O,1.5X3.5*%
%ADD20C,1.*%
%ADD34C,1.2*%
%ADD10C,5.*%
%ADD26R,.45X.5*%
%ADD15C,1.5*%
%ADD32C,2.5*%
%ADD27R,2.5X1.75*%
%ADD16C,1.6*%
%ADD23R,.9X.8*%
%ADD28R,.8X.9*%
%ADD13C,1.65*%
%ADD17R,1.6X1.6*%
%ADD14R,1.65X1.65*%
%ADD18R,.889X.7112*%
%ADD21R,.7112X.889*%
%ADD35C,.2*%
%ADD36C,.3*%
%ADD37C,.4*%
%ADD38C,.14*%
%ADD39C,.5*%
%ADD40C,.15*%
%ADD41C,.7*%
%ADD42C,.25*%
%ADD43C,.18*%
%ADD54O,4.4004X2.4004*%
%ADD46C,2.4004*%
%ADD53O,2.4004X4.9004*%
%ADD48C,3.4004*%
%ADD44C,1.064*%
%ADD49C,1.9004*%
%ADD47C,1.0544*%
%ADD51C,1.4544*%
%ADD50C,1.6544*%
%ADD56O,2.0638X1.0638*%
%ADD45C,1.9544*%
%ADD55O,2.1888X1.0638*%
%ADD52O,1.9544X3.9544*%
G75*
%LPD*%
G75*
G36*
G01X110010Y1372500D02*
Y3086400D01*
G02X123900Y3107190I22500J2D01*
G01X130210Y3109800D01*
X143580Y3107140D01*
X230910Y3019820D01*
G02X237500Y3003910I-15911J-15910D01*
G01Y3000770D01*
X236820Y2998070D01*
G03X464850Y2893700I123678J-31074D01*
G01X467820Y2897930D01*
X476870Y2902950D01*
X522510Y2905430D01*
X532050Y2901420D01*
X535470Y2897540D01*
G03X717340Y2944760I79030J69463D01*
G01X721180Y2962500D01*
X725000D01*
Y3154320D01*
X726290Y3159590D01*
X727550Y3162000D01*
G03X733480Y3266880I-113050J59000D01*
G01X731970Y3270790D01*
Y3284300D01*
X745150Y3297480D01*
X746750D01*
X1095930Y3646660D01*
G03X1102520Y3662570I-15909J15909D01*
G01Y3768930D01*
G02X1109110Y3784840I22501J0D01*
G01X1830180Y4505910D01*
G02X1846090Y4512500I15910J-15911D01*
G01X2108910D01*
G02X2129700Y4498610I2J-22500D01*
G01X2132310Y4492300D01*
X2129650Y4478930D01*
X2122340Y4471610D01*
G02X2106430Y4465020I-15910J15911D01*
G01X1900070D01*
G03X1884160Y4458430I-1J-22499D01*
G01X1504070Y4078340D01*
G03X1497480Y4062430I15909J-15909D01*
G01Y3970350D01*
G02X1490890Y3954440I-22501J0D01*
G01X841570Y3305120D01*
G03X834980Y3289210I15909J-15909D01*
G01Y2895350D01*
G02X828390Y2879440I-22501J0D01*
G01X493040Y2544090D01*
G02X477130Y2537500I-15910J15911D01*
G01X474560D01*
G03X405700Y2542050I-37058J-37499D01*
G01X402770Y2539830D01*
X395810Y2537500D01*
X347500D01*
G03X325000Y2515000I0J-22500D01*
G01Y2385370D01*
G02X318410Y2369460I-22501J0D01*
G01X266570Y2317620D01*
G03X259980Y2301710I15909J-15909D01*
G01Y1993570D01*
G02X253390Y1977660I-22501J0D01*
G01X204070Y1928340D01*
G03X197480Y1912430I15909J-15909D01*
G01Y1862500D01*
G03X212860Y1825360I52533J0D01*
G01X253390Y1784840D01*
G02X259980Y1768930I-15911J-15910D01*
G01Y1754660D01*
X259920Y1753840D01*
G03X305490Y1697750I52579J-3839D01*
G01X313870Y1696620D01*
X325000Y1683900D01*
Y1372500D01*
G02X302500Y1350000I-22500J0D01*
G01X132510D01*
G02X110010Y1372500I0J22500D01*
G37*
G36*
G01X763050Y4350170D02*
Y4330780D01*
G02X740550Y4308280I-22500J0D01*
G01X677810D01*
G03X655310Y4285780I0J-22500D01*
G01Y4248280D01*
G02X641420Y4227490I-22500J-3D01*
G01X635110Y4224880D01*
X621730Y4227540D01*
X615840Y4233430D01*
G03X599930Y4240020I-15910J-15910D01*
G01X237570D01*
G03X221660Y4233430I0J-22500D01*
G01X148420Y4160190D01*
G02X123900Y4155310I-15912J15908D01*
G01X117600Y4157920D01*
X110010Y4169270D01*
Y7355000D01*
G02X132510Y7377500I22500J0D01*
G01X236870D01*
X240870Y7375900D01*
G03X256790Y7370090I109062J274124D01*
G01X256810D01*
X261760Y7368440D01*
X269180Y7361130D01*
X284450Y7317720D01*
X283230Y7307380D01*
X280400Y7302990D01*
G03X426260Y7324060I82106J-52989D01*
G02X420710Y7331260I14677J17052D01*
G01X420270Y7332160D01*
G02X422550Y7355560I20235J9839D01*
G01X426130Y7360300D01*
G02X437420Y7368230I17955J-13561D01*
G03X459130Y7375900I-87346J281795D01*
G01X463130Y7377500D01*
X609320D01*
X622500Y7390680D01*
Y7391720D01*
X749870D01*
X763050Y7378540D01*
Y7369420D01*
X769480D01*
Y7365820D01*
X772900Y7357560D01*
X776040Y7354420D01*
X779460Y7346160D01*
Y7345780D01*
G02X773620Y7330660I-22500J3D01*
G03X799320Y7147950I88877J-80661D01*
G01X804290Y7144880D01*
X809980Y7134670D01*
Y6765330D01*
X804290Y6755120D01*
X799320Y6752050D01*
G03X925680I63180J-102050D01*
G01X920710Y6755120D01*
X915020Y6765330D01*
Y7134670D01*
X920710Y7144880D01*
X925680Y7147950D01*
G03X951380Y7330650I-63180J102045D01*
G02X945540Y7345770I16660J15123D01*
G01Y7414960D01*
X942120Y7423220D01*
X941990Y7423350D01*
Y7508080D01*
G03X919490Y7530580I-22500J0D01*
G01X875170D01*
G02X870340Y7531100I-20J22502D01*
G03X834700I-17820J-81100D01*
G02X829870Y7530580I-4810J21982D01*
G01X776230D01*
X753930Y7508280D01*
X645000D01*
G02X622500Y7530780I0J22500D01*
G01Y7536870D01*
X624100Y7540870D01*
G03Y7759130I-274100J109130D01*
G01X622500Y7763130D01*
Y7867490D01*
G02X645000Y7889990I22500J0D01*
G01X1277500D01*
G02X1300000Y7867490I0J-22500D01*
G01Y7497500D01*
G03X1322500Y7475000I22500J0D01*
G01X1852500D01*
G02X1875000Y7452500I0J-22500D01*
G01Y7258590D01*
G02X1868410Y7242680I-22500J0D01*
G01X1766570Y7140840D01*
G03X1759980Y7124930I15910J-15910D01*
G01Y6631070D01*
G02X1753390Y6615160I-22500J0D01*
G01X1629070Y6490840D01*
G03X1622480Y6474930I15910J-15910D01*
G01Y5308610D01*
X1622280Y5307110D01*
G03X1676340Y5246820I52721J-7109D01*
G01X1676350D01*
G02X1692620Y5240440I566J-22493D01*
G01X1715690Y5217940D01*
G02X1722480Y5201830I-15710J-16107D01*
G01Y5006070D01*
G02X1715890Y4990160I-22500J0D01*
G01X1643950Y4918230D01*
X1642750Y4917310D01*
G03X1666200Y4822530I32249J-42312D01*
G02X1684980Y4800340I-3720J-22190D01*
G01Y4687160D01*
G02X1666200Y4664970I-22500J0D01*
G03X1635300Y4577080I8798J-52470D01*
G01X1641260Y4570400D01*
X1640750Y4552520D01*
X941570Y3853340D01*
G03X934980Y3837430I15910J-15910D01*
G01Y3718570D01*
G02X928390Y3702660I-22500J0D01*
G01X865930Y3640200D01*
G02X841410Y3635320I-15912J15908D01*
G01X835110Y3637930D01*
X827520Y3649280D01*
Y3999930D01*
G03X820930Y4015840I-22500J0D01*
G01X725000Y4111770D01*
Y4112500D01*
X724270D01*
X705860Y4130920D01*
G02X700250Y4140260I15910J15911D01*
G01Y4140270D01*
G03X692430Y4155960I-50258J-15255D01*
G01X690320Y4158850D01*
X688100Y4165640D01*
Y4169220D01*
G02X710600Y4191720I22500J0D01*
G01X749870D01*
X772170Y4169420D01*
X919490D01*
G03X941990Y4191920I0J22500D01*
G01Y4352620D01*
G02X946420Y4366020I22498J-6D01*
G03X913180Y4539550I-96417J71480D01*
G01X908210Y4542620D01*
X902520Y4552830D01*
Y4922170D01*
X908210Y4932380D01*
X913180Y4935450D01*
G03X935890Y5121330I-63179J102046D01*
G02X929490Y5137050I16100J15717D01*
G01Y5450450D01*
G02X935890Y5466170I22500J3D01*
G03X747300Y5487890I-85891J83830D01*
G01X748900Y5485250D01*
X750550Y5479330D01*
Y5468280D01*
G02X728050Y5445780I-22500J0D01*
G01X665310D01*
G03X642810Y5423280I0J-22500D01*
G01Y5328080D01*
G02X620310Y5305580I-22500J0D01*
G01X330510D01*
G03X308010Y5283080I0J-22500D01*
G01Y5158230D01*
X301370Y5147410D01*
X295690Y5144530D01*
G03X459480Y5086690I54312J-107030D01*
G01X457500Y5091090D01*
Y5121920D01*
G02X480000Y5144420I22500J0D01*
G01X697040D01*
G02X715700Y5134490I-1J-22499D01*
G01X739690Y5098900D01*
X740860Y5087740D01*
X738750Y5082540D01*
G03X786820Y4935450I111249J-45043D01*
G01X791790Y4932380D01*
X797480Y4922170D01*
Y4552830D01*
X791790Y4542620D01*
X786820Y4539550D01*
G03X757830Y4360630I63180J-102046D01*
G01X760360Y4357600D01*
X763050Y4350170D01*
G37*
G36*
G01X700000Y135000D02*
Y578180D01*
G03X693410Y594090I-22500J0D01*
G01X667900Y619600D01*
G02X662730Y643370I15911J15908D01*
G01X679330Y687910D01*
X689900Y695830D01*
X696490Y696300D01*
G03X748480Y930140I-8988J124698D01*
G01X743140Y933120D01*
X736960Y943660D01*
Y949780D01*
G02X759460Y972280I22500J0D01*
G01X767720D01*
G03X790220Y994780I0J22500D01*
G01Y1155220D01*
G03X767720Y1177720I-22500J0D01*
G01X607280D01*
G03X584780Y1155220I0J-22500D01*
G01Y994780D01*
G03X607280Y972280I22500J0D01*
G01X615540D01*
G02X638040Y949780I0J-22500D01*
G01Y943660D01*
X631860Y933120D01*
X626520Y930140D01*
G03X570070Y778100I60980J-109140D01*
G01X572320Y771930D01*
X569490Y759120D01*
X564850Y754470D01*
G02X533030I-15910J15913D01*
G01X519090Y768410D01*
G02X512500Y784320I15910J15910D01*
G01Y1213460D01*
G02X512930Y1217850I22501J12D01*
G01X514210Y1224290D01*
X515930Y1228430D01*
X555910Y1268410D01*
G02X563210Y1273290I15914J-15906D01*
G01X567340Y1275000D01*
X1050960D01*
G02X1055350Y1274570I12J-22501D01*
G01X1061790Y1273290D01*
X1065930Y1271570D01*
X1071580Y1265920D01*
G02Y1234100I-15910J-15910D01*
G02X1053970Y1227570I-15914J15906D01*
G03X1102570Y1178970I-3970J-52570D01*
G01X1102200Y1183880D01*
X1105620Y1193100D01*
X1109100Y1196580D01*
G02X1140920I15910J-15910D01*
G01X1168410Y1169090D01*
G02X1173290Y1161790I-15906J-15914D01*
G01X1175000Y1157660D01*
Y885310D01*
X1168520Y874590D01*
X1162970Y871670D01*
G03Y778330I24530J-46670D01*
G01X1168520Y775410D01*
X1175000Y764690D01*
Y347500D01*
G03X1197500Y325000I22500J0D01*
G01X5665000D01*
G03X5687500Y347500I0J22500D01*
G01Y415000D01*
G03X5668750Y437190I-22506J0D01*
G01X5660630Y438560D01*
X5650000Y451130D01*
Y2440000D01*
G02X5672500Y2462500I22500J0D01*
G01X6527500D01*
G02X6550000Y2440000I0J-22500D01*
G01Y2392840D01*
G02X6544590Y2378200I-22500J-5D01*
G01X6525530Y2355960D01*
G02X6511900Y2348360I-17093J14633D01*
G01X6511880D01*
G03X6511870Y2204640I11118J-71861D01*
G01X6511900D01*
G02X6525530Y2197040I-3463J-22233D01*
G01X6544590Y2174800D01*
G02X6550000Y2160160I-17090J-14635D01*
G01Y2135000D01*
G02X6527500Y2112500I-22500J0D01*
G01X6310000D01*
G03X6287500Y2090000I0J-22500D01*
G01Y135000D01*
G02X6265000Y112500I-22500J0D01*
G01X722500D01*
G02X700000Y135000I0J22500D01*
G37*
G36*
G01X2122500Y1812500D02*
G02X2100000Y1835000I0J22500D01*
G01Y2003860D01*
G02X2108080Y2021140I22502J7D01*
G01X2138460Y2046480D01*
X2148130Y2049030D01*
X2153060Y2048130D01*
G03Y2151870I9440J51870D01*
G01X2148130Y2150970D01*
X2138460Y2153520D01*
X2108080Y2178860D01*
G02X2100000Y2196140I14422J17273D01*
G01Y2420510D01*
X2100810Y2423450D01*
G03Y2451550I-50810J14050D01*
G01X2100000Y2454490D01*
Y2515000D01*
G03X2077500Y2537500I-22500J0D01*
G01X836810D01*
G02X816020Y2551390I-2J22500D01*
G01X813410Y2557700D01*
X816070Y2571070D01*
X1127520Y2882530D01*
Y2887280D01*
X1144090Y2903860D01*
G02X1157010Y2910250I15910J-15912D01*
G03Y3014750I-7010J52250D01*
G02X1144090Y3021140I2990J22302D01*
G01X1130940Y3034300D01*
X1127520Y3042560D01*
Y3046750D01*
X1059110Y3115160D01*
G02X1052520Y3131070I15911J15910D01*
G01Y3210710D01*
G02X1059110Y3226620I22501J0D01*
G01X1646570Y3814080D01*
G02X1671090Y3818960I15912J-15910D01*
G01X1677400Y3816340D01*
X1684980Y3805010D01*
Y3400070D01*
G03X1691570Y3384160I22499J-1D01*
G01X2278390Y2797340D01*
G02X2284980Y2781430I-15911J-15910D01*
G01Y1884540D01*
G02X2278390Y1868630I-22500J0D01*
G01X2268410Y1858640D01*
G02X2255490Y1852250I-15910J15912D01*
G03X2215830Y1824530I7005J-52253D01*
G01X2212920Y1818980D01*
X2202190Y1812500D01*
X2122500D01*
G37*
G36*
G01X5927500Y4700000D02*
G02X5950000Y4677500I0J-22500D01*
G01Y3035000D01*
G03X5972500Y3012500I22500J0D01*
G01X5982480D01*
G02X6004980Y2990000I0J-22500D01*
G01Y2764980D01*
G03X6027480Y2742480I22500J0D01*
G01X6935020D01*
G03X6957520Y2764980I0J22500D01*
G01Y2990000D01*
G02X6980020Y3012500I22500J0D01*
G01X7319220D01*
G02X7341720Y2990000I0J-22500D01*
G01Y2940310D01*
G03X7364220Y2917810I22500J0D01*
G01X7474940D01*
G02X7483540Y2916100I-4J-22500D01*
G01X7487140Y2914610D01*
X7489750Y2912450D01*
G03X7504100Y2907280I14350J17330D01*
G01X7607720D01*
G03X7630190Y2928600I0J22501D01*
G02X7636750Y2943330I22469J-1181D01*
G01X7636810Y2943390D01*
G02X7652720Y2949980I15910J-15910D01*
G01X7775020D01*
G03X7790930Y2956570I0J22500D01*
G01X7800050Y2965690D01*
G02X7815960Y2972280I15910J-15910D01*
G01X7829980D01*
G02X7845890Y2965690I0J-22500D01*
G01X7849060Y2962520D01*
X7853400Y2952060D01*
X7854980Y2947790D01*
Y2889980D01*
G03X7877480Y2867480I22500J0D01*
G01X8185020D01*
G03X8207520Y2889980I0J22500D01*
G01Y2970310D01*
G02X8230020Y2992810I22500J0D01*
G01X8324940D01*
G02X8333540Y2991100I-4J-22500D01*
G01X8337140Y2989610D01*
X8339750Y2987450D01*
G03X8354100Y2982280I14350J17330D01*
G01X8457720D01*
G03X8478970Y2997390I0J22498D01*
G01X8481330Y3004180D01*
X8493030Y3012500D01*
X8990000D01*
G03X9012500Y3035000I0J22500D01*
G01Y4229160D01*
G02X9019090Y4245070I22500J0D01*
G01X9138430Y4364410D01*
G03X9145020Y4380320I-15909J15909D01*
G01Y6144680D01*
G03X9138430Y6160590I-22499J1D01*
G01X8923090Y6375930D01*
G03X8907180Y6382520I-15909J-15909D01*
G01X8440320D01*
G03X8427870Y6378760I2J-22499D01*
G02X8415420Y6375000I-12452J18740D01*
G01X7977520D01*
G02X7955020Y6397500I0J22500D01*
G01Y6863470D01*
G03X7948430Y6879380I-22500J0D01*
G01X7366880Y7460930D01*
G03X7350970Y7467520I-15910J-15910D01*
G01X5847500D01*
G02X5825000Y7490020I0J22500D01*
G01Y7627500D01*
G03X5802500Y7650000I-22500J0D01*
G01X5585000D01*
G02X5562500Y7672500I0J22500D01*
G01Y7867490D01*
G02X5585000Y7889990I22500J0D01*
G01X9342500D01*
G02X9365000Y7867490I0J-22500D01*
G01Y7729140D01*
X9364290Y7723590D01*
X9363960Y7722270D01*
G03X9364290Y7576470I286039J-72253D01*
G02X9365000Y7570860I-21790J-5608D01*
G01Y7387500D01*
G03X9387500Y7365000I22500J0D01*
G01X9570860D01*
X9576410Y7364290D01*
X9577730Y7363960D01*
G03X9723530Y7364290I72253J286039D01*
G02X9729140Y7365000I5608J-21790D01*
G01X9867490D01*
G02X9889990Y7342500I0J-22500D01*
G01Y657500D01*
G02X9867490Y635000I-22500J0D01*
G01X9729140D01*
X9723590Y635710D01*
X9722270Y636040D01*
G03X9576470Y635710I-72253J-286039D01*
G01X9573710Y635000D01*
X9387500D01*
G03X9365000Y612500I0J-22500D01*
G01Y429140D01*
X9364290Y423590D01*
X9363960Y422270D01*
G03X9364290Y276470I286039J-72253D01*
G02X9365000Y270860I-21790J-5608D01*
G01Y132510D01*
G02X9342500Y110010I-22500J0D01*
G01X6360000D01*
G02X6337500Y132510I0J22500D01*
G01Y1927500D01*
G02X6360000Y1950000I22500J0D01*
G01X6450230D01*
G02X6457190Y1948900I11J-22501D01*
G01X6463850Y1946730D01*
G02X6469550Y1943940I-6944J-21405D01*
G03X6576450I53450J78560D01*
G02X6582150Y1946730I12644J-18615D01*
G01X6588790Y1948890D01*
G02X6591910Y1949670I7003J-21382D01*
G02X6595750Y1950000I3840J-22172D01*
G01X6704230D01*
G02X6711190Y1948900I11J-22501D01*
G01X6717850Y1946730D01*
G02X6723550Y1943940I-6944J-21405D01*
G03X6749520Y2113460I53450J78561D01*
G01X6746340Y2112500D01*
X6660000D01*
G02X6637500Y2135000I0J22500D01*
G01Y2465000D01*
G03X6616300Y2487460I-22497J0D01*
G02X6601690Y2494010I1297J22463D01*
G01X6594770Y2500930D01*
G03X6578860Y2507520I-15910J-15910D01*
G01X5627480D01*
G03X5604980Y2485020I0J-22500D01*
G01Y803730D01*
G02X5595480Y785360I-22502J-5D01*
G01X5595470D01*
X5595230Y785190D01*
X5564680Y764190D01*
G02X5543940Y761700I-12746J18543D01*
G01X5542500Y762250D01*
X5540880Y762760D01*
G03X5472290Y712500I-15881J-50260D01*
G01Y612500D01*
G03X5540880Y562240I52709J0D01*
G01X5544190Y563280D01*
X5554110D01*
G02X5566860Y559320I2J-22500D01*
G01X5595240Y539800D01*
G02X5604990Y521230I-12750J-18539D01*
G01X5604980Y514300D01*
G03Y514270I22500J-15D01*
G01Y422500D01*
G02X5582480Y400000I-22500J0D01*
G01X2410000D01*
G02X2387500Y422500I0J22500D01*
G01Y734420D01*
G02X2410000Y756920I22500J0D01*
G01X2486950D01*
Y762500D01*
X2565000D01*
G03X2580910Y769090I0J22500D01*
G01X2587500Y775680D01*
Y777960D01*
X2591260Y783790D01*
X2591780Y784630D01*
X2592270Y785590D01*
X2592480Y786030D01*
G03X2594690Y795730I-20286J9724D01*
G01Y879280D01*
G03X2591090Y891470I-22498J-18D01*
G01X2589330Y894200D01*
X2587500Y900420D01*
Y1065590D01*
X2591830Y1065250D01*
G03X2591100Y1066470I-19663J-10937D01*
G01X2589330Y1069200D01*
X2587500Y1075420D01*
Y1080100D01*
X2586690Y1080910D01*
G03X2570780Y1087500I-15910J-15910D01*
G01X2486950D01*
Y1093080D01*
X2410000D01*
G02X2387500Y1115580I0J22500D01*
G01Y1550730D01*
X2390020Y1553250D01*
Y2824930D01*
G03X2383430Y2840840I-22499J1D01*
G01X1796610Y3427660D01*
G02X1790020Y3443570I15910J15910D01*
G01Y3969520D01*
X1790080Y3971130D01*
X1790100Y3971460D01*
Y3971480D01*
X1790130Y3972100D01*
Y3972130D01*
X1790150Y3972650D01*
G03X1789600Y3983050I-52657J2430D01*
G01X1789480Y3983820D01*
X1789330Y3985610D01*
G02X1802620Y4008040I22423J1866D01*
G01X1807030Y4009980D01*
X2012430D01*
G03X2028340Y4016570I1J22499D01*
G01X2118550Y4106770D01*
X2119750Y4107690D01*
G03X2045190Y4182250I-32250J42310D01*
G01X2044270Y4181050D01*
X1984840Y4121610D01*
G02X1968930Y4115020I-15910J15910D01*
G01X1806110D01*
G02X1785330Y4128910I7J22500D01*
G01Y4139220D01*
G02X1791920Y4155130I22500J0D01*
G01X1917680Y4280910D01*
G02X1933590Y4287500I15910J-15910D01*
G01X2302500D01*
G03X2325000Y4310000I0J22500D01*
G01Y4390000D01*
G02X2347500Y4412500I22500J0D01*
G01X2624980D01*
G02X2647480Y4390000I0J-22500D01*
G01Y2050070D01*
G03X2654070Y2034160I22499J-1D01*
G01X3059770Y1628460D01*
G02X3060660Y1597590I-15914J-15907D01*
G01X3060650Y1597580D01*
G03X3129310Y1518680I39356J-35077D01*
G02X3141820Y1522480I12512J-18700D01*
G01X3570310D01*
G02X3592810Y1499980I0J-22500D01*
G01Y1400020D01*
G02X3570310Y1377520I-22500J0D01*
G01X3350070D01*
G03X3334160Y1370930I-1J-22499D01*
G01X3134840Y1171610D01*
G02X3118930Y1165020I-15910J15910D01*
G01X2705480D01*
X2703870Y1165080D01*
X2703540Y1165100D01*
X2703520D01*
X2702900Y1165130D01*
X2702870D01*
X2702350Y1165150D01*
G03X2703830Y1059920I-2399J-52659D01*
G01X2704660Y1059980D01*
X2890000D01*
G02X2912500Y1037480I0J-22500D01*
G01Y824520D01*
G02X2890000Y802020I-22500J0D01*
G01X2722750D01*
X2719730Y802230D01*
X2719090Y802310D01*
G03X2719680Y697770I-6587J-52309D01*
G01X2721210Y697980D01*
X3037230D01*
G03X3053140Y704570I0J22501D01*
G01X3220430Y871860D01*
G03X3227020Y887770I-15911J15910D01*
G01Y1018430D01*
G02X3233610Y1034340I22500J0D01*
G01X3415160Y1215890D01*
G02X3431070Y1222480I15910J-15910D01*
G01X3570310D01*
G02X3592810Y1199980I0J-22500D01*
G01Y1114220D01*
G03X3615310Y1091720I22500J0D01*
G01X3678050D01*
G02X3693960Y1085130I0J-22500D01*
G01X3703080Y1076010D01*
G03X3718990Y1069420I15910J15910D01*
G01X3856990D01*
G03X3872900Y1076010I0J22500D01*
G01X3880280Y1083390D01*
G02X3896190Y1089980I15910J-15910D01*
G01X3925000D01*
G03X3982930Y1165710I0J60022D01*
G01X3981550Y1170780D01*
X3983580Y1181090D01*
X4008490Y1213650D01*
G02X4026360Y1222480I17871J-13670D01*
G01X4631430D01*
G02X4647340Y1215890I0J-22500D01*
G01X4723700Y1139530D01*
G02X4728200Y1114130I-15906J-15917D01*
G01X4726400Y1110270D01*
X4725370Y1108760D01*
G03X4714980Y1075010I49639J-33756D01*
G01Y1001760D01*
G03X4721570Y985850I22500J0D01*
G01X4770830Y936590D01*
G03X4786740Y930000I15910J15910D01*
G01X4790000D01*
G02X4812500Y907500I0J-22500D01*
G01Y785000D01*
G03X4835000Y762500I22500J0D01*
G01X4965000D01*
G03X4987500Y785000I0J22500D01*
G01Y1037480D01*
G02X5010000Y1059980I22500J0D01*
G01X5174930D01*
G03X5190840Y1066570I1J22499D01*
G01X5470930Y1346660D01*
G03X5477520Y1362570I-15909J15909D01*
G01Y3599930D01*
G03X5470930Y3615840I-22499J1D01*
G01X5237680Y3849090D01*
G02X5232800Y3873610I15907J15911D01*
G01X5235410Y3879920D01*
X5246750Y3887500D01*
X5390000D01*
G03X5405910Y3894090I0J22500D01*
G01X5409080Y3897260D01*
X5410790Y3901390D01*
G03X5412500Y3909890I-20790J8604D01*
G01X5412720Y3953740D01*
X5415220Y3953850D01*
Y4115220D01*
X5414260D01*
X5409080Y4127740D01*
X5405910Y4130910D01*
G03X5390000Y4137500I-15910J-15910D01*
G01X5224000D01*
G02X5219550Y4137940I-22J22502D01*
G01X5213760Y4139110D01*
X5211010Y4140510D01*
X5208230Y4141920D01*
X5205930Y4144040D01*
G03X5190680Y4150000I-15253J-16539D01*
G01X4982750D01*
G02X4960250Y4172500I0J22500D01*
G01Y4187500D01*
G03X4875570Y4242220I-60020J0D01*
G01X4871160Y4240230D01*
X4849050D01*
Y4237500D01*
X4622500D01*
G03X4600000Y4215000I0J-22500D01*
G01Y4146820D01*
G02X4593410Y4130910I-22500J0D01*
G01X4556590Y4094090D01*
G02X4540680Y4087500I-15910J15910D01*
G01X4435000D01*
G02X4412500Y4110000I0J22500D01*
G01Y4140680D01*
G02X4419090Y4156590I22500J0D01*
G01X4450000Y4187500D01*
Y4188230D01*
X4452520Y4190750D01*
Y4677710D01*
G02X4459660Y4694150I22500J-1D01*
G01X4483650Y4716550D01*
G02X4499000Y4722600I15351J-16450D01*
G01X4500540D01*
X4501180Y4722560D01*
G03X4504140Y4722480I2898J52443D01*
G01X4524920D01*
G03X4543200Y4725770I-18J52526D01*
G01X4544960Y4726430D01*
X4548640Y4728090D01*
X4555930Y4729810D01*
G02X4561080Y4730410I5162J-21901D01*
G01X4568020D01*
G02X4573170Y4729810I-12J-22501D01*
G01X4580460Y4728090D01*
X4584140Y4726430D01*
X4585900Y4725770D01*
G03X4604180Y4722480I18298J49236D01*
G01X4624920D01*
G03X4643200Y4725770I-18J52526D01*
G01X4644960Y4726430D01*
X4648640Y4728090D01*
X4655930Y4729810D01*
G02X4661080Y4730410I5162J-21901D01*
G01X4668020D01*
G02X4673170Y4729810I-12J-22501D01*
G01X4680460Y4728090D01*
X4684140Y4726430D01*
X4685900Y4725770D01*
G03X4704180Y4722480I18298J49236D01*
G01X4724920D01*
G03X4743200Y4725770I-18J52526D01*
G01X4744960Y4726430D01*
X4748640Y4728090D01*
X4755930Y4729810D01*
G02X4761080Y4730410I5162J-21901D01*
G01X4768020D01*
G02X4773170Y4729810I-12J-22501D01*
G01X4780460Y4728090D01*
X4784140Y4726430D01*
X4785900Y4725770D01*
G03X4804180Y4722480I18298J49236D01*
G01X4824920D01*
G03X4843200Y4725770I-18J52526D01*
G01X4844960Y4726430D01*
X4848640Y4728090D01*
X4855930Y4729810D01*
G02X4861080Y4730410I5162J-21901D01*
G01X4868020D01*
G02X4873170Y4729810I-12J-22501D01*
G01X4880460Y4728090D01*
X4884140Y4726430D01*
X4885900Y4725770D01*
G03X4904180Y4722480I18298J49236D01*
G01X4924920D01*
G03X4943200Y4725770I-18J52526D01*
G01X4944960Y4726430D01*
X4948640Y4728090D01*
X4955930Y4729810D01*
G02X4961080Y4730410I5162J-21901D01*
G01X4968020D01*
G02X4973170Y4729810I-12J-22501D01*
G01X4980460Y4728090D01*
X4984140Y4726430D01*
X4985900Y4725770D01*
G03X5004180Y4722480I18298J49236D01*
G01X5189950D01*
X5192890Y4722280D01*
X5193640Y4722190D01*
X5193760Y4722180D01*
X5194080Y4722140D01*
G03X5199990Y4721810I5916J52860D01*
G01X5325000D01*
G03X5375950Y4790280I0J53191D01*
G01X5375000Y4793450D01*
Y4926580D01*
G02X5375240Y4929860I22500J2D01*
G01X5375940Y4934610D01*
X5376600Y4937030D01*
X5376860Y4938180D01*
Y4938190D01*
G03X5325000Y5003190I-51860J11812D01*
G01X5230400D01*
G02X5214490Y5009780I0J22500D01*
G01X5209110Y5015160D01*
G02X5202520Y5031070I15910J15910D01*
G01Y5148640D01*
G02X5211350Y5166510I22500J-1D01*
G01X5239730Y5188220D01*
G02X5241010Y5189130I13669J-17872D01*
G01X5241020D01*
G02X5259310Y5192070I12399J-18774D01*
G03X5266290Y5190610I15757J57918D01*
G01X5270310Y5190020D01*
X5273900Y5188050D01*
G02X5280090Y5183030I-10854J-19710D01*
G01X5284990Y5177350D01*
G03X5286090Y5176170I16998J14743D01*
G01X5286250Y5176010D01*
G03X5302160Y5169420I15910J15910D01*
G01X5441970D01*
G03X5457880Y5176010I0J22500D01*
G01X5467000Y5185130D01*
G02X5482910Y5191720I15910J-15910D01*
G01X5549710D01*
G03X5572210Y5214220I0J22500D01*
G01Y5286700D01*
G02X5586100Y5307480I22499J-7D01*
G01X5592410Y5310100D01*
X5605780Y5307440D01*
X5615890Y5297330D01*
G02X5622480Y5281420I-15910J-15910D01*
G01Y4931070D01*
G02X5615890Y4915160I-22500J0D01*
G01X5328710Y4627980D01*
X5319980Y4624560D01*
X5315270Y4624740D01*
X5315150D01*
X5282040Y4626180D01*
G02X5273080Y4628470I973J22479D01*
G01X5268790Y4630580D01*
X5265740Y4634210D01*
G03X5217890Y4652720I-40739J-34211D01*
G01X5216390Y4652520D01*
X4912570D01*
G03X4896660Y4645930I-1J-22499D01*
G01X4816570Y4565840D01*
G03X4809980Y4549930I15909J-15909D01*
G01Y4435100D01*
X4809780Y4432190D01*
X4809710Y4431570D01*
X4809660Y4431120D01*
Y4431080D01*
G03X4847870Y4373850I52847J-6087D01*
G02X4857590Y4368130I-6187J-21633D01*
G01X4921660Y4304070D01*
G03X4937570Y4297480I15909J15909D01*
G01X4968920D01*
G02X4984420Y4291290I0J-22500D01*
G01X4984840Y4290890D01*
X5019270Y4256450D01*
X5020480Y4254870D01*
X5021190Y4253980D01*
X5021540Y4253560D01*
G03X5108800Y4261280I40969J33940D01*
G01X5110080Y4263560D01*
X5113610Y4267370D01*
X5115790Y4268850D01*
G02X5125360Y4272500I12593J-18646D01*
G01X5160840Y4277330D01*
G02X5179780Y4270950I3035J-22294D01*
G01X5196660Y4254070D01*
G03X5212570Y4247480I15909J15909D01*
G01X5589900D01*
X5592850Y4247280D01*
X5593480Y4247200D01*
G03X5592890Y4352720I6515J52798D01*
G01X5591390Y4352520D01*
X5256070D01*
G02X5240160Y4359110I0J22500D01*
G01X5215200Y4384070D01*
G02X5210320Y4408590I15907J15911D01*
G01X5212930Y4414900D01*
X5224270Y4422480D01*
X5362430D01*
G03X5378340Y4429070I1J22499D01*
G01X5642680Y4693410D01*
G02X5658590Y4700000I15910J-15910D01*
G01X5927500D01*
G37*
G36*
G01X1834110Y6059840D02*
X1977660Y6203390D01*
G02X1993570Y6209980I15910J-15911D01*
G01X2199310D01*
G02X2221810Y6187480I0J-22500D01*
G01Y6062500D01*
G03X2242720Y6020230I53180J0D01*
G01X2243910Y6019320D01*
X2253390Y6009840D01*
G02X2259980Y5993930I-15911J-15910D01*
G01Y5210670D01*
G02X2253190Y5194560I-22500J-3D01*
G01X2226860Y5168890D01*
X2218400Y5165570D01*
X2213840Y5165680D01*
G03X2170190Y5144750I-1342J-53182D01*
G01X2169270Y5143550D01*
X2084840Y5059110D01*
G02X2068930Y5052520I-15910J15911D01*
G01X1850020D01*
G02X1827520Y5075020I0J22500D01*
G01Y6043930D01*
G02X1834110Y6059840I22501J0D01*
G37*
G36*
G01X1727520Y6149270D02*
Y6431430D01*
G02X1734110Y6447340I22501J0D01*
G01X1858430Y6571660D01*
G03X1865020Y6587570I-15909J15909D01*
G01Y7081430D01*
G02X1871610Y7097340I22501J0D01*
G01X1952660Y7178390D01*
G02X1968570Y7184980I15910J-15911D01*
G01X2340000D01*
G02X2362500Y7162480I0J-22500D01*
G01Y6885000D01*
G02X2340000Y6862500I-22500J0D01*
G01X2319270D01*
X2316570Y6863180D01*
G03X2254430I-31070J-123680D01*
G01X2251730Y6862500D01*
X2172500D01*
G03X2150000Y6840000I0J-22500D01*
G01Y6370480D01*
X2151390Y6369090D01*
G02X2157980Y6353180I-15910J-15910D01*
G01Y6337520D01*
G02X2135480Y6315020I-22500J0D01*
G01X1950070D01*
G03X1934160Y6308430I-1J-22499D01*
G01X1765930Y6140200D01*
G02X1741410Y6135320I-15912J15910D01*
G01X1735100Y6137940D01*
X1727520Y6149270D01*
G37*
G36*
G01X2516310Y4646300D02*
X2514130Y4653380D01*
G03X2500700Y4675700I-51636J-15869D01*
G01X2473710Y4702690D01*
G02X2467120Y4718600I15909J15909D01*
G01Y6056400D01*
G02X2473710Y6072310I22499J1D01*
G01X2488200Y6086800D01*
G03X2499420Y6146810I-38200J38196D01*
G01X2497110Y6152040D01*
X2498040Y6163390D01*
X2521740Y6199770D01*
G02X2540590Y6209980I18847J-12291D01*
G01X2762430D01*
G03X2778340Y6216570I1J22499D01*
G01X3058430Y6496660D01*
G03X3065020Y6512570I-15909J15909D01*
G01Y6602500D01*
G02X3087520Y6625000I22500J0D01*
G01X3315000D01*
G02X3337500Y6602500I0J-22500D01*
G01Y6529690D01*
G02X3315000Y6507190I-22500J0D01*
G01X3254240D01*
G03X3231740Y6484690I0J-22500D01*
G01Y6412630D01*
X3209440Y6390330D01*
Y6233690D01*
X3222620Y6220510D01*
X3228150D01*
Y6196570D01*
X3227970Y6195140D01*
G03X3311410Y6132450I59531J-7639D01*
G01X3315700Y6134310D01*
X3382100D01*
G02X3398010Y6127720I0J-22501D01*
G01X3503390Y6022340D01*
G02X3509980Y6006430I-15911J-15910D01*
G01Y5987520D01*
G02X3487480Y5965020I-22500J0D01*
G01X3137570D01*
G03X3121660Y5958430I-1J-22499D01*
G01X3070600Y5907370D01*
G02X3046080Y5902490I-15912J15910D01*
G01X3039770Y5905110D01*
X3032190Y5916440D01*
Y5960780D01*
G03X3009690Y5983280I-22500J0D01*
G01X2937630D01*
X2915330Y6005580D01*
X2768010D01*
G03X2745510Y5983080I0J-22500D01*
G01Y5981410D01*
G03Y5868590I-20510J-56410D01*
G01Y5866920D01*
G03X2768010Y5844420I22500J0D01*
G01X2911270D01*
X2933570Y5866720D01*
X3037480D01*
G02X3059980Y5844220I0J-22500D01*
G01Y5571110D01*
X3059780Y5569610D01*
G03X3103700Y5510030I52722J-7113D01*
G01X3111840Y5508670D01*
X3122480Y5496090D01*
Y5433550D01*
X3122280Y5432060D01*
G03X3140670Y5384370I52720J-7061D01*
G01X3144470Y5381160D01*
X3148650Y5372160D01*
Y5327840D01*
X3144470Y5318840D01*
X3140670Y5315630D01*
G03X3132730Y5307280I34348J-40611D01*
G01X3131820Y5306090D01*
X3054070Y5228340D01*
G03X3047480Y5212430I15909J-15909D01*
G01Y4993570D01*
G02X3040890Y4977660I-22501J0D01*
G01X2995860Y4932630D01*
X2991770Y4934320D01*
X2993460Y4930230D01*
X2707320Y4644090D01*
G02X2691410Y4637500I-15910J15911D01*
G01X2528230D01*
X2516310Y4646300D01*
G37*
G36*
G01X2194090Y4857320D02*
X2221570Y4884800D01*
G02X2246090Y4889680I15912J-15910D01*
G01X2252400Y4887060D01*
X2259980Y4875730D01*
Y4618570D01*
G02X2253390Y4602660I-22501J0D01*
G01X2225910Y4575180D01*
G02X2201390Y4570300I-15912J15910D01*
G01X2195080Y4572920D01*
X2187500Y4584250D01*
Y4841410D01*
G02X2194090Y4857320I22501J0D01*
G37*
G36*
G01X5056160Y1818340D02*
X5052450Y1822040D01*
G02Y1853860I15912J15910D01*
G01X5053850Y1855260D01*
X5055470Y1856390D01*
G03X5077720Y1907110I-30472J43608D01*
G01X5077520Y1908610D01*
Y1963110D01*
G03X5070930Y1979020I-22499J1D01*
G01X5068440Y1981510D01*
X5065020Y1989770D01*
Y2987480D01*
G02X5087520Y3009980I22500J0D01*
G01X5197790D01*
G03X5213700Y3016570I1J22499D01*
G01X5237140Y3040000D01*
G03X5252520Y3077140I-37153J37140D01*
G01Y3133480D01*
G03X5245930Y3149390I-22499J1D01*
G01X5218530Y3176800D01*
X5216550Y3191980D01*
X5220400Y3198600D01*
G03X5227520Y3225000I-45399J26404D01*
G01Y3250000D01*
G03X5212140Y3287140I-52533J0D01*
G01X5187140Y3312140D01*
G03X5150000Y3327520I-37140J-37153D01*
G01X5131800D01*
G02X5115890Y3334110I0J22500D01*
G01X5094090Y3355910D01*
G02X5087500Y3371820I15910J15910D01*
G01Y3712480D01*
G02X5110000Y3734980I22500J0D01*
G01X5118930D01*
G02X5134840Y3728390I0J-22501D01*
G01X5315890Y3547340D01*
G02X5322480Y3531430I-15911J-15910D01*
G01Y1426790D01*
G02X5315890Y1410880I-22501J0D01*
G01X5126620Y1221610D01*
G02X5110710Y1215020I-15910J15911D01*
G01X5010000D01*
G02X4987500Y1237520I0J22500D01*
G01Y1452500D01*
G03X4965000Y1475000I-22500J0D01*
G01X4835000D01*
G03X4812500Y1452500I0J-22500D01*
G01Y1448200D01*
X4799320Y1435020D01*
X4775000D01*
G03X4717810Y1393200I0J-60014D01*
G01X4715580Y1386190D01*
X4703720Y1377520D01*
X4026360D01*
G02X4008490Y1386350I1J22500D01*
G01X3983580Y1418910D01*
X3981550Y1429220D01*
X3982930Y1434290D01*
G03Y1465710I-57930J15710D01*
G01X3981550Y1470780D01*
X3983580Y1481090D01*
X4008490Y1513650D01*
G02X4026360Y1522480I17871J-13670D01*
G01X4568930D01*
G02X4584840Y1515890I0J-22501D01*
G01X4606820Y1493910D01*
X4607730Y1492720D01*
G03X4703190Y1525000I42272J32280D01*
G01Y1699310D01*
G02X4725690Y1721810I22500J0D01*
G01X4775000D01*
G03X4828190Y1775000I0J53190D01*
G01Y1820770D01*
G02X4850690Y1843270I22500J0D01*
G01X4887480D01*
G02X4909980Y1820770I0J-22500D01*
G01Y1815970D01*
X4981880Y1744060D01*
X4982800Y1742860D01*
G03X5057360Y1817420I42310J32250D01*
G01X5056160Y1818340D01*
G37*
G36*
G01X3727520Y5313430D02*
Y5471000D01*
G02X3750020Y5493500I22500J0D01*
G01X3900750D01*
G02X3921540Y5479610I2J-22500D01*
G01X3924150Y5473300D01*
X3921490Y5459930D01*
X3765930Y5304360D01*
G02X3741410Y5299480I-15912J15910D01*
G01X3735100Y5302100D01*
X3727520Y5313430D01*
G37*
G36*
G01X4600810Y5474080D02*
X4576060Y5507300D01*
X4574210Y5517790D01*
X4575730Y5522900D01*
G03X4576560Y5526020I-50314J15055D01*
G01X4589260Y5538720D01*
G02X4598060Y5544160I15914J-15906D01*
G03X4618610Y5556850I-16581J49835D01*
G01X4633270Y5571510D01*
G03X4648650Y5608650I-37153J37140D01*
G01Y5641780D01*
G03X4642060Y5657690I-22499J1D01*
G01X4615420Y5684330D01*
G02Y5716150I15914J15910D01*
G01X4795930Y5896660D01*
G03X4802520Y5912570I-15909J15909D01*
G01Y6081430D01*
G02X4809110Y6097340I22501J0D01*
G01X4856050Y6144270D01*
X4857250Y6145190D01*
G03X4795650Y6231870I-32256J42305D01*
G02X4782870Y6228140I-12412J18769D01*
G01X4768460Y6228380D01*
G02X4755800Y6232540I379J22497D01*
G03X4682690Y6221410I-30798J-43379D01*
G01X4681770Y6220210D01*
X4550860Y6089300D01*
G03X4538170Y6068750I37145J-37131D01*
G02X4532730Y6059950I-21346J7114D01*
G01X4524150Y6051370D01*
G02X4515350Y6045930I-15914J15906D01*
G03X4494800Y6033240I16581J-49835D01*
G01X4480140Y6018580D01*
G03X4467450Y5998030I37145J-37131D01*
G02X4462010Y5989230I-21346J7114D01*
G01X4453430Y5980650D01*
G02X4444630Y5975210I-15914J15906D01*
G03X4424080Y5962520I16581J-49835D01*
G01X4409420Y5947860D01*
G03X4396730Y5927310I37145J-37131D01*
G02X4391290Y5918510I-21346J7114D01*
G01X4382710Y5909930D01*
G02X4373910Y5904490I-15914J15906D01*
G03X4353360Y5891800I16581J-49835D01*
G01X4338700Y5877140D01*
G03X4326010Y5856590I37145J-37131D01*
G02X4320570Y5847790I-21346J7114D01*
G01X4311990Y5839210D01*
G02X4303190Y5833770I-15914J15906D01*
G03X4282640Y5821080I16581J-49835D01*
G01X4267980Y5806420D01*
G03X4255290Y5785870I37145J-37131D01*
G02X4249850Y5777070I-21346J7114D01*
G01X4241270Y5768490D01*
G02X4232470Y5763050I-15914J15906D01*
G03X4211920Y5750360I16581J-49835D01*
G01X4197260Y5735700D01*
G03X4184570Y5715150I37145J-37131D01*
G02X4179130Y5706350I-21346J7114D01*
G01X4170550Y5697770D01*
G02X4161750Y5692330I-15914J15906D01*
G03X4141200Y5679640I16581J-49835D01*
G01X4126540Y5664980D01*
G03X4112860Y5641110I37139J-37139D01*
G01X4110920Y5633690D01*
X4098770Y5624300D01*
X4095190D01*
G03X4079280Y5617710I-1J-22499D01*
G01X4013410Y5551840D01*
G02X3988890Y5546960I-15912J15910D01*
G01X3982580Y5549580D01*
X3975000Y5560910D01*
Y5716800D01*
G02X3981590Y5732710I22501J0D01*
G01X3995930Y5747050D01*
G03X4002520Y5762960I-15909J15909D01*
G01Y6074930D01*
G03X3995930Y6090840I-22499J1D01*
G01X3987090Y6099690D01*
G02Y6131510I15907J15910D01*
G01X3989270Y6133690D01*
X3991950Y6135200D01*
G03X4004940Y6145060I-29457J52295D01*
G01X4018450Y6158570D01*
G03X4025040Y6174480I-15910J15910D01*
G01Y6207330D01*
X4045600Y6227890D01*
Y6386270D01*
X4023300Y6408570D01*
Y6484690D01*
G03X4000800Y6507190I-22500J0D01*
G01X3947500D01*
G02X3925000Y6529690I0J22500D01*
G01Y6577500D01*
G02X3947500Y6600000I22500J0D01*
G01X4077500D01*
G03X4100000Y6622500I0J22500D01*
G01Y6787480D01*
G02X4122500Y6809980I22500J0D01*
G01X5052950D01*
G02X5070030Y6802130I3J-22501D01*
G01X5095470Y6772450D01*
X5098170Y6762980D01*
X5097420Y6758120D01*
G03X5157110Y6697280I52577J-8117D01*
G01X5158610Y6697480D01*
X5668940D01*
G02X5684850Y6690890I0J-22501D01*
G01X5693730Y6682010D01*
G02X5700300Y6667140I-15908J-15915D01*
G01X5701900Y6632660D01*
X5699240Y6624700D01*
X5696550Y6621460D01*
G03X5695190Y6619750I40948J-33963D01*
G01X5694270Y6618550D01*
X5686500Y6610770D01*
G02X5670590Y6604180I-15910J15911D01*
G01X5614230D01*
G03X5598320Y6597590I-1J-22499D01*
G01X5234010Y6233280D01*
G02X5209490Y6228400I-15912J15910D01*
G01X5203180Y6231020D01*
X5195600Y6242350D01*
Y6386270D01*
X5173300Y6408570D01*
Y6484690D01*
G03X5150800Y6507190I-22500J0D01*
G01X5079240D01*
G03X5056740Y6484690I0J-22500D01*
G01Y6412630D01*
X5034440Y6390330D01*
Y6233690D01*
X5055000Y6213130D01*
Y6187500D01*
G03X5075400Y6142410I60031J0D01*
G01X5078910Y6139330D01*
X5082890Y6130900D01*
X5084100Y6093430D01*
G02X5077520Y6076790I-22491J-727D01*
G01X5075900Y6075180D01*
X5072480Y6066910D01*
Y5537570D01*
G03X5079070Y5521660I22499J-1D01*
G01X5080210Y5520520D01*
X5083630Y5512260D01*
Y5487520D01*
G02X5061130Y5465020I-22500J0D01*
G01X4618850D01*
G02X4600810Y5474080I4J22499D01*
G37*
G36*
G01X8222340Y5678390D02*
X8369270Y5531450D01*
X8370190Y5530250D01*
G03X8444750Y5604810I42310J32250D01*
G01X8443550Y5605730D01*
X8300180Y5749090D01*
G02X8295300Y5773610I15910J15912D01*
G01X8297920Y5779920D01*
X8309250Y5787500D01*
X8494980D01*
G02X8517480Y5765000I0J-22500D01*
G01Y5467520D01*
G02X8494980Y5445020I-22500J0D01*
G01X8227480D01*
G03X8204980Y5422520I0J-22500D01*
G01Y5418760D01*
X8191800Y5405580D01*
X8175550D01*
Y5400000D01*
X6885000D01*
G03X6862500Y5377500I0J-22500D01*
G01Y5197500D01*
G02X6840000Y5175000I-22500J0D01*
G01X5965740D01*
X5956590Y5179350D01*
X5953380Y5183290D01*
G03X5896310Y5200170I-40878J-33291D01*
G01X5891180Y5198520D01*
X5880530Y5200220D01*
X5846760Y5224810D01*
G02X5837500Y5243000I13240J18192D01*
G01Y5315000D01*
G03X5815000Y5337500I-22500J0D01*
G01X5733590D01*
G02X5717680Y5344090I0J22501D01*
G01X5590840Y5470930D01*
G03X5574930Y5477520I-15909J-15909D01*
G01X5409980D01*
X5406590Y5480910D01*
G03X5390680Y5487500I-15910J-15910D01*
G01X5371090D01*
G02X5355180Y5494090I0J22501D01*
G01X5320600Y5528670D01*
X5318420Y5543370D01*
X5321920Y5549930D01*
G03X5327720Y5582110I-46921J25070D01*
G01X5327520Y5583610D01*
Y5618930D01*
G02X5334110Y5634840I22501J0D01*
G01X5427660Y5728390D01*
G02X5443570Y5734980I15910J-15911D01*
G01X5637430D01*
G03X5653340Y5741570I1J22499D01*
G01X5740160Y5828390D01*
G02X5756070Y5834980I15910J-15911D01*
G01X7506420D01*
G02X7522330Y5828390I0J-22501D01*
G01X7568410Y5782310D01*
G02X7575000Y5766400I-15911J-15910D01*
G01Y5760000D01*
G03X7597500Y5737500I22500J0D01*
G01X7603900D01*
G02X7619810Y5730910I0J-22501D01*
G01X7659150Y5691570D01*
G03X7675060Y5684980I15909J15909D01*
G01X8206430D01*
G02X8222340Y5678390I0J-22501D01*
G37*
G36*
G01X5572210Y5856460D02*
Y5935780D01*
G03X5549710Y5958280I-22500J0D01*
G01X5477650D01*
X5455350Y5980580D01*
X5346670D01*
G02X5325880Y5994470I-2J22500D01*
G01X5323270Y6000780D01*
X5325930Y6014150D01*
X5440160Y6128390D01*
G02X5456070Y6134980I15910J-15911D01*
G01X6024930D01*
G03X6040840Y6141570I1J22499D01*
G01X6120890Y6221620D01*
G02X6152710I15910J-15910D01*
G01X6243420Y6130920D01*
G03X6300000Y6107480I56580J56567D01*
G01X7079830D01*
G02X7095740Y6100890I1J-22499D01*
G01X7148560Y6048070D01*
X7151140Y6034440D01*
X7148350Y6028060D01*
G03X7143080Y5990880I64151J-28056D01*
G01X7143710Y5986060D01*
X7140890Y5976770D01*
X7115370Y5947680D01*
G02X7098460Y5940020I-16912J14839D01*
G01X5712570D01*
G03X5696660Y5933430I-1J-22499D01*
G01X5610620Y5847390D01*
G02X5586100Y5842510I-15912J15910D01*
G01X5579790Y5845130D01*
X5572210Y5856460D01*
G37*
G36*
G01X6037480Y6348970D02*
X6033630D01*
X6026370Y6351530D01*
X6023370Y6353950D01*
G03X6022270Y6354810I-33314J-41478D01*
G01X6021070Y6355730D01*
X5859110Y6517680D01*
G02X5852520Y6533590I15911J15910D01*
G01Y6662440D01*
G03X5845930Y6678350I-22499J1D01*
G01X5728350Y6795930D01*
G03X5712440Y6802520I-15909J-15909D01*
G01X5472050D01*
G02X5454970Y6810370I-3J22501D01*
G01X5429530Y6840050D01*
X5426830Y6849520D01*
X5427580Y6854380D01*
G03X5405380Y6906170I-52578J8115D01*
G01X5403740Y6907310D01*
X5402320Y6908730D01*
G02Y6940550I15912J15910D01*
G01X5417550Y6955780D01*
X5424900Y6959150D01*
X5428940Y6959450D01*
G03X5478180Y7013840I-3941J53051D01*
G01X5478070Y7018400D01*
X5481390Y7026860D01*
X5507060Y7053190D01*
G02X5523170Y7059980I16107J-15710D01*
G01X5593930D01*
G02X5609840Y7053390I0J-22501D01*
G01X5957620Y6705610D01*
G02X5964170Y6690950I-15916J-15905D01*
G01X5966070Y6656850D01*
X5963550Y6648950D01*
X5960950Y6645700D01*
G03X6009270Y6559730I41570J-33200D01*
G01X6014080Y6560350D01*
X6023350Y6557510D01*
X6052350Y6531980D01*
G02X6059980Y6515090I-14870J-16886D01*
G01Y6371470D01*
G02X6037480Y6348970I-22500J0D01*
G37*
G36*
G01X5500000Y5330780D02*
Y5349980D01*
G02X5522500Y5372480I22500J0D01*
G01X5531430D01*
G02X5547340Y5365890I0J-22501D01*
G01X5566540Y5346690D01*
G02X5571420Y5322170I-15910J-15912D01*
G01X5568800Y5315860D01*
X5557470Y5308280D01*
X5522500D01*
G02X5500000Y5330780I0J22500D01*
G37*
G36*
G01X7550000Y6115220D02*
Y6128540D01*
X7563180Y6141720D01*
X7569690D01*
Y6235780D01*
G03X7547190Y6258280I-22500J0D01*
G01X7475130D01*
X7452830Y6280580D01*
X7305510D01*
G03X7283010Y6258080I0J-22500D01*
G01Y6239480D01*
G02X7260510Y6216980I-22500J0D01*
G01X7259350D01*
X7258200Y6217100D01*
G03X7250000Y6217520I-8188J-79601D01*
G01X7214770D01*
G02X7198860Y6224110I-1J22499D01*
G01X7162040Y6260930D01*
G03X7146130Y6267520I-15910J-15911D01*
G01X6342470D01*
G02X6326560Y6274110I-1J22499D01*
G01X6299110Y6301560D01*
G02X6292520Y6317470I15909J15909D01*
G01Y6761330D01*
G03X6285930Y6777240I-22501J0D01*
G01X6019080Y7044080D01*
G03X5887330Y7014930I-56581J-56582D01*
G01X5885350Y7009510D01*
X5876680Y7001920D01*
X5834010Y6992480D01*
G02X5813240Y6998540I-4860J21968D01*
G01X5678370Y7133400D01*
G02X5673490Y7157920I15910J15912D01*
G01X5676110Y7164230D01*
X5687440Y7171810D01*
X5750000D01*
G03X5801440Y7238530I0J53190D01*
G01X5800110Y7243590D01*
X5802180Y7253850D01*
X5827140Y7286220D01*
G02X5844960Y7294980I17818J-13740D01*
G01X7092890D01*
G02X7108800Y7288390I0J-22500D01*
G01X7208120Y7189070D01*
G03X7224030Y7182480I15910J15910D01*
G01X7355390D01*
G02X7371300Y7175890I0J-22500D01*
G01X7725890Y6821300D01*
G02X7732480Y6805390I-15910J-15910D01*
G01Y6115220D01*
G02X7709980Y6092720I-22500J0D01*
G01X7572500D01*
G02X7550000Y6115220I0J22500D01*
G37*
G36*
G01X6050000Y2810000D02*
Y4990000D01*
G02X6072500Y5012500I22500J0D01*
G01X6189690D01*
X6200420Y5006020D01*
X6203330Y5000470D01*
G03X6296670I46670J24530D01*
G01X6299580Y5006020D01*
X6310310Y5012500D01*
X6515000D01*
G02X6537500Y4990000I0J-22500D01*
G01Y4146820D01*
G03X6544090Y4130910I22500J0D01*
G01X6905910Y3769090D01*
G02X6912500Y3753180I-15910J-15910D01*
G01Y3343280D01*
G02X6890000Y3320780I-22500J0D01*
G01X6852810D01*
G03X6830310Y3298280I0J-22500D01*
G01Y3226720D01*
G03X6852810Y3204220I22500J0D01*
G01X6890000D01*
G02X6912500Y3181720I0J-22500D01*
G01Y2810000D01*
G02X6890000Y2787500I-22500J0D01*
G01X6072500D01*
G02X6050000Y2810000I0J22500D01*
G37*
G36*
G01X6888960Y4323100D02*
X6889850Y4328020D01*
G03X6853310Y4388300I-52350J9482D01*
G01X6846260Y4390490D01*
X6837500Y4402390D01*
Y4802500D01*
G02X6860000Y4825000I22500J0D01*
G01X7222500D01*
X7223960Y4824810D01*
G03X7235650Y4824040I11712J88689D01*
G01X7489650D01*
G03X7501340Y4824810I-22J89459D01*
G01X7502800Y4825000D01*
X7665000D01*
G02X7687500Y4802500I0J-22500D01*
G01Y4462720D01*
G02X7665000Y4440220I-22500J0D01*
G01X7574780D01*
G03X7552280Y4417720I0J-22500D01*
G01Y4345000D01*
X7555910Y4341370D01*
G02X7562500Y4325460I-15910J-15910D01*
G01Y4297500D01*
G02X7540000Y4275000I-22500J0D01*
G01X7490220D01*
G02X7467720Y4297500I0J22500D01*
G01Y4357720D01*
G03X7445220Y4380220I-22500J0D01*
G01X7342810D01*
X7338870Y4376280D01*
G02X7322960Y4369690I-15910J15910D01*
G01X7201720D01*
G03X7179220Y4347190I0J-22500D01*
G01Y4297500D01*
G02X7156720Y4275000I-22500J0D01*
G01X6934130D01*
G02X6916860Y4283080I1J22499D01*
G01X6891510Y4313430D01*
X6888960Y4323100D01*
G37*
G36*
G01X6987500Y3097500D02*
Y3181720D01*
G02X7010000Y3204220I22500J0D01*
G01X7072190D01*
G03X7094690Y3226720I0J22500D01*
G01Y3298280D01*
G03X7072190Y3320780I-22500J0D01*
G01X7010000D01*
G02X6987500Y3343280I0J22500D01*
G01Y3740000D01*
G02X7010000Y3762500I22500J0D01*
G01X7752500D01*
G02X7775000Y3740000I0J-22500D01*
G01Y3350220D01*
G02X7752500Y3327720I-22500J0D01*
G01X7707280D01*
G03X7684780Y3305220I0J-22500D01*
G01Y3305020D01*
G02X7662280Y3282520I-22500J0D01*
G01X7654980Y3275220D01*
Y3262500D01*
X7650000D01*
Y3215220D01*
G02X7627500Y3192720I-22500J0D01*
G01X7505310D01*
X7501370Y3188780D01*
G02X7485460Y3182190I-15910J15910D01*
G01X7364220D01*
G03X7341720Y3159690I0J-22500D01*
G01Y3097500D01*
G02X7319220Y3075000I-22500J0D01*
G01X7010000D01*
G02X6987500Y3097500I0J22500D01*
G37*
G36*
G01X7000000Y3835000D02*
Y4165000D01*
G02X7022500Y4187500I22500J0D01*
G01X7156720D01*
G02X7179220Y4165000I0J-22500D01*
G01Y4127810D01*
G03X7201720Y4105310I22500J0D01*
G01X7321750D01*
X7325690Y4101370D01*
G03X7341600Y4094780I15910J15910D01*
G01X7465000D01*
G02X7487500Y4072280I0J-22500D01*
G01Y3835000D01*
G02X7465000Y3812500I-22500J0D01*
G01X7022500D01*
G02X7000000Y3835000I0J22500D01*
G37*
G36*
G01X7930910Y4819090D02*
X7731590Y5018410D01*
G03X7715680Y5025000I-15910J-15910D01*
G01X7671820D01*
G02X7655910Y5031590I0J22500D01*
G01X7602370Y5085130D01*
G02X7595780Y5101040I15910J15910D01*
G01Y5252500D01*
G02X7618280Y5275000I22500J0D01*
G01X7690680D01*
G02X7706590Y5268410I0J-22500D01*
G01X7905910Y5069090D01*
G03X7921820Y5062500I15910J15910D01*
G01X8465680D01*
G03X8481590Y5069090I0J22500D01*
G01X8518410Y5105910D01*
G03X8525000Y5121820I-15910J15910D01*
G01Y5240000D01*
G03X8502500Y5262500I-22500J0D01*
G01X8354690D01*
G02X8332190Y5285000I0J22500D01*
G01Y5377500D01*
G02X8354690Y5400000I22500J0D01*
G01X8528180D01*
G03X8544090Y5406590I0J22500D01*
G01X8555910Y5418410D01*
G03X8562500Y5434320I-15910J15910D01*
G01Y5765000D01*
G02X8585000Y5787500I22500J0D01*
G01X8653180D01*
G03X8669090Y5794090I0J22500D01*
G01X8671580Y5796580D01*
X8675000Y5804840D01*
Y5806600D01*
X8688180Y5819780D01*
X8757720D01*
G03X8780220Y5842280I0J22500D01*
G01Y5902500D01*
G02X8802720Y5925000I22500J0D01*
G01X8865000D01*
G02X8887500Y5902500I0J-22500D01*
G01Y5722500D01*
G02X8865000Y5700000I-22500J0D01*
G01X8759320D01*
G03X8743410Y5693410I0J-22500D01*
G01X8706590Y5656590D01*
G03X8700000Y5640680I15910J-15910D01*
G01Y5184320D01*
G03X8706590Y5168410I22500J0D01*
G01X8718410Y5156590D01*
G03X8734320Y5150000I15910J15910D01*
G01X8827500D01*
G02X8850000Y5127500I0J-22500D01*
G01Y4835000D01*
G02X8827500Y4812500I-22500J0D01*
G01X7946820D01*
G02X7930910Y4819090I0J22500D01*
G37*
G36*
G01X7900000Y2935000D02*
Y2949780D01*
G02X7922500Y2972280I22500J0D01*
G01X7942720D01*
G03X7965220Y2994780I0J22500D01*
G01Y2994980D01*
G02X7987720Y3017480I22500J0D01*
G01X7995020Y3024780D01*
Y3260020D01*
G03X7972520Y3282520I-22500J0D01*
G01X7965220Y3289820D01*
Y3305220D01*
G03X7942720Y3327720I-22500J0D01*
G01X7922500D01*
G02X7900000Y3350220I0J22500D01*
G01Y3740000D01*
G02X7922500Y3762500I22500J0D01*
G01X8827500D01*
G02X8850000Y3740000I0J-22500D01*
G01Y3197500D01*
G02X8827500Y3175000I-22500J0D01*
G01X8502720D01*
G02X8480220Y3197500I0J22500D01*
G01Y3245220D01*
G03X8457720Y3267720I-22500J0D01*
G01X8355310D01*
X8351370Y3263780D01*
G02X8335460Y3257190I-15910J15910D01*
G01X8214220D01*
G03X8191720Y3234690I0J-22500D01*
G01Y3185000D01*
G02X8169220Y3162500I-22500J0D01*
G01X8162500D01*
Y2935000D01*
G02X8140000Y2912500I-22500J0D01*
G01X7922500D01*
G02X7900000Y2935000I0J22500D01*
G37*
G36*
G01X7862500Y3872500D02*
Y4122280D01*
G02X7885000Y4144780I22500J0D01*
G01X7925220D01*
G03X7947720Y4167280I0J22500D01*
G01Y4204300D01*
X7970020Y4226600D01*
Y4354340D01*
X7947720Y4376640D01*
Y4417720D01*
G03X7925220Y4440220I-22500J0D01*
G01X7850100D01*
G02X7829310Y4454110I-3J22499D01*
G01X7826690Y4460420D01*
X7829350Y4473790D01*
X7836470Y4480910D01*
G02X7852380Y4487500I15910J-15910D01*
G01X8040680D01*
G02X8056590Y4480910I0J-22500D01*
G01X8059080Y4478420D01*
X8062500Y4470160D01*
Y4260000D01*
G03X8085000Y4237500I22500J0D01*
G01X8091720D01*
Y4165310D01*
G03X8114220Y4142810I22500J0D01*
G01X8185780D01*
G03X8208280Y4165310I0J22500D01*
G01Y4215000D01*
G02X8230780Y4237500I22500J0D01*
G01X8234780D01*
G02X8257280Y4215000I0J-22500D01*
G01Y4154780D01*
G03X8279780Y4132280I22500J0D01*
G01X8370220D01*
G03X8392720Y4154780I0J22500D01*
G01Y4215000D01*
G02X8415220Y4237500I22500J0D01*
G01X8890000D01*
G02X8912500Y4215000I0J-22500D01*
G01Y3872500D01*
G02X8890000Y3850000I-22500J0D01*
G01X7885000D01*
G02X7862500Y3872500I0J22500D01*
G37*
G36*
G01X8208280Y4360000D02*
Y4384690D01*
G03X8185780Y4407190I-22500J0D01*
G01X8135000D01*
G02X8112500Y4429690I0J22500D01*
G01Y4677500D01*
G02X8135000Y4700000I22500J0D01*
G01X8840000D01*
G02X8862500Y4677500I0J-22500D01*
G01Y4360000D01*
G02X8840000Y4337500I-22500J0D01*
G01X8415220D01*
G02X8392720Y4360000I0J22500D01*
G01Y4395220D01*
G03X8370220Y4417720I-22500J0D01*
G01X8279780D01*
G03X8257280Y4395220I0J-22500D01*
G01Y4360000D01*
G02X8234780Y4337500I-22500J0D01*
G01X8230780D01*
G02X8208280Y4360000I0J22500D01*
G37*
G36*
G01X8910020Y5654980D02*
G03X8932520Y5677480I0J22500D01*
G01Y5947520D01*
G03X8910020Y5970020I-22500J0D01*
G01X8810000D01*
G02X8787500Y5992520I0J22500D01*
G01Y6219980D01*
G02X8810000Y6242480I22500J0D01*
G01X8849180D01*
G02X8865090Y6235890I0J-22501D01*
G01X8998390Y6102590D01*
G02X9004980Y6086680I-15911J-15910D01*
G01Y5422500D01*
G02X8982480Y5400000I-22500J0D01*
G01X8767520D01*
G02X8745020Y5422500I0J22500D01*
G01Y5622030D01*
G02X8751610Y5637940I22500J0D01*
G01X8762060Y5648390D01*
G02X8777970Y5654980I15910J-15910D01*
G01X8910020D01*
G37*
%LPC*%
G75*
G36*
G01X1625700Y6961800D02*
X1516470Y6852570D01*
G02X1500560Y6845980I-15910J15910D01*
G01X1250000D01*
G02Y6954020I0J54020D01*
G01X1455800D01*
G03X1471710Y6960610I0J22500D01*
G01X1549300Y7038200D01*
G02X1625700Y6961800I38200J-38200D01*
G37*
G36*
G01X316740Y6265320D02*
G03X333010Y6286940I-6230J21620D01*
G01Y6395580D01*
G02X355510Y6418080I22500J0D01*
G01X931990D01*
G02X954490Y6395580I0J-22500D01*
G01Y6212020D01*
X955730Y6206860D01*
X956940Y6204480D01*
G02X738750Y6195040I-106942J-54480D01*
G01X740860Y6200240D01*
X739690Y6211400D01*
X715700Y6246990D01*
G03X697040Y6256920I-18661J-12569D01*
G01X505000D01*
G03X482500Y6234420I0J-22500D01*
G01Y6206940D01*
G02X475910Y6191030I-22500J0D01*
G01X470740Y6185860D01*
X467420Y6175450D01*
X468330Y6170060D01*
G02X316740Y6265320I-118331J-20059D01*
G37*
G36*
G01X2145340Y2659980D02*
X1792160D01*
X1791340Y2659920D01*
G02Y2765080I-3840J52580D01*
G01X1792160Y2765020D01*
X2145340D01*
X2146160Y2765080D01*
G02Y2659920I3840J-52580D01*
G01X2145340Y2659980D01*
G37*
G36*
G01X3774450Y644420D02*
X3608690D01*
X3588130Y664980D01*
X3584460D01*
G02X3568550Y671570I0J22500D01*
G01X3507560Y732560D01*
G02X3520190Y827090I42441J42438D01*
G01X3524750Y829710D01*
X3530610Y838420D01*
X3536040Y879080D01*
G03X3529650Y897970I-22300J2982D01*
G01X3507560Y920060D01*
G02X3592440Y1004940I42440J42440D01*
G01X3610210Y987170D01*
G03X3626120Y980580I15910J15910D01*
G01X3761270D01*
X3783570Y958280D01*
X3859690D01*
G02X3882190Y935780I0J-22500D01*
G01Y864220D01*
G02X3859690Y841720I-22500J0D01*
G01X3796950D01*
G03X3774450Y819220I0J-22500D01*
G01Y805780D01*
G03X3796950Y783280I22500J0D01*
G01X3859690D01*
G02X3882190Y760780I0J-22500D01*
G01Y689220D01*
G02X3859690Y666720I-22500J0D01*
G01X3787630D01*
X3774450Y653540D01*
Y644420D01*
G37*
G36*
G01X2968080Y5499450D02*
Y5343010D01*
G02X2945580Y5320510I-22500J0D01*
G01X2829420D01*
G02X2806920Y5343010I0J22500D01*
G01X2799970Y5349960D01*
X2786980D01*
G02X2771070Y5356550I0J22500D01*
G01X2721570Y5406050D01*
G02X2714980Y5421960I15910J15910D01*
G01Y5475000D01*
G02X2780270Y5534790I60022J0D01*
G01X2784990Y5534370D01*
X2793950Y5537410D01*
X2821920Y5563020D01*
G03X2829220Y5579610I-15201J16590D01*
G01Y5584690D01*
G02X2851720Y5607190I22500J0D01*
G01X2923280D01*
G02X2945780Y5584690I0J-22500D01*
G01Y5512630D01*
X2958960Y5499450D01*
X2968080D01*
G37*
G36*
G01X2945580Y4958010D02*
X2829420D01*
G02X2806920Y4980510I0J22500D01*
G01X2799970Y4987460D01*
X2786980D01*
G02X2771070Y4994050I0J22500D01*
G01X2732560Y5032560D01*
G02X2781850Y5134630I42440J42442D01*
G01X2783130Y5134480D01*
X2806920D01*
Y5136950D01*
X2816040D01*
X2829220Y5150130D01*
Y5222190D01*
G02X2851720Y5244690I22500J0D01*
G01X2923280D01*
G02X2945780Y5222190I0J-22500D01*
G01Y5150130D01*
X2958960Y5136950D01*
X2968080D01*
Y4980510D01*
G02X2945580Y4958010I-22500J0D01*
G37*
G36*
G01X4518450Y6158570D02*
X4504940Y6145060D01*
G02X4402970Y6195140I-42439J42441D01*
G01X4403150Y6196570D01*
Y6207330D01*
X4389970Y6220510D01*
X4384440D01*
Y6386270D01*
X4406740Y6408570D01*
Y6484690D01*
G02X4429240Y6507190I22500J0D01*
G01X4500800D01*
G02X4523300Y6484690I0J-22500D01*
G01Y6412630D01*
X4536480Y6399450D01*
X4545600D01*
Y6233690D01*
X4525040Y6213130D01*
Y6174480D01*
G02X4518450Y6158570I-22500J0D01*
G37*
G54D54*
X8705000Y1537500D03*
G54D46*
X350000Y4437500D03*
Y5550000D03*
G54D53*
X8405000Y1067500D03*
G54D48*
X9517500Y6817500D03*
X8827500D03*
G54D44*
X1087500Y6900000D03*
X9725000Y6250000D03*
X5837500Y4187500D03*
X2112500Y3425000D03*
X7175000Y6400000D03*
X7412500Y6887500D03*
G54D49*
X6777000Y1514500D03*
Y1006500D03*
Y498500D03*
X6523000Y1768500D03*
Y1260500D03*
Y752500D03*
G54D47*
X1012500Y525000D03*
X1600000Y2937500D03*
X5112500Y712500D03*
X2500000Y2825000D03*
X5181250Y2668750D03*
X5187500Y2350000D03*
X6662500Y5337500D03*
G54D51*
X6777000Y2276500D03*
Y1768500D03*
Y1260500D03*
Y752500D03*
X6523000Y1514500D03*
Y1006500D03*
Y498500D03*
G54D50*
X9301320Y5585460D03*
Y5145460D03*
G54D56*
X6275000Y7112500D03*
G54D45*
X362500Y6650000D03*
G54D55*
X6706250Y7112500D03*
G54D52*
X9005000Y1067500D03*
%LPD*%
G75*
G54D10*
X350000Y350000D03*
Y7650000D03*
X9650000Y350000D03*
Y7650000D03*
G54D20*
X1825000Y1625000D03*
X6777000Y498500D03*
X6523000D03*
X6777000Y1006500D03*
Y752500D03*
X6523000D03*
Y1006500D03*
X6777000Y1514500D03*
Y1260500D03*
X6523000D03*
Y1514500D03*
X6777000Y2022500D03*
Y1768500D03*
X6523000D03*
Y2022500D03*
X6777000Y2276500D03*
X6523000D03*
G54D11*
X162500Y1650000D03*
X150000Y2150000D03*
X162500Y2650000D03*
Y4650000D03*
Y5150000D03*
Y5650000D03*
Y6150000D03*
Y6650000D03*
Y7150000D03*
X575000Y4250000D03*
X550000Y5387500D03*
X1087470Y3187530D03*
X1250000Y6900000D03*
X1087500D03*
X825000Y7837500D03*
X1675000Y4612500D03*
X1337500Y4875000D03*
X1675000D03*
X1587500Y5625000D03*
X1675000Y5300000D03*
X1587500Y5900000D03*
Y7000000D03*
X1725000Y7387500D03*
X1325000Y7837500D03*
X2112500Y3425000D03*
X2162500Y3862500D03*
X2075000Y3662500D03*
X2200000Y4325000D03*
X2087500Y4150000D03*
X2112500Y4475000D03*
X1837500Y5275000D03*
X2212500Y4950000D03*
Y5112500D03*
X1837500Y5450000D03*
X2587500Y3675000D03*
X2575000Y3425000D03*
X2462500Y4637500D03*
X2587500Y4475000D03*
X2612500Y4725000D03*
X2587500Y4372480D03*
X2612500Y4862500D03*
X2275000Y6187500D03*
X2450000Y6125000D03*
X2275000Y6062500D03*
X2675000Y7050000D03*
Y6950000D03*
X3100000Y1400000D03*
X3025000Y3475000D03*
X3150000Y4025000D03*
X3025000D03*
X3150000Y4475000D03*
X2775000Y5075000D03*
X3037500Y5062500D03*
X3112500Y5562500D03*
X2775000Y5475000D03*
X3012500Y5500000D03*
X2725000Y5925000D03*
X3112500Y6937500D03*
X2925000Y7325000D03*
X2825000Y7200000D03*
Y7837500D03*
X3575000Y437500D03*
X3234980Y762500D03*
X3550000Y1125000D03*
Y1425000D03*
X3512500Y1737500D03*
X3387500D03*
X3262500D03*
X3525000Y1900000D03*
X3400000Y2350000D03*
Y2025000D03*
X3525000Y2175000D03*
X3400000Y2675000D03*
Y3100000D03*
Y3600000D03*
X3612500Y3437500D03*
X3400000Y4050000D03*
Y4512500D03*
X3175000Y5275000D03*
Y5175000D03*
X3300000D03*
Y5275000D03*
X3175000Y5425000D03*
X3275000D03*
X3325000Y5712500D03*
X3287500Y6187500D03*
X3412500Y6000000D03*
Y6187500D03*
X3537500D03*
X3387500Y6650000D03*
X3500000D03*
X3287500Y6562500D03*
X3225000Y6940020D03*
X3925000Y900000D03*
X3862500Y1940480D03*
X3937500Y2000000D03*
X3800000Y2187500D03*
X3825000Y2075000D03*
X3800000Y2712500D03*
X4050000Y2825000D03*
Y2950000D03*
X3800000Y2612500D03*
X3850000Y3125000D03*
Y3275000D03*
X3625000D03*
X3975000Y3500000D03*
X3850000D03*
X4000000Y4150000D03*
X3737500Y4850000D03*
X3875000Y5450000D03*
X3750000Y5325000D03*
X3987530Y5587530D03*
X3962500Y6187500D03*
X3825000D03*
X3962500Y6562500D03*
X3762500Y6900000D03*
X3650000D03*
X4287500Y425000D03*
X4112500Y1962500D03*
Y2075000D03*
X4150000Y3500000D03*
Y3600000D03*
X4137500Y4075000D03*
X4262500D03*
X4212500Y3950000D03*
X4487500Y4025000D03*
X4512500Y4575000D03*
X4462500Y6187500D03*
X4312500Y6175000D03*
X4112500D03*
X4462500Y6562500D03*
X4550000Y7475000D03*
X4325000Y7837500D03*
X5000000Y425000D03*
X4637500D03*
X4650000Y1525000D03*
X4775000Y1500000D03*
X4650000Y1650000D03*
Y1775000D03*
X4775000D03*
Y1900000D03*
X4650000D03*
Y2037500D03*
X5000000Y3562500D03*
X4637500Y4675000D03*
X4862500Y4425000D03*
X5000000D03*
X4662500Y5712500D03*
X4600000Y5500000D03*
X4825000Y6187500D03*
X4725000Y6189160D03*
X5012500Y6562500D03*
X4812500D03*
X4762500Y7000000D03*
X4637500Y7287500D03*
X5025000Y825000D03*
Y925000D03*
Y1225000D03*
X5025110Y1775110D03*
X5025000Y1900000D03*
X5075000Y2225000D03*
X5187500Y2500000D03*
Y2825000D03*
X5075000Y2956250D03*
X5125000Y3562500D03*
X5062500Y4287500D03*
X5125000Y4400000D03*
X5312500D03*
X5225000Y4600000D03*
X5200000Y4775000D03*
X5325000D03*
X5275000Y5250000D03*
X5325000Y4950000D03*
X5200000D03*
X5250000Y5125000D03*
X5275000Y5737500D03*
Y5575000D03*
Y5400000D03*
X5037500Y5700000D03*
Y5487500D03*
X5115020Y6187500D03*
X5275000Y5900000D03*
X5050000Y6100000D03*
X5219110Y6555890D03*
X5375000Y6862500D03*
X5150000Y6750000D03*
X5250000Y7050000D03*
X5087500Y7000000D03*
X5425000Y7012500D03*
X5062500Y7475000D03*
X5325000Y7837500D03*
X5525000Y1050000D03*
Y875000D03*
Y1400000D03*
Y1225000D03*
Y1575000D03*
X5600000Y4300000D03*
X5837500Y4187500D03*
X5825000Y3975000D03*
X5750000Y4775000D03*
X5925000Y4537500D03*
X5750000Y4625000D03*
X5612500Y5212500D03*
X5662500Y5587500D03*
X5612500Y5937500D03*
X5737500Y6587500D03*
Y6437500D03*
X5750000Y7100000D03*
X5600000Y6950000D03*
X5750000Y7225000D03*
X5862500Y7575000D03*
X5625000Y7225000D03*
X5825000Y7837500D03*
X6250000Y3875000D03*
Y3775000D03*
X6350000D03*
Y3875000D03*
X6250000Y3975000D03*
X6350000D03*
X6325000Y4750000D03*
Y4650000D03*
X6225000Y4750000D03*
Y4650000D03*
Y4550000D03*
X6325000D03*
Y4850000D03*
X6225000D03*
X6162500Y5587500D03*
Y5812500D03*
X6287500Y5950000D03*
X5990020Y6312500D03*
X6325000Y6537500D03*
X6387500Y6312500D03*
X6002520Y6612500D03*
X6325000Y7112500D03*
X6225000D03*
X6100000Y6725000D03*
X6325000Y6712500D03*
Y6887500D03*
X6112500Y7012500D03*
X6375000Y7575000D03*
X6325000Y7837500D03*
X6450000Y3875000D03*
Y3775000D03*
Y3975000D03*
X6837500Y4100000D03*
Y4337500D03*
X6737500Y4687500D03*
Y4537500D03*
Y4837500D03*
X6675000Y5587500D03*
Y5812500D03*
X6525000Y6050000D03*
X6500000Y6537500D03*
X6675000D03*
X6762500Y7112500D03*
X6650000D03*
X6500000Y6887500D03*
X6675000Y6712500D03*
Y6887500D03*
X6500000Y6712500D03*
X6537500Y7575000D03*
X6825000Y7837500D03*
X7350000Y3850000D03*
X7250000D03*
Y3950000D03*
X7350000D03*
X7125000Y4575000D03*
Y4475000D03*
X7325000Y4575000D03*
X7225000D03*
Y4475000D03*
X7325000D03*
X7012500Y4950000D03*
X7300000Y5587500D03*
X7212500Y6000000D03*
X7175000Y6400000D03*
X7112500Y6825000D03*
X7300000Y6987500D03*
X7297520Y7150000D03*
Y7475000D03*
Y7312500D03*
X7325000Y7837500D03*
X7600000Y2725000D03*
Y2825000D03*
X7500000Y2625000D03*
X7400000D03*
X7500000Y2725000D03*
X7400000D03*
X7500000Y2825000D03*
X7400000D03*
Y3375000D03*
X7500000D03*
Y3275000D03*
X7400000D03*
X7450000Y3850000D03*
X7725000D03*
X7500000Y3475000D03*
X7400000D03*
X7450000Y3950000D03*
X7775000Y4562500D03*
X7525000Y4575000D03*
X7425000D03*
Y4475000D03*
X7662500Y5162500D03*
X7362500Y5350000D03*
X7500000Y5812500D03*
X7425000Y6462500D03*
X7550000Y6900000D03*
X7412500Y6887500D03*
X7825000Y7837500D03*
X8150000Y137500D03*
X8162500Y612500D03*
X8249810Y2900260D03*
X8275000Y4600000D03*
X8175000D03*
Y4500000D03*
X8275000D03*
X7925000Y5150000D03*
Y5512500D03*
X7950000Y5325000D03*
X8150000Y5862500D03*
X8062500Y6225000D03*
X8650000Y137500D03*
X8662500Y612500D03*
X8632500Y2367500D03*
X8349810Y2900260D03*
X8449810D03*
X8700000Y3375000D03*
Y3275000D03*
X8600000Y3375000D03*
Y3275000D03*
Y3475000D03*
X8700000D03*
X8701280Y3898370D03*
Y3998370D03*
Y4098370D03*
X8601280Y3898370D03*
Y3998370D03*
Y4098370D03*
X8375000Y4600000D03*
Y4500000D03*
X8425000Y5150000D03*
X8412500Y5562500D03*
Y5475000D03*
Y5325000D03*
X8662500Y6162500D03*
X8325000Y7837500D03*
X9150000Y137500D03*
X9162500Y612500D03*
X8800000Y3375000D03*
Y3275000D03*
Y3475000D03*
X8801280Y3898370D03*
Y3998370D03*
Y4098370D03*
X8775000Y5225000D03*
X8800000Y5125000D03*
X8787500Y5425000D03*
X8812500Y5562500D03*
X8825000Y6037500D03*
Y7837500D03*
X9275000Y3062500D03*
X9325000Y7837500D03*
X9850000Y637500D03*
Y1137500D03*
Y1637500D03*
Y2137500D03*
Y2637500D03*
Y3137500D03*
Y3637500D03*
Y4137500D03*
Y4637500D03*
Y5137500D03*
Y5637500D03*
Y6137500D03*
X9725000Y6250000D03*
G54D21*
X2887500Y5047480D03*
Y5177520D03*
Y5409980D03*
Y5540020D03*
X3600000Y6565020D03*
Y6434980D03*
X3290020Y6309980D03*
Y6440020D03*
X3337500Y6772480D03*
Y6902520D03*
X3500000Y6772480D03*
Y6902520D03*
X3725000Y6565020D03*
Y6434980D03*
X3965020Y6309980D03*
Y6440020D03*
X4465020Y6309980D03*
Y6440020D03*
X4900000Y859980D03*
Y990020D03*
Y1247480D03*
Y1377520D03*
X5115020Y6309980D03*
Y6440020D03*
X7237500Y4302520D03*
Y4172480D03*
X7362500Y5227520D03*
Y5097480D03*
X7400000Y3115020D03*
Y2984980D03*
X7537500Y5227520D03*
Y5097480D03*
X8250000Y3190020D03*
Y3059980D03*
X8150000Y4209980D03*
Y4340020D03*
X8062500Y6090020D03*
Y5959980D03*
X7900000Y6090020D03*
Y5959980D03*
G54D30*
X8405000Y1067500D03*
G54D12*
X312500Y1884220D03*
X287500Y1550000D03*
X312500Y1750000D03*
X375000Y1200000D03*
X587500Y1762500D03*
X537500Y2150000D03*
X550000Y2037500D03*
X437500Y2087500D03*
Y2500000D03*
X775000Y3650000D03*
X1012500Y525000D03*
X1187500Y825000D03*
X1050000Y1175000D03*
X837500Y1387500D03*
X900000Y1187500D03*
X862500Y1787500D03*
X875000Y2375000D03*
X1012500Y2962500D03*
X1150000D03*
X1625000Y1175000D03*
X1750000Y1475000D03*
X1475000Y1175000D03*
X1400000Y1850000D03*
Y2225000D03*
X1600000Y2937500D03*
X1462500Y2962500D03*
X1737500Y3975000D03*
X1787500Y1037500D03*
X1887500Y1250000D03*
X2012500D03*
X2162500Y1900000D03*
X1950000Y1612500D03*
X2162500Y2200000D03*
X1962500Y2125000D03*
X2050000Y2437500D03*
X2162500Y2100000D03*
X2150000Y2712500D03*
X1787500D03*
X2237500Y1012500D03*
Y837500D03*
X2275000Y1642000D03*
X2262500Y1800000D03*
X2500000Y2825000D03*
X2712500Y750000D03*
X2700000Y1112500D03*
X3100000Y1562500D03*
X2862500Y6762500D03*
X3550000Y775000D03*
Y962500D03*
X3387500Y2112500D03*
X3400000Y2487500D03*
X3925000Y1150000D03*
Y1450000D03*
X3637500Y6237500D03*
X3762500Y6712500D03*
X3637500D03*
X3812500Y6975000D03*
X4450000Y4125000D03*
X4775000Y1075000D03*
Y1375000D03*
X4675000Y4025000D03*
Y4162500D03*
X4900230Y4187500D03*
X5112500Y712500D03*
X5187500Y2350000D03*
X5181250Y2668750D03*
X5337500Y7050000D03*
X5525000Y612500D03*
Y712500D03*
X5887500Y5000000D03*
X5912500Y5150000D03*
X6250000Y5025000D03*
X6200000Y6037500D03*
X6300000Y6187500D03*
X5962500Y6987500D03*
X6462500Y5437500D03*
X6662500Y5337500D03*
X6525000Y6187500D03*
X7250000Y6137500D03*
X7962500Y6212500D03*
X8325000Y7562500D03*
G54D40*
G01X10000000Y250000D02*
Y7750000D01*
G03X9750000Y8000000I-250000J0D01*
G01X250000D01*
G03X0Y7750000I0J-250000D01*
G01Y250000D01*
G03X250000Y0I250000J0D01*
G01X9750000D01*
G03X10000000Y250000I0J250000D01*
G01X312500Y1750000D02*
Y1800000D01*
X250000Y1862500D01*
Y1900000D01*
X312500Y1962500D01*
Y2289280D01*
X887500Y2864280D01*
Y3276780D01*
X1550000Y3939280D01*
Y4050000D01*
X1912500Y4412500D01*
X2137500D01*
X2312500Y4587500D01*
Y6025000D01*
X2275000Y6062500D01*
G01X775000Y3650000D02*
Y3987500D01*
X650000Y4112500D01*
Y4125000D01*
X625000Y4150000D01*
Y4162500D01*
X612500D01*
X587500Y4187500D01*
X250000D01*
X175000Y4112500D01*
Y3150000D01*
X350000Y2975000D01*
G01X1887500Y1250000D02*
X1825000D01*
X1750000Y1325000D01*
X779220D01*
X659980Y1444240D01*
Y1500000D01*
G01X790020D02*
Y1572480D01*
X762500Y1600000D01*
X537500D01*
X450000Y1512500D01*
Y1275000D01*
X375000Y1200000D01*
G01X587500Y1762500D02*
X552000Y1798000D01*
X539500D01*
X375000Y1962500D01*
Y2275000D01*
X950000Y2850000D01*
Y3262500D01*
X1587500Y3900000D01*
Y4025000D01*
X1925000Y4362500D01*
X2150000D01*
X2362500Y4575000D01*
Y6100000D01*
X2275000Y6187500D01*
G01X2087500Y4150000D02*
X2000000Y4062500D01*
X1687500D01*
X1637500Y4012500D01*
Y3879280D01*
X1000000Y3241780D01*
Y3100000D01*
X1075000Y3025000D01*
Y2904280D01*
X475000Y2304280D01*
Y2137500D01*
X500000Y2112500D01*
Y2087500D01*
X550000Y2037500D01*
G01X2212500Y4950000D02*
X2150000Y4887500D01*
X1850000D01*
X1787500Y4825000D01*
Y4537500D01*
X1050000Y3800000D01*
Y3675000D01*
X725000Y3350000D01*
X489500D01*
X360500Y3221000D01*
G01X2212500Y5112500D02*
X2100000Y5000000D01*
X1875000D01*
X1737500Y4862500D01*
Y4575000D01*
X987500Y3825000D01*
Y3687500D01*
X775000Y3475000D01*
X614500D01*
G01X527520Y5225000D02*
X709980D01*
G01X552520Y6337500D02*
X734980D01*
G01X1058500Y2014500D02*
X1160500D01*
X1212500Y1962500D01*
Y1562500D01*
X1156500Y1506500D01*
X1058500D01*
G01X790020Y1500000D02*
X887500D01*
X894000Y1506500D01*
X1058500D01*
G01X1300000Y2087500D02*
X937500D01*
X912500Y2062500D01*
Y1925000D01*
X950000Y1887500D01*
X1058500D01*
G01X852520Y4250000D02*
Y4340920D01*
X850000Y4343440D01*
Y4437500D01*
G01D02*
Y5037500D01*
G01D02*
Y5131560D01*
X840020Y5141540D01*
Y5225000D01*
G01Y5387500D02*
Y5445960D01*
X850000Y5455940D01*
Y5550000D01*
G01Y6150000D02*
Y6280360D01*
X865020Y6295380D01*
Y6337500D01*
G01X862500Y6650000D02*
Y7250000D01*
G01D02*
Y7385400D01*
X852520Y7395380D01*
Y7450000D01*
G01X1825000Y1625000D02*
X1808500D01*
X1800000Y1633500D01*
X1566500D01*
G01D02*
X1404000D01*
X1300000Y1737500D01*
Y2087500D01*
G01X1566500Y2014500D02*
X1768330D01*
X1770330Y2012500D01*
X1834980D01*
G01X1566500Y2141500D02*
X1354000D01*
X1300000Y2087500D01*
G01X3112500Y6937500D02*
X3012500Y6837500D01*
Y6525000D01*
X2750000Y6262500D01*
X1962500D01*
X1775000Y6075000D01*
Y4975000D01*
X1675000Y4875000D01*
G01X3841500Y7398000D02*
X3727000Y7512500D01*
X2900000D01*
X2625000Y7237500D01*
X1937500D01*
X1812500Y7112500D01*
Y6600000D01*
X1675000Y6462500D01*
Y5300000D01*
G01X1965020Y2012500D02*
Y1909980D01*
X2037500Y1837500D01*
Y1400000D01*
X1887500Y1250000D01*
G01X2012500D02*
X2337500Y1575000D01*
Y2812500D01*
X1737500Y3412500D01*
Y3975000D01*
G01X1962500Y2125000D02*
X1875000D01*
X1834980Y2084980D01*
Y2012500D01*
G01X1787500Y2712500D02*
X2150000D01*
G01X2397480Y1012500D02*
X2237500D01*
G01X2397480Y837500D02*
X2237500D01*
G01X5625000Y7225000D02*
X5562500Y7162500D01*
X2912500D01*
X2862500Y7112500D01*
X2525000D01*
X2425000Y7012500D01*
Y6625000D01*
X2285500Y6485500D01*
G01X3762500Y6900000D02*
X3662500Y7000000D01*
X3050000D01*
X2912500Y6862500D01*
X2765200D01*
X2642200Y6739500D01*
X2539500D01*
G01X4675000Y4162500D02*
X4812500Y4025000D01*
Y3987500D01*
X4962500Y3837500D01*
X5175000D01*
X5425000Y3587500D01*
Y1375000D01*
X5162500Y1112500D01*
X4825000D01*
X4662500Y1275000D01*
X3400000D01*
X3175000Y1050000D01*
G01X4675000Y4025000D02*
X4725200D01*
X4762500Y3987700D01*
Y3962500D01*
X4937500Y3787500D01*
X5150000D01*
X5375000Y3562500D01*
Y1395720D01*
X5141780Y1162500D01*
X4850000D01*
X4687500Y1325000D01*
X3362500D01*
X3150000Y1112500D01*
X2700000D01*
G01X3175000Y5425000D02*
Y5837500D01*
X3200000Y5862500D01*
X3437500D01*
X3462500Y5837500D01*
Y5137500D01*
X3300000Y4975000D01*
Y4862500D01*
X2900000Y4462500D01*
Y2175000D01*
X3275000Y1800000D01*
X3325000D01*
X3387500Y1737500D01*
G01X3262500D02*
X2850000Y2150000D01*
Y4487500D01*
X3250000Y4887500D01*
Y5000000D01*
X3412500Y5162500D01*
Y5775000D01*
X3387500Y5800000D01*
X3250000D01*
X3225000Y5775000D01*
Y5475000D01*
X3275000Y5425000D01*
G01X4650000Y1525000D02*
X4600000Y1575000D01*
X3187500D01*
X2700000Y2062500D01*
Y4562500D01*
X3100000Y4962500D01*
Y5200000D01*
X3175000Y5275000D01*
G01Y5175000D02*
Y5087500D01*
X3150000Y5062500D01*
Y4937500D01*
X2750000Y4537500D01*
Y2087500D01*
X3212500Y1625000D01*
X4574320D01*
G01X4550000Y1675000D02*
X3237500D01*
X2800000Y2112500D01*
Y4512500D01*
X3200000Y4912500D01*
Y5025000D01*
X3225000Y5050000D01*
X3225680D01*
X3300000Y5124320D01*
Y5175000D01*
G01X3512500Y1737500D02*
X3400000Y1850000D01*
X3300000D01*
X2950000Y2200000D01*
Y4437500D01*
X3350000Y4837500D01*
Y4950000D01*
X3512500Y5112500D01*
Y5887500D01*
X3487500Y5912500D01*
X3150000D01*
X3112500Y5875000D01*
Y5562500D01*
G01X3025000Y4025000D02*
X3000000Y4000000D01*
Y3550000D01*
X3012500Y3537500D01*
X3075000D01*
X3087500Y3525000D01*
Y3425390D01*
X3074610Y3412500D01*
X3012890D01*
X3000000Y3399610D01*
Y2850000D01*
X3012500Y2837500D01*
X3075000D01*
X3087500Y2825000D01*
Y2775000D01*
X3075000Y2762500D01*
X3012500D01*
X3000000Y2750000D01*
Y2712500D01*
X3012500Y2700000D01*
X3075000D01*
X3087500Y2687500D01*
Y2650000D01*
X3075000Y2637500D01*
X3012500D01*
X3000000Y2625000D01*
Y2587500D01*
X3012500Y2575000D01*
X3075000D01*
X3087500Y2562500D01*
Y2525000D01*
X3075000Y2512500D01*
X3012500D01*
X3000000Y2500000D01*
Y2462500D01*
X3012500Y2450000D01*
X3075000D01*
X3087500Y2437500D01*
Y2400000D01*
X3075000Y2387500D01*
X3012500D01*
X3000000Y2375000D01*
Y2337500D01*
X3012500Y2325000D01*
X3075000D01*
X3087500Y2312500D01*
Y2287500D01*
X3075000Y2275000D01*
X3012500D01*
X3000000Y2262500D01*
Y2237500D01*
X3012500Y2225000D01*
X3062500D01*
X3075000Y2212500D01*
Y2150000D01*
X3325000Y1900000D01*
X3425000D01*
X3600000Y1725000D01*
X4525000D01*
G01X3150000Y4475000D02*
X3062510D01*
X3025000Y4437490D01*
Y4412890D01*
X3037890Y4400000D01*
X3137110D01*
X3150000Y4387110D01*
Y4362890D01*
X3137110Y4350000D01*
X3037890D01*
X3025000Y4337110D01*
Y4312890D01*
X3037890Y4300000D01*
X3137110D01*
X3150000Y4287110D01*
Y4262890D01*
X3137110Y4250000D01*
X3037890D01*
X3025000Y4237110D01*
Y4213550D01*
X3037890Y4200660D01*
X3137110D01*
X3150000Y4187770D01*
Y4162890D01*
X3137110Y4150000D01*
X3037890D01*
X3025000Y4137110D01*
Y4100390D01*
X3037890Y4087500D01*
X3074610D01*
X3087500Y4074610D01*
Y4012500D01*
X3050000Y3975000D01*
Y3598320D01*
X3060820Y3587500D01*
X3100000D01*
X3137500Y3550000D01*
Y3341090D01*
X3124610Y3328200D01*
X3062890D01*
X3050000Y3315310D01*
Y3297090D01*
X3062890Y3284200D01*
X3124610D01*
X3137500Y3271310D01*
Y3253090D01*
X3124610Y3240200D01*
X3062890D01*
X3050000Y3227310D01*
Y3209090D01*
X3062890Y3196200D01*
X3124610D01*
X3137500Y3183310D01*
Y3165090D01*
X3124610Y3152200D01*
X3062890D01*
X3050000Y3139310D01*
Y3121090D01*
X3062890Y3108200D01*
X3124610D01*
X3137500Y3095310D01*
Y3077090D01*
X3124610Y3064200D01*
X3062890D01*
X3050000Y3051310D01*
Y3033090D01*
X3062890Y3020200D01*
X3124610D01*
X3137500Y3007310D01*
Y2989090D01*
X3124610Y2976200D01*
X3062890D01*
X3050000Y2963310D01*
Y2917800D01*
X3067800Y2900000D01*
X3124610D01*
X3137500Y2887110D01*
Y2162500D01*
X3337500Y1962500D01*
X3537500D01*
X3662500Y1837500D01*
X4587500D01*
G01X3150000Y4025000D02*
X3212500Y4087500D01*
Y4625000D01*
X3468750Y4881250D01*
X3493750D01*
X3512500Y4862500D01*
Y4837500D01*
X3275000Y4600000D01*
Y3987500D01*
X3250000Y3962500D01*
X3125000D01*
X3100000Y3937500D01*
Y3916810D01*
X3112890Y3903920D01*
X3249610D01*
X3262500Y3891030D01*
Y3872810D01*
X3249610Y3859920D01*
X3112890D01*
X3100000Y3847030D01*
Y3828810D01*
X3112890Y3815920D01*
X3249610D01*
X3262500Y3803030D01*
Y3784810D01*
X3249610Y3771920D01*
X3112890D01*
X3100000Y3759030D01*
Y3740810D01*
X3112890Y3727920D01*
X3249610D01*
X3262500Y3715030D01*
Y3696810D01*
X3249610Y3683920D01*
X3112890D01*
X3100000Y3671030D01*
Y3650010D01*
X3112510Y3637500D01*
X3237500D01*
X3250000Y3625000D01*
Y3600390D01*
X3237110Y3587500D01*
X3200390D01*
X3187500Y3574610D01*
Y3550390D01*
X3200390Y3537500D01*
X3237110D01*
X3250000Y3524610D01*
Y3500390D01*
X3237110Y3487500D01*
X3200390D01*
X3187500Y3474610D01*
Y3450390D01*
X3200390Y3437500D01*
X3237110D01*
X3250000Y3424610D01*
Y3400390D01*
X3237110Y3387500D01*
X3200390D01*
X3187500Y3374610D01*
Y2186820D01*
X3349320Y2025000D01*
X3400000D01*
G01X5275000Y5737500D02*
X5212500Y5800000D01*
Y5975000D01*
X5425000Y6187500D01*
X6012500D01*
X6112500Y6287500D01*
Y6625000D01*
X5625000Y7112500D01*
X2950000D01*
X2887500Y7050000D01*
X2675000D01*
G01X5250000D02*
X5199320D01*
X5186820Y7062500D01*
X3000000D01*
X2887500Y6950000D01*
X2675000D01*
G01X3525000Y1900000D02*
X3637500Y1787500D01*
X4525000D01*
G01X3825000Y6187500D02*
X3950000Y6062500D01*
Y5775390D01*
X3937110Y5762500D01*
X3698120D01*
X3675000Y5739380D01*
Y5710660D01*
X3689640Y5696020D01*
X3897860D01*
X3912500Y5681380D01*
Y5660660D01*
X3897860Y5646020D01*
X3689640D01*
X3675000Y5631380D01*
Y5610660D01*
X3689640Y5596020D01*
X3897860D01*
X3912500Y5581380D01*
Y5560660D01*
X3897860Y5546020D01*
X3689640D01*
X3675000Y5531380D01*
Y4775000D01*
X3512500Y4612500D01*
Y3537500D01*
X3437500Y3462500D01*
Y3250000D01*
X3512500Y3175000D01*
Y2287500D01*
X3612500Y2187500D01*
X3800000D01*
G01X3825000Y2075000D02*
X3875000Y2125000D01*
Y2237110D01*
X3862110Y2250000D01*
X3625390D01*
X3612500Y2262890D01*
Y2293980D01*
X3627140Y2308620D01*
X3860360D01*
X3875000Y2323260D01*
Y2343980D01*
X3860360Y2358620D01*
X3577140D01*
X3562500Y2373260D01*
Y2408220D01*
X3577140Y2422860D01*
X3860360D01*
X3875000Y2437500D01*
Y2458220D01*
X3860360Y2472860D01*
X3577140D01*
X3562500Y2487500D01*
Y2508220D01*
X3577140Y2522860D01*
X3735360D01*
X3750000Y2537500D01*
Y2558220D01*
X3735360Y2572860D01*
X3577140D01*
X3562500Y2587500D01*
Y2608220D01*
X3577140Y2622860D01*
X3647860D01*
X3662500Y2637500D01*
Y2658220D01*
X3647860Y2672860D01*
X3589640D01*
X3562500Y2700000D01*
Y3225000D01*
X3487500Y3300000D01*
Y3437500D01*
X3562500Y3512500D01*
Y4437500D01*
X3575000Y4450000D01*
X3625000D01*
X3637500Y4437500D01*
Y3513180D01*
X3612500Y3488180D01*
Y3437500D01*
G01X3412500Y6187500D02*
X3562500Y6037500D01*
Y4812500D01*
X3325000Y4575000D01*
Y2262500D01*
X3700000Y1887500D01*
X4500000D01*
X4650000Y2037500D01*
G01X3525000Y2175000D02*
X3462500Y2237500D01*
Y3150000D01*
X3387500Y3225000D01*
Y3487500D01*
X3462500Y3562500D01*
Y4637500D01*
X3625000Y4800000D01*
Y5799610D01*
X3637890Y5812500D01*
X3837500D01*
X3850000Y5825000D01*
Y5850000D01*
X3838400Y5861600D01*
X3637890D01*
X3625000Y5874490D01*
Y5892710D01*
X3637890Y5905600D01*
X3862110D01*
X3875000Y5918490D01*
Y5936710D01*
X3862110Y5949600D01*
X3637890D01*
X3625000Y5962490D01*
Y5980710D01*
X3637890Y5993600D01*
X3862110D01*
X3875000Y6006490D01*
Y6024710D01*
X3862110Y6037600D01*
X3637890D01*
X3625000Y6050490D01*
Y6100000D01*
X3537500Y6187500D01*
G01X3337500Y6772480D02*
Y6700000D01*
X3387500Y6650000D01*
G01X3500000Y6772480D02*
Y6650000D01*
G01X5325000Y4950000D02*
X5262500Y4887500D01*
X5137500D01*
X5100000Y4925000D01*
Y5337500D01*
X5075000Y5362500D01*
X4712500D01*
X4623940Y5273940D01*
X4603240D01*
X4548940Y5328240D01*
X4528240D01*
X4513580Y5313580D01*
Y5292880D01*
X4567880Y5238580D01*
Y5217880D01*
X4553220Y5203220D01*
X4532520D01*
X4478220Y5257520D01*
X4457520D01*
X4442860Y5242860D01*
Y5222160D01*
X4497160Y5167860D01*
Y5147160D01*
X4482500Y5132500D01*
X4461800D01*
X4407500Y5186800D01*
X4386800D01*
X4372140Y5172140D01*
Y5151440D01*
X4426440Y5097140D01*
Y5076440D01*
X4411780Y5061780D01*
X4391080D01*
X4336780Y5116080D01*
X4316080D01*
X4301420Y5101420D01*
Y5080720D01*
X4355720Y5026420D01*
Y5005720D01*
X3837500Y4487500D01*
Y3700000D01*
X3912500Y3625000D01*
Y2875000D01*
X3937500Y2850000D01*
Y2675000D01*
X3975000Y2637500D01*
Y2062500D01*
X4000000Y2037500D01*
Y1975000D01*
X3965480Y1940480D01*
X3862500D01*
G01X4112500Y1962500D02*
X4050000Y2025000D01*
Y2058220D01*
X4025000Y2083220D01*
Y2117470D01*
X4039640Y2132110D01*
X4435360D01*
X4450000Y2146750D01*
Y2167470D01*
X4435360Y2182110D01*
X4039640D01*
X4025000Y2196750D01*
Y2217470D01*
X4039640Y2232110D01*
X4435360D01*
X4450000Y2246750D01*
Y2267470D01*
X4435360Y2282110D01*
X4039640D01*
X4025000Y2296750D01*
Y2317470D01*
X4039640Y2332110D01*
X4435360D01*
X4450000Y2346750D01*
Y2367470D01*
X4435360Y2382110D01*
X4039640D01*
X4025000Y2396750D01*
Y2417470D01*
X4039640Y2432110D01*
X4435360D01*
X4450000Y2446750D01*
Y2467470D01*
X4435360Y2482110D01*
X4039640D01*
X4025000Y2496750D01*
Y2522860D01*
X4039640Y2537500D01*
X4160360D01*
X4175000Y2552140D01*
Y2585360D01*
X4160360Y2600000D01*
X4064640D01*
X4050000Y2614640D01*
Y2737500D01*
X4062500Y2750000D01*
X4160840D01*
X4185840Y2775000D01*
Y3464160D01*
X4150000Y3500000D01*
G01X5200000Y4950000D02*
X5150000Y5000000D01*
Y5387500D01*
X5125000Y5412500D01*
X4537500D01*
X4188570Y5063570D01*
Y5042870D01*
X4236620Y4994820D01*
Y4974120D01*
X4225000Y4962500D01*
X4217660Y4959460D01*
X4201260D01*
X4153210Y5007510D01*
X4132510D01*
X4117850Y4992850D01*
Y4972150D01*
X4165900Y4924100D01*
Y4903400D01*
X4151240Y4888740D01*
X4130540D01*
X4082490Y4936790D01*
X4061790D01*
X4047130Y4922130D01*
Y4901430D01*
X4095180Y4853380D01*
Y4832680D01*
X4080520Y4818020D01*
X4059820D01*
X4011770Y4866070D01*
X3991070D01*
X3976410Y4851410D01*
Y4830710D01*
X4024460Y4782660D01*
Y4761960D01*
X3787500Y4525000D01*
Y3653940D01*
X3787520Y3653920D01*
Y2924980D01*
X3875000Y2837500D01*
Y2662500D01*
X3925000Y2612500D01*
Y2013460D01*
X3936570Y2001890D01*
X3937500Y2000000D01*
G01X3800000Y2712500D02*
X3737500Y2775000D01*
Y4637500D01*
X3862500Y4762500D01*
Y5037500D01*
X3913770Y5088770D01*
X3934470D01*
X3995010Y5028230D01*
X4015710D01*
X4030370Y5042890D01*
Y5063590D01*
X3969830Y5124130D01*
Y5144830D01*
X3984490Y5159490D01*
X4005190D01*
X4065730Y5098950D01*
X4086430D01*
X4101090Y5113610D01*
Y5134310D01*
X4040550Y5194850D01*
Y5215550D01*
X4055210Y5230210D01*
X4075910D01*
X4136450Y5169670D01*
X4157150D01*
X4171810Y5184330D01*
Y5205030D01*
X4111270Y5265570D01*
Y5286270D01*
X4125930Y5300930D01*
X4146630D01*
X4207170Y5240390D01*
X4227870D01*
X4242530Y5255050D01*
Y5275750D01*
X4181990Y5336290D01*
Y5356990D01*
X4196650Y5371650D01*
X4217350D01*
X4277890Y5311110D01*
X4298590D01*
X4313250Y5325770D01*
Y5346470D01*
X4252710Y5407010D01*
Y5427710D01*
X4267370Y5442370D01*
X4288070D01*
X4348610Y5381830D01*
X4369310D01*
X4383970Y5396490D01*
Y5417190D01*
X4323430Y5477730D01*
Y5498430D01*
X4338090Y5513090D01*
X4358790D01*
X4419330Y5452550D01*
X4440030D01*
X4454690Y5467210D01*
Y5487910D01*
X4394150Y5548450D01*
Y5569150D01*
X4408810Y5583810D01*
X4429510D01*
X4490050Y5523270D01*
X4510750D01*
X4525410Y5537930D01*
Y5558630D01*
X4464870Y5619170D01*
Y5639870D01*
X4479530Y5654530D01*
X4500230D01*
X4560770Y5593990D01*
X4581470D01*
X4596130Y5608650D01*
Y5629350D01*
X4535590Y5689890D01*
Y5710590D01*
X4750000Y5925000D01*
Y6112500D01*
X4825000Y6187500D01*
G01X5200000Y4775000D02*
X5004190D01*
X4989550Y4789640D01*
Y4910360D01*
X4974910Y4925000D01*
X4954190D01*
X4939550Y4910360D01*
Y4789640D01*
X4924910Y4775000D01*
X4904190D01*
X4889550Y4789640D01*
Y4910360D01*
X4874910Y4925000D01*
X4854190D01*
X4839550Y4910360D01*
Y4789640D01*
X4824910Y4775000D01*
X4804190D01*
X4789550Y4789640D01*
Y4910360D01*
X4774910Y4925000D01*
X4754190D01*
X4739550Y4910360D01*
Y4789640D01*
X4724910Y4775000D01*
X4704190D01*
X4689550Y4789640D01*
Y5122860D01*
X4674910Y5137500D01*
X4654190D01*
X4639550Y5122860D01*
Y4789640D01*
X4624910Y4775000D01*
X4604190D01*
X4589550Y4789640D01*
Y5010360D01*
X4574910Y5025000D01*
X4554190D01*
X4539550Y5010360D01*
Y4789640D01*
X4524910Y4775000D01*
X4504190D01*
X4489550Y4789640D01*
Y4910360D01*
X4474910Y4925000D01*
X4454190D01*
X4439550Y4910360D01*
Y4789640D01*
X4424910Y4775000D01*
X4275000D01*
X3937500Y4437500D01*
Y3762500D01*
X4087500Y3612500D01*
Y3595720D01*
X4087520Y3595700D01*
Y3554300D01*
X4087500Y3554280D01*
Y2987500D01*
X4112500Y2962500D01*
Y2887500D01*
X4050000Y2825000D01*
G01X4725000Y6189160D02*
X4588000Y6052160D01*
Y6031460D01*
X4661880Y5957580D01*
Y5936880D01*
X4647220Y5922220D01*
X4626520D01*
X4552640Y5996100D01*
X4531940D01*
X4517280Y5981440D01*
Y5960740D01*
X4591160Y5886860D01*
Y5866160D01*
X4576500Y5851500D01*
X4555800D01*
X4481920Y5925380D01*
X4461220D01*
X4446560Y5910720D01*
Y5890020D01*
X4520440Y5816140D01*
Y5795440D01*
X4505780Y5780780D01*
X4485080D01*
X4411200Y5854660D01*
X4390500D01*
X4375840Y5840000D01*
Y5819300D01*
X4449720Y5745420D01*
Y5724720D01*
X4435060Y5710060D01*
X4414360D01*
X4340480Y5783940D01*
X4319780D01*
X4305120Y5769280D01*
Y5748580D01*
X4379000Y5674700D01*
Y5654000D01*
X4364340Y5639340D01*
X4343640D01*
X4269760Y5713220D01*
X4249060D01*
X4234400Y5698560D01*
Y5677860D01*
X4308280Y5603980D01*
Y5583280D01*
X4293620Y5568620D01*
X4272920D01*
X4199040Y5642500D01*
X4178340D01*
X4163680Y5627840D01*
Y5607140D01*
X4237560Y5533260D01*
Y5512560D01*
X4222900Y5497900D01*
X4202200D01*
X4128320Y5571780D01*
X4107620D01*
X3812500Y5276660D01*
Y4787500D01*
X3687500Y4662500D01*
Y2725000D01*
X3800000Y2612500D01*
G01X4050000Y2950000D02*
Y2950960D01*
X4037500Y2963460D01*
Y3587500D01*
X3887500Y3737500D01*
Y4462500D01*
X4737500Y5312500D01*
X5025000D01*
X5050000Y5287500D01*
Y5247180D01*
X5035360Y5232540D01*
X4777140D01*
X4762500Y5217900D01*
Y5197180D01*
X4777140Y5182540D01*
X5035360D01*
X5050000Y5167900D01*
Y5147180D01*
X5035360Y5132540D01*
X4777140D01*
X4762500Y5117900D01*
Y5097180D01*
X4777140Y5082540D01*
X5035360D01*
X5050000Y5067900D01*
Y5047180D01*
X5035360Y5032540D01*
X4777140D01*
X4762500Y5017900D01*
Y4997180D01*
X4777140Y4982540D01*
X5035360D01*
X5050000Y4967900D01*
Y4862500D01*
X5075000Y4837500D01*
X5262500D01*
X5325000Y4775000D01*
G01X4000000Y4150000D02*
Y3837500D01*
X4287500Y3550000D01*
Y3377140D01*
X4302140Y3362500D01*
X4435360D01*
X4450000Y3347860D01*
Y3303730D01*
X4435360Y3289090D01*
X4302140D01*
X4287500Y3274450D01*
Y3237500D01*
X4312500Y3212500D01*
X4625000D01*
X4712500Y3125000D01*
Y3085750D01*
X4697860Y3071110D01*
X4589640D01*
X4575000Y3056470D01*
Y3035750D01*
X4589640Y3021110D01*
X4697860D01*
X4712500Y3006470D01*
Y2985750D01*
X4697860Y2971110D01*
X4589640D01*
X4575000Y2956470D01*
Y2935750D01*
X4589640Y2921110D01*
X4697860D01*
X4712500Y2906470D01*
Y2885750D01*
X4697860Y2871110D01*
X4589640D01*
X4575000Y2856470D01*
Y2835750D01*
X4589640Y2821110D01*
X4697860D01*
X4712500Y2806470D01*
Y2785750D01*
X4697860Y2771110D01*
X4589640D01*
X4575000Y2756470D01*
Y2735750D01*
X4589640Y2721110D01*
X4697860D01*
X4712500Y2706470D01*
Y2685750D01*
X4697860Y2671110D01*
X4589640D01*
X4575000Y2656470D01*
Y2635750D01*
X4589640Y2621110D01*
X4697860D01*
X4712500Y2606470D01*
Y2585750D01*
X4697860Y2571110D01*
X4589640D01*
X4575000Y2556470D01*
Y2535750D01*
X4589640Y2521110D01*
X4697860D01*
X4712500Y2506470D01*
Y2485750D01*
X4697860Y2471110D01*
X4589640D01*
X4575000Y2456470D01*
Y2435750D01*
X4589640Y2421110D01*
X4697860D01*
X4712500Y2406470D01*
Y2385750D01*
X4697860Y2371110D01*
X4589640D01*
X4575000Y2356470D01*
Y2335750D01*
X4589640Y2321110D01*
X4697860D01*
X4712500Y2306470D01*
Y2285750D01*
X4697860Y2271110D01*
X4589640D01*
X4575000Y2256470D01*
Y2235750D01*
X4589640Y2221110D01*
X4697860D01*
X4712500Y2206470D01*
Y2185750D01*
X4697860Y2171110D01*
X4589640D01*
X4575000Y2156470D01*
Y2135750D01*
X4589640Y2121110D01*
X4697860D01*
X4712500Y2106470D01*
Y1837500D01*
X4775000Y1775000D01*
G01Y1900000D02*
Y3137500D01*
X4062500Y3850000D01*
Y4269500D01*
X4077140Y4284140D01*
X4310360D01*
X4325000Y4298780D01*
Y4319500D01*
X4310360Y4334140D01*
X4039640D01*
X4025000Y4348780D01*
Y4369500D01*
X4039640Y4384140D01*
X4310360D01*
X4325000Y4398780D01*
Y4419500D01*
X4310360Y4434140D01*
X4077140D01*
X4062500Y4448780D01*
Y4475000D01*
X4157280Y4569780D01*
X4177980D01*
X4232280Y4515480D01*
X4252980D01*
X4267640Y4530140D01*
Y4550840D01*
X4213340Y4605140D01*
Y4625840D01*
X4228000Y4640500D01*
X4248700D01*
X4303000Y4586200D01*
X4323700D01*
X4338360Y4600860D01*
Y4621560D01*
X4284060Y4675860D01*
Y4696560D01*
X4300000Y4712500D01*
X4375000D01*
X4400000Y4687500D01*
Y4212500D01*
X4262500Y4075000D01*
G01X3725000Y6565020D02*
Y6675000D01*
X3762500Y6712500D01*
G01X3600000Y6565020D02*
Y6675000D01*
X3637500Y6712500D01*
G01X5375000Y6862500D02*
X3962700D01*
X3812700Y6712500D01*
X3762500D01*
G01X5425000Y7012500D02*
X5400000D01*
X5312500Y6925000D01*
X3937500D01*
X3787500Y6775000D01*
X3700000D01*
X3637500Y6712500D01*
G01X4525000Y1787500D02*
X4537500Y1775000D01*
Y1737500D01*
X4525000Y1725000D01*
G01X4150000Y3600000D02*
X4237500Y3512500D01*
Y3187500D01*
X4262500Y3162500D01*
X4500000D01*
X4525000Y3137500D01*
Y3108010D01*
X4510360Y3093370D01*
X4252140D01*
X4237500Y3078730D01*
Y3058010D01*
X4252140Y3043370D01*
X4510360D01*
X4525000Y3028730D01*
Y3008010D01*
X4510360Y2993370D01*
X4252140D01*
X4237500Y2978730D01*
Y2958010D01*
X4252140Y2943370D01*
X4510360D01*
X4525000Y2928730D01*
Y2908010D01*
X4510360Y2893370D01*
X4252140D01*
X4237500Y2878730D01*
Y2858010D01*
X4252140Y2843370D01*
X4510360D01*
X4525000Y2828730D01*
Y2808010D01*
X4510360Y2793370D01*
X4252140D01*
X4237500Y2778730D01*
Y2758010D01*
X4252140Y2743370D01*
X4510360D01*
X4525000Y2728730D01*
Y2708010D01*
X4510360Y2693370D01*
X4252140D01*
X4237500Y2678730D01*
Y2658010D01*
X4252140Y2643370D01*
X4510360D01*
X4525000Y2628730D01*
Y2608010D01*
X4510360Y2593370D01*
X4252140D01*
X4237500Y2578730D01*
Y2558010D01*
X4252140Y2543370D01*
X4485360D01*
X4500000Y2528730D01*
Y2112500D01*
X4462500Y2075000D01*
X4112500D01*
G01X4137500Y4075000D02*
Y3850000D01*
X4762500Y3225000D01*
X4937500D01*
X4962500Y3200000D01*
Y3162540D01*
X4947860Y3147900D01*
X4852140D01*
X4837500Y3133260D01*
Y3112540D01*
X4852140Y3097900D01*
X4947860D01*
X4962500Y3083260D01*
Y3062540D01*
X4947860Y3047900D01*
X4852140D01*
X4837500Y3033260D01*
Y3012540D01*
X4852140Y2997900D01*
X4947860D01*
X4962500Y2983260D01*
Y2960430D01*
X4947860Y2945790D01*
X4852140D01*
X4837500Y2931150D01*
Y2910430D01*
X4852140Y2895790D01*
X4947860D01*
X4962500Y2881150D01*
Y2860430D01*
X4947860Y2845790D01*
X4852140D01*
X4837500Y2831150D01*
Y2810430D01*
X4852140Y2795790D01*
X4947860D01*
X4962500Y2781150D01*
Y2760430D01*
X4947860Y2745790D01*
X4852140D01*
X4837500Y2731150D01*
Y2710430D01*
X4852140Y2695790D01*
X4947860D01*
X4962500Y2681150D01*
Y2660430D01*
X4947860Y2645790D01*
X4852140D01*
X4837500Y2631150D01*
Y2610430D01*
X4852140Y2595790D01*
X4947860D01*
X4962500Y2581150D01*
Y2560430D01*
X4947860Y2545790D01*
X4864640D01*
X4850000Y2531150D01*
Y2510430D01*
X4864640Y2495790D01*
X4947860D01*
X4962500Y2481150D01*
Y2460430D01*
X4947860Y2445790D01*
X4864640D01*
X4850000Y2431150D01*
Y2410430D01*
X4864640Y2395790D01*
X4947860D01*
X4962500Y2381150D01*
Y2360430D01*
X4947860Y2345790D01*
X4864640D01*
X4850000Y2331150D01*
Y2310430D01*
X4864640Y2295790D01*
X4947860D01*
X4962500Y2281150D01*
Y2260430D01*
X4947860Y2245790D01*
X4864640D01*
X4850000Y2231150D01*
Y2210430D01*
X4864640Y2195790D01*
X4947860D01*
X4962500Y2181150D01*
Y2160430D01*
X4947860Y2145790D01*
X4864640D01*
X4850000Y2131150D01*
Y2110430D01*
X4864640Y2095790D01*
X4947860D01*
X4962500Y2081150D01*
Y2060430D01*
X4947860Y2045790D01*
X4864640D01*
X4850000Y2031150D01*
Y2010430D01*
X4864640Y1995790D01*
X4947860D01*
X4962500Y1981150D01*
Y1960430D01*
X4947860Y1945790D01*
X4864640D01*
X4850000Y1931150D01*
Y1910430D01*
X4864640Y1895790D01*
X4947860D01*
X4962500Y1881150D01*
Y1837720D01*
X5025110Y1775110D01*
G01X4212500Y3950000D02*
X4262500Y3900000D01*
Y3800000D01*
X4297690Y3764810D01*
X4318390D01*
X4385190Y3831610D01*
X4405890D01*
X4420550Y3816950D01*
Y3796250D01*
X4353750Y3729450D01*
Y3708750D01*
X4368410Y3694090D01*
X4389110D01*
X4455910Y3760890D01*
X4476610D01*
X4491270Y3746230D01*
Y3725530D01*
X4424470Y3658730D01*
Y3638030D01*
X4437500Y3625000D01*
X4487500D01*
X4612500Y3750000D01*
X4637500D01*
X4668240Y3719260D01*
Y3698560D01*
X4526440Y3556760D01*
Y3536060D01*
X4541100Y3521400D01*
X4561800D01*
X4703600Y3663200D01*
X4724300D01*
X4738960Y3648540D01*
Y3627840D01*
X4597160Y3486040D01*
Y3465340D01*
X4611820Y3450680D01*
X4632520D01*
X4774320Y3592480D01*
X4795020D01*
X4809680Y3577820D01*
Y3557120D01*
X4667880Y3415320D01*
Y3394620D01*
X4682540Y3379960D01*
X4703240D01*
X4845040Y3521760D01*
X4865740D01*
X4880400Y3507100D01*
Y3486400D01*
X4738600Y3344600D01*
Y3323900D01*
X4753260Y3309240D01*
X4773960D01*
X4915760Y3451040D01*
X4936460D01*
X4962500Y3425000D01*
Y3400000D01*
X4887500Y3325000D01*
Y3300000D01*
X4912500Y3275000D01*
X5150000D01*
X5175000Y3250000D01*
Y3225000D01*
X5150000Y3200000D01*
X5037500D01*
X5012500Y3175000D01*
Y3150330D01*
X5027140Y3135690D01*
X5185360D01*
X5200000Y3121050D01*
Y3077140D01*
X5185360Y3062500D01*
X5027140D01*
X5012500Y3047860D01*
Y1963180D01*
X5025000Y1950680D01*
Y1900000D01*
G01X4650000Y1650000D02*
X4599320D01*
X4574320Y1625000D01*
G01X4550000Y1675000D02*
X4650000Y1775000D01*
G01X4587500Y1837500D02*
X4650000Y1900000D01*
G01X5225000Y4600000D02*
X4925000D01*
X4862500Y4537500D01*
Y4425000D01*
G01X5062500Y4287500D02*
X5000000Y4350000D01*
X4950000D01*
X4925000Y4375000D01*
Y4475000D01*
X4975000Y4525000D01*
X5300000D01*
X5675000Y4900000D01*
Y5312500D01*
X5562500Y5425000D01*
X5350000D01*
X5175000Y5600000D01*
Y6012500D01*
X5600000Y6437500D01*
X5737500D01*
G01X4637500Y7287500D02*
X5687500D01*
X5750000Y7225000D01*
G01X5600000Y4300000D02*
X5225000D01*
X5125000Y4400000D01*
G01X5912500Y5150000D02*
X5775000Y5012500D01*
Y4900000D01*
X5350000Y4475000D01*
X5050000D01*
X5000000Y4425000D01*
G01X5275000Y5575000D02*
Y5650000D01*
X5412500Y5787500D01*
X5625000D01*
X5725000Y5887500D01*
X7537490D01*
X7687490Y5737500D01*
X8237500D01*
X8412500Y5562500D01*
G01X5275000Y5400000D02*
X5125000Y5550000D01*
Y6050000D01*
X5626660Y6551660D01*
X5701660D01*
X5737500Y6587500D01*
G01X5990020Y6312500D02*
X5800000Y6502520D01*
Y6650010D01*
X5700010Y6750000D01*
X5150000D01*
G01X6225000Y7112500D02*
X6325000D01*
G01X6650000D02*
X6762500D01*
G01X7235650Y4913500D02*
X7187500Y4961650D01*
Y5082500D01*
G01X7012500Y5242500D02*
X7187500D01*
G01X7362650Y4913500D02*
Y4977000D01*
X7362500Y4977150D01*
Y5097480D01*
G01D02*
X7537500D01*
G01X8272500Y5935000D02*
X8179600D01*
X8154620Y5959980D01*
X8062500D01*
G01D02*
X7900000D01*
G01X8502500Y6125000D02*
X8625000D01*
X8662500Y6162500D01*
G54D13*
X360500Y2967000D03*
Y3221000D03*
Y3475000D03*
Y3729000D03*
X614500Y2967000D03*
Y3221000D03*
Y3475000D03*
Y3729000D03*
Y3983000D03*
X2008500Y7398000D03*
Y7652000D03*
X2262500Y7398000D03*
Y7652000D03*
X2539500Y6739500D03*
Y6485500D03*
X2285500Y6739500D03*
X2516500Y7398000D03*
X3587500Y7652000D03*
Y7398000D03*
X3333500Y7652000D03*
X3841500D03*
Y7398000D03*
X5063880Y7650100D03*
X4809880D03*
X5317880D03*
G54D31*
X8705000Y1537500D03*
G54D22*
X5027500Y4012500D03*
X5347500D03*
G54D41*
G01X6300000Y6187500D02*
X6212500Y6275000D01*
Y6737500D01*
X5962500Y6987500D01*
G01X6300000Y6187500D02*
X6525000D01*
G01D02*
X7122300D01*
X7172300Y6137500D01*
X7250000D01*
G54D14*
X360500Y3983000D03*
X2285500Y6485500D03*
X2516500Y7652000D03*
X3333500Y7398000D03*
X4555880Y7650100D03*
G54D23*
X7012500Y5242500D03*
Y5082500D03*
X7187500Y5242500D03*
Y5082500D03*
X7562500Y2970000D03*
Y3130000D03*
X7400000Y4157500D03*
Y4317500D03*
X8412500Y3045000D03*
Y3205000D03*
X8325000Y4355000D03*
Y4195000D03*
X8712500Y6042500D03*
Y5882500D03*
G54D32*
X8827500Y6817500D03*
X9517500D03*
G54D42*
G01X687500Y1075000D02*
Y1200220D01*
G01X562280Y1075000D02*
X687500D01*
G01D02*
X812720D01*
G01X6523000Y2181280D02*
Y2276500D01*
G01D02*
Y2371720D01*
G01X6427780Y2276500D02*
X6523000D01*
G54D15*
X350000Y4437500D03*
Y5037500D03*
Y5550000D03*
Y6150000D03*
X362500Y6650000D03*
Y7250000D03*
X850000Y4437500D03*
Y5037500D03*
Y5550000D03*
Y6150000D03*
X862500Y6650000D03*
Y7250000D03*
G54D33*
X9005000Y1067500D03*
G54D24*
X7235650Y4913500D03*
X7362650D03*
X7489650D03*
G54D43*
G01X1250000Y6900000D02*
X1487500D01*
X1587500Y7000000D01*
G01X2462500Y4637500D02*
X2413100Y4686900D01*
Y6088100D01*
X2450000Y6125000D01*
G54D16*
X687500Y821000D03*
X1433500Y7612500D03*
G54D34*
X9301320Y5145460D03*
Y5585460D03*
G54D25*
X7367500Y6000000D03*
X7607500D03*
G54D35*
G01X2925000Y7325000D02*
X3037500Y7212500D01*
X4437500D01*
X4575000Y7350000D01*
X7125000D01*
X7237500Y7237500D01*
X7387500D01*
X7787500Y6837500D01*
Y5912500D01*
X7837500Y5862500D01*
X8150000D01*
G01X2825000Y7200000D02*
Y7312500D01*
X2931250Y7418750D01*
X2981250D01*
X3112500Y7287500D01*
X4350000D01*
X4475000Y7412500D01*
X7337500D01*
X7900000Y6850000D01*
Y6090020D01*
G01X3650000Y6900000D02*
X3502520D01*
X3500000Y6902520D01*
G01X3337500D02*
X3500000D01*
G01X7012500Y4950000D02*
Y5082500D01*
G01X8062500Y6090020D02*
Y6225000D01*
G54D17*
X687500Y1075000D03*
X1687500Y7612500D03*
G54D26*
X7730000Y3280000D03*
Y3020000D03*
X7920000Y3280000D03*
X7825000D03*
X7920000Y3020000D03*
X7825000D03*
G54D36*
G01X242280Y6650000D02*
X362500D01*
G01X242280Y7250000D02*
X362500D01*
G01X812500Y1900000D02*
X550000D01*
X437500Y2012500D01*
Y2087500D01*
G01X537500Y2150000D02*
Y2225000D01*
X575000Y2262500D01*
X684980D01*
G01X614500Y2839280D02*
Y2967000D01*
G01D02*
X742220D01*
G01X722480Y4250000D02*
X575000D01*
G01X722480Y4169220D02*
Y4250000D01*
G01D02*
Y4330780D01*
G01X350000Y5037500D02*
X397480Y5084980D01*
Y5225000D01*
G01X709980Y5387500D02*
X550000D01*
G01X709980D02*
Y5468280D01*
G01X350000Y6150000D02*
X422480Y6222480D01*
Y6337500D01*
G01X362500Y6529780D02*
Y6650000D01*
G01D02*
Y6770220D01*
G01Y6650000D02*
X482720D01*
G01X362500Y7129780D02*
Y7250000D01*
G01D02*
X482720D01*
G01X722480Y7369220D02*
Y7450000D01*
G01D02*
Y7530780D01*
G01X1058500Y1760500D02*
X889500D01*
X862500Y1787500D01*
G01X815020Y2141500D02*
Y1900000D01*
X812500D01*
G01X862500Y1787500D02*
Y1850000D01*
X812500Y1900000D01*
G01X875000Y2375000D02*
X837500D01*
X815020Y2352520D01*
Y2262500D01*
G01X1058500Y2268500D02*
X893170D01*
X887170Y2262500D01*
X815020D01*
G01X1058500Y2141500D02*
X815020D01*
G01D02*
Y2262500D01*
G01X1566500Y1506500D02*
X1718500D01*
X1750000Y1475000D01*
G01X1566500Y1887500D02*
X1437500D01*
X1400000Y1850000D01*
G01Y2225000D02*
X1443500Y2268500D01*
X1566500D01*
G01X2527520Y1012500D02*
Y837500D01*
G01Y1012500D02*
Y1093280D01*
G01Y1012500D02*
X2617190D01*
G01X2527520Y756720D02*
Y837500D01*
G01D02*
X2617190D01*
G01X2887500Y5047480D02*
X2802520D01*
X2775000Y5075000D01*
G01X2887500Y5177520D02*
X2984980D01*
G01D02*
X3025000Y5137500D01*
Y5133180D01*
X3037500Y5120680D01*
Y5062500D01*
G01X2887500Y5177520D02*
Y5267190D01*
G01X2806720Y5177520D02*
X2887500D01*
G01Y5409980D02*
X2802520D01*
X2775000Y5437500D01*
Y5475000D01*
G01X3012500Y5500000D02*
X2972480Y5540020D01*
G01D02*
X2887500D01*
G01D02*
Y5629690D01*
G01X2834980Y5925000D02*
X2725000D01*
G01X2965020D02*
X3087500D01*
G01X2965020Y5844220D02*
Y5925000D01*
G01D02*
Y6005780D01*
G01X3684980Y725000D02*
X3600000D01*
X3550000Y775000D01*
G01X3684980Y900000D02*
X3612500D01*
X3550000Y962500D01*
G01Y1125000D02*
X3575000Y1150000D01*
G01X3550000Y1425000D02*
X3575000Y1450000D01*
G01Y1150000D02*
X3659980D01*
G01X3575000Y1450000D02*
X3659980D01*
G01X3290020Y6309980D02*
Y6190020D01*
X3287500Y6187500D01*
G01X3600000Y6434980D02*
Y6332700D01*
X3637500Y6295200D01*
Y6237500D01*
G01X3725000Y6434980D02*
X3600000D01*
G01X3290020Y6440020D02*
Y6559980D01*
G01D02*
X3287500Y6562500D01*
G01X3209240Y6440020D02*
X3290020D01*
G01X3815020Y900000D02*
X3925000D01*
G01X3815020Y725000D02*
Y900000D01*
G01D02*
Y980780D01*
G01Y644220D02*
Y725000D01*
G01D02*
X3904690D01*
G01X3659980Y1069220D02*
Y1150000D01*
G01X3790020D02*
X3925000D01*
G01X3790020Y1450000D02*
X3925000D01*
G01X3965020Y6309980D02*
Y6190020D01*
X3962500Y6187500D01*
G01Y6562500D02*
X3965020Y6559980D01*
G01D02*
Y6440020D01*
G01D02*
X4045800D01*
G01X4490020Y3925000D02*
Y4022480D01*
X4487500Y4025000D01*
G01X4465020Y6309980D02*
Y6190020D01*
X4462500Y6187500D01*
G01X4465020Y6440020D02*
Y6559980D01*
G01D02*
X4462500Y6562500D01*
G01X4384240Y6440020D02*
X4465020D01*
G01D02*
X4545800D01*
G01X4900000Y859980D02*
X4990020D01*
G01D02*
X5025000Y825000D01*
G01X4775000Y1075000D02*
Y1017300D01*
X4802280Y990020D01*
X4900000D01*
G01X5025000Y1225000D02*
X5002520Y1247480D01*
G01D02*
X4900000D01*
G01Y1377520D02*
X4835220D01*
X4832700Y1375000D01*
X4775000D01*
G01X5027500Y4012500D02*
X4950000D01*
X4900230Y4062270D01*
Y4187500D01*
G01X5347500Y3887280D02*
Y4012500D01*
G01D02*
Y4137720D01*
G01Y4012500D02*
X5437720D01*
G01X5375000Y5250000D02*
X5275000D01*
G01X5375000Y5900000D02*
X5275000D01*
G01X5115020Y6309980D02*
Y6187500D01*
G01X5219110Y6555890D02*
X5143390D01*
X5115020Y6527520D01*
G01D02*
Y6440020D01*
G01X5034240D02*
X5115020D01*
G01D02*
X5195800D01*
G01X5505040Y5250000D02*
X5575000D01*
G01D02*
X5612500Y5212500D01*
G01X5505040Y5169220D02*
Y5250000D01*
G01D02*
Y5330780D01*
G01X5612500Y5937500D02*
X5575000Y5900000D01*
G01D02*
X5505040D01*
G01D02*
Y5980780D01*
G01X6523000Y403280D02*
Y498500D01*
G01D02*
Y593720D01*
G01X6427780Y498500D02*
X6523000D01*
G01D02*
X6618220D01*
G01X6777000Y657280D02*
Y752500D01*
G01D02*
Y847720D01*
G01X6681780Y752500D02*
X6777000D01*
G01D02*
X6872220D01*
G01X6523000Y911280D02*
Y1006500D01*
G01D02*
Y1101720D01*
G01X6427780Y1006500D02*
X6523000D01*
G01D02*
X6618220D01*
G01X6777000Y1165280D02*
Y1260500D01*
G01D02*
Y1355720D01*
G01X6681780Y1260500D02*
X6777000D01*
G01D02*
X6872220D01*
G01X6523000Y1419280D02*
Y1514500D01*
G01D02*
Y1609720D01*
G01X6427780Y1514500D02*
X6523000D01*
G01D02*
X6618220D01*
G01X6777000Y1673280D02*
Y1768500D01*
G01D02*
Y1863720D01*
G01X6681780Y1768500D02*
X6777000D01*
G01D02*
X6872220D01*
G01X6777000Y2181280D02*
Y2276500D01*
G01D02*
Y2371720D01*
G01X6681780Y2276500D02*
X6777000D01*
G01D02*
X6872220D01*
G01X6807810Y3262500D02*
X6897480D01*
G01Y3181720D02*
Y3262500D01*
G01D02*
Y3343280D01*
G01X7319220Y2984980D02*
X7400000D01*
G01X7027520Y3181720D02*
Y3262500D01*
G01D02*
Y3343280D01*
G01Y3262500D02*
X7117190D01*
G01X7319220Y3115020D02*
X7400000D01*
G01X7237500Y4082810D02*
Y4172480D01*
G01X7156720D02*
X7237500D01*
G01Y4302520D02*
Y4392190D01*
G01X7156720Y4302520D02*
X7237500D01*
G01X7562500Y2884780D02*
Y2970000D01*
G01X7400000Y2895310D02*
Y2984980D01*
G01X7562500Y3130000D02*
Y3215220D01*
G01X7400000Y3115020D02*
Y3204690D01*
G01X7730000Y3280000D02*
Y3350220D01*
G01X7755000Y4000000D02*
Y3880000D01*
X7725000Y3850000D01*
G01X7775000Y4562500D02*
Y4504320D01*
X7762500Y4491820D01*
Y4307300D01*
X7777300Y4292500D01*
X7865000D01*
G01X7400000Y4072280D02*
Y4157500D01*
G01X7635000Y4197500D02*
Y4112700D01*
X7595000Y4072700D01*
Y4000000D01*
G01X7400000Y4317500D02*
Y4402720D01*
G01Y4317500D02*
X7490220D01*
G01X7635000Y4387500D02*
Y4462720D01*
G01X7529780Y4387500D02*
X7635000D01*
G01X7362500Y5227520D02*
Y5350000D01*
G01X7537500Y5227520D02*
X7597480D01*
G01D02*
X7662500Y5162500D01*
G01X7607500Y6000000D02*
Y6115220D01*
G01X7502520Y6200000D02*
Y6280780D01*
G01Y6200000D02*
X7592190D01*
G01X8250000Y3190020D02*
Y3279690D01*
G01X8169220Y3190020D02*
X8250000D01*
G01X7920000Y3280000D02*
Y3350220D01*
G01Y3280000D02*
X7987720D01*
G01X7920000Y2949780D02*
Y3020000D01*
G01X8250000Y2970310D02*
Y3059980D01*
G01X7825000Y2949780D02*
Y3020000D01*
G01X7865000Y4122280D02*
Y4197500D01*
G01D02*
X7970220D01*
G01X8234780Y4195000D02*
X8325000D01*
G01X8150000Y4120310D02*
Y4209980D01*
G01X8069220D02*
X8150000D01*
G01D02*
X8230780D01*
G01X7865000Y4387500D02*
Y4462720D01*
G01Y4387500D02*
X7970220D01*
G01X8234780Y4355000D02*
X8325000D01*
G01X8150000Y4340020D02*
Y4429690D01*
G01Y4340020D02*
X8230780D01*
G01X8134980Y5325000D02*
X7950000D01*
G01X8134980D02*
Y5405780D01*
G01X8265020Y5325000D02*
X8412500D01*
G01Y3205000D02*
Y3290220D01*
G01Y3205000D02*
X8502720D01*
G01X8412500Y2959780D02*
Y3045000D01*
G01X8325000Y4109780D02*
Y4195000D01*
G01D02*
X8415220D01*
G01X8325000Y4355000D02*
Y4440220D01*
G01Y4355000D02*
X8415220D01*
G01X8712500Y6042500D02*
X8639800D01*
X8627300Y6030000D01*
X8502500D01*
G01X8820000Y6042500D02*
X8712500D01*
G01X8502500Y5935000D02*
X8590200D01*
X8642700Y5882500D01*
X8712500D01*
G01Y5797280D02*
Y5882500D01*
G01D02*
X8802720D01*
G01X9005000Y847280D02*
Y1067500D01*
G01D02*
Y1287720D01*
G01X8884780Y1067500D02*
X9005000D01*
G01D02*
X9125220D01*
G01X9196100Y5145460D02*
X9301320D01*
G01X9196100Y5585460D02*
X9301320D01*
G01X8825000Y6037500D02*
X8820000Y6042500D01*
G01X9301320Y5040240D02*
Y5145460D01*
G01D02*
Y5250680D01*
G01Y5145460D02*
X9406540D01*
G01X9301320Y5480240D02*
Y5585460D01*
G01D02*
Y5690680D01*
G01Y5585460D02*
X9406540D01*
G54D18*
X790020Y1500000D03*
X659980D03*
X684980Y2262500D03*
X815020D03*
X722480Y4250000D03*
X527520Y5225000D03*
X397480D03*
X709980D03*
Y5387500D03*
X552520Y6337500D03*
X422480D03*
X734980D03*
X722480Y7450000D03*
X852520Y4250000D03*
X840020Y5225000D03*
Y5387500D03*
X865020Y6337500D03*
X852520Y7450000D03*
X1834980Y2012500D03*
X1965020D03*
X2527520Y837500D03*
X2397480D03*
Y1012500D03*
X2527520D03*
X2834980Y5925000D03*
X2965020D03*
X3815020Y900000D03*
X3684980D03*
X3815020Y725000D03*
X3684980D03*
X3659980Y1450000D03*
X3790020D03*
X3659980Y1150000D03*
X3790020D03*
X4490020Y3925000D03*
X4359980D03*
X5375000Y5250000D03*
X5505040D03*
X5375000Y5900000D03*
X5505040D03*
X6897480Y3262500D03*
X7027520D03*
X7372480Y6200000D03*
X7502520D03*
X8134980Y5325000D03*
X8265020D03*
G54D27*
X7825000Y3150000D03*
G54D37*
G01Y3020000D02*
Y3150000D01*
G54D28*
X7755000Y4000000D03*
X7595000D03*
G54D19*
X1058500Y1506500D03*
Y1887500D03*
Y1760500D03*
Y1633500D03*
Y2268500D03*
Y2141500D03*
Y2014500D03*
X1566500Y1506500D03*
Y1633500D03*
Y1760500D03*
Y1887500D03*
Y2014500D03*
Y2141500D03*
Y2268500D03*
G54D38*
G01X3175000Y1050000D02*
Y900000D01*
X3025000Y750000D01*
X2712500D01*
G54D29*
X7635000Y4197500D03*
Y4387500D03*
X7865000Y4292500D03*
Y4197500D03*
Y4387500D03*
X8272500Y6125000D03*
Y5935000D03*
X8502500Y6125000D03*
Y6030000D03*
Y5935000D03*
G54D39*
G01X1687500Y7612500D02*
X1900000Y7825000D01*
X2343500D01*
X2516500Y7652000D01*
G01X4450000Y4125000D02*
X4359980Y4034980D01*
Y3925000D01*
G01X7367500Y6000000D02*
X7212500D01*
G01X7372480Y6200000D02*
Y6126740D01*
X7367500Y6121760D01*
Y6000000D01*
G01X8875000Y4200000D02*
X9075000Y4400000D01*
Y6125000D01*
X8887500Y6312500D01*
X8460000D01*
X8359160Y6211660D01*
Y6181660D01*
X8302500Y6125000D01*
X8272500D01*
M02*
