G04 ================== begin FILE IDENTIFICATION RECORD ==================*
G04 Layout Name:  D:/SOP1HC/MIC/SCHE/RELEASE_011/SCHE/allegro/STM32F746NGH_V110_4.brd*
G04 Film Name:    PATSEMASK_BOT*
G04 File Format:  Gerber RS274X*
G04 File Origin:  Cadence Allegro 16.6-P004*
G04 Origin Date:  Sat Feb 06 22:13:17 2016*
G04 *
G04 Layer:  PIN/PASTEMASK_BOTTOM*
G04 Layer:  PACKAGE GEOMETRY/PASTEMASK_BOTTOM*
G04 *
G04 Offset:    (0.0000 0.0000)*
G04 Mirror:    No*
G04 Mode:      Positive*
G04 Rotation:  0*
G04 FullContactRelief:  No*
G04 UndefLineWidth:     0.0000*
G04 ================== end FILE IDENTIFICATION RECORD ====================*
%FSLAX25Y25*MOMM*%
%IR0*IPPOS*OFA0.00000B0.00000*MIA0B0*SFA1.00000B1.00000*%
%ADD20R,1.2X.6*%
%ADD11R,1.45X.4*%
%ADD14R,.9X1.6*%
%ADD16R,1.2X1.4*%
%ADD12C,1.*%
%ADD17R,.45X.5*%
%ADD21C,2.5*%
%ADD18R,2.5X1.75*%
%ADD15R,.9X.8*%
%ADD19R,.8X.9*%
%ADD10R,.889X.7112*%
%ADD13R,.7112X.889*%
%LPD*%
G75*
G54D10*
X790020Y1500000D03*
X659980D03*
X684980Y2262500D03*
X815020D03*
X722480Y4250000D03*
X527520Y5225000D03*
X397480D03*
X709980D03*
Y5387500D03*
X552520Y6337500D03*
X422480D03*
X734980D03*
X722480Y7450000D03*
X852520Y4250000D03*
X840020Y5225000D03*
Y5387500D03*
X865020Y6337500D03*
X852520Y7450000D03*
X1834980Y2012500D03*
X1965020D03*
X2527520Y837500D03*
X2397480D03*
Y1012500D03*
X2527520D03*
X2834980Y5925000D03*
X2965020D03*
X3815020Y900000D03*
X3684980D03*
X3815020Y725000D03*
X3684980D03*
X3659980Y1450000D03*
X3790020D03*
X3659980Y1150000D03*
X3790020D03*
X4490020Y3925000D03*
X4359980D03*
X5375000Y5250000D03*
X5505040D03*
X5375000Y5900000D03*
X5505040D03*
X6897480Y3262500D03*
X7027520D03*
X7372480Y6200000D03*
X7502520D03*
X8134980Y5325000D03*
X8265020D03*
G54D11*
X1058500Y1506500D03*
Y1887500D03*
Y1760500D03*
Y1633500D03*
Y2268500D03*
Y2141500D03*
Y2014500D03*
X1566500Y1506500D03*
Y1633500D03*
Y1760500D03*
Y1887500D03*
Y2014500D03*
Y2141500D03*
Y2268500D03*
G54D20*
X7635000Y4197500D03*
Y4387500D03*
X7865000Y4292500D03*
Y4197500D03*
Y4387500D03*
X8272500Y6125000D03*
Y5935000D03*
X8502500Y6125000D03*
Y6030000D03*
Y5935000D03*
G54D21*
X8827500Y6817500D03*
X9517500D03*
G54D12*
X1825000Y1625000D03*
G54D13*
X2887500Y5047480D03*
Y5177520D03*
Y5409980D03*
Y5540020D03*
X3600000Y6565020D03*
Y6434980D03*
X3290020Y6309980D03*
Y6440020D03*
X3337500Y6772480D03*
Y6902520D03*
X3500000Y6772480D03*
Y6902520D03*
X3725000Y6565020D03*
Y6434980D03*
X3965020Y6309980D03*
Y6440020D03*
X4465020Y6309980D03*
Y6440020D03*
X4900000Y859980D03*
Y990020D03*
Y1247480D03*
Y1377520D03*
X5115020Y6309980D03*
Y6440020D03*
X7237500Y4302520D03*
Y4172480D03*
X7362500Y5227520D03*
Y5097480D03*
X7400000Y3115020D03*
Y2984980D03*
X7537500Y5227520D03*
Y5097480D03*
X8250000Y3190020D03*
Y3059980D03*
X8150000Y4209980D03*
Y4340020D03*
X8062500Y6090020D03*
Y5959980D03*
X7900000Y6090020D03*
Y5959980D03*
G54D14*
X5027500Y4012500D03*
X5347500D03*
G54D15*
X7012500Y5242500D03*
Y5082500D03*
X7187500Y5242500D03*
Y5082500D03*
X7562500Y2970000D03*
Y3130000D03*
X7400000Y4157500D03*
Y4317500D03*
X8412500Y3045000D03*
Y3205000D03*
X8325000Y4355000D03*
Y4195000D03*
X8712500Y6042500D03*
Y5882500D03*
G54D16*
X7367500Y6000000D03*
X7607500D03*
G54D17*
X7730000Y3280000D03*
Y3020000D03*
X7920000Y3280000D03*
X7825000D03*
X7920000Y3020000D03*
X7825000D03*
G54D18*
Y3150000D03*
G54D19*
X7755000Y4000000D03*
X7595000D03*
M02*
