G04 ================== begin FILE IDENTIFICATION RECORD ==================*
G04 Layout Name:  Mic_Array_main_250pcs.brd*
G04 Film Name:    SOLDERMASK_TOP*
G04 File Format:  Gerber RS274X*
G04 File Origin:  Cadence Allegro 16.6-P004*
G04 Origin Date:  Fri May 13 11:46:30 2016*
G04 *
G04 Layer:  PIN/SOLDERMASK_TOP*
G04 Layer:  VIA CLASS/SOLDERMASK_TOP*
G04 Layer:  PACKAGE GEOMETRY/SOLDERMASK_TOP*
G04 Layer:  BOARD GEOMETRY/SOLDERMASK_TOP*
G04 *
G04 Offset:    (0.0000 0.0000)*
G04 Mirror:    No*
G04 Mode:      Positive*
G04 Rotation:  0*
G04 FullContactRelief:  No*
G04 UndefLineWidth:     0.0000*
G04 ================== end FILE IDENTIFICATION RECORD ====================*
%FSLAX25Y25*MOMM*%
%IR0*IPPOS*OFA0.00000B0.00000*MIA0B0*SFA1.00000B1.00000*%
%ADD20R,1.1X.32*%
%ADD32R,1.3X.4*%
%ADD23R,.32X1.1*%
%ADD31R,.4X1.3*%
%ADD48R,2.7X.7*%
%ADD41R,1.35X.75*%
%ADD11C,.7*%
%ADD12C,.65*%
%ADD18R,1.0414X.8636*%
%ADD19R,.8636X1.0414*%
%ADD24R,1.1X1.*%
%ADD27R,1.X1.1*%
%ADD28R,2.X1.2*%
%ADD38R,1.X3.1*%
%ADD42R,3.X3.*%
%ADD22R,1.7X1.*%
%ADD51R,2.4X3.*%
%ADD34R,1.X1.7*%
%ADD39R,1.7X1.2*%
%ADD30R,1.2X1.7*%
%ADD25R,1.4X1.6*%
%ADD47R,2.7X2.2*%
%ADD26R,1.6X1.4*%
%ADD21C,1.1*%
%ADD44R,2.35X1.15*%
%ADD35O,.9X.33*%
%ADD36O,.33X.9*%
%ADD33R,.9X.4*%
%ADD50C,1.4*%
%ADD49R,2.35X3.45*%
%ADD15C,1.7*%
%ADD29R,2.15X1.95*%
%ADD16C,1.8*%
%ADD45C,2.8*%
%ADD10C,5.05*%
%ADD37R,4.45X4.45*%
%ADD13C,1.65*%
%ADD46R,.65X.65*%
%ADD40R,.65X.65*%
%ADD17R,1.8X1.8*%
%ADD14R,1.65X1.65*%
%ADD43C,3.8999*%
%LPD*%
G75*
G54D10*
X350000Y350000D03*
Y7650000D03*
X9650000Y350000D03*
Y7650000D03*
G54D11*
X162500Y1650000D03*
X150000Y2150000D03*
X162500Y2650000D03*
Y4650000D03*
Y5150000D03*
Y5650000D03*
Y6150000D03*
Y6650000D03*
Y7150000D03*
X575000Y4250000D03*
X550000Y5387500D03*
X1087470Y3187530D03*
X1250000Y6900000D03*
X1087500D03*
X825000Y7837500D03*
X1287500Y3900000D03*
X1675000Y4612500D03*
X1337500Y4875000D03*
X1675000D03*
X1587500Y5625000D03*
X1675000Y5300000D03*
X1587500Y5900000D03*
Y7000000D03*
X1725000Y7387500D03*
X1325000Y7837500D03*
X2112500Y3425000D03*
X2162500Y3862500D03*
X2075000Y3662500D03*
X2200000Y4325000D03*
X2087500Y4150000D03*
X2112500Y4450000D03*
X1837500Y5275000D03*
Y5450000D03*
X2600000Y2300000D03*
X2587500Y3675000D03*
X2575000Y3425000D03*
X2462500Y4637500D03*
X2587500Y4475000D03*
X2612500Y4725000D03*
X2587500Y4372480D03*
X2612500Y4862500D03*
X2212500Y4950000D03*
Y5112500D03*
X2275000Y6187500D03*
X2450000Y6125000D03*
X2275000Y6062500D03*
X2675000Y7050000D03*
Y6950000D03*
X3100000Y1400000D03*
X3025000Y3475000D03*
Y4025000D03*
X2775000Y5075000D03*
X3037500Y5062500D03*
X3112500Y5562500D03*
X2775000Y5475000D03*
X3012500Y5500000D03*
X2725000Y5925000D03*
X3112500Y6937500D03*
X2925000Y7325000D03*
X2825000Y7200000D03*
Y7837500D03*
X3575000Y437500D03*
X3234980Y762500D03*
X3550000Y1125000D03*
Y1425000D03*
X3512500Y1737500D03*
X3387500D03*
X3262500D03*
X3525000Y1900000D03*
X3400000Y2350000D03*
Y2025000D03*
X3525000Y2175000D03*
X3400000Y2675000D03*
Y3100000D03*
X3387500Y3612500D03*
X3400000Y4050000D03*
X3150000Y4025000D03*
X3400000Y4512500D03*
X3150000Y4475000D03*
X3175000Y5175000D03*
X3300000D03*
X3175000Y5425000D03*
X3275000D03*
X3175000Y5275000D03*
X3300000D03*
X3325000Y5712500D03*
X3287500Y6187500D03*
X3412500Y6000000D03*
Y6187500D03*
X3537500D03*
X3387500Y6650000D03*
X3500000D03*
X3287500Y6562500D03*
X3225000Y6940020D03*
X3925000Y900000D03*
X3862500Y1940480D03*
X3937500Y2000000D03*
X3800000Y2187500D03*
X3825000Y2075000D03*
X3800000Y2712500D03*
X4050000Y2825000D03*
X3800000Y2612500D03*
X4050000Y2950000D03*
X3850000Y3125000D03*
Y3275000D03*
X3625000D03*
X3975000Y3500000D03*
X3850000D03*
X3612500Y3437500D03*
X4000000Y4150000D03*
X3737500Y4850000D03*
X3875000Y5450000D03*
X3750000Y5325000D03*
X3987530Y5587530D03*
X3962500Y6187500D03*
X3825000D03*
X3962500Y6562500D03*
X3762500Y6900000D03*
X3650000D03*
X4287500Y425000D03*
X4112500Y1962500D03*
Y2075000D03*
X4150000Y3500000D03*
Y3600000D03*
X4137500Y4075000D03*
X4262500D03*
X4212500Y3950000D03*
X4487500Y4025000D03*
X4512500Y4575000D03*
X4462500Y6187500D03*
X4312500Y6175000D03*
X4112500D03*
X4462500Y6562500D03*
X4325000Y7837500D03*
X5000000Y425000D03*
X4637500D03*
X4650000Y1525000D03*
X4775000Y1500000D03*
X4650000Y1650000D03*
Y1775000D03*
X4775000D03*
Y1900000D03*
X4650000D03*
Y2037500D03*
X5000000Y3562500D03*
X4637500Y4675000D03*
X4862500Y4425000D03*
X5000000D03*
X4662500Y5712500D03*
X4600000Y5500000D03*
X4825000Y6187500D03*
X4725000Y6189160D03*
X4812500Y6562500D03*
X4762500Y7000000D03*
X4637500Y7287500D03*
X4550000Y7475000D03*
X5025000Y825000D03*
Y925000D03*
Y1225000D03*
X5025110Y1775110D03*
X5025000Y1900000D03*
X5075000Y2225000D03*
X5187500Y2500000D03*
Y2825000D03*
X5075000Y2956250D03*
X5125000Y3562500D03*
X5062500Y4287500D03*
X5125000Y4400000D03*
X5312500D03*
X5225000Y4600000D03*
X5200000Y4775000D03*
X5325000D03*
X5275000Y5250000D03*
X5325000Y4950000D03*
X5200000D03*
X5250000Y5125000D03*
X5275000Y5737500D03*
Y5575000D03*
Y5400000D03*
X5037500Y5700000D03*
Y5487500D03*
X5115020Y6187500D03*
X5275000Y5900000D03*
X5050000Y6100000D03*
X5012500Y6562500D03*
X5219110Y6555890D03*
X5375000Y6862500D03*
X5150000Y6750000D03*
X5250000Y7050000D03*
X5087500Y7000000D03*
X5425000Y7012500D03*
X5062500Y7475000D03*
X5325000Y7837500D03*
X5525000Y1050000D03*
Y875000D03*
Y1400000D03*
Y1225000D03*
Y1575000D03*
X5600000Y4300000D03*
X5837500Y4187500D03*
X5825000Y3975000D03*
X5750000Y4775000D03*
X5925000Y4537500D03*
X5750000Y4625000D03*
X5612500Y5212500D03*
X5662500Y5587500D03*
X5612500Y5937500D03*
X5737500Y6587500D03*
Y6437500D03*
X5750000Y7100000D03*
X5600000Y6950000D03*
X5750000Y7225000D03*
X5862500Y7575000D03*
X5625000Y7225000D03*
X5825000Y7837500D03*
X6250000Y3775000D03*
X6350000D03*
X6250000Y3975000D03*
Y3875000D03*
X6350000D03*
Y3975000D03*
X6325000Y4750000D03*
Y4650000D03*
X6225000Y4750000D03*
Y4650000D03*
Y4550000D03*
X6325000D03*
Y4850000D03*
X6225000D03*
X6162500Y5587500D03*
Y5812500D03*
X6287500Y5950000D03*
X5990020Y6312500D03*
X6325000Y6537500D03*
X6387500Y6312500D03*
X6002520Y6612500D03*
X6325000Y7112500D03*
X6225000D03*
X6100000Y6725000D03*
X6325000Y6712500D03*
Y6887500D03*
X6112500Y7012500D03*
X6375000Y7575000D03*
X6325000Y7837500D03*
X6450000Y3775000D03*
Y3975000D03*
Y3875000D03*
X6837500Y4100000D03*
Y4337500D03*
X6737500Y4687500D03*
Y4537500D03*
Y4837500D03*
X6675000Y5587500D03*
Y5812500D03*
X6525000Y6050000D03*
X6500000Y6537500D03*
X6675000D03*
X6762500Y7112500D03*
X6650000D03*
X6500000Y6887500D03*
X6675000Y6712500D03*
Y6887500D03*
X6500000Y6712500D03*
X6537500Y7575000D03*
X6825000Y7837500D03*
X7250000Y3850000D03*
Y3950000D03*
X7125000Y4575000D03*
Y4475000D03*
X7325000Y4575000D03*
X7225000D03*
Y4475000D03*
X7325000D03*
X7012500Y4950000D03*
X7300000Y5587500D03*
X7212500Y6000000D03*
X7175000Y6400000D03*
X7112500Y6825000D03*
X7300000Y6987500D03*
X7297520Y7475000D03*
Y7312500D03*
Y7150000D03*
X7325000Y7837500D03*
X7600000Y2725000D03*
Y2825000D03*
X7500000Y2625000D03*
X7400000D03*
X7500000Y2725000D03*
X7400000D03*
X7500000Y2825000D03*
X7400000D03*
Y3375000D03*
X7500000D03*
Y3275000D03*
X7400000D03*
X7450000Y3850000D03*
X7350000D03*
X7725000D03*
X7500000Y3475000D03*
X7400000D03*
X7350000Y3950000D03*
X7450000D03*
X7775000Y4562500D03*
X7525000Y4575000D03*
X7425000D03*
Y4475000D03*
X7662500Y5162500D03*
X7362500Y5350000D03*
X7500000Y5812500D03*
X7425000Y6462500D03*
X7550000Y6900000D03*
X7412500Y6887500D03*
X8150000Y137500D03*
X8162500Y612500D03*
X8249810Y2900260D03*
X8025000Y3150000D03*
X8175000Y4600000D03*
Y4500000D03*
X7925000Y5150000D03*
Y5512500D03*
X7950000Y5325000D03*
X8150000Y5862500D03*
X8062500Y6225000D03*
X7825000Y7837500D03*
X8650000Y137500D03*
X8662500Y612500D03*
X8632500Y2367500D03*
X8349810Y2900260D03*
X8449810D03*
X8700000Y3375000D03*
Y3275000D03*
X8600000Y3375000D03*
Y3275000D03*
Y3475000D03*
X8700000D03*
X8701280Y3898370D03*
Y3998370D03*
Y4098370D03*
X8601280Y3898370D03*
Y3998370D03*
Y4098370D03*
X8375000Y4600000D03*
X8275000D03*
Y4500000D03*
X8375000D03*
X8425000Y5150000D03*
X8412500Y5562500D03*
Y5475000D03*
Y5325000D03*
X8662500Y6162500D03*
X8325000Y7837500D03*
X9150000Y137500D03*
X9162500Y612500D03*
X8800000Y3375000D03*
Y3275000D03*
Y3475000D03*
X8801280Y3898370D03*
Y3998370D03*
Y4098370D03*
X8775000Y5225000D03*
X8800000Y5125000D03*
X8787500Y5425000D03*
X8812500Y5562500D03*
X8825000Y6037500D03*
Y7837500D03*
X9275000Y3062500D03*
X9325000Y7837500D03*
X9850000Y637500D03*
Y1137500D03*
Y1637500D03*
Y2137500D03*
Y2637500D03*
Y3137500D03*
Y3637500D03*
Y4137500D03*
Y4637500D03*
Y5137500D03*
Y5637500D03*
Y6137500D03*
X9725000Y6250000D03*
G54D20*
X712500Y1687500D03*
Y1737500D03*
Y1787500D03*
Y1837500D03*
Y1887500D03*
Y1937500D03*
Y1987500D03*
Y2037500D03*
Y2087500D03*
Y2137500D03*
Y2187500D03*
Y2237500D03*
Y2287500D03*
Y2337500D03*
Y2387500D03*
Y2437500D03*
X1812500Y1937500D03*
Y1887500D03*
Y1837500D03*
Y1787500D03*
Y1737500D03*
Y1687500D03*
Y2437500D03*
Y2387500D03*
Y2337500D03*
Y2287500D03*
Y2237500D03*
Y2187500D03*
Y2137500D03*
Y2087500D03*
Y2037500D03*
Y1987500D03*
G54D21*
X412500Y2625000D03*
X1537500Y4862500D03*
Y5300000D03*
X7187500Y3375000D03*
X7337500Y4312500D03*
X9325000Y3687500D03*
G54D30*
X2450000Y3425000D03*
X2250000D03*
G54D12*
X312500Y1884220D03*
X287500Y1550000D03*
X312500Y1750000D03*
X375000Y1200000D03*
X587500Y1762500D03*
X537500Y2150000D03*
X550000Y2037500D03*
X437500Y2087500D03*
Y2500000D03*
X775000Y3650000D03*
X1012500Y525000D03*
X1187500Y825000D03*
X1050000Y1175000D03*
X837500Y1387500D03*
X900000Y1187500D03*
X1275000Y1662500D03*
X862500Y1787500D03*
X875000Y2375000D03*
X1012500Y2962500D03*
X1150000D03*
X1625000Y1175000D03*
X1475000D03*
X1400000Y1725000D03*
Y1850000D03*
Y2225000D03*
X1600000Y2937500D03*
X1462500Y2962500D03*
X1737500Y3975000D03*
X1787500Y1037500D03*
X1750000Y1475000D03*
X1887500Y1250000D03*
X2012500D03*
X2162500Y1900000D03*
X1950000Y1612500D03*
X2162500Y2200000D03*
X1962500Y2125000D03*
X2050000Y2437500D03*
X2162500Y2100000D03*
X2125000Y2825000D03*
X1787500Y2712500D03*
X2237500Y1012500D03*
Y837500D03*
X2275000Y1642000D03*
X2262500Y1800000D03*
X2525000Y2812500D03*
X2712500Y750000D03*
X2700000Y1112500D03*
X3100000Y1562500D03*
X3012500Y4987500D03*
X2862500Y6762500D03*
X3550000Y775000D03*
Y962500D03*
X3387500Y2112500D03*
X3400000Y2487500D03*
X3925000Y1150000D03*
Y1450000D03*
X3637500Y6237500D03*
X3762500Y6712500D03*
X3637500D03*
X3812500Y6975000D03*
X4450000Y4125000D03*
X4775000Y1375000D03*
Y1075000D03*
X4675000Y4025000D03*
Y4162500D03*
X4900230Y4187500D03*
X5112500Y712500D03*
X5187500Y2350000D03*
X5181250Y2668750D03*
X5337500Y7050000D03*
X5525000Y612500D03*
Y712500D03*
X5887500Y5000000D03*
X5912500Y5150000D03*
X6250000Y5025000D03*
X6200000Y6037500D03*
X6300000Y6187500D03*
X5962500Y6987500D03*
X6462500Y5437500D03*
X6662500Y5337500D03*
X6525000Y6187500D03*
X7250000Y6137500D03*
X7962500Y6212500D03*
X8325000Y7562500D03*
G54D40*
X7640000Y6100000D03*
X7400000D03*
G54D13*
X360500Y2967000D03*
Y3221000D03*
Y3475000D03*
Y3729000D03*
X614500Y2967000D03*
Y3221000D03*
Y3475000D03*
Y3729000D03*
Y3983000D03*
X2008500Y7398000D03*
Y7652000D03*
X2262500Y7398000D03*
Y7652000D03*
X2539500Y6485500D03*
Y6739500D03*
X2285500D03*
X2516500Y7398000D03*
X3587500Y7652000D03*
Y7398000D03*
X3333500Y7652000D03*
X3841500D03*
Y7398000D03*
X5063880Y7650100D03*
X4809880D03*
X5317880D03*
X6779000Y247000D03*
X6525000D03*
X6779000Y501000D03*
X6525000D03*
X6779000Y755000D03*
X6525000D03*
X6779000Y1009000D03*
X6525000D03*
X6779000Y1263000D03*
X6525000D03*
X6779000Y1517000D03*
X6525000D03*
X6779000Y1771000D03*
X6525000D03*
X6779000Y2025000D03*
G54D22*
X1012500Y652500D03*
Y972500D03*
G54D31*
X3090020Y3825000D03*
Y6375000D03*
X3590020Y3825000D03*
X3540020D03*
X3490020D03*
X3440020D03*
X3390020D03*
X3340020D03*
X3290020D03*
X3240020D03*
X3190020D03*
X3140020D03*
Y6375000D03*
X3190020D03*
X3240020D03*
X3290020D03*
X3340020D03*
X3390020D03*
X3440020D03*
X3490020D03*
X3540020D03*
X3590020D03*
X4040020Y3825000D03*
X3990020D03*
X3940020D03*
X3890020D03*
X3840020D03*
X3790020D03*
X3740020D03*
X3690020D03*
X3640020D03*
Y6375000D03*
X3690020D03*
X3740020D03*
X3790020D03*
X3840020D03*
X3890020D03*
X3940020D03*
X3990020D03*
X4040020D03*
X4490020Y3825000D03*
X4440020D03*
X4390020D03*
X4340020D03*
X4290020D03*
X4240020D03*
X4190020D03*
X4140020D03*
X4090020D03*
Y6375000D03*
X4140020D03*
X4190020D03*
X4240020D03*
X4290020D03*
X4340020D03*
X4390020D03*
X4440020D03*
X4490020D03*
X4990020Y3825000D03*
X4940020D03*
X4890020D03*
X4840020D03*
X4790020D03*
X4740020D03*
X4690020D03*
X4640020D03*
X4590020D03*
X4540020D03*
Y6375000D03*
X4590020D03*
X4640020D03*
X4690020D03*
X4740020D03*
X4790020D03*
X4840020D03*
X4890020D03*
X4940020D03*
X4990020D03*
X5240020Y3825000D03*
X5190020D03*
X5140020D03*
X5090020D03*
X5040020D03*
Y6375000D03*
X5090020D03*
X5140020D03*
X5190020D03*
X5240020D03*
G54D14*
X360500Y3983000D03*
X2285500Y6485500D03*
X2516500Y7652000D03*
X3333500Y7398000D03*
X4555880Y7650100D03*
X6525000Y2025000D03*
G54D50*
X9301320Y5145460D03*
Y5585460D03*
G54D41*
X8290000Y5230000D03*
X8060000D03*
X8290000Y5420000D03*
Y5325000D03*
X8060000D03*
Y5420000D03*
G54D23*
X1237500Y1512500D03*
X1187500D03*
X1137500D03*
X1087500D03*
X1037500D03*
X987500D03*
X937500D03*
X887500D03*
Y2612500D03*
X937500D03*
X987500D03*
X1037500D03*
X1087500D03*
X1137500D03*
X1187500D03*
X1237500D03*
X1637500Y1512500D03*
X1587500D03*
X1537500D03*
X1487500D03*
X1437500D03*
X1387500D03*
X1337500D03*
X1287500D03*
X1637500Y2612500D03*
X1287500D03*
X1337500D03*
X1387500D03*
X1437500D03*
X1487500D03*
X1537500D03*
X1587500D03*
G54D32*
X2890020Y4025000D03*
Y4075000D03*
Y4125000D03*
Y4175000D03*
Y4225000D03*
Y4275000D03*
Y4325000D03*
Y4375000D03*
Y4425000D03*
Y4475000D03*
Y4525000D03*
Y4575000D03*
Y4625000D03*
Y4675000D03*
Y4725000D03*
Y4775000D03*
Y4825000D03*
Y4875000D03*
Y4925000D03*
Y4975000D03*
Y5025000D03*
Y5075000D03*
Y5125000D03*
Y5175000D03*
Y5225000D03*
Y5275000D03*
Y5325000D03*
Y5375000D03*
Y5425000D03*
Y5475000D03*
Y5525000D03*
Y5575000D03*
Y5625000D03*
Y5675000D03*
Y5725000D03*
Y5775000D03*
Y5825000D03*
Y5875000D03*
Y5925000D03*
Y5975000D03*
Y6025000D03*
Y6075000D03*
Y6125000D03*
Y6175000D03*
X5440020Y4275000D03*
Y4225000D03*
Y4175000D03*
Y4125000D03*
Y4075000D03*
Y4025000D03*
Y4775000D03*
Y4725000D03*
Y4675000D03*
Y4625000D03*
Y4575000D03*
Y4525000D03*
Y4475000D03*
Y4425000D03*
Y4375000D03*
Y4325000D03*
Y5225000D03*
Y5175000D03*
Y5125000D03*
Y5075000D03*
Y5025000D03*
Y4975000D03*
Y4925000D03*
Y4875000D03*
Y4825000D03*
Y5675000D03*
Y5625000D03*
Y5575000D03*
Y5525000D03*
Y5475000D03*
Y5425000D03*
Y5375000D03*
Y5325000D03*
Y5275000D03*
Y6175000D03*
Y6125000D03*
Y6075000D03*
Y6025000D03*
Y5975000D03*
Y5925000D03*
Y5875000D03*
Y5825000D03*
Y5775000D03*
Y5725000D03*
G54D15*
X350000Y4437500D03*
Y5037500D03*
Y5550000D03*
Y6150000D03*
X362500Y6650000D03*
Y7250000D03*
X850000Y4437500D03*
Y5037500D03*
Y5550000D03*
Y6150000D03*
X862500Y6650000D03*
Y7250000D03*
G54D33*
X3690020Y825000D03*
Y875000D03*
Y925000D03*
Y975000D03*
Y1025000D03*
Y1075000D03*
Y1125000D03*
Y1175000D03*
Y1225000D03*
Y1275000D03*
Y1325000D03*
Y1375000D03*
Y1425000D03*
Y1475000D03*
Y1525000D03*
Y1575000D03*
Y1625000D03*
Y1675000D03*
Y1725000D03*
Y1775000D03*
Y1825000D03*
Y1875000D03*
Y1925000D03*
Y1975000D03*
Y2025000D03*
Y2075000D03*
Y2125000D03*
Y2175000D03*
Y2225000D03*
Y2275000D03*
Y2325000D03*
Y2375000D03*
Y2425000D03*
Y2475000D03*
Y2525000D03*
Y2575000D03*
Y2625000D03*
Y2675000D03*
Y2725000D03*
Y2775000D03*
Y2825000D03*
Y2875000D03*
Y2925000D03*
X4890020Y1025000D03*
Y975000D03*
Y925000D03*
Y875000D03*
Y825000D03*
Y1525000D03*
Y1475000D03*
Y1425000D03*
Y1375000D03*
Y1325000D03*
Y1275000D03*
Y1225000D03*
Y1175000D03*
Y1125000D03*
Y1075000D03*
Y1975000D03*
Y1925000D03*
Y1875000D03*
Y1825000D03*
Y1775000D03*
Y1725000D03*
Y1675000D03*
Y1625000D03*
Y1575000D03*
Y2425000D03*
Y2375000D03*
Y2325000D03*
Y2275000D03*
Y2225000D03*
Y2175000D03*
Y2125000D03*
Y2075000D03*
Y2025000D03*
Y2875000D03*
Y2825000D03*
Y2775000D03*
Y2725000D03*
Y2675000D03*
Y2625000D03*
Y2575000D03*
Y2525000D03*
Y2475000D03*
Y2925000D03*
G54D51*
X9427500Y6447500D03*
X9627500Y7187500D03*
G54D42*
X8297500Y6742500D03*
X8687500Y7187500D03*
G54D24*
X1087500Y4445000D03*
Y4605000D03*
Y5557500D03*
Y5717500D03*
X6037500Y7307500D03*
Y7467500D03*
X6800000Y6032500D03*
Y6192500D03*
X7050000Y6107500D03*
Y6267500D03*
X7825000Y6492500D03*
Y6332500D03*
X7837500Y6757500D03*
Y6917500D03*
G54D43*
X8750000Y925000D03*
X9350000D03*
X9050000Y1395000D03*
G54D16*
X687500Y821000D03*
X1433500Y7612500D03*
G54D25*
X2230000Y3662500D03*
X2470000D03*
X6142500Y5215000D03*
X6332500D03*
X6142500Y5435000D03*
X6332500D03*
X6682500Y4100000D03*
X6442500D03*
X6682500Y4337500D03*
X6442500D03*
G54D34*
X5765000Y6037500D03*
X6085000D03*
X7390000Y1237500D03*
X7710000D03*
G54D17*
X687500Y1075000D03*
X1687500Y7612500D03*
G54D35*
X6200000Y6487500D03*
Y6537500D03*
Y6587500D03*
Y6637500D03*
Y6687500D03*
Y6737500D03*
Y6787500D03*
Y6837500D03*
Y6887500D03*
Y6937500D03*
X6800000Y6637500D03*
Y6587500D03*
Y6537500D03*
Y6487500D03*
Y6937500D03*
Y6887500D03*
Y6837500D03*
Y6787500D03*
Y6737500D03*
Y6687500D03*
G54D44*
X8787500Y1907500D03*
Y2137500D03*
Y2367500D03*
G54D26*
X1890000Y4770000D03*
X2110000D03*
Y4580000D03*
X1890000D03*
G54D45*
X8827500Y6817500D03*
X9517500D03*
G54D36*
X6375000Y6412500D03*
X6325000D03*
X6275000D03*
Y7012500D03*
X6325000D03*
X6375000D03*
X6725000Y6412500D03*
X6675000D03*
X6625000D03*
X6575000D03*
X6525000D03*
X6475000D03*
X6425000D03*
Y7012500D03*
X6475000D03*
X6525000D03*
X6575000D03*
X6625000D03*
X6675000D03*
X6725000D03*
G54D27*
X2130000Y5275000D03*
X1970000D03*
X2130000Y5450000D03*
X1970000D03*
X2557500Y500000D03*
X2382500Y1012500D03*
X2542500D03*
Y837500D03*
X2382500D03*
X2717500Y500000D03*
X7095000Y2875000D03*
X7255000D03*
X7180000Y6987500D03*
X7020000D03*
X7580000Y6337500D03*
X7420000D03*
X7670000Y7162500D03*
X7830000D03*
X9145000Y6100000D03*
X9555000Y3062500D03*
X9395000D03*
X9542500Y4412500D03*
X9382500D03*
X9482500Y6100000D03*
X9642500D03*
X9305000D03*
G54D18*
X372480Y1462500D03*
X502520D03*
Y1300000D03*
X372480D03*
X502520Y1625000D03*
X372480D03*
X909980Y1275000D03*
X1040020D03*
X997480Y2850000D03*
X1127520D03*
X1484980Y1275000D03*
X1615020D03*
X1447480Y2850000D03*
X1577520D03*
X1747480Y4237500D03*
Y4400000D03*
X1409980Y4725000D03*
X1540020D03*
X1959980Y3000000D03*
X2090020D03*
X1934980Y3250000D03*
X2065020D03*
X1877520Y4237500D03*
Y4400000D03*
X2090020Y4950000D03*
X1959980D03*
X2090020Y5112500D03*
X1959980D03*
X1772480Y5625000D03*
X1902520D03*
X1772480Y5900000D03*
X1902520D03*
X2572480Y662500D03*
X2384980Y1212500D03*
X2515020D03*
X2384980Y1375000D03*
X2515020D03*
X2615020Y2400000D03*
X2484980D03*
Y2725000D03*
X2615020D03*
X2484980Y2562500D03*
X2615020D03*
X2334980Y3250000D03*
X2465020D03*
X2297480Y3062500D03*
X2427520D03*
X2309980Y3862500D03*
X2440020D03*
X2309980Y4025000D03*
X2440020D03*
X2334980Y4787500D03*
X2465020D03*
X2334980Y5275000D03*
X2465020D03*
Y4950000D03*
X2334980D03*
X2465020Y5112500D03*
X2334980D03*
Y5437500D03*
X2465020D03*
X2347480Y5675000D03*
X2477520D03*
X2347480Y5837500D03*
X2477520D03*
X2722480Y837500D03*
X2852520D03*
X2722480Y1012500D03*
X2852520D03*
X2702520Y662500D03*
X3234980Y1050000D03*
X3365020D03*
X3234980Y875000D03*
X3365020D03*
X3234980Y1400000D03*
X3365020D03*
X3234980Y1225000D03*
X3365020D03*
Y1575000D03*
X3234980D03*
X3965020Y3625000D03*
X3834980D03*
X4984980Y3675000D03*
X5259980Y712500D03*
X5390020D03*
Y875000D03*
X5259980D03*
X5390020Y1050000D03*
X5259980D03*
X5390020Y1400000D03*
X5259980D03*
X5390020Y1225000D03*
X5259980D03*
Y1575000D03*
X5390020D03*
X5115020Y3675000D03*
X5784980Y5262500D03*
X5915020D03*
Y5475000D03*
X5784980D03*
X5859980Y6400000D03*
X5872480Y7100000D03*
X5890020Y6875000D03*
X5759980D03*
X5890020Y6725000D03*
X5759980D03*
X6022480Y5025000D03*
X6152520D03*
X5990020Y6400000D03*
X6002520Y7100000D03*
X6484980Y4687500D03*
X6615020D03*
X6484980Y4537500D03*
X6615020D03*
X6665020Y5212500D03*
X6534980D03*
X6484980Y4837500D03*
X6615020D03*
X7109980Y3037500D03*
X7240020D03*
X7184980Y6525000D03*
X7315020D03*
X7034980Y7312500D03*
X7165020D03*
X7034980Y7150000D03*
X7165020D03*
Y7475000D03*
X7034980D03*
X7627520Y1450000D03*
X7497480D03*
X7627520Y1600000D03*
X7497480D03*
X7797480Y2162500D03*
X7409980Y6775000D03*
X7540020D03*
X7927520Y2162500D03*
X8665020Y5237500D03*
X8534980D03*
X8665020Y5562500D03*
X8534980D03*
X8665020Y5400000D03*
X8534980D03*
X8334980Y6100000D03*
X8465020D03*
Y5937500D03*
X8334980D03*
X8797480Y7562500D03*
X8927520D03*
X9540020Y2887500D03*
X9409980D03*
X9527520Y4237500D03*
X9397480D03*
G54D46*
X8962500Y2985000D03*
Y3225000D03*
X8975000Y4175000D03*
Y4415000D03*
G54D37*
X6500000Y6712500D03*
G54D28*
X2125000Y5637500D03*
Y5887500D03*
G54D19*
X437500Y1822480D03*
Y1952520D03*
Y2247480D03*
Y2377520D03*
X1250000Y6647480D03*
X1087500D03*
X1250000Y6777520D03*
X1087500D03*
X1787500Y1134980D03*
Y1265020D03*
X2050000Y1884980D03*
Y2015020D03*
Y2197480D03*
Y2327520D03*
X2037500Y7140020D03*
Y7009980D03*
X2200000Y7140020D03*
Y7009980D03*
X2387500Y509980D03*
Y640020D03*
X2300000Y4197480D03*
Y4327520D03*
X2450000Y4197480D03*
Y4327520D03*
X2364920Y7135160D03*
Y7005120D03*
X2530300Y7135160D03*
Y7005120D03*
X2687500Y1352520D03*
Y1222480D03*
X3137500Y3602520D03*
Y3472480D03*
X2700000Y4502520D03*
Y4372480D03*
X2862500Y6640020D03*
Y6509980D03*
X3287500Y2327520D03*
Y2197480D03*
X3500000Y2359980D03*
Y2490020D03*
Y2684980D03*
Y2815020D03*
Y3140020D03*
Y3009980D03*
X3300000Y3602520D03*
Y3472480D03*
X3337500Y6809980D03*
Y6940020D03*
X3500000Y6809980D03*
Y6940020D03*
X4025000Y434980D03*
Y565020D03*
X3850000Y434980D03*
Y565020D03*
X3675000Y434980D03*
Y565020D03*
X4200000Y434980D03*
Y565020D03*
X4375000Y434980D03*
Y565020D03*
X4150000Y6809980D03*
Y6940020D03*
X4312500Y6809980D03*
Y6940020D03*
X4900000Y434980D03*
Y565020D03*
X4725000Y434980D03*
Y565020D03*
X4550000Y434980D03*
Y565020D03*
X5000000Y6747480D03*
Y6877520D03*
X4837500Y6747480D03*
Y6877520D03*
X5075000Y2359980D03*
Y2490020D03*
Y2815020D03*
Y2684980D03*
X5737500Y4177520D03*
Y4047480D03*
X5650000Y4765020D03*
Y4634980D03*
X5862500Y7322480D03*
Y7452520D03*
X6212500Y7322480D03*
Y7452520D03*
X6375000Y7322480D03*
Y7452520D03*
X6637500Y6047480D03*
Y6177520D03*
X6425000Y5959980D03*
Y6090020D03*
X6700000Y7322480D03*
Y7452520D03*
X6537500Y7322480D03*
Y7452520D03*
X6862500D03*
Y7322480D03*
G54D29*
X2450000Y1642000D03*
Y2150000D03*
X2870000Y1642000D03*
Y2150000D03*
G54D47*
X9041320Y4925460D03*
Y5805460D03*
X9591320Y4925460D03*
Y5805460D03*
G54D38*
X7377500Y462500D03*
X7697500D03*
X7690000Y2450000D03*
X8010000D03*
G54D39*
X7725000Y975000D03*
Y775000D03*
G54D48*
X9041320Y5205460D03*
Y5525460D03*
Y5445460D03*
Y5365460D03*
Y5285460D03*
G54D49*
X9397500Y2137500D03*
M02*
