G04 ================== begin FILE IDENTIFICATION RECORD ==================*
G04 Layout Name:  Mic_Array_main_250pcs.brd*
G04 Film Name:    INT_LAYER2*
G04 File Format:  Gerber RS274X*
G04 File Origin:  Cadence Allegro 16.6-P004*
G04 Origin Date:  Fri May 13 11:46:30 2016*
G04 *
G04 Layer:  PLAN/INT_LAYER2*
G04 Layer:  VIA CLASS/INT_LAYER2*
G04 Layer:  ETCH/INT_LAYER2*
G04 Layer:  BOARD GEOMETRY/OUTLINE*
G04 Layer:  BOARD GEOMETRY/DIMENSION*
G04 *
G04 Offset:    (0.0000 0.0000)*
G04 Mirror:    No*
G04 Mode:      Positive*
G04 Rotation:  0*
G04 FullContactRelief:  No*
G04 UndefLineWidth:     0.0000*
G04 ================== end FILE IDENTIFICATION RECORD ====================*
%FSLAX25Y25*MOMM*%
%IR0*IPPOS*OFA0.00000B0.00000*MIA0B0*SFA1.00000B1.00000*%
%ADD11C,.6*%
%ADD10C,.6096*%
%ADD12C,.3*%
%ADD13C,.15*%
%ADD20O,2.3042X1.0542*%
%ADD25C,2.2004*%
%ADD26C,3.2004*%
%ADD16O,1.0542X2.0542*%
%ADD22C,1.064*%
%ADD21C,1.0544*%
%ADD28C,4.8004*%
%ADD17O,2.3138X1.0638*%
%ADD15O,1.0638X2.3138*%
%ADD27C,4.3544*%
%ADD23C,1.6544*%
%ADD24C,1.7544*%
%ADD19O,2.0638X1.0638*%
%ADD14O,1.0638X2.0638*%
%ADD29O,1.0638X2.1888*%
%ADD18O,2.1888X1.0638*%
G75*
%LPD*%
G75*
G36*
G01X612500Y122510D02*
Y212620D01*
X613660Y217630D01*
X614800Y219950D01*
G03Y480050I-264800J130050D01*
G01X613660Y482370D01*
X612500Y487380D01*
Y590000D01*
G03X590000Y612500I-22500J0D01*
G01X487380D01*
X482370Y613660D01*
X480050Y614800D01*
G03X219950I-130050J-264800D01*
G01X217630Y613660D01*
X212620Y612500D01*
X122510D01*
G02X100010Y635000I0J22500D01*
G01Y7365000D01*
G02X122510Y7387500I22500J0D01*
G01X212620D01*
X217630Y7386340D01*
X219950Y7385200D01*
G03X265400Y7367370I130096J264783D01*
G01X270550Y7365830D01*
X278320Y7358450D01*
X294140Y7314170D01*
X292800Y7303530D01*
X289790Y7299070D01*
G03X431990Y7303530I72709J-49071D01*
G01X428710Y7307790D01*
X426710Y7318320D01*
X438240Y7358320D01*
G02X451320Y7372920I21627J-6216D01*
G03X480040Y7385190I-101384J277053D01*
G01X482070Y7386190D01*
X487070Y7387500D01*
X615000D01*
G03X637500Y7410000I0J22500D01*
G01Y7583780D01*
X638030Y7586180D01*
G03Y7713820I-288030J63820D01*
G01X637500Y7716220D01*
Y7877490D01*
G02X660000Y7899990I22500J0D01*
G01X9365000D01*
G02X9387500Y7877490I0J-22500D01*
G01Y7787380D01*
X9386340Y7782370D01*
X9385200Y7780050D01*
G03X9385190Y7519950I264800J-130060D01*
G01X9386190Y7517930D01*
X9387500Y7512930D01*
Y7397500D01*
G03X9410000Y7375000I22500J0D01*
G01X9543090D01*
X9546900Y7373580D01*
G03X9753100I103100J276420D01*
G01X9756910Y7375000D01*
X9877490D01*
G02X9899990Y7352500I0J-22500D01*
G01Y635000D01*
G02X9877490Y612500I-22500J0D01*
G01X9787380D01*
X9782370Y613660D01*
X9780050Y614800D01*
G03X9519950I-130050J-264800D01*
G01X9517630Y613660D01*
X9512620Y612500D01*
X9410000D01*
G03X9387500Y590000I0J-22500D01*
G01Y487380D01*
X9386340Y482370D01*
X9385200Y480050D01*
G03Y219950I264800J-130050D01*
G01X9386340Y217630D01*
X9387500Y212620D01*
Y122510D01*
G02X9365000Y100010I-22500J0D01*
G01X7063140D01*
G02X7062070Y100040I95J22498D01*
G01X6894010Y108030D01*
G02X6874570Y121260I1073J22475D01*
G01X6858090Y157820D01*
G02X6858080Y157850I21339J7130D01*
G02X6860660Y180640I20526J9217D01*
G03X6816050Y345480I-81659J66357D01*
G01X6809440Y347970D01*
X6801430Y359610D01*
X6801600Y388620D01*
X6809580Y400070D01*
X6816120Y402540D01*
G03X6817250Y599020I-37118J98457D01*
G01X6810740Y601560D01*
X6802890Y613120D01*
X6803030Y636190D01*
G02X6806960Y648770I22501J-126D01*
G01X6808880Y651570D01*
X6814180Y655780D01*
X6817330Y657010D01*
G03X6818460Y852540I-38330J97990D01*
G01X6815320Y853810D01*
X6810080Y858070D01*
X6808200Y860890D01*
G02X6804400Y873530I18699J12513D01*
G01X6804540Y897610D01*
X6812200Y908920D01*
X6818540Y911490D01*
G03X6819660Y1106050I-39538J97511D01*
G01X6813350Y1108690D01*
X6805820Y1120090D01*
X6806010Y1152150D01*
X6813520Y1163370D01*
X6819750Y1165990D01*
G03X6820880Y1359530I-40748J97011D01*
G01X6814670Y1362220D01*
X6807290Y1373530D01*
X6807440Y1400000D01*
G02X6811180Y1412290I22499J-133D01*
G02X6820960Y1420510I18771J-12406D01*
G01X6820970D01*
G03X6822080Y1613000I-41968J96490D01*
G01X6815980Y1615740D01*
X6808750Y1626970D01*
X6808900Y1653450D01*
G02X6816770Y1670410I22499J-134D01*
G01X6822070Y1674960D01*
X6824710Y1676230D01*
G03X6848940Y1849610I-45711J94771D01*
G01X6848480Y1850010D01*
X6848450Y1850040D01*
G02X6840850Y1868150I14867J16889D01*
G01X6843050Y1908630D01*
X6848070Y1917680D01*
X6852300Y1920650D01*
G03X6826060Y2143520I-73299J104350D01*
G01X6819590Y2146090D01*
X6811820Y2157600D01*
X6812370Y2252940D01*
G03X6790450Y2275570I-22500J137D01*
G01X6334660Y2287250D01*
G03X6318170Y2280670I-583J-22492D01*
G01X6269090Y2231590D01*
G03X6262500Y2215680I15910J-15910D01*
G01Y122510D01*
G02X6240000Y100010I-22500J0D01*
G01X635000D01*
G02X612500Y122510I0J22500D01*
G37*
%LPC*%
G75*
G36*
G01X9797520Y6154980D02*
X9652480D01*
G02X9629980Y6177480I0J22500D01*
G01Y6257480D01*
G03X9607480Y6279980I-22500J0D01*
G01X8167520D01*
G03X8145020Y6257480I0J-22500D01*
G01Y6152480D01*
G02X8122520Y6129980I-22500J0D01*
G01X7889980D01*
G02X7867480Y6152480I0J22500D01*
G01Y6472520D01*
G02X7889980Y6495020I22500J0D01*
G01X9797520D01*
G02X9820020Y6472520I0J-22500D01*
G01Y6177480D01*
G02X9797520Y6154980I-22500J0D01*
G37*
G36*
G01X3461020Y7270480D02*
X3228480D01*
G02X3205980Y7292980I0J22500D01*
G01Y7512340D01*
X3219160Y7525520D01*
X3225360D01*
X3236080Y7550700D01*
G03X3233100Y7573390I-20700J8822D01*
G02X3427370Y7738310I100402J78612D01*
G03X3443940Y7731040I16562J15229D01*
G01X3477060D01*
G03X3493630Y7738310I8J22499D01*
G02X3691850Y7725300I93872J-86310D01*
G01X3694820Y7721070D01*
X3703870Y7716050D01*
X3749510Y7713570D01*
X3759050Y7717580D01*
X3762470Y7721460D01*
G02X3910960Y7572970I79030J-69460D01*
G01X3907080Y7569550D01*
X3903070Y7560010D01*
X3905550Y7514370D01*
X3910570Y7505320D01*
X3914800Y7502350D01*
G02X3747630Y7311690I-73299J-104348D01*
G03X3731060Y7318960I-16562J-15229D01*
G01X3697940D01*
G03X3681370Y7311690I-8J-22499D01*
G02X3508890Y7297600I-93866J86312D01*
G03X3486200Y7300580I-13868J-17720D01*
G01X3474710Y7295690D01*
G03X3461020Y7274990I8810J-20704D01*
G01Y7270480D01*
G37*
G36*
G01X2406060Y7318960D02*
X2372940D01*
G03X2356370Y7311690I-8J-22499D01*
G02X2158150Y7324700I-93872J86310D01*
G01X2155180Y7328930D01*
X2146130Y7333950D01*
X2100490Y7336430D01*
X2090950Y7332420D01*
X2087530Y7328540D01*
G02X1939040Y7477030I-79030J69460D01*
G01X1942920Y7480450D01*
X1946930Y7489990D01*
X1944450Y7535630D01*
X1939430Y7544680D01*
X1935200Y7547650D01*
G02X2102370Y7738310I73299J104348D01*
G03X2118940Y7731040I16562J15229D01*
G01X2152060D01*
G03X2168630Y7738310I8J22499D01*
G02X2341110Y7752400I93866J-86312D01*
G03X2363800Y7749420I13868J17720D01*
G01X2375290Y7754310D01*
G03X2388980Y7775010I-8810J20704D01*
G01Y7779520D01*
X2621520D01*
G02X2644020Y7757020I0J-22500D01*
G01Y7537660D01*
X2630840Y7524480D01*
X2624640D01*
X2613920Y7499300D01*
G03X2616900Y7476610I20700J-8822D01*
G02X2422630Y7311690I-100402J-78612D01*
G03X2406060Y7318960I-16562J-15229D01*
G37*
G36*
G01X5390720Y7071870D02*
X5403570Y7066420D01*
G03X5416110Y7064950I8785J20716D01*
G02X5380890Y6982760I8890J-52451D01*
G03X5371180Y6990830I-18660J-12575D01*
G01X5358370Y6996380D01*
G03X5345860Y6997950I-8945J-20648D01*
G02X5311730Y7004010I-8361J52051D01*
G03X5300630Y7006880I-10997J-19631D01*
G01X5287540Y7006820D01*
G03X5276450Y7003840I100J-22499D01*
G02Y7096160I-26450J46160D01*
G03X5287540Y7093180I11190J19519D01*
G01X5300630Y7093120D01*
G03X5311730Y7095990I103J22501D01*
G02X5380960Y7079850I25774J-45991D01*
G03X5390720Y7071870I18551J12730D01*
G37*
G36*
G01X3650000Y6953190D02*
X3746550D01*
X3759700Y6966220D01*
X3759780Y6975480D01*
G02X3835620Y6927620I52719J-480D01*
G03X3826710Y6919800I9862J-20223D01*
G01X3819320Y6908620D01*
G03X3815620Y6897340I18774J-12405D01*
G02X3762500Y6846810I-53120J2656D01*
G01X3650000D01*
G02Y6953190I0J53190D01*
G37*
G36*
G01X2413020Y6377360D02*
Y6371160D01*
X2399840Y6357980D01*
X2180480D01*
G02X2157980Y6380480I0J22500D01*
G01Y6599840D01*
X2171160Y6613020D01*
X2177360D01*
X2188080Y6638200D01*
G03X2185100Y6660890I-20700J8822D01*
G02X2379370Y6825810I100402J78612D01*
G03X2395940Y6818540I16562J15229D01*
G01X2429060D01*
G03X2445630Y6825810I8J22499D01*
G02X2625810Y6645630I93870J-86310D01*
G03X2618540Y6629060I15229J-16562D01*
G01Y6595940D01*
G03X2625810Y6579370I22499J-8D01*
G02X2460890Y6385100I-86308J-93868D01*
G03X2438200Y6388080I-13868J-17720D01*
G01X2413020Y6377360D01*
G37*
G36*
G01X4760800Y6228510D02*
G03X4790520Y6228020I15138J16644D01*
G02X4789200Y6148150I34479J-40516D01*
G03X4759480Y6148640I-15138J-16644D01*
G02X4760800Y6228510I-34479J40516D01*
G37*
G36*
G01X6378190Y4550000D02*
G02X6325000Y4496810I-53190J0D01*
G01X6225000D01*
G02X6171810Y4550000I0J53190D01*
G01Y4850000D01*
G02X6225000Y4903190I53190J0D01*
G01X6325000D01*
G02X6378190Y4850000I0J-53190D01*
G01Y4550000D01*
G37*
G36*
G01X7478190Y4475000D02*
G02X7425000Y4421810I-53190J0D01*
G01X7125000D01*
G02X7071810Y4475000I0J53190D01*
G01Y4575000D01*
G02X7125000Y4628190I53190J0D01*
G01X7525000D01*
G02Y4521810I0J-53190D01*
G01X7500690D01*
G03X7478190Y4499310I0J-22500D01*
G01Y4475000D01*
G37*
G36*
G01X8854470Y3898370D02*
G02X8801280Y3845180I-53190J0D01*
G01X8601280D01*
G02X8548090Y3898370I0J53190D01*
G01Y4098370D01*
G02X8601280Y4151560I53190J0D01*
G01X8801280D01*
G02X8854470Y4098370I0J-53190D01*
G01Y3898370D01*
G37*
G36*
G01X6503190Y3775000D02*
G02X6450000Y3721810I-53190J0D01*
G01X6250000D01*
G02X6196810Y3775000I0J53190D01*
G01Y3975000D01*
G02X6250000Y4028190I53190J0D01*
G01X6450000D01*
G02X6503190Y3975000I0J-53190D01*
G01Y3775000D01*
G37*
G36*
G01X8853190Y3275000D02*
G02X8800000Y3221810I-53190J0D01*
G01X8600000D01*
G02X8546810Y3275000I0J53190D01*
G01Y3475000D01*
G02X8600000Y3528190I53190J0D01*
G01X8800000D01*
G02X8853190Y3475000I0J-53190D01*
G01Y3275000D01*
G37*
G36*
G01X7553190D02*
G02X7500000Y3221810I-53190J0D01*
G01X7400000D01*
G02X7346810Y3275000I0J53190D01*
G01Y3475000D01*
G02X7400000Y3528190I53190J0D01*
G01X7500000D01*
G02X7553190Y3475000I0J-53190D01*
G01Y3275000D01*
G37*
G36*
G01X522510Y2905430D02*
X476870Y2902950D01*
X467820Y2897930D01*
X464850Y2893700D01*
G02X274190Y3060870I-104348J73299D01*
G03X281460Y3077440I-15229J16562D01*
G01Y3110560D01*
G03X274190Y3127130I-22499J8D01*
G02Y3314870I86310J93870D01*
G03X281460Y3331440I-15229J16562D01*
G01Y3364560D01*
G03X274190Y3381130I-22499J8D01*
G02Y3568870I86310J93870D01*
G03X281460Y3585440I-15229J16562D01*
G01Y3618560D01*
G03X274190Y3635130I-22499J8D01*
G02X260100Y3807610I86312J93866D01*
G03X263080Y3830300I-17720J13868D01*
G01X258190Y3841790D01*
G03X237490Y3855480I-20704J-8810D01*
G01X232980D01*
Y4088020D01*
G02X255480Y4110520I22500J0D01*
G01X474840D01*
X488020Y4097340D01*
Y4091140D01*
X513200Y4080420D01*
G03X535890Y4083400I8822J20700D01*
G02X700810Y3889130I78612J-100402D01*
G03X693540Y3872560I15229J-16562D01*
G01Y3839440D01*
G03X700810Y3822870I22499J-8D01*
G02X741320Y3742370I-86307J-93875D01*
G01X741720Y3738550D01*
X745010Y3731620D01*
X770250Y3706170D01*
X777160Y3702820D01*
X780970Y3702380D01*
G02X733490Y3617500I-5969J-52380D01*
G03X719910Y3625740I-17710J-13877D01*
G01X705080Y3628510D01*
G03X687980Y3624780I-4132J-22117D01*
G02X682380Y3621050I-73466J104229D01*
G01Y3594740D01*
G03X691320Y3576780I22501J-5D01*
G02X700810Y3381130I-76821J-101781D01*
G03X693540Y3364560I15229J-16562D01*
G01Y3331440D01*
G03X700810Y3314870I22499J-8D01*
G02X687800Y3116650I-86310J-93872D01*
G01X683570Y3113680D01*
X678550Y3104630D01*
X676070Y3058990D01*
X680080Y3049450D01*
X683960Y3046030D01*
G02X535470Y2897540I-69460J-79030D01*
G01X532050Y2901420D01*
X522510Y2905430D01*
G37*
G36*
G01X2187500Y4815000D02*
Y4535000D01*
G02X2165000Y4512500I-22500J0D01*
G01X1835000D01*
G02X1812500Y4535000I0J22500D01*
G01Y4815000D01*
G02X1835000Y4837500I22500J0D01*
G01X2165000D01*
G02X2187500Y4815000I0J-22500D01*
G37*
G36*
G01X4903750Y7563790D02*
G02X4711110Y7569440I-93871J86310D01*
G03X4687350Y7576810I-17435J-14224D01*
G01X4677270Y7573850D01*
G03X4661100Y7552260I6330J-21591D01*
G01Y7544880D01*
X4473160D01*
G02X4450660Y7567380I0J22500D01*
G01Y7732820D01*
G02X4473160Y7755320I22500J0D01*
G01X4638600D01*
G02X4661100Y7732820I0J-22500D01*
G01Y7731090D01*
X4687350Y7723390D01*
G03X4711110Y7730760I6325J21594D01*
G02X4903750Y7736410I98769J-80660D01*
G03X4920320Y7729140I16562J15229D01*
G01X4953440D01*
G03X4970010Y7736410I8J22499D01*
G02X5157750I93870J-86310D01*
G03X5174320Y7729140I16562J15229D01*
G01X5207440D01*
G03X5224010Y7736410I8J22499D01*
G02Y7563790I93870J-86310D01*
G03X5207440Y7571060I-16562J-15229D01*
G01X5174320D01*
G03X5157750Y7563790I-8J-22499D01*
G02X4970010I-93870J86310D01*
G03X4953440Y7571060I-16562J-15229D01*
G01X4920320D01*
G03X4903750Y7563790I-8J-22499D01*
G37*
G36*
G01X1503420Y7514750D02*
X1498220Y7511420D01*
G02Y7713580I-64720J101080D01*
G01X1503420Y7710250D01*
X1515730Y7709820D01*
X1552170Y7729760D01*
G02X1562970Y7732520I10797J-19740D01*
G01X1785020D01*
G02X1807520Y7710020I0J-22500D01*
G01Y7514980D01*
G02X1785020Y7492480I-22500J0D01*
G01X1562970D01*
G02X1552170Y7495240I-3J22500D01*
G01X1515730Y7515180D01*
X1503420Y7514750D01*
G37*
G36*
G01X5771840Y6478130D02*
G02X5703160I-34340J-40630D01*
G03Y6546870I-29049J34370D01*
G02X5771840I34340J40630D01*
G03Y6478130I29049J-34370D01*
G37*
G36*
G01X3537500Y6134310D02*
X3287500D01*
G02Y6240690I0J53190D01*
G01X3537500D01*
G02X3545300Y6240120I34J-53192D01*
G01X3548710Y6239610D01*
X3555500Y6240680D01*
X3584690Y6255150D01*
X3589650Y6259900D01*
X3591320Y6262930D01*
G02X3630130Y6185300I46181J-25429D01*
G01X3626710Y6185780D01*
X3619930Y6184660D01*
X3590840Y6169990D01*
X3585910Y6165200D01*
X3584270Y6162170D01*
G02X3537500Y6134310I-46770J25328D01*
G37*
G36*
G01X3862250Y6149510D02*
G02Y6225490I-37250J37990D01*
G03X3925250I31500J32129D01*
G02Y6149510I37250J-37990D01*
G03X3862250I-31500J-32129D01*
G37*
G36*
G01X7257840Y6027840D02*
G02X7187570Y6047000I-45338J-27839D01*
G03X7204950Y6110120I-21079J39757D01*
G02X7274920Y6091040I45053J27380D01*
G03X7257840Y6027840I21266J-39655D01*
G37*
G36*
G01X3300000Y5121810D02*
X3175000D01*
G02X3121810Y5175000I0J53190D01*
G01Y5275000D01*
G02X3140670Y5315630I53194J0D01*
G01X3144470Y5318840D01*
X3148650Y5327840D01*
Y5372160D01*
X3144470Y5381160D01*
X3140670Y5384370D01*
G02X3127120Y5448170I34329J40630D01*
G01X3129310Y5452690D01*
X3129430Y5462720D01*
X3110950Y5503360D01*
X3103320Y5509860D01*
X3098480Y5511180D01*
G02X3137760Y5515680I14018J51320D01*
G03X3156340Y5474810I10686J-19801D01*
G02X3175000Y5478190I18660J-49818D01*
G01X3275000D01*
G02Y5371810I0J-53190D01*
G01X3258410D01*
G03X3238740Y5360240I-3J-22500D01*
G01X3216650Y5320510D01*
X3216950Y5308280D01*
X3220180Y5303070D01*
G02X3228190Y5275000I-45179J-28070D01*
G01Y5250690D01*
G03X3250690Y5228190I22500J0D01*
G01X3300000D01*
G02Y5121810I0J-53190D01*
G37*
G36*
G01X536280Y2088400D02*
G02X503020Y2013570I13718J-50904D01*
G03X451220Y2036600I-40099J-20422D01*
G02X484480Y2111430I-13718J50904D01*
G03X536280Y2088400I40099J20422D01*
G37*
G36*
G01X785250Y890920D02*
X788580Y885720D01*
G02X586420I-101080J-64720D01*
G01X589750Y890920D01*
X590180Y903230D01*
X570240Y939670D01*
G02X567480Y950470I19740J10797D01*
G01Y1172520D01*
G02X589980Y1195020I22500J0D01*
G01X807520D01*
Y1192580D01*
X836960D01*
X848410Y1200380D01*
X850950Y1206830D01*
G02X874380Y1141420I49049J-19332D01*
G01X869150Y1144330D01*
X857210Y1144190D01*
X818610Y1121480D01*
G03X807520Y1102090I11409J-19392D01*
G01Y950470D01*
G02X804760Y939670I-22500J-3D01*
G01X784820Y903230D01*
X785250Y890920D01*
G37*
G36*
G01X5202500Y600000D02*
X3285000D01*
G02X3262500Y622500I0J22500D01*
G01Y902500D01*
G03X3240000Y925000I-22500J0D01*
G01X3235000D01*
G02X3212500Y947500I0J22500D01*
G01Y1719060D01*
X3211550Y1722220D01*
G02Y1752780I50950J15280D01*
G01X3212500Y1755940D01*
Y2190000D01*
G02X3235000Y2212500I22500J0D01*
G01X3478840D01*
G03X3492560Y2217170I-3J22499D01*
G02X3500000Y2221960I32420J-42182D01*
G01Y2377500D01*
G03X3477500Y2400000I-22500J0D01*
G01X3310000D01*
G02X3287500Y2422500I0J22500D01*
G01Y2565000D01*
G02X3310000Y2587500I22500J0D01*
G01X3477500D01*
G03X3500000Y2610000I0J22500D01*
G01Y3465000D01*
G02X3522500Y3487500I22500J0D01*
G01X3594030D01*
X3597200Y3488450D01*
G02X3627800I15300J-50950D01*
G01X3630970Y3487500D01*
X3740680D01*
G02X3756590Y3480910I0J-22500D01*
G01X3780910Y3456590D01*
G03X3796820Y3450000I15910J15910D01*
G01X3865680D01*
G03X3881590Y3456590I0J22500D01*
G01X3893410Y3468410D01*
G03X3900000Y3484320I-15910J15910D01*
G01Y3528180D01*
G03X3893410Y3544090I-22500J0D01*
G01X3856590Y3580910D01*
G02X3850000Y3596820I15910J15910D01*
G01Y4227500D01*
G02X3872500Y4250000I22500J0D01*
G01X4964590D01*
G03X4979880Y4255990I3J22502D01*
G01X5005440Y4279670D01*
X5009130Y4287320D01*
X5009460Y4291560D01*
G02X5014610Y4310670I53044J-4046D01*
G01X5016800Y4315190D01*
X5016920Y4325220D01*
X4998450Y4365860D01*
X4990810Y4372360D01*
X4985970Y4373680D01*
G02X4962750Y4387010I14026J51321D01*
G01X4959600Y4390110D01*
X4951420Y4393450D01*
X4911080D01*
X4902900Y4390110D01*
X4899750Y4387010D01*
G02Y4462990I-37250J37990D01*
G01X4902900Y4459890D01*
X4911080Y4456550D01*
X4951420D01*
X4959600Y4459890D01*
X4962750Y4462990D01*
G02X5041800Y4457910I37247J-37988D01*
G01X5044290Y4454750D01*
X5051120Y4450560D01*
X5087650Y4443250D01*
X5095560Y4444500D01*
X5099080Y4446460D01*
G02X5143200Y4350010I25917J-46461D01*
G01X5139380Y4348620D01*
X5133200Y4343350D01*
X5114930Y4310460D01*
X5113720Y4302440D01*
X5114560Y4298460D01*
G02X5115540Y4291560I-52067J-10915D01*
G01X5115870Y4287320D01*
X5119560Y4279670D01*
X5145120Y4255990D01*
G03X5160410Y4250000I15287J16512D01*
G01X5202500D01*
G03X5225000Y4272500I0J22500D01*
G01Y4535110D01*
X5216240Y4547010D01*
X5209190Y4549200D01*
G02Y4650800I15810J50800D01*
G01X5216240Y4652990D01*
X5225000Y4664890D01*
Y4699310D01*
G03X5202500Y4721810I-22500J0D01*
G01X5200000D01*
G02Y4828190I0J53190D01*
G01X5202500D01*
G03X5225000Y4850690I0J22500D01*
G01Y4874310D01*
G03X5202500Y4896810I-22500J0D01*
G01X5200000D01*
G02Y5003190I0J53190D01*
G01X5202500D01*
G03X5225000Y5025690I0J22500D01*
G01Y5231530D01*
X5224050Y5234700D01*
G02Y5265300I50950J15300D01*
G01X5225000Y5268470D01*
Y5275000D01*
X5226820D01*
X5233580Y5283380D01*
G02X5240660Y5290630I41427J-33374D01*
G01X5244460Y5293840D01*
X5248630Y5302840D01*
Y5347160D01*
X5244460Y5356160D01*
X5240660Y5359370D01*
G02X5309340I34340J40630D01*
G01X5305540Y5356160D01*
X5301370Y5347160D01*
Y5302840D01*
X5305540Y5293840D01*
X5309340Y5290630D01*
G02X5316420Y5283380I-34347J-40624D01*
G01X5319630Y5279400D01*
X5328830Y5275000D01*
X6065000D01*
G02X6087500Y5252500I0J-22500D01*
G01Y1647500D01*
G02X6065000Y1625000I-22500J0D01*
G01X5247500D01*
G03X5225000Y1602500I0J-22500D01*
G01Y1322500D01*
G02X5202500Y1300000I-22500J0D01*
G01X5022500D01*
G03X5000000Y1277500I0J-22500D01*
G01Y1160000D01*
G03X5022500Y1137500I22500J0D01*
G01X5202500D01*
G02X5225000Y1115000I0J-22500D01*
G01Y622500D01*
G02X5202500Y600000I-22500J0D01*
G37*
G54D20*
X3700000Y6712500D03*
X1950000Y1250000D03*
G54D25*
X350000Y4437500D03*
Y5037500D03*
Y5550000D03*
Y6150000D03*
X850000Y4437500D03*
Y5037500D03*
Y5550000D03*
Y6150000D03*
X862500Y6650000D03*
Y7250000D03*
G54D26*
X8827500Y6817500D03*
X9517500D03*
G54D16*
X5525000Y662500D03*
G54D22*
X1087500Y6900000D03*
X1250000D03*
X1587500Y7000000D03*
X1675000Y4612500D03*
Y4875000D03*
Y5300000D03*
X2087500Y4150000D03*
X2112500Y3425000D03*
X2212500Y4950000D03*
Y5112500D03*
X2450000Y6125000D03*
X2462500Y4637500D03*
X2587500Y4475000D03*
X2725000Y5925000D03*
X2775000Y5075000D03*
Y5475000D03*
X2825000Y7200000D03*
X2925000Y7325000D03*
X3112500Y6937500D03*
X3150000Y4475000D03*
X3387500Y3612500D03*
X3400000Y4050000D03*
X4462500Y6187500D03*
X4637500Y7287500D03*
X5115020Y6187500D03*
X5150000Y6750000D03*
X5275000Y5575000D03*
Y5737500D03*
Y5900000D03*
X5375000Y6862500D03*
X5990020Y6312500D03*
X6002520Y6612500D03*
X7012500Y4950000D03*
X7175000Y6400000D03*
X7412500Y6887500D03*
X7662500Y5162500D03*
X8150000Y5862500D03*
X8412500Y5325000D03*
Y5562500D03*
X8662500Y6162500D03*
X8800000Y5125000D03*
G54D21*
X312500Y1750000D03*
X375000Y1200000D03*
X437500Y2500000D03*
X587500Y1762500D03*
X862500Y1787500D03*
X875000Y2375000D03*
X1150000Y2962500D03*
X1187500Y825000D03*
X1400000Y1850000D03*
Y2225000D03*
X1475000Y1175000D03*
X1600000Y2937500D03*
X1737500Y3975000D03*
X1787500Y2712500D03*
X1962500Y2125000D03*
X2050000Y2437500D03*
X2125000Y2825000D03*
X2162500Y2100000D03*
X2237500Y837500D03*
Y1012500D03*
X2262500Y1800000D03*
X2525000Y2812500D03*
X2700000Y1112500D03*
X2712500Y750000D03*
X2862500Y6762500D03*
X3012500Y4987500D03*
X3100000Y1562500D03*
X5962500Y6987500D03*
X6250000Y5025000D03*
X6300000Y6187500D03*
X6525000D03*
X6662500Y5337500D03*
G54D28*
X8750000Y925000D03*
X9050000Y1395000D03*
G54D17*
X5687500Y7225000D03*
X3087500Y4025000D03*
G54D15*
X2275000Y6125000D03*
G54D27*
X9350000Y925000D03*
G54D23*
X9301320Y5145460D03*
Y5585460D03*
G54D24*
X362500Y6650000D03*
G54D19*
X6275000Y7112500D03*
G54D14*
X2675000Y7000000D03*
G54D18*
X6706250Y7112500D03*
X3443750Y6650000D03*
%LPD*%
G75*
G36*
G01X3250000Y1813190D02*
Y2144970D01*
G02X3272500Y2167470I22500J0D01*
G01X3455520D01*
G02X3476170Y2153900I-2J-22501D01*
G03X3549600Y2222170I48834J21100D01*
G02X3537500Y2242120I10400J19952D01*
G01Y2415000D01*
G03X3515000Y2437500I-22500J0D01*
G01X3355030D01*
G02X3332530Y2460000I0J22500D01*
G01Y2519970D01*
G02X3355030Y2542470I22500J0D01*
G01X3477500D01*
G03X3509500Y2555830I-8J45022D01*
G02X3525500Y2562500I15990J-15832D01*
G01X3537500Y2574500D01*
Y3352500D01*
G02X3560000Y3375000I22500J0D01*
G01X3762500D01*
X3768410Y3369090D01*
G03X3784320Y3362500I15910J15910D01*
G01X3915000D01*
G03X3937500Y3385000I0J22500D01*
G01Y3402090D01*
G02X3943500Y3417380I22499J-7D01*
G01X3964280Y3439820D01*
G02X3979050Y3446960I16504J-15295D01*
G01X3979060D01*
G03X3979070Y3553040I-4058J53040D01*
G01X3979050D01*
X3974820Y3553370D01*
X3967170Y3557070D01*
X3943500Y3582620D01*
G02X3937500Y3597910I16499J15297D01*
G01Y3665000D01*
G03X3915000Y3687500I-22500J0D01*
G01X3908210D01*
X3895030Y3700680D01*
Y4186820D01*
X3908210Y4200000D01*
X3911580D01*
X3943890Y4166000D01*
X3947100Y4157330D01*
X3946870Y4152710D01*
G03X4053130I53130J-2710D01*
G01X4052900Y4157330D01*
X4056110Y4166000D01*
X4081770Y4193000D01*
G02X4098080Y4200000I16309J-15499D01*
G01X4357000D01*
G02X4375190Y4190740I-2J-22499D01*
G01X4399780Y4156970D01*
X4401480Y4146320D01*
X4399830Y4141190D01*
G03X4428070Y4077060I50171J-16190D01*
G02X4439160Y4047210I-9359J-20462D01*
G03X4513820Y4071240I48345J-22207D01*
G02X4506050Y4078570I11113J19563D01*
G01X4501120Y4086200D01*
G02X4498020Y4103170I18893J12220D01*
G01X4498050Y4103300D01*
G03X4500170Y4141190I-48050J21693D01*
G01X4498520Y4146320D01*
X4500220Y4156970D01*
X4524810Y4190740D01*
G02X4543000Y4200000I18192J-13239D01*
G01X4565000D01*
G02X4587500Y4177500I0J-22500D01*
G01Y4022500D01*
G03X4610000Y4000000I22500J0D01*
G01X4621760D01*
X4630910Y3995650D01*
X4634120Y3991710D01*
G03X4715880I40880J33290D01*
G01X4719090Y3995650D01*
X4728240Y4000000D01*
X5252500D01*
G03X5275000Y4022500I0J22500D01*
G01Y4302090D01*
G02X5281000Y4317380I22499J-7D01*
G01X5301780Y4339820D01*
G02X5316550Y4346960I16504J-15295D01*
G01X5316560D01*
G03X5316570Y4453040I-4058J53040D01*
G01X5316550D01*
X5312320Y4453370D01*
X5304670Y4457070D01*
X5281000Y4482620D01*
G02X5275000Y4497910I16499J15297D01*
G01Y4581530D01*
X5275950Y4584700D01*
G03Y4615300I-50950J15300D01*
G01X5275000Y4618470D01*
Y4676920D01*
G02X5282000Y4693230I22499J1D01*
G01X5309000Y4718890D01*
X5317670Y4722100D01*
X5322290Y4721870D01*
G03Y4828130I2710J53130D01*
G01X5317670Y4827900D01*
X5309000Y4831110D01*
X5282000Y4856770D01*
G02X5275000Y4873080I15499J16309D01*
G01Y4879470D01*
G02X5297500Y4901970I22500J0D01*
G01X5301730D01*
X5305670Y4900430D01*
G03X5322290Y5003130I19326J49567D01*
G01X5317670Y5002900D01*
X5309000Y5006110D01*
X5282000Y5031770D01*
G02X5275000Y5048080I15499J16309D01*
G01Y5066060D01*
G02X5283370Y5083570I22499J0D01*
G01X5283380Y5083580D01*
G03X5296460Y5150920I-33380J41424D01*
G01X5296450Y5150930D01*
G02X5294050Y5166300I19660J10942D01*
G01X5300560Y5198880D01*
X5304750Y5205710D01*
X5307910Y5208200D01*
G03X5322170Y5225400I-32912J41798D01*
G02X5342120Y5237500I19952J-10400D01*
G01X5516360D01*
G02X5530550Y5232460I-2J-22501D01*
G01X5555600Y5212080D01*
X5559630Y5205470D01*
X5560420Y5201670D01*
G03X5664580I52080J10830D01*
G01X5665370Y5205470D01*
X5669400Y5212080D01*
X5694450Y5232460D01*
G02X5708640Y5237500I14192J-17461D01*
G01X5824510D01*
G02X5843560Y5226960I-7J-22499D01*
G01X5866920Y5189750D01*
X5867560Y5178160D01*
X5865030Y5172930D01*
G03X5959970I47470J-22930D01*
G01X5957440Y5178160D01*
X5958080Y5189750D01*
X5981440Y5226960D01*
G02X6000490Y5237500I19057J-11959D01*
G01X6027500D01*
G02X6050000Y5215000I0J-22500D01*
G01Y1697500D01*
G02X6027500Y1675000I-22500J0D01*
G01X5185000D01*
G03X5162500Y1652500I0J-22500D01*
G01Y1372500D01*
G02X5140000Y1350000I-22500J0D01*
G01X4972500D01*
G03X4950000Y1327500I0J-22500D01*
G01Y1122500D01*
G03X4972500Y1100000I22500J0D01*
G01X5140000D01*
G02X5162500Y1077500I0J-22500D01*
G01Y672500D01*
G02X5140000Y650000I-22500J0D01*
G01X3335000D01*
G02X3312500Y672500I0J22500D01*
G01Y953180D01*
G03X3305910Y969090I-22500J0D01*
G01X3256590Y1018410D01*
G02X3250000Y1034320I15910J15910D01*
G01Y1661810D01*
G02X3272500Y1684310I22500J0D01*
G01X3512500D01*
G03Y1790690I0J53190D01*
G01X3272500D01*
G02X3250000Y1813190I0J22500D01*
G37*
G36*
G01X9652500Y6325000D02*
X8122500D01*
G03X8100000Y6302500I0J-22500D01*
G01Y6197500D01*
G02X8077500Y6175000I-22500J0D01*
G01X7935000D01*
G02X7912500Y6197500I0J22500D01*
G01Y6427500D01*
G02X7935000Y6450000I22500J0D01*
G01X9752500D01*
G02X9775000Y6427500I0J-22500D01*
G01Y6222500D01*
G02X9752500Y6200000I-22500J0D01*
G01X9697500D01*
G02X9675000Y6222500I0J22500D01*
G01Y6302500D01*
G03X9652500Y6325000I-22500J0D01*
G37*
%LPC*%
G75*
G36*
G01X5784340Y4665630D02*
G02X5715660I-34340J-40630D01*
G03Y4734370I-29049J34370D01*
G02X5784340I34340J40630D01*
G03Y4665630I29049J-34370D01*
G37*
G36*
G01X4172130Y3984650D02*
X4172140Y3984660D01*
G03X4177560Y3999310I-17080J14647D01*
G03X4155060Y4021810I-22500J0D01*
G01X4137500D01*
G02Y4128190I0J53190D01*
G01X4262500D01*
G02X4284920Y4026760I0J-53193D01*
G01X4281010Y4024950D01*
X4275100Y4018710D01*
X4262050Y3986080D01*
G03X4262010Y3969480I20895J-8350D01*
G02X4172130Y3984650I-49508J-19479D01*
G37*
G36*
G01X3816310Y1966870D02*
Y1966880D01*
G03X3818450Y1984080I-19535J11164D01*
G01X3809850Y2014900D01*
G03X3799120Y2028520I-21674J-6038D01*
G02X3776180Y2096120I25883J46476D01*
G01Y2096140D01*
X3777590Y2099400D01*
X3778260Y2106460D01*
X3771760Y2135720D01*
G03X3764720Y2147680I-21965J-4877D01*
G02X3848820Y2166380I35275J39821D01*
G01Y2166360D01*
X3847410Y2163100D01*
X3846740Y2156040D01*
X3853240Y2126780D01*
G03X3860280Y2114820I21965J4877D01*
G02X3876880Y2086790I-35278J-39823D01*
G03X3886340Y2073050I21942J4980D01*
G01X3912110Y2055870D01*
G03X3928430Y2052420I12482J18720D01*
G02X3942830Y1947070I9075J-52419D01*
G03X3931090Y1942300I2256J-22384D01*
G01X3920140Y1933610D01*
G03X3912840Y1923270I13988J-17622D01*
G02X3816310Y1966870I-50339J17207D01*
G37*
G36*
G01X5066140Y1808980D02*
G02X4984020Y1808900I-41027J-33869D01*
G03X4983970Y1866130I-34753J28585D01*
G02X5066090Y1866210I41027J33869D01*
G03X5066140Y1808980I34753J-28585D01*
G37*
G36*
G01X4733200Y1467090D02*
X4730720Y1470250D01*
X4723870Y1474450D01*
X4687350Y1481750D01*
X4679430Y1480510D01*
X4675920Y1478550D01*
G02X4596810Y1525000I-25918J46450D01*
G01Y1900000D01*
G02X4612020Y1937240I53194J0D01*
G01X4615110Y1940390D01*
X4618450Y1948570D01*
Y1988920D01*
X4615110Y1997100D01*
X4612020Y2000250D01*
G02X4698750Y2016200I37981J37251D01*
G01X4696470Y2010990D01*
X4697420Y1999650D01*
X4721160Y1963370D01*
G03X4739990Y1953190I18827J12320D01*
G01X4775000D01*
G02X4828190Y1900000I0J-53190D01*
G01Y1775000D01*
G02X4775000Y1721810I-53190J0D01*
G01X4725690D01*
G03X4703190Y1699310I0J-22500D01*
G01Y1594470D01*
G03X4712120Y1576520I22500J-3D01*
G01X4740760Y1554870D01*
G03X4760470Y1551180I13562J17955D01*
G01X4760480D01*
G02X4733200Y1467090I14520J-51180D01*
G37*
G54D22*
X3400000Y2025000D03*
X3525000Y1900000D03*
X3550000Y1125000D03*
Y1425000D03*
X3925000Y900000D03*
X5075000Y2225000D03*
Y2956250D03*
X5187500Y2500000D03*
Y2825000D03*
X5600000Y4300000D03*
X5825000Y3975000D03*
X5837500Y4187500D03*
X5925000Y4537500D03*
G54D21*
X5887500Y5000000D03*
G54D17*
X5062500Y3562500D03*
G54D15*
X4050000Y2887500D03*
G54D14*
X5025000Y875000D03*
X4150000Y3550000D03*
X3800000Y2662500D03*
G54D29*
X4112500Y2018750D03*
%LPD*%
G75*
G54D10*
X162500Y1650000D03*
X150000Y2150000D03*
X162500Y2650000D03*
Y4650000D03*
Y5150000D03*
Y5650000D03*
Y6150000D03*
Y6650000D03*
Y7150000D03*
X575000Y4250000D03*
X550000Y5387500D03*
X1087470Y3187530D03*
X1250000Y6900000D03*
X1087500D03*
X825000Y7837500D03*
X1287500Y3900000D03*
X1675000Y4612500D03*
X1337500Y4875000D03*
X1675000D03*
X1587500Y5625000D03*
X1675000Y5300000D03*
X1587500Y5900000D03*
Y7000000D03*
X1725000Y7387500D03*
X1325000Y7837500D03*
X2112500Y3425000D03*
X2162500Y3862500D03*
X2075000Y3662500D03*
X2200000Y4325000D03*
X2087500Y4150000D03*
X2112500Y4450000D03*
X1837500Y5275000D03*
Y5450000D03*
X2600000Y2300000D03*
X2587500Y3675000D03*
X2575000Y3425000D03*
X2462500Y4637500D03*
X2587500Y4475000D03*
X2612500Y4725000D03*
X2587500Y4372480D03*
X2612500Y4862500D03*
X2212500Y4950000D03*
Y5112500D03*
X2275000Y6187500D03*
X2450000Y6125000D03*
X2275000Y6062500D03*
X2675000Y7050000D03*
Y6950000D03*
X3100000Y1400000D03*
X3025000Y3475000D03*
Y4025000D03*
X2775000Y5075000D03*
X3037500Y5062500D03*
X3112500Y5562500D03*
X2775000Y5475000D03*
X3012500Y5500000D03*
X2725000Y5925000D03*
X3112500Y6937500D03*
X2925000Y7325000D03*
X2825000Y7200000D03*
Y7837500D03*
X3575000Y437500D03*
X3234980Y762500D03*
X3550000Y1125000D03*
Y1425000D03*
X3512500Y1737500D03*
X3387500D03*
X3262500D03*
X3525000Y1900000D03*
X3400000Y2350000D03*
Y2025000D03*
X3525000Y2175000D03*
X3400000Y2675000D03*
Y3100000D03*
X3387500Y3612500D03*
X3400000Y4050000D03*
X3150000Y4025000D03*
X3400000Y4512500D03*
X3150000Y4475000D03*
X3175000Y5175000D03*
X3300000D03*
X3175000Y5425000D03*
X3275000D03*
X3175000Y5275000D03*
X3300000D03*
X3325000Y5712500D03*
X3287500Y6187500D03*
X3412500Y6000000D03*
Y6187500D03*
X3537500D03*
X3387500Y6650000D03*
X3500000D03*
X3287500Y6562500D03*
X3225000Y6940020D03*
X3925000Y900000D03*
X3862500Y1940480D03*
X3937500Y2000000D03*
X3800000Y2187500D03*
X3825000Y2075000D03*
X3800000Y2712500D03*
X4050000Y2825000D03*
X3800000Y2612500D03*
X4050000Y2950000D03*
X3850000Y3125000D03*
Y3275000D03*
X3625000D03*
X3975000Y3500000D03*
X3850000D03*
X3612500Y3437500D03*
X4000000Y4150000D03*
X3737500Y4850000D03*
X3875000Y5450000D03*
X3750000Y5325000D03*
X3987530Y5587530D03*
X3962500Y6187500D03*
X3825000D03*
X3962500Y6562500D03*
X3762500Y6900000D03*
X3650000D03*
X4287500Y425000D03*
X4112500Y1962500D03*
Y2075000D03*
X4150000Y3500000D03*
Y3600000D03*
X4137500Y4075000D03*
X4262500D03*
X4212500Y3950000D03*
X4487500Y4025000D03*
X4512500Y4575000D03*
X4462500Y6187500D03*
X4312500Y6175000D03*
X4112500D03*
X4462500Y6562500D03*
X4325000Y7837500D03*
X5000000Y425000D03*
X4637500D03*
X4650000Y1525000D03*
X4775000Y1500000D03*
X4650000Y1650000D03*
Y1775000D03*
X4775000D03*
Y1900000D03*
X4650000D03*
Y2037500D03*
X5000000Y3562500D03*
X4637500Y4675000D03*
X4862500Y4425000D03*
X5000000D03*
X4662500Y5712500D03*
X4600000Y5500000D03*
X4825000Y6187500D03*
X4725000Y6189160D03*
X4812500Y6562500D03*
X4762500Y7000000D03*
X4637500Y7287500D03*
X4550000Y7475000D03*
X5025000Y825000D03*
Y925000D03*
Y1225000D03*
X5025110Y1775110D03*
X5025000Y1900000D03*
X5075000Y2225000D03*
X5187500Y2500000D03*
Y2825000D03*
X5075000Y2956250D03*
X5125000Y3562500D03*
X5062500Y4287500D03*
X5125000Y4400000D03*
X5312500D03*
X5225000Y4600000D03*
X5200000Y4775000D03*
X5325000D03*
X5275000Y5250000D03*
X5325000Y4950000D03*
X5200000D03*
X5250000Y5125000D03*
X5275000Y5737500D03*
Y5575000D03*
Y5400000D03*
X5037500Y5700000D03*
Y5487500D03*
X5115020Y6187500D03*
X5275000Y5900000D03*
X5050000Y6100000D03*
X5012500Y6562500D03*
X5219110Y6555890D03*
X5375000Y6862500D03*
X5150000Y6750000D03*
X5250000Y7050000D03*
X5087500Y7000000D03*
X5425000Y7012500D03*
X5062500Y7475000D03*
X5325000Y7837500D03*
X5525000Y1050000D03*
Y875000D03*
Y1400000D03*
Y1225000D03*
Y1575000D03*
X5600000Y4300000D03*
X5837500Y4187500D03*
X5825000Y3975000D03*
X5750000Y4775000D03*
X5925000Y4537500D03*
X5750000Y4625000D03*
X5612500Y5212500D03*
X5662500Y5587500D03*
X5612500Y5937500D03*
X5737500Y6587500D03*
Y6437500D03*
X5750000Y7100000D03*
X5600000Y6950000D03*
X5750000Y7225000D03*
X5862500Y7575000D03*
X5625000Y7225000D03*
X5825000Y7837500D03*
X6250000Y3775000D03*
X6350000D03*
X6250000Y3975000D03*
Y3875000D03*
X6350000D03*
Y3975000D03*
X6325000Y4750000D03*
Y4650000D03*
X6225000Y4750000D03*
Y4650000D03*
Y4550000D03*
X6325000D03*
Y4850000D03*
X6225000D03*
X6162500Y5587500D03*
Y5812500D03*
X6287500Y5950000D03*
X5990020Y6312500D03*
X6325000Y6537500D03*
X6387500Y6312500D03*
X6002520Y6612500D03*
X6325000Y7112500D03*
X6225000D03*
X6100000Y6725000D03*
X6325000Y6712500D03*
Y6887500D03*
X6112500Y7012500D03*
X6375000Y7575000D03*
X6325000Y7837500D03*
X6450000Y3775000D03*
Y3975000D03*
Y3875000D03*
X6837500Y4100000D03*
Y4337500D03*
X6737500Y4687500D03*
Y4537500D03*
Y4837500D03*
X6675000Y5587500D03*
Y5812500D03*
X6525000Y6050000D03*
X6500000Y6537500D03*
X6675000D03*
X6762500Y7112500D03*
X6650000D03*
X6500000Y6887500D03*
X6675000Y6712500D03*
Y6887500D03*
X6500000Y6712500D03*
X6537500Y7575000D03*
X6825000Y7837500D03*
X7250000Y3850000D03*
Y3950000D03*
X7125000Y4575000D03*
Y4475000D03*
X7325000Y4575000D03*
X7225000D03*
Y4475000D03*
X7325000D03*
X7012500Y4950000D03*
X7300000Y5587500D03*
X7212500Y6000000D03*
X7175000Y6400000D03*
X7112500Y6825000D03*
X7300000Y6987500D03*
X7297520Y7475000D03*
Y7312500D03*
Y7150000D03*
X7325000Y7837500D03*
X7600000Y2725000D03*
Y2825000D03*
X7500000Y2625000D03*
X7400000D03*
X7500000Y2725000D03*
X7400000D03*
X7500000Y2825000D03*
X7400000D03*
Y3375000D03*
X7500000D03*
Y3275000D03*
X7400000D03*
X7450000Y3850000D03*
X7350000D03*
X7725000D03*
X7500000Y3475000D03*
X7400000D03*
X7350000Y3950000D03*
X7450000D03*
X7775000Y4562500D03*
X7525000Y4575000D03*
X7425000D03*
Y4475000D03*
X7662500Y5162500D03*
X7362500Y5350000D03*
X7500000Y5812500D03*
X7425000Y6462500D03*
X7550000Y6900000D03*
X7412500Y6887500D03*
X8150000Y137500D03*
X8162500Y612500D03*
X8249810Y2900260D03*
X8025000Y3150000D03*
X8175000Y4600000D03*
Y4500000D03*
X7925000Y5150000D03*
Y5512500D03*
X7950000Y5325000D03*
X8150000Y5862500D03*
X8062500Y6225000D03*
X7825000Y7837500D03*
X8650000Y137500D03*
X8662500Y612500D03*
X8632500Y2367500D03*
X8349810Y2900260D03*
X8449810D03*
X8700000Y3375000D03*
Y3275000D03*
X8600000Y3375000D03*
Y3275000D03*
Y3475000D03*
X8700000D03*
X8701280Y3898370D03*
Y3998370D03*
Y4098370D03*
X8601280Y3898370D03*
Y3998370D03*
Y4098370D03*
X8375000Y4600000D03*
X8275000D03*
Y4500000D03*
X8375000D03*
X8425000Y5150000D03*
X8412500Y5562500D03*
Y5475000D03*
Y5325000D03*
X8662500Y6162500D03*
X8325000Y7837500D03*
X9150000Y137500D03*
X9162500Y612500D03*
X8800000Y3375000D03*
Y3275000D03*
Y3475000D03*
X8801280Y3898370D03*
Y3998370D03*
Y4098370D03*
X8775000Y5225000D03*
X8800000Y5125000D03*
X8787500Y5425000D03*
X8812500Y5562500D03*
X8825000Y6037500D03*
Y7837500D03*
X9275000Y3062500D03*
X9325000Y7837500D03*
X9850000Y637500D03*
Y1137500D03*
Y1637500D03*
Y2137500D03*
Y2637500D03*
Y3137500D03*
Y3637500D03*
Y4137500D03*
Y4637500D03*
Y5137500D03*
Y5637500D03*
Y6137500D03*
X9725000Y6250000D03*
G54D11*
X312500Y1884220D03*
X287500Y1550000D03*
X312500Y1750000D03*
X375000Y1200000D03*
X587500Y1762500D03*
X537500Y2150000D03*
X550000Y2037500D03*
X437500Y2087500D03*
Y2500000D03*
X775000Y3650000D03*
X1012500Y525000D03*
X1187500Y825000D03*
X1050000Y1175000D03*
X837500Y1387500D03*
X900000Y1187500D03*
X1275000Y1662500D03*
X862500Y1787500D03*
X875000Y2375000D03*
X1012500Y2962500D03*
X1150000D03*
X1625000Y1175000D03*
X1475000D03*
X1400000Y1725000D03*
Y1850000D03*
Y2225000D03*
X1600000Y2937500D03*
X1462500Y2962500D03*
X1737500Y3975000D03*
X1787500Y1037500D03*
X1750000Y1475000D03*
X1887500Y1250000D03*
X2012500D03*
X2162500Y1900000D03*
X1950000Y1612500D03*
X2162500Y2200000D03*
X1962500Y2125000D03*
X2050000Y2437500D03*
X2162500Y2100000D03*
X2125000Y2825000D03*
X1787500Y2712500D03*
X2237500Y1012500D03*
Y837500D03*
X2275000Y1642000D03*
X2262500Y1800000D03*
X2525000Y2812500D03*
X2712500Y750000D03*
X2700000Y1112500D03*
X3100000Y1562500D03*
X3012500Y4987500D03*
X2862500Y6762500D03*
X3550000Y775000D03*
Y962500D03*
X3387500Y2112500D03*
X3400000Y2487500D03*
X3925000Y1150000D03*
Y1450000D03*
X3637500Y6237500D03*
X3762500Y6712500D03*
X3637500D03*
X3812500Y6975000D03*
X4450000Y4125000D03*
X4775000Y1375000D03*
Y1075000D03*
X4675000Y4025000D03*
Y4162500D03*
X4900230Y4187500D03*
X5112500Y712500D03*
X5187500Y2350000D03*
X5181250Y2668750D03*
X5337500Y7050000D03*
X5525000Y612500D03*
Y712500D03*
X5887500Y5000000D03*
X5912500Y5150000D03*
X6250000Y5025000D03*
X6200000Y6037500D03*
X6300000Y6187500D03*
X5962500Y6987500D03*
X6462500Y5437500D03*
X6662500Y5337500D03*
X6525000Y6187500D03*
X7250000Y6137500D03*
X7962500Y6212500D03*
X8325000Y7562500D03*
G54D12*
G01X252280Y6650000D02*
X362500D01*
G01X252280Y7250000D02*
X362500D01*
G01X614500Y2839280D02*
Y2967000D01*
G01D02*
X742220D01*
G01X362500Y6539780D02*
Y6650000D01*
G01D02*
Y6760220D01*
G01Y6650000D02*
X472720D01*
G01X362500Y7139780D02*
Y7250000D01*
G01D02*
X472720D01*
G01X2008500Y7270280D02*
Y7398000D01*
G01X1880780D02*
X2008500D01*
G01X3841500Y7652000D02*
Y7779720D01*
G01Y7652000D02*
X3969220D01*
G01X4428160Y7650100D02*
X4555880D01*
G01Y7522380D02*
Y7650100D01*
G01D02*
Y7777820D01*
G01X6779000Y501000D02*
X6906720D01*
G01X6779000Y247000D02*
X6906720D01*
G01X6779000Y1009000D02*
X6906720D01*
G01X6779000Y755000D02*
X6906720D01*
G01X6779000Y1517000D02*
X6906720D01*
G01X6779000Y1263000D02*
X6906720D01*
G01X6779000Y1771000D02*
X6906720D01*
G01X9109780Y925000D02*
X9350000D01*
G01Y684780D02*
Y925000D01*
G01D02*
Y1165220D01*
G01Y925000D02*
X9590220D01*
G01X9301320Y5040240D02*
Y5145460D01*
G01D02*
Y5250680D01*
G01X9196100Y5145460D02*
X9301320D01*
G01D02*
X9406540D01*
G01X9301320Y5480240D02*
Y5585460D01*
G01D02*
Y5690680D01*
G01X9196100Y5585460D02*
X9301320D01*
G01D02*
X9406540D01*
G54D13*
G01X10000000Y250000D02*
Y7750000D01*
G03X9750000Y8000000I-250000J0D01*
G01X250000D01*
G03X0Y7750000I0J-250000D01*
G01Y250000D01*
G03X250000Y0I250000J0D01*
G01X9750000D01*
G03X10000000Y250000I0J250000D01*
M02*
