G04 ================== begin FILE IDENTIFICATION RECORD ==================*
G04 Layout Name:  Mic_Array_main_250pcs.brd*
G04 Film Name:    SILKSCREEN_TOP*
G04 File Format:  Gerber RS274X*
G04 File Origin:  Cadence Allegro 16.6-P004*
G04 Origin Date:  Fri May 13 11:46:30 2016*
G04 *
G04 Layer:  BOARD GEOMETRY/SILKSCREEN_TOP*
G04 Layer:  REF DES/SILKSCREEN_TOP*
G04 Layer:  PACKAGE GEOMETRY/SILKSCREEN_TOP*
G04 *
G04 Offset:    (0.0000 0.0000)*
G04 Mirror:    No*
G04 Mode:      Positive*
G04 Rotation:  0*
G04 FullContactRelief:  No*
G04 UndefLineWidth:     0.0000*
G04 ================== end FILE IDENTIFICATION RECORD ====================*
%FSLAX25Y25*MOMM*%
%IR0*IPPOS*OFA0.00000B0.00000*MIA0B0*SFA1.00000B1.00000*%
%ADD10C,.1*%
%ADD11C,.2*%
%ADD12C,.3*%
%ADD13C,.15*%
%ADD14C,.25*%
%ADD15C,.2032*%
%ADD16C,.18*%
%ADD17C,.254*%
%ADD18C,.1999*%
%ADD19C,.05*%
G75*
%LPD*%
G75*
G36*
G01X668860Y1445930D02*
G03I-27590J0D01*
G37*
G36*
G01X2125000Y6325000D02*
G03I-50000J0D01*
G37*
G36*
G01X2765020Y6200000D02*
G03I-50000J0D01*
G37*
G36*
G01X3590020Y2975000D02*
G03I-25000J0D01*
G37*
G36*
G01X6053370Y5139160D02*
G03I-26880J0D01*
G37*
G36*
G01X6275000Y6312500D02*
G03I-25000J0D01*
G37*
G36*
G01X7945000Y5425000D02*
G03I-20000J0D01*
G37*
G36*
G01X8807500Y2537500D02*
G03I-20000J0D01*
G37*
G36*
G01X9687500Y7487500D02*
G03I-50000J0D01*
G37*
G54D10*
G01X547500Y1215000D02*
Y685000D01*
X827500D01*
Y1215000D01*
X547500D01*
G01X1012500Y802500D02*
Y792500D01*
G01X1072500Y802500D02*
X952500D01*
G01X1012500Y822500D02*
Y832500D01*
G01X1072500Y822500D02*
X952500D01*
G01X1827500Y7752500D02*
X1297500D01*
Y7472500D01*
X1827500D01*
Y7752500D01*
G01X5645330Y6107640D02*
Y5987640D01*
G01X7540000Y1237500D02*
X7530000D01*
G01X7540000Y1177500D02*
Y1297500D01*
G01X7560000Y1237500D02*
X7570000D01*
G01X7560000Y1177500D02*
Y1297500D01*
G54D11*
G01X125000Y775000D02*
X525000D01*
X550000Y800000D01*
Y1175000D01*
X525000Y1200000D01*
X150000D01*
X125000Y1175000D01*
Y775000D01*
G01X175000Y1200000D02*
Y1525000D01*
X200000Y1550000D01*
X275000D01*
X250000Y1575000D01*
G01X275000Y1225000D02*
Y1700000D01*
X600000D01*
Y1225000D01*
X275000D01*
G01X250000Y1525000D02*
X275000Y1550000D01*
G01X341710Y2803740D02*
Y2725000D01*
G01X319320Y2803740D02*
X364100D01*
G01X400980Y2725000D02*
Y2803740D01*
X424340D01*
X432130Y2799800D01*
X437980Y2790620D01*
X439920Y2780120D01*
X437980Y2769620D01*
X433110Y2761740D01*
X424340Y2757810D01*
X400980D01*
G01X480690D02*
X487510Y2767000D01*
X493350Y2772240D01*
X501140Y2774870D01*
X507950Y2772240D01*
X512820Y2767000D01*
X516720Y2759120D01*
X517690Y2749930D01*
X516720Y2742060D01*
X512820Y2734180D01*
X506980Y2727620D01*
X500160Y2725000D01*
X492370Y2727620D01*
X485560Y2735500D01*
X481660Y2747310D01*
X480690Y2760430D01*
X482640Y2777490D01*
X485560Y2786680D01*
X490430Y2795870D01*
X497240Y2802430D01*
X504060Y2803740D01*
X510870Y2801120D01*
X515740Y2794550D01*
G01X178250Y4675810D02*
X184810Y4683600D01*
X188750Y4692370D01*
Y4700150D01*
X184810Y4707940D01*
X178250Y4713790D01*
X169060Y4716710D01*
X159880Y4714760D01*
X152010Y4709890D01*
X146750Y4701130D01*
X144130Y4689440D01*
X138880Y4682630D01*
X129700Y4679710D01*
X120510Y4681660D01*
X113950Y4686520D01*
X110010Y4693340D01*
Y4700150D01*
X112630Y4706970D01*
X119200Y4712810D01*
G01X110010Y4745790D02*
X188750Y4759420D01*
X110010Y4775000D01*
X188750Y4790580D01*
X110010Y4804210D01*
G01X188750Y4853740D02*
X110010D01*
X125760Y4842060D01*
G01X188750D02*
Y4865420D01*
G01X178250Y5788310D02*
X184810Y5796100D01*
X188750Y5804870D01*
Y5812650D01*
X184810Y5820440D01*
X178250Y5826290D01*
X169060Y5829210D01*
X159880Y5827260D01*
X152010Y5822390D01*
X146750Y5813630D01*
X144130Y5801940D01*
X138880Y5795130D01*
X129700Y5792210D01*
X120510Y5794160D01*
X113950Y5799020D01*
X110010Y5805840D01*
Y5812650D01*
X112630Y5819470D01*
X119200Y5825310D01*
G01X110010Y5858290D02*
X188750Y5871920D01*
X110010Y5887500D01*
X188750Y5903080D01*
X110010Y5916710D01*
G01X123130Y5947740D02*
X115260Y5953580D01*
X111320Y5960400D01*
X110010Y5968190D01*
X112630Y5977920D01*
X119200Y5984740D01*
X127070Y5986690D01*
X134950Y5985710D01*
X141510Y5981820D01*
X154630Y5962350D01*
X163820Y5953580D01*
X176940Y5947740D01*
X188750Y5945790D01*
Y5986690D01*
G01X775000Y3587500D02*
Y2937500D01*
X1000000D01*
G01X1233430Y734190D02*
X1237370Y740030D01*
X1239990Y746850D01*
Y754640D01*
X1236050Y763400D01*
X1229490Y770210D01*
X1221620Y775080D01*
X1208490Y778980D01*
X1196680Y779950D01*
X1184870Y778000D01*
X1177000Y775080D01*
X1169120Y769240D01*
X1163870Y762430D01*
X1161250Y755610D01*
Y748790D01*
X1163870Y741980D01*
X1167810Y736140D01*
X1173060Y731270D01*
G01X1161250Y676870D02*
X1239990D01*
X1224240Y688550D01*
G01X1161250D02*
Y665190D01*
G01X1239990Y598130D02*
X1237370Y605920D01*
X1230800Y611760D01*
X1222930Y615660D01*
X1212430Y618580D01*
X1200620Y619550D01*
X1188810Y618580D01*
X1178310Y615660D01*
X1170430Y611760D01*
X1163870Y605920D01*
X1161250Y598130D01*
X1163870Y590340D01*
X1170430Y584500D01*
X1178310Y580600D01*
X1188810Y577680D01*
X1200620Y576710D01*
X1212430Y577680D01*
X1222930Y580600D01*
X1230800Y584500D01*
X1237370Y590340D01*
X1239990Y598130D01*
G01Y519390D02*
X1237370Y527180D01*
X1230800Y533020D01*
X1222930Y536920D01*
X1212430Y539840D01*
X1200620Y540810D01*
X1188810Y539840D01*
X1178310Y536920D01*
X1170430Y533020D01*
X1163870Y527180D01*
X1161250Y519390D01*
X1163870Y511600D01*
X1170430Y505760D01*
X1178310Y501860D01*
X1188810Y498940D01*
X1200620Y497970D01*
X1212430Y498940D01*
X1222930Y501860D01*
X1230800Y505760D01*
X1237370Y511600D01*
X1239990Y519390D01*
G01X1362500Y2937500D02*
X1125000D01*
G01X1240180Y3236250D02*
X1281080Y3314990D01*
G01X1240180D02*
X1281080Y3236250D01*
G01X1320870Y3301870D02*
X1326710Y3309740D01*
X1333530Y3313680D01*
X1341320Y3314990D01*
X1351050Y3312370D01*
X1357870Y3305800D01*
X1359820Y3297930D01*
X1358840Y3290050D01*
X1354950Y3283490D01*
X1335480Y3270370D01*
X1326710Y3261180D01*
X1320870Y3248060D01*
X1318920Y3236250D01*
X1359820D01*
G01X800000Y3712500D02*
Y3775000D01*
X1112500D01*
Y3987500D01*
X1875000D01*
Y2937500D01*
X1487500D01*
G01X1225000Y7200000D02*
Y7000000D01*
X1250000Y6975000D01*
X1700000D01*
X1725000Y7000000D01*
Y7200000D01*
X1225000D01*
G01X1437500Y4000000D02*
Y4200000D01*
X1400000Y4162500D01*
G01X1437500Y4200000D02*
X1475000Y4162500D01*
G01X2550000Y4100000D02*
X1500000D01*
X1475000Y4075000D01*
Y4275000D01*
X1350000D01*
Y5475000D01*
X1375000Y5500000D01*
X2500000D01*
X2550000Y5450000D01*
Y4100000D01*
G01X1529210Y5053740D02*
Y4975000D01*
G01X1506820Y5053740D02*
X1551600D01*
G01X1588480Y4975000D02*
Y5053740D01*
X1611840D01*
X1619630Y5049800D01*
X1625480Y5040620D01*
X1627420Y5030120D01*
X1625480Y5019620D01*
X1620610Y5011740D01*
X1611840Y5007810D01*
X1588480D01*
G01X1698370Y4975000D02*
Y5053740D01*
X1662350Y4997310D01*
X1711030D01*
G01X1554210Y5428740D02*
Y5350000D01*
G01X1531820Y5428740D02*
X1576600D01*
G01X1613480Y5350000D02*
Y5428740D01*
X1636840D01*
X1644630Y5424800D01*
X1650480Y5415620D01*
X1652420Y5405120D01*
X1650480Y5394620D01*
X1645610Y5386740D01*
X1636840Y5382810D01*
X1613480D01*
G01X1690270Y5361810D02*
X1696110Y5355250D01*
X1702930Y5351310D01*
X1711690Y5350000D01*
X1720450Y5352620D01*
X1727270Y5357870D01*
X1732140Y5367060D01*
X1733110Y5377560D01*
X1731160Y5388060D01*
X1726290Y5394620D01*
X1719480Y5399870D01*
X1712660Y5401180D01*
X1705850Y5399870D01*
X1697090Y5394620D01*
X1700010Y5428740D01*
X1726290D01*
G01X2200000Y3562500D02*
X2125000D01*
Y3762500D01*
X2200000D01*
G01X2151250Y5702680D02*
X2072510Y5743580D01*
G01Y5702680D02*
X2151250Y5743580D01*
G01Y5801870D02*
X2072510D01*
X2088260Y5790190D01*
G01X2151250D02*
Y5813550D01*
G01X1775000Y7075000D02*
X1925000D01*
X1900000Y7100000D01*
G01X1925000Y7075000D02*
X1900000Y7050000D01*
G01X1950000Y7250000D02*
Y6925000D01*
X1975000Y6900000D01*
X2625000D01*
X2650000Y6925000D01*
Y7225000D01*
X2625000Y7250000D01*
X1950000D01*
G01X2659740Y3478740D02*
Y3400000D01*
X2698680D01*
G01X2739450Y3465620D02*
X2745290Y3473490D01*
X2752110Y3477430D01*
X2759900Y3478740D01*
X2769630Y3476120D01*
X2776450Y3469550D01*
X2778400Y3461680D01*
X2777420Y3453800D01*
X2773530Y3447240D01*
X2754060Y3434120D01*
X2745290Y3424930D01*
X2739450Y3411810D01*
X2737500Y3400000D01*
X2778400D01*
G01X2675630Y3722180D02*
X2669790Y3726120D01*
X2662970Y3728740D01*
X2655180D01*
X2646420Y3724800D01*
X2639610Y3718240D01*
X2634740Y3710370D01*
X2630840Y3697240D01*
X2629870Y3685430D01*
X2631820Y3673620D01*
X2634740Y3665750D01*
X2640580Y3657870D01*
X2647390Y3652620D01*
X2654210Y3650000D01*
X2661030D01*
X2667840Y3652620D01*
X2673680Y3656560D01*
X2678550Y3661810D01*
G01X2711530D02*
X2717370Y3655250D01*
X2724190Y3651310D01*
X2732950Y3650000D01*
X2741710Y3652620D01*
X2748530Y3657870D01*
X2753400Y3667060D01*
X2754370Y3677560D01*
X2752420Y3688060D01*
X2747550Y3694620D01*
X2740740Y3699870D01*
X2733920Y3701180D01*
X2727110Y3699870D01*
X2718350Y3694620D01*
X2721270Y3728740D01*
X2747550D01*
G01X2811690D02*
X2803900Y3726120D01*
X2798060Y3719550D01*
X2794160Y3711680D01*
X2791240Y3701180D01*
X2790270Y3689370D01*
X2791240Y3677560D01*
X2794160Y3667060D01*
X2798060Y3659180D01*
X2803900Y3652620D01*
X2811690Y3650000D01*
X2819480Y3652620D01*
X2825320Y3659180D01*
X2829220Y3667060D01*
X2832140Y3677560D01*
X2833110Y3689370D01*
X2832140Y3701180D01*
X2829220Y3711680D01*
X2825320Y3719550D01*
X2819480Y3726120D01*
X2811690Y3728740D01*
G01X4097810Y1928740D02*
Y1872310D01*
X4101700Y1860500D01*
X4109490Y1852620D01*
X4119230Y1850000D01*
X4128970Y1852620D01*
X4136760Y1860500D01*
X4140650Y1872310D01*
Y1928740D01*
G01X4197970Y1850000D02*
Y1928740D01*
X4186290Y1912990D01*
G01Y1850000D02*
X4209650D01*
G01X4276710Y1928740D02*
X4268920Y1926120D01*
X4263080Y1919550D01*
X4259180Y1911680D01*
X4256260Y1901180D01*
X4255290Y1889370D01*
X4256260Y1877560D01*
X4259180Y1867060D01*
X4263080Y1859180D01*
X4268920Y1852620D01*
X4276710Y1850000D01*
X4284500Y1852620D01*
X4290340Y1859180D01*
X4294240Y1867060D01*
X4297160Y1877560D01*
X4298130Y1889370D01*
X4297160Y1901180D01*
X4294240Y1911680D01*
X4290340Y1919550D01*
X4284500Y1926120D01*
X4276710Y1928740D01*
G01X4172810Y5528700D02*
Y5472300D01*
X4176700Y5460490D01*
X4184490Y5452620D01*
X4194220Y5450000D01*
X4203950Y5452620D01*
X4211740Y5460490D01*
X4215630Y5472300D01*
Y5528700D01*
G01X4272920Y5450000D02*
X4279730Y5451310D01*
X4287520Y5455250D01*
X4292390Y5461800D01*
X4294330Y5470990D01*
X4292390Y5480170D01*
X4286550Y5488040D01*
X4277790Y5491970D01*
X4268050D01*
X4262210Y5494600D01*
X4257350Y5501150D01*
X4255400Y5510340D01*
X4258320Y5519520D01*
X4265130Y5526080D01*
X4272920Y5528700D01*
X4280710Y5526080D01*
X4287520Y5519520D01*
X4290440Y5510340D01*
X4288490Y5501150D01*
X4283630Y5494600D01*
X4277790Y5491970D01*
X4268050D01*
X4259290Y5488040D01*
X4253450Y5480170D01*
X4251510Y5470990D01*
X4253450Y5461800D01*
X4258320Y5455250D01*
X4266110Y5451310D01*
X4272920Y5450000D01*
G01X5850630Y5872180D02*
X5844790Y5876120D01*
X5837970Y5878740D01*
X5830180D01*
X5821420Y5874800D01*
X5814610Y5868240D01*
X5809740Y5860370D01*
X5805840Y5847240D01*
X5804870Y5835430D01*
X5806820Y5823620D01*
X5809740Y5815750D01*
X5815580Y5807870D01*
X5822390Y5802620D01*
X5829210Y5800000D01*
X5836030D01*
X5842840Y5802620D01*
X5848680Y5806560D01*
X5853550Y5811810D01*
G01X5919630Y5800000D02*
Y5878740D01*
X5883610Y5822310D01*
X5932290D01*
G01X5968190Y5832810D02*
X5975010Y5842000D01*
X5980850Y5847240D01*
X5988640Y5849870D01*
X5995450Y5847240D01*
X6000320Y5842000D01*
X6004220Y5834120D01*
X6005190Y5824930D01*
X6004220Y5817060D01*
X6000320Y5809180D01*
X5994480Y5802620D01*
X5987660Y5800000D01*
X5979870Y5802620D01*
X5973060Y5810500D01*
X5969160Y5822310D01*
X5968190Y5835430D01*
X5970140Y5852490D01*
X5973060Y5861680D01*
X5977930Y5870870D01*
X5984740Y5877430D01*
X5991560Y5878740D01*
X5998370Y5876120D01*
X6003240Y5869550D01*
G01X6875630Y4122180D02*
X6869790Y4126120D01*
X6862970Y4128740D01*
X6855180D01*
X6846420Y4124800D01*
X6839610Y4118240D01*
X6834740Y4110370D01*
X6830840Y4097240D01*
X6829870Y4085430D01*
X6831820Y4073620D01*
X6834740Y4065750D01*
X6840580Y4057870D01*
X6847390Y4052620D01*
X6854210Y4050000D01*
X6861030D01*
X6867840Y4052620D01*
X6873680Y4056560D01*
X6878550Y4061810D01*
G01X6944630Y4050000D02*
Y4128740D01*
X6908610Y4072310D01*
X6957290D01*
G01X6995140Y4059180D02*
X7001950Y4052620D01*
X7009740Y4050000D01*
X7017530Y4052620D01*
X7024350Y4060500D01*
X7029220Y4072310D01*
X7031160Y4084120D01*
Y4098560D01*
X7029220Y4110370D01*
X7024350Y4120870D01*
X7018510Y4126120D01*
X7011690Y4128740D01*
X7003900Y4126120D01*
X6998060Y4120870D01*
X6994160Y4112990D01*
X6992220Y4102490D01*
X6994160Y4093310D01*
X6999030Y4084120D01*
X7004870Y4078870D01*
X7011690Y4077560D01*
X7019480Y4080180D01*
X7025320Y4086740D01*
X7031160Y4098560D01*
G01X6712500Y4200000D02*
X6787500D01*
Y4000000D01*
X6712500D01*
G01X6875630Y4397180D02*
X6869790Y4401120D01*
X6862970Y4403740D01*
X6855180D01*
X6846420Y4399800D01*
X6839610Y4393240D01*
X6834740Y4385370D01*
X6830840Y4372240D01*
X6829870Y4360430D01*
X6831820Y4348620D01*
X6834740Y4340750D01*
X6840580Y4332870D01*
X6847390Y4327620D01*
X6854210Y4325000D01*
X6861030D01*
X6867840Y4327620D01*
X6873680Y4331560D01*
X6878550Y4336810D01*
G01X6944630Y4325000D02*
Y4403740D01*
X6908610Y4347310D01*
X6957290D01*
G01X7011690Y4325000D02*
X7018510Y4326310D01*
X7026290Y4330250D01*
X7031160Y4336810D01*
X7033110Y4346000D01*
X7031160Y4355180D01*
X7025320Y4363060D01*
X7016560Y4367000D01*
X7006820D01*
X7000980Y4369620D01*
X6996110Y4376180D01*
X6994160Y4385370D01*
X6997090Y4394550D01*
X7003900Y4401120D01*
X7011690Y4403740D01*
X7019480Y4401120D01*
X7026290Y4394550D01*
X7029220Y4385370D01*
X7027270Y4376180D01*
X7022400Y4369620D01*
X7016560Y4367000D01*
X7006820D01*
X6998060Y4363060D01*
X6992220Y4355180D01*
X6990270Y4346000D01*
X6992220Y4336810D01*
X6997090Y4330250D01*
X7004870Y4326310D01*
X7011690Y4325000D01*
G01X6712500Y4437500D02*
X6787500D01*
Y4237500D01*
X6712500D01*
G01X6600000Y5390180D02*
X6521260Y5431080D01*
G01Y5390180D02*
X6600000Y5431080D01*
G01X6584250Y5467950D02*
X6593440Y5473790D01*
X6598690Y5481580D01*
X6600000Y5490340D01*
X6598690Y5498130D01*
X6592130Y5505920D01*
X6584250Y5510790D01*
X6576380Y5511760D01*
X6567190Y5509820D01*
X6560630Y5503000D01*
X6558000Y5496190D01*
Y5487420D01*
G01Y5496190D02*
X6554070Y5502030D01*
X6547510Y5506900D01*
X6539630Y5508840D01*
X6531760Y5506900D01*
X6525200Y5502030D01*
X6521260Y5493260D01*
X6522570Y5484500D01*
X6527820Y5475740D01*
G01X6521260Y6620290D02*
X6577690D01*
X6589500Y6624180D01*
X6597380Y6631970D01*
X6600000Y6641710D01*
X6597380Y6651450D01*
X6589500Y6659240D01*
X6577690Y6663130D01*
X6521260D01*
G01X6590820Y6703900D02*
X6597380Y6710710D01*
X6600000Y6718500D01*
X6597380Y6726290D01*
X6589500Y6733110D01*
X6577690Y6737980D01*
X6565880Y6739920D01*
X6551440D01*
X6539630Y6737980D01*
X6529130Y6733110D01*
X6523880Y6727270D01*
X6521260Y6720450D01*
X6523880Y6712660D01*
X6529130Y6706820D01*
X6537010Y6702920D01*
X6547510Y6700980D01*
X6556690Y6702920D01*
X6565880Y6707790D01*
X6571130Y6713630D01*
X6572440Y6720450D01*
X6569820Y6728240D01*
X6563260Y6734080D01*
X6551440Y6739920D01*
G01X7096260Y3577490D02*
Y3498750D01*
G01X7073870Y3577490D02*
X7118650D01*
G01X7155530Y3498750D02*
Y3577490D01*
X7178890D01*
X7186680Y3573550D01*
X7192530Y3564370D01*
X7194470Y3553870D01*
X7192530Y3543370D01*
X7187660Y3535490D01*
X7178890Y3531560D01*
X7155530D01*
G01X7235240Y3564370D02*
X7241080Y3572240D01*
X7247900Y3576180D01*
X7255690Y3577490D01*
X7265420Y3574870D01*
X7272240Y3568300D01*
X7274190Y3560430D01*
X7273210Y3552550D01*
X7269320Y3545990D01*
X7249850Y3532870D01*
X7241080Y3523680D01*
X7235240Y3510560D01*
X7233290Y3498750D01*
X7274190D01*
G01X7100000Y5925000D02*
Y5475000D01*
X7175000Y5400000D01*
X7425000D01*
X7450000Y5375000D01*
Y5125000D01*
X7800000D01*
Y5625000D01*
X7775000Y5650000D01*
X7550000D01*
Y5925000D01*
X7100000D01*
G01X7275000Y6400000D02*
Y6000000D01*
X7325000Y5950000D01*
X7775000D01*
Y6600000D01*
X7750000Y6625000D01*
X7325000D01*
Y7050000D01*
X7300000Y7075000D01*
X6925000D01*
Y6400000D01*
X7275000D01*
G01X7522510Y816160D02*
X7601250D01*
Y855100D01*
G01Y914370D02*
X7522510D01*
X7538260Y902690D01*
G01X7601250D02*
Y926050D01*
G01X7471260Y4327490D02*
Y4248750D01*
G01X7448870Y4327490D02*
X7493650D01*
G01X7530530Y4248750D02*
Y4327490D01*
X7553890D01*
X7561680Y4323550D01*
X7567530Y4314370D01*
X7569470Y4303870D01*
X7567530Y4293370D01*
X7562660Y4285490D01*
X7553890Y4281560D01*
X7530530D01*
G01X7628740Y4248750D02*
Y4327490D01*
X7617060Y4311740D01*
G01Y4248750D02*
X7640420D01*
G01X7675000Y5650000D02*
Y5950000D01*
X7650000Y5925000D01*
G01X7700000D02*
X7675000Y5950000D01*
G01X7867680Y520930D02*
X7861840Y524870D01*
X7855020Y527490D01*
X7847230D01*
X7838470Y523550D01*
X7831660Y516990D01*
X7826790Y509120D01*
X7822890Y495990D01*
X7821920Y484180D01*
X7823870Y472370D01*
X7826790Y464500D01*
X7832630Y456620D01*
X7839440Y451370D01*
X7846260Y448750D01*
X7853080D01*
X7859890Y451370D01*
X7865730Y455310D01*
X7870600Y460560D01*
G01X7925000Y448750D02*
Y527490D01*
X7913320Y511740D01*
G01Y448750D02*
X7936680D01*
G01X8003740D02*
X8010560Y450060D01*
X8018340Y454000D01*
X8023210Y460560D01*
X8025160Y469750D01*
X8023210Y478930D01*
X8017370Y486810D01*
X8008610Y490750D01*
X7998870D01*
X7993030Y493370D01*
X7988160Y499930D01*
X7986210Y509120D01*
X7989140Y518300D01*
X7995950Y524870D01*
X8003740Y527490D01*
X8011530Y524870D01*
X8018340Y518300D01*
X8021270Y509120D01*
X8019320Y499930D01*
X8014450Y493370D01*
X8008610Y490750D01*
X7998870D01*
X7990110Y486810D01*
X7984270Y478930D01*
X7982320Y469750D01*
X7984270Y460560D01*
X7989140Y454000D01*
X7996920Y450060D01*
X8003740Y448750D01*
G01X7867680Y1295930D02*
X7861840Y1299870D01*
X7855020Y1302490D01*
X7847230D01*
X7838470Y1298550D01*
X7831660Y1291990D01*
X7826790Y1284120D01*
X7822890Y1270990D01*
X7821920Y1259180D01*
X7823870Y1247370D01*
X7826790Y1239500D01*
X7832630Y1231620D01*
X7839440Y1226370D01*
X7846260Y1223750D01*
X7853080D01*
X7859890Y1226370D01*
X7865730Y1230310D01*
X7870600Y1235560D01*
G01X7925000Y1223750D02*
Y1302490D01*
X7913320Y1286740D01*
G01Y1223750D02*
X7936680D01*
G01X7987190Y1232930D02*
X7994000Y1226370D01*
X8001790Y1223750D01*
X8009580Y1226370D01*
X8016400Y1234250D01*
X8021270Y1246060D01*
X8023210Y1257870D01*
Y1272310D01*
X8021270Y1284120D01*
X8016400Y1294620D01*
X8010560Y1299870D01*
X8003740Y1302490D01*
X7995950Y1299870D01*
X7990110Y1294620D01*
X7986210Y1286740D01*
X7984270Y1276240D01*
X7986210Y1267060D01*
X7991080Y1257870D01*
X7996920Y1252620D01*
X8003740Y1251310D01*
X8011530Y1253930D01*
X8017370Y1260490D01*
X8023210Y1272310D01*
G01X8200630Y2497180D02*
X8194790Y2501120D01*
X8187970Y2503740D01*
X8180180D01*
X8171420Y2499800D01*
X8164610Y2493240D01*
X8159740Y2485370D01*
X8155840Y2472240D01*
X8154870Y2460430D01*
X8156820Y2448620D01*
X8159740Y2440750D01*
X8165580Y2432870D01*
X8172390Y2427620D01*
X8179210Y2425000D01*
X8186030D01*
X8192840Y2427620D01*
X8198680Y2431560D01*
X8203550Y2436810D01*
G01X8239450Y2490620D02*
X8245290Y2498490D01*
X8252110Y2502430D01*
X8259900Y2503740D01*
X8269630Y2501120D01*
X8276450Y2494550D01*
X8278400Y2486680D01*
X8277420Y2478800D01*
X8273530Y2472240D01*
X8254060Y2459120D01*
X8245290Y2449930D01*
X8239450Y2436810D01*
X8237500Y2425000D01*
X8278400D01*
G01X8315270Y2440750D02*
X8321110Y2431560D01*
X8328900Y2426310D01*
X8337660Y2425000D01*
X8345450Y2426310D01*
X8353240Y2432870D01*
X8358110Y2440750D01*
X8359080Y2448620D01*
X8357140Y2457810D01*
X8350320Y2464370D01*
X8343510Y2467000D01*
X8334740D01*
G01X8343510D02*
X8349350Y2470930D01*
X8354220Y2477490D01*
X8356160Y2485370D01*
X8354220Y2493240D01*
X8349350Y2499800D01*
X8340580Y2503740D01*
X8331820Y2502430D01*
X8323060Y2497180D01*
G01X8253740Y5092210D02*
X8197310D01*
X8185500Y5088320D01*
X8177620Y5080530D01*
X8175000Y5070790D01*
X8177620Y5061050D01*
X8185500Y5053260D01*
X8197310Y5049370D01*
X8253740D01*
G01X8186810Y5013470D02*
X8180250Y5007630D01*
X8176310Y5000810D01*
X8175000Y4992050D01*
X8177620Y4983290D01*
X8182870Y4976470D01*
X8192060Y4971600D01*
X8202560Y4970630D01*
X8213060Y4972580D01*
X8219620Y4977450D01*
X8224870Y4984260D01*
X8226180Y4991080D01*
X8224870Y4997890D01*
X8219620Y5006650D01*
X8253740Y5003730D01*
Y4977450D01*
G01X9427490Y1885790D02*
X9371060D01*
X9359250Y1881900D01*
X9351370Y1874110D01*
X9348750Y1864370D01*
X9351370Y1854630D01*
X9359250Y1846840D01*
X9371060Y1842950D01*
X9427490D01*
G01X9348750Y1787580D02*
X9365810Y1785630D01*
X9380240Y1782710D01*
X9393370Y1778810D01*
X9407800Y1773950D01*
X9427490Y1766160D01*
Y1805100D01*
G01X9254210Y3866240D02*
Y3787500D01*
G01X9231820Y3866240D02*
X9276600D01*
G01X9313480Y3787500D02*
Y3866240D01*
X9336840D01*
X9344630Y3862300D01*
X9350480Y3853120D01*
X9352420Y3842620D01*
X9350480Y3832120D01*
X9345610Y3824240D01*
X9336840Y3820310D01*
X9313480D01*
G01X9390270Y3803250D02*
X9396110Y3794060D01*
X9403900Y3788810D01*
X9412660Y3787500D01*
X9420450Y3788810D01*
X9428240Y3795370D01*
X9433110Y3803250D01*
X9434080Y3811120D01*
X9432140Y3820310D01*
X9425320Y3826870D01*
X9418510Y3829500D01*
X9409740D01*
G01X9418510D02*
X9424350Y3833430D01*
X9429220Y3839990D01*
X9431160Y3847870D01*
X9429220Y3855740D01*
X9424350Y3862300D01*
X9415580Y3866240D01*
X9406820Y3864930D01*
X9398060Y3859680D01*
G01X9522580Y5273250D02*
X9579010D01*
X9590820Y5277140D01*
X9598700Y5284930D01*
X9601320Y5294670D01*
X9598700Y5304410D01*
X9590820Y5312200D01*
X9579010Y5316090D01*
X9522580D01*
G01X9601320Y5385090D02*
X9522580D01*
X9579010Y5349070D01*
Y5397750D01*
G01X9513130Y7147180D02*
X9507290Y7151120D01*
X9500470Y7153740D01*
X9492680D01*
X9483920Y7149800D01*
X9477110Y7143240D01*
X9472240Y7135370D01*
X9468340Y7122240D01*
X9467370Y7110430D01*
X9469320Y7098620D01*
X9472240Y7090750D01*
X9478080Y7082870D01*
X9484890Y7077620D01*
X9491710Y7075000D01*
X9498530D01*
X9505340Y7077620D01*
X9511180Y7081560D01*
X9516050Y7086810D01*
G01X9548060Y7075000D02*
Y7153740D01*
X9592840Y7075000D01*
Y7153740D01*
G01X9649190Y7075000D02*
Y7153740D01*
X9637510Y7137990D01*
G01Y7075000D02*
X9660870D01*
G54D12*
G01X850000Y425000D02*
Y50000D01*
X1975000D01*
X2025000Y100000D01*
Y600000D01*
X2000000Y625000D01*
X1650000D01*
Y400000D01*
X1550000D01*
X1500000Y450000D01*
X875000D01*
X850000Y425000D01*
G01X1122500Y582500D02*
X902500D01*
G01D02*
Y1042500D01*
X1122500D01*
Y582500D01*
G01X1950000Y625000D02*
Y925000D01*
X1975000Y950000D01*
X2250000D01*
X2225000Y975000D01*
G01X2250000Y1100000D02*
Y800000D01*
X2300000Y750000D01*
X3525000D01*
Y1450000D01*
X3475000Y1500000D01*
X3075000D01*
Y1125000D01*
X3050000Y1100000D01*
X2250000D01*
G01X2225000Y925000D02*
X2250000Y950000D01*
G01X2500000Y3562500D02*
X2575000D01*
Y3762500D01*
X2500000D01*
G01X3615020Y750000D02*
X4965020D01*
Y3000000D01*
X3665020D01*
X3615020Y2950000D01*
Y750000D01*
G01X6155000Y5927500D02*
X5695000D01*
Y6147500D01*
X6155000D01*
G01X6412500Y4200000D02*
X6337500D01*
Y4000000D01*
X6412500D01*
G01Y4437500D02*
X6337500D01*
Y4237500D01*
X6412500D01*
G01X6155000Y6147500D02*
Y5927500D01*
G01X7767500Y292500D02*
X7307500D01*
Y632500D01*
X7767500D01*
Y292500D01*
G01X7320000Y1127500D02*
Y1347500D01*
G01D02*
X7780000D01*
Y1127500D01*
X7320000D01*
G01X8080000Y2280000D02*
X7620000D01*
Y2620000D01*
X8080000D01*
Y2280000D01*
G01X8375000Y5500000D02*
Y5150000D01*
X7975000D01*
Y5500000D01*
X8375000D01*
G01X9287500Y1837500D02*
Y1787500D01*
X8887500D01*
Y1837500D01*
G01X9287500Y2437500D02*
Y2487500D01*
X8887500D01*
Y2437500D01*
G01X8861320Y4765460D02*
Y5965460D01*
G01X9761320Y4765460D02*
X8861320D01*
G01Y5965460D02*
X9761320D01*
G01D02*
Y4765460D01*
G54D13*
G01X3025000Y2300000D02*
Y1500000D01*
X2300000D01*
Y2250000D01*
X2350000Y2300000D01*
X3025000D01*
G54D14*
G01X225000Y4437500D02*
Y5087500D01*
X300000Y5162500D01*
X900000D01*
X975000Y5087500D01*
Y4387500D01*
X900000Y4312500D01*
X300000D01*
X225000Y4387500D01*
Y4437500D01*
G01Y5550000D02*
Y6200000D01*
X300000Y6275000D01*
X900000D01*
X975000Y6200000D01*
Y5500000D01*
X900000Y5425000D01*
X300000D01*
X225000Y5500000D01*
Y5550000D01*
G01X987500Y7250000D02*
Y6600000D01*
X912500Y6525000D01*
X312500D01*
X237500Y6600000D01*
Y7300000D01*
X312500Y7375000D01*
X912500D01*
X987500Y7300000D01*
Y7250000D01*
G01X637500Y2687500D02*
X1887500D01*
Y1437500D01*
X762500D01*
X637500Y1562500D01*
Y2687500D01*
G54D15*
G01X173840Y950000D02*
Y1025950D01*
X205480D01*
X215610Y1022150D01*
X221940Y1017090D01*
X224470Y1006960D01*
X221940Y996840D01*
X214350Y990510D01*
X205480Y986710D01*
X173840D01*
G01X205480D02*
X224470Y950000D01*
G01X278470Y958860D02*
X287340Y952530D01*
X297460Y950000D01*
X307590Y952530D01*
X316450Y960120D01*
X322780Y971520D01*
X325310Y982910D01*
Y996840D01*
X322780Y1008230D01*
X316450Y1018350D01*
X308860Y1023420D01*
X299990Y1025950D01*
X289870Y1023420D01*
X282270Y1018350D01*
X277210Y1010760D01*
X274680Y1000630D01*
X277210Y991770D01*
X283540Y982910D01*
X291130Y977850D01*
X299990Y976580D01*
X310120Y979110D01*
X317720Y985440D01*
X325310Y996840D01*
G01X376780Y981640D02*
X385640Y990510D01*
X393240Y995570D01*
X403370Y998100D01*
X412230Y995570D01*
X418560Y990510D01*
X423620Y982910D01*
X424890Y974050D01*
X423620Y966450D01*
X418560Y958860D01*
X410960Y952530D01*
X402100Y950000D01*
X391970Y952530D01*
X383110Y960120D01*
X378050Y971520D01*
X376780Y984180D01*
X379310Y1000630D01*
X383110Y1009500D01*
X389440Y1018350D01*
X398300Y1024680D01*
X407160Y1025950D01*
X416030Y1023420D01*
X422360Y1017090D01*
G01X173420Y800000D02*
Y875950D01*
X205060D01*
X215190Y872150D01*
X221520Y867090D01*
X224050Y856960D01*
X221520Y846840D01*
X213930Y840510D01*
X205060Y836710D01*
X173420D01*
G01X205060D02*
X224050Y800000D01*
G01X299570D02*
Y875950D01*
X284380Y860760D01*
G01Y800000D02*
X314760D01*
G01X400410Y875950D02*
X390290Y873420D01*
X382690Y867090D01*
X377630Y859500D01*
X373830Y849370D01*
X372570Y837970D01*
X373830Y826580D01*
X377630Y816450D01*
X382690Y808860D01*
X390290Y802530D01*
X400410Y800000D01*
X410540Y802530D01*
X418140Y808860D01*
X423200Y816450D01*
X427000Y826580D01*
X428260Y837970D01*
X427000Y849370D01*
X423200Y859500D01*
X418140Y867090D01*
X410540Y873420D01*
X400410Y875950D01*
G01X473410Y811390D02*
X481000Y805060D01*
X489860Y801270D01*
X501250Y800000D01*
X512650Y802530D01*
X521510Y807590D01*
X527840Y816450D01*
X529100Y826580D01*
X526570Y836710D01*
X520240Y843040D01*
X511380Y848100D01*
X502520Y849370D01*
X493660Y848100D01*
X482270Y843040D01*
X486060Y875950D01*
X520240D01*
G01X227000Y1144620D02*
X219410Y1148420D01*
X210550Y1150950D01*
X200420D01*
X189030Y1147150D01*
X180170Y1140820D01*
X173840Y1133230D01*
X168770Y1120570D01*
X167510Y1109180D01*
X170040Y1097780D01*
X173840Y1090190D01*
X181430Y1082590D01*
X190290Y1077530D01*
X199150Y1075000D01*
X208020D01*
X216880Y1077530D01*
X224470Y1081330D01*
X230800Y1086390D01*
G01X299990Y1075000D02*
X308860Y1076270D01*
X318980Y1080060D01*
X325310Y1086390D01*
X327840Y1095250D01*
X325310Y1104110D01*
X317720Y1111710D01*
X306320Y1115510D01*
X293670D01*
X286070Y1118040D01*
X279740Y1124370D01*
X277210Y1133230D01*
X281010Y1142090D01*
X289870Y1148420D01*
X299990Y1150950D01*
X310120Y1148420D01*
X318980Y1142090D01*
X322780Y1133230D01*
X320250Y1124370D01*
X313920Y1118040D01*
X306320Y1115510D01*
X293670D01*
X282270Y1111710D01*
X274680Y1104110D01*
X272150Y1095250D01*
X274680Y1086390D01*
X281010Y1080060D01*
X291130Y1076270D01*
X299990Y1075000D01*
G01X379310Y1083860D02*
X388180Y1077530D01*
X398300Y1075000D01*
X408430Y1077530D01*
X417290Y1085120D01*
X423620Y1096520D01*
X426150Y1107910D01*
Y1121840D01*
X423620Y1133230D01*
X417290Y1143350D01*
X409700Y1148420D01*
X400830Y1150950D01*
X390710Y1148420D01*
X383110Y1143350D01*
X378050Y1135760D01*
X375520Y1125630D01*
X378050Y1116770D01*
X384380Y1107910D01*
X391970Y1102850D01*
X400830Y1101580D01*
X410960Y1104110D01*
X418560Y1110440D01*
X426150Y1121840D01*
G01X255380Y1852000D02*
X251580Y1844410D01*
X249050Y1835550D01*
Y1825420D01*
X252850Y1814030D01*
X259180Y1805170D01*
X266770Y1798840D01*
X279430Y1793770D01*
X290820Y1792510D01*
X302220Y1795040D01*
X309810Y1798840D01*
X317410Y1806430D01*
X322470Y1815290D01*
X325000Y1824150D01*
Y1833020D01*
X322470Y1841880D01*
X318670Y1849470D01*
X313610Y1855800D01*
G01X316140Y1903470D02*
X322470Y1912340D01*
X325000Y1922460D01*
X322470Y1932590D01*
X314880Y1941450D01*
X303480Y1947780D01*
X292090Y1950310D01*
X278160D01*
X266770Y1947780D01*
X256650Y1941450D01*
X251580Y1933860D01*
X249050Y1924990D01*
X251580Y1914870D01*
X256650Y1907270D01*
X264240Y1902210D01*
X274370Y1899680D01*
X283230Y1902210D01*
X292090Y1908540D01*
X297150Y1916130D01*
X298420Y1924990D01*
X295890Y1935120D01*
X289560Y1942720D01*
X278160Y1950310D01*
G01X261710Y2001780D02*
X254110Y2009380D01*
X250320Y2018240D01*
X249050Y2028370D01*
X251580Y2041030D01*
X257910Y2049890D01*
X265500Y2052420D01*
X273100Y2051150D01*
X279430Y2046090D01*
X292090Y2020770D01*
X300950Y2009380D01*
X313610Y2001780D01*
X325000Y1999250D01*
Y2052420D01*
G01X255700Y2252010D02*
X251900Y2244420D01*
X249370Y2235560D01*
Y2225430D01*
X253170Y2214040D01*
X259500Y2205180D01*
X267090Y2198850D01*
X279750Y2193780D01*
X291140Y2192520D01*
X302540Y2195050D01*
X310130Y2198850D01*
X317730Y2206440D01*
X322790Y2215300D01*
X325320Y2224160D01*
Y2233030D01*
X322790Y2241890D01*
X318990Y2249480D01*
X313930Y2255810D01*
G01X316460Y2303480D02*
X322790Y2312350D01*
X325320Y2322470D01*
X322790Y2332600D01*
X315200Y2341460D01*
X303800Y2347790D01*
X292410Y2350320D01*
X278480D01*
X267090Y2347790D01*
X256970Y2341460D01*
X251900Y2333870D01*
X249370Y2325000D01*
X251900Y2314880D01*
X256970Y2307280D01*
X264560Y2302220D01*
X274690Y2299690D01*
X283550Y2302220D01*
X292410Y2308550D01*
X297470Y2316140D01*
X298740Y2325000D01*
X296210Y2335130D01*
X289880Y2342730D01*
X278480Y2350320D01*
G01X325320Y2425840D02*
X249370D01*
X264560Y2410650D01*
G01X325320D02*
Y2441030D01*
G01X677010Y2794300D02*
X669420Y2798100D01*
X660560Y2800630D01*
X650430D01*
X639040Y2796830D01*
X630180Y2790500D01*
X623850Y2782910D01*
X618780Y2770250D01*
X617520Y2758860D01*
X620050Y2747460D01*
X623850Y2739870D01*
X631440Y2732270D01*
X640300Y2727210D01*
X649160Y2724680D01*
X658030D01*
X666890Y2727210D01*
X674480Y2731010D01*
X680810Y2736070D01*
G01X728480Y2733540D02*
X737350Y2727210D01*
X747470Y2724680D01*
X757600Y2727210D01*
X766460Y2734800D01*
X772790Y2746200D01*
X775320Y2757590D01*
Y2771520D01*
X772790Y2782910D01*
X766460Y2793030D01*
X758870Y2798100D01*
X750000Y2800630D01*
X739880Y2798100D01*
X732280Y2793030D01*
X727220Y2785440D01*
X724690Y2775310D01*
X727220Y2766450D01*
X733550Y2757590D01*
X741140Y2752530D01*
X750000Y2751260D01*
X760130Y2753790D01*
X767730Y2760120D01*
X775320Y2771520D01*
G01X850840Y2800630D02*
X840720Y2798100D01*
X833120Y2791770D01*
X828060Y2784180D01*
X824260Y2774050D01*
X823000Y2762650D01*
X824260Y2751260D01*
X828060Y2741130D01*
X833120Y2733540D01*
X840720Y2727210D01*
X850840Y2724680D01*
X860970Y2727210D01*
X868570Y2733540D01*
X873630Y2741130D01*
X877430Y2751260D01*
X878690Y2762650D01*
X877430Y2774050D01*
X873630Y2784180D01*
X868570Y2791770D01*
X860970Y2798100D01*
X850840Y2800630D01*
G01X902010Y1144300D02*
X894420Y1148100D01*
X885560Y1150630D01*
X875430D01*
X864040Y1146830D01*
X855180Y1140500D01*
X848850Y1132910D01*
X843780Y1120250D01*
X842520Y1108860D01*
X845050Y1097460D01*
X848850Y1089870D01*
X856440Y1082270D01*
X865300Y1077210D01*
X874160Y1074680D01*
X883030D01*
X891890Y1077210D01*
X899480Y1081010D01*
X905810Y1086070D01*
G01X975000Y1074680D02*
X983870Y1075950D01*
X993990Y1079740D01*
X1000320Y1086070D01*
X1002850Y1094930D01*
X1000320Y1103790D01*
X992730Y1111390D01*
X981330Y1115190D01*
X968680D01*
X961080Y1117720D01*
X954750Y1124050D01*
X952220Y1132910D01*
X956020Y1141770D01*
X964880Y1148100D01*
X975000Y1150630D01*
X985130Y1148100D01*
X993990Y1141770D01*
X997790Y1132910D01*
X995260Y1124050D01*
X988930Y1117720D01*
X981330Y1115190D01*
X968680D01*
X957280Y1111390D01*
X949690Y1103790D01*
X947160Y1094930D01*
X949690Y1086070D01*
X956020Y1079740D01*
X966140Y1075950D01*
X975000Y1074680D01*
G01X1048000Y1086070D02*
X1055590Y1079740D01*
X1064450Y1075950D01*
X1075840Y1074680D01*
X1087240Y1077210D01*
X1096100Y1082270D01*
X1102430Y1091130D01*
X1103690Y1101260D01*
X1101160Y1111390D01*
X1094830Y1117720D01*
X1085970Y1122780D01*
X1077110Y1124050D01*
X1068250Y1122780D01*
X1056860Y1117720D01*
X1060650Y1150630D01*
X1094830D01*
G01X1186350Y3087180D02*
Y3163130D01*
X1217990D01*
X1228120Y3159330D01*
X1234450Y3154270D01*
X1236980Y3144140D01*
X1234450Y3134020D01*
X1226860Y3127690D01*
X1217990Y3123890D01*
X1186350D01*
G01X1217990D02*
X1236980Y3087180D01*
G01X1284660Y3102370D02*
X1292250Y3093510D01*
X1302380Y3088450D01*
X1313770Y3087180D01*
X1323900Y3088450D01*
X1334030Y3094770D01*
X1340350Y3102370D01*
X1341620Y3109960D01*
X1339090Y3118820D01*
X1330230Y3125150D01*
X1321370Y3127690D01*
X1309970D01*
G01X1321370D02*
X1328960Y3131480D01*
X1335290Y3137810D01*
X1337820Y3145410D01*
X1335290Y3153000D01*
X1328960Y3159330D01*
X1317570Y3163130D01*
X1306180Y3161860D01*
X1294780Y3156800D01*
G01X1389290Y3118820D02*
X1398150Y3127690D01*
X1405750Y3132750D01*
X1415880Y3135280D01*
X1424740Y3132750D01*
X1431070Y3127690D01*
X1436130Y3120090D01*
X1437400Y3111230D01*
X1436130Y3103630D01*
X1431070Y3096040D01*
X1423470Y3089710D01*
X1414610Y3087180D01*
X1404480Y3089710D01*
X1395620Y3097300D01*
X1390560Y3108700D01*
X1389290Y3121360D01*
X1391820Y3137810D01*
X1395620Y3146680D01*
X1401950Y3155530D01*
X1410810Y3161860D01*
X1419670Y3163130D01*
X1428540Y3160600D01*
X1434870Y3154270D01*
G01X1148840Y3350000D02*
Y3425950D01*
X1180480D01*
X1190610Y3422150D01*
X1196940Y3417090D01*
X1199470Y3406960D01*
X1196940Y3396840D01*
X1189350Y3390510D01*
X1180480Y3386710D01*
X1148840D01*
G01X1180480D02*
X1199470Y3350000D01*
G01X1247150Y3361390D02*
X1254740Y3355060D01*
X1263600Y3351270D01*
X1274990Y3350000D01*
X1286390Y3352530D01*
X1295250Y3357590D01*
X1301580Y3366450D01*
X1302840Y3376580D01*
X1300310Y3386710D01*
X1293980Y3393040D01*
X1285120Y3398100D01*
X1276260Y3399370D01*
X1267400Y3398100D01*
X1256010Y3393040D01*
X1259800Y3425950D01*
X1293980D01*
G01X1351780Y3381640D02*
X1360640Y3390510D01*
X1368240Y3395570D01*
X1378370Y3398100D01*
X1387230Y3395570D01*
X1393560Y3390510D01*
X1398620Y3382910D01*
X1399890Y3374050D01*
X1398620Y3366450D01*
X1393560Y3358860D01*
X1385960Y3352530D01*
X1377100Y3350000D01*
X1366970Y3352530D01*
X1358110Y3360120D01*
X1353050Y3371520D01*
X1351780Y3384180D01*
X1354310Y3400630D01*
X1358110Y3409500D01*
X1364440Y3418350D01*
X1373300Y3424680D01*
X1382160Y3425950D01*
X1391030Y3423420D01*
X1397360Y3417090D01*
G01X1185930Y2962180D02*
Y3038130D01*
X1217570D01*
X1227700Y3034330D01*
X1234030Y3029270D01*
X1236560Y3019140D01*
X1234030Y3009020D01*
X1226440Y3002690D01*
X1217570Y2998890D01*
X1185930D01*
G01X1217570D02*
X1236560Y2962180D01*
G01X1312080D02*
Y3038130D01*
X1296890Y3022940D01*
G01Y2962180D02*
X1327270D01*
G01X1412920D02*
Y3038130D01*
X1397730Y3022940D01*
G01Y2962180D02*
X1428110D01*
G01X1513760D02*
X1522630Y2963450D01*
X1532750Y2967240D01*
X1539080Y2973570D01*
X1541610Y2982430D01*
X1539080Y2991290D01*
X1531490Y2998890D01*
X1520090Y3002690D01*
X1507440D01*
X1499840Y3005220D01*
X1493510Y3011550D01*
X1490980Y3020410D01*
X1494780Y3029270D01*
X1503640Y3035600D01*
X1513760Y3038130D01*
X1523890Y3035600D01*
X1532750Y3029270D01*
X1536550Y3020410D01*
X1534020Y3011550D01*
X1527690Y3005220D01*
X1520090Y3002690D01*
X1507440D01*
X1496040Y2998890D01*
X1488450Y2991290D01*
X1485920Y2982430D01*
X1488450Y2973570D01*
X1494780Y2967240D01*
X1504900Y2963450D01*
X1513760Y2962180D01*
G01X852000Y3319620D02*
X844410Y3323420D01*
X835550Y3325950D01*
X825420D01*
X814030Y3322150D01*
X805170Y3315820D01*
X798840Y3308230D01*
X793770Y3295570D01*
X792510Y3284180D01*
X795040Y3272780D01*
X798840Y3265190D01*
X806430Y3257590D01*
X815290Y3252530D01*
X824150Y3250000D01*
X833020D01*
X841880Y3252530D01*
X849470Y3256330D01*
X855800Y3261390D01*
G01X900940Y3313290D02*
X908540Y3320890D01*
X917400Y3324680D01*
X927530Y3325950D01*
X940190Y3323420D01*
X949050Y3317090D01*
X951580Y3309500D01*
X950310Y3301900D01*
X945250Y3295570D01*
X919930Y3282910D01*
X908540Y3274050D01*
X900940Y3261390D01*
X898410Y3250000D01*
X951580D01*
G01X1001780Y3281640D02*
X1010640Y3290510D01*
X1018240Y3295570D01*
X1028370Y3298100D01*
X1037230Y3295570D01*
X1043560Y3290510D01*
X1048620Y3282910D01*
X1049890Y3274050D01*
X1048620Y3266450D01*
X1043560Y3258860D01*
X1035960Y3252530D01*
X1027100Y3250000D01*
X1016970Y3252530D01*
X1008110Y3260120D01*
X1003050Y3271520D01*
X1001780Y3284180D01*
X1004310Y3300630D01*
X1008110Y3309500D01*
X1014440Y3318350D01*
X1023300Y3324680D01*
X1032160Y3325950D01*
X1041030Y3323420D01*
X1047360Y3317090D01*
G01X1148840Y3525000D02*
Y3600950D01*
X1180480D01*
X1190610Y3597150D01*
X1196940Y3592090D01*
X1199470Y3581960D01*
X1196940Y3571840D01*
X1189350Y3565510D01*
X1180480Y3561710D01*
X1148840D01*
G01X1180480D02*
X1199470Y3525000D01*
G01X1247150Y3536390D02*
X1254740Y3530060D01*
X1263600Y3526270D01*
X1274990Y3525000D01*
X1286390Y3527530D01*
X1295250Y3532590D01*
X1301580Y3541450D01*
X1302840Y3551580D01*
X1300310Y3561710D01*
X1293980Y3568040D01*
X1285120Y3573100D01*
X1276260Y3574370D01*
X1267400Y3573100D01*
X1256010Y3568040D01*
X1259800Y3600950D01*
X1293980D01*
G01X1391030Y3525000D02*
Y3600950D01*
X1344190Y3546520D01*
X1407480D01*
G01X1224680Y6526160D02*
X1300630D01*
Y6494520D01*
X1296830Y6484390D01*
X1291770Y6478060D01*
X1281640Y6475530D01*
X1271520Y6478060D01*
X1265190Y6485650D01*
X1261390Y6494520D01*
Y6526160D01*
G01Y6494520D02*
X1224680Y6475530D01*
G01Y6400010D02*
X1300630D01*
X1285440Y6415200D01*
G01X1224680D02*
Y6384820D01*
G01X1256320Y6323220D02*
X1265190Y6314360D01*
X1270250Y6306760D01*
X1272780Y6296630D01*
X1270250Y6287770D01*
X1265190Y6281440D01*
X1257590Y6276380D01*
X1248730Y6275110D01*
X1241130Y6276380D01*
X1233540Y6281440D01*
X1227210Y6289040D01*
X1224680Y6297900D01*
X1227210Y6308030D01*
X1234800Y6316890D01*
X1246200Y6321950D01*
X1258860Y6323220D01*
X1275310Y6320690D01*
X1284180Y6316890D01*
X1293030Y6310560D01*
X1299360Y6301700D01*
X1300630Y6292840D01*
X1298100Y6283970D01*
X1291770Y6277640D01*
G01X1049680Y6526160D02*
X1125630D01*
Y6494520D01*
X1121830Y6484390D01*
X1116770Y6478060D01*
X1106640Y6475530D01*
X1096520Y6478060D01*
X1090190Y6485650D01*
X1086390Y6494520D01*
Y6526160D01*
G01Y6494520D02*
X1049680Y6475530D01*
G01Y6400010D02*
X1125630D01*
X1110440Y6415200D01*
G01X1049680D02*
Y6384820D01*
G01Y6283970D02*
X1125630D01*
X1071200Y6330810D01*
Y6267520D01*
G01X1250000Y7175740D02*
X1325950D01*
Y7144100D01*
X1322150Y7133970D01*
X1317090Y7127640D01*
X1306960Y7125110D01*
X1296840Y7127640D01*
X1290510Y7135230D01*
X1286710Y7144100D01*
Y7175740D01*
G01Y7144100D02*
X1250000Y7125110D01*
G01X1261390Y7077430D02*
X1255060Y7069840D01*
X1251270Y7060980D01*
X1250000Y7049590D01*
X1252530Y7038190D01*
X1257590Y7029330D01*
X1266450Y7023000D01*
X1276580Y7021740D01*
X1286710Y7024270D01*
X1293040Y7030600D01*
X1298100Y7039460D01*
X1299370Y7048320D01*
X1298100Y7057180D01*
X1293040Y7068570D01*
X1325950Y7064780D01*
Y7030600D01*
G01X1273420Y125000D02*
Y200950D01*
X1305060D01*
X1315190Y197150D01*
X1321520Y192090D01*
X1324050Y181960D01*
X1321520Y171840D01*
X1313930Y165510D01*
X1305060Y161710D01*
X1273420D01*
G01X1305060D02*
X1324050Y125000D01*
G01X1399570D02*
Y200950D01*
X1384380Y185760D01*
G01Y125000D02*
X1414760D01*
G01X1500410D02*
Y200950D01*
X1485220Y185760D01*
G01Y125000D02*
X1515600D01*
G01X1598720D02*
X1601250Y141450D01*
X1605050Y155380D01*
X1610120Y168040D01*
X1616450Y181960D01*
X1626570Y200950D01*
X1575940D01*
G01X1698840Y125000D02*
Y200950D01*
X1730480D01*
X1740610Y197150D01*
X1746940Y192090D01*
X1749470Y181960D01*
X1746940Y171840D01*
X1739350Y165510D01*
X1730480Y161710D01*
X1698840D01*
G01X1730480D02*
X1749470Y125000D01*
G01X1824990D02*
X1833860Y126270D01*
X1843980Y130060D01*
X1850310Y136390D01*
X1852840Y145250D01*
X1850310Y154110D01*
X1842720Y161710D01*
X1831320Y165510D01*
X1818670D01*
X1811070Y168040D01*
X1804740Y174370D01*
X1802210Y183230D01*
X1806010Y192090D01*
X1814870Y198420D01*
X1824990Y200950D01*
X1835120Y198420D01*
X1843980Y192090D01*
X1847780Y183230D01*
X1845250Y174370D01*
X1838920Y168040D01*
X1831320Y165510D01*
X1818670D01*
X1807270Y161710D01*
X1799680Y154110D01*
X1797150Y145250D01*
X1799680Y136390D01*
X1806010Y130060D01*
X1816130Y126270D01*
X1824990Y125000D01*
G01X1901780Y188290D02*
X1909380Y195890D01*
X1918240Y199680D01*
X1928370Y200950D01*
X1941030Y198420D01*
X1949890Y192090D01*
X1952420Y184500D01*
X1951150Y176900D01*
X1946090Y170570D01*
X1920770Y157910D01*
X1909380Y149050D01*
X1901780Y136390D01*
X1899250Y125000D01*
X1952420D01*
G01X1273420Y275000D02*
Y350950D01*
X1305060D01*
X1315190Y347150D01*
X1321520Y342090D01*
X1324050Y331960D01*
X1321520Y321840D01*
X1313930Y315510D01*
X1305060Y311710D01*
X1273420D01*
G01X1305060D02*
X1324050Y275000D01*
G01X1399570D02*
Y350950D01*
X1384380Y335760D01*
G01Y275000D02*
X1414760D01*
G01X1500410D02*
Y350950D01*
X1485220Y335760D01*
G01Y275000D02*
X1515600D01*
G01X1577200Y306640D02*
X1586060Y315510D01*
X1593660Y320570D01*
X1603790Y323100D01*
X1612650Y320570D01*
X1618980Y315510D01*
X1624040Y307910D01*
X1625310Y299050D01*
X1624040Y291450D01*
X1618980Y283860D01*
X1611380Y277530D01*
X1602520Y275000D01*
X1592390Y277530D01*
X1583530Y285120D01*
X1578470Y296520D01*
X1577200Y309180D01*
X1579730Y325630D01*
X1583530Y334500D01*
X1589860Y343350D01*
X1598720Y349680D01*
X1607580Y350950D01*
X1616450Y348420D01*
X1622780Y342090D01*
G01X1698840Y500000D02*
Y575950D01*
X1730480D01*
X1740610Y572150D01*
X1746940Y567090D01*
X1749470Y556960D01*
X1746940Y546840D01*
X1739350Y540510D01*
X1730480Y536710D01*
X1698840D01*
G01X1730480D02*
X1749470Y500000D01*
G01X1824990D02*
X1833860Y501270D01*
X1843980Y505060D01*
X1850310Y511390D01*
X1852840Y520250D01*
X1850310Y529110D01*
X1842720Y536710D01*
X1831320Y540510D01*
X1818670D01*
X1811070Y543040D01*
X1804740Y549370D01*
X1802210Y558230D01*
X1806010Y567090D01*
X1814870Y573420D01*
X1824990Y575950D01*
X1835120Y573420D01*
X1843980Y567090D01*
X1847780Y558230D01*
X1845250Y549370D01*
X1838920Y543040D01*
X1831320Y540510D01*
X1818670D01*
X1807270Y536710D01*
X1799680Y529110D01*
X1797150Y520250D01*
X1799680Y511390D01*
X1806010Y505060D01*
X1816130Y501270D01*
X1824990Y500000D01*
G01X1901780Y531640D02*
X1910640Y540510D01*
X1918240Y545570D01*
X1928370Y548100D01*
X1937230Y545570D01*
X1943560Y540510D01*
X1948620Y532910D01*
X1949890Y524050D01*
X1948620Y516450D01*
X1943560Y508860D01*
X1935960Y502530D01*
X1927100Y500000D01*
X1916970Y502530D01*
X1908110Y510120D01*
X1903050Y521520D01*
X1901780Y534180D01*
X1904310Y550630D01*
X1908110Y559500D01*
X1914440Y568350D01*
X1923300Y574680D01*
X1932160Y575950D01*
X1941030Y573420D01*
X1947360Y567090D01*
G01X1698840Y375000D02*
Y450950D01*
X1730480D01*
X1740610Y447150D01*
X1746940Y442090D01*
X1749470Y431960D01*
X1746940Y421840D01*
X1739350Y415510D01*
X1730480Y411710D01*
X1698840D01*
G01X1730480D02*
X1749470Y375000D01*
G01X1824990D02*
X1833860Y376270D01*
X1843980Y380060D01*
X1850310Y386390D01*
X1852840Y395250D01*
X1850310Y404110D01*
X1842720Y411710D01*
X1831320Y415510D01*
X1818670D01*
X1811070Y418040D01*
X1804740Y424370D01*
X1802210Y433230D01*
X1806010Y442090D01*
X1814870Y448420D01*
X1824990Y450950D01*
X1835120Y448420D01*
X1843980Y442090D01*
X1847780Y433230D01*
X1845250Y424370D01*
X1838920Y418040D01*
X1831320Y415510D01*
X1818670D01*
X1807270Y411710D01*
X1799680Y404110D01*
X1797150Y395250D01*
X1799680Y386390D01*
X1806010Y380060D01*
X1816130Y376270D01*
X1824990Y375000D01*
G01X1897990Y386390D02*
X1905580Y380060D01*
X1914440Y376270D01*
X1925830Y375000D01*
X1937230Y377530D01*
X1946090Y382590D01*
X1952420Y391450D01*
X1953680Y401580D01*
X1951150Y411710D01*
X1944820Y418040D01*
X1935960Y423100D01*
X1927100Y424370D01*
X1918240Y423100D01*
X1906850Y418040D01*
X1910640Y450950D01*
X1944820D01*
G01X1698840Y250000D02*
Y325950D01*
X1730480D01*
X1740610Y322150D01*
X1746940Y317090D01*
X1749470Y306960D01*
X1746940Y296840D01*
X1739350Y290510D01*
X1730480Y286710D01*
X1698840D01*
G01X1730480D02*
X1749470Y250000D01*
G01X1824990D02*
X1833860Y251270D01*
X1843980Y255060D01*
X1850310Y261390D01*
X1852840Y270250D01*
X1850310Y279110D01*
X1842720Y286710D01*
X1831320Y290510D01*
X1818670D01*
X1811070Y293040D01*
X1804740Y299370D01*
X1802210Y308230D01*
X1806010Y317090D01*
X1814870Y323420D01*
X1824990Y325950D01*
X1835120Y323420D01*
X1843980Y317090D01*
X1847780Y308230D01*
X1845250Y299370D01*
X1838920Y293040D01*
X1831320Y290510D01*
X1818670D01*
X1807270Y286710D01*
X1799680Y279110D01*
X1797150Y270250D01*
X1799680Y261390D01*
X1806010Y255060D01*
X1816130Y251270D01*
X1824990Y250000D01*
G01X1897990Y265190D02*
X1905580Y256330D01*
X1915710Y251270D01*
X1927100Y250000D01*
X1937230Y251270D01*
X1947360Y257590D01*
X1953680Y265190D01*
X1954950Y272780D01*
X1952420Y281640D01*
X1943560Y287970D01*
X1934700Y290510D01*
X1923300D01*
G01X1934700D02*
X1942290Y294300D01*
X1948620Y300630D01*
X1951150Y308230D01*
X1948620Y315820D01*
X1942290Y322150D01*
X1930900Y325950D01*
X1919510Y324680D01*
X1908110Y319620D01*
G01X1775000Y648420D02*
X1699050D01*
Y680060D01*
X1702850Y690190D01*
X1707910Y696520D01*
X1718040Y699050D01*
X1728160Y696520D01*
X1734490Y688930D01*
X1738290Y680060D01*
Y648420D01*
G01Y680060D02*
X1775000Y699050D01*
G01Y774570D02*
X1699050D01*
X1714240Y759380D01*
G01X1775000D02*
Y789760D01*
G01Y875410D02*
X1699050D01*
X1714240Y860220D01*
G01X1775000D02*
Y890600D01*
G01Y991450D02*
X1699050D01*
X1753480Y944610D01*
Y1007900D01*
G01X1452010Y1119300D02*
X1444420Y1123100D01*
X1435560Y1125630D01*
X1425430D01*
X1414040Y1121830D01*
X1405180Y1115500D01*
X1398850Y1107910D01*
X1393780Y1095250D01*
X1392520Y1083860D01*
X1395050Y1072460D01*
X1398850Y1064870D01*
X1406440Y1057270D01*
X1415300Y1052210D01*
X1424160Y1049680D01*
X1433030D01*
X1441890Y1052210D01*
X1449480Y1056010D01*
X1455810Y1061070D01*
G01X1503480Y1058540D02*
X1512350Y1052210D01*
X1522470Y1049680D01*
X1532600Y1052210D01*
X1541460Y1059800D01*
X1547790Y1071200D01*
X1550320Y1082590D01*
Y1096520D01*
X1547790Y1107910D01*
X1541460Y1118030D01*
X1533870Y1123100D01*
X1525000Y1125630D01*
X1514880Y1123100D01*
X1507280Y1118030D01*
X1502220Y1110440D01*
X1499690Y1100310D01*
X1502220Y1091450D01*
X1508550Y1082590D01*
X1516140Y1077530D01*
X1525000Y1076260D01*
X1535130Y1078790D01*
X1542730Y1085120D01*
X1550320Y1096520D01*
G01X1598000Y1064870D02*
X1605590Y1056010D01*
X1615720Y1050950D01*
X1627110Y1049680D01*
X1637240Y1050950D01*
X1647370Y1057270D01*
X1653690Y1064870D01*
X1654960Y1072460D01*
X1652430Y1081320D01*
X1643570Y1087650D01*
X1634710Y1090190D01*
X1623310D01*
G01X1634710D02*
X1642300Y1093980D01*
X1648630Y1100310D01*
X1651160Y1107910D01*
X1648630Y1115500D01*
X1642300Y1121830D01*
X1630910Y1125630D01*
X1619520Y1124360D01*
X1608120Y1119300D01*
G01X1752010Y2819300D02*
X1744420Y2823100D01*
X1735560Y2825630D01*
X1725430D01*
X1714040Y2821830D01*
X1705180Y2815500D01*
X1698850Y2807910D01*
X1693780Y2795250D01*
X1692520Y2783860D01*
X1695050Y2772460D01*
X1698850Y2764870D01*
X1706440Y2757270D01*
X1715300Y2752210D01*
X1724160Y2749680D01*
X1733030D01*
X1741890Y2752210D01*
X1749480Y2756010D01*
X1755810Y2761070D01*
G01X1825000Y2749680D02*
X1833870Y2750950D01*
X1843990Y2754740D01*
X1850320Y2761070D01*
X1852850Y2769930D01*
X1850320Y2778790D01*
X1842730Y2786390D01*
X1831330Y2790190D01*
X1818680D01*
X1811080Y2792720D01*
X1804750Y2799050D01*
X1802220Y2807910D01*
X1806020Y2816770D01*
X1814880Y2823100D01*
X1825000Y2825630D01*
X1835130Y2823100D01*
X1843990Y2816770D01*
X1847790Y2807910D01*
X1845260Y2799050D01*
X1838930Y2792720D01*
X1831330Y2790190D01*
X1818680D01*
X1807280Y2786390D01*
X1799690Y2778790D01*
X1797160Y2769930D01*
X1799690Y2761070D01*
X1806020Y2754740D01*
X1816140Y2750950D01*
X1825000Y2749680D01*
G01X1901790Y2781320D02*
X1910650Y2790190D01*
X1918250Y2795250D01*
X1928380Y2797780D01*
X1937240Y2795250D01*
X1943570Y2790190D01*
X1948630Y2782590D01*
X1949900Y2773730D01*
X1948630Y2766130D01*
X1943570Y2758540D01*
X1935970Y2752210D01*
X1927110Y2749680D01*
X1916980Y2752210D01*
X1908120Y2759800D01*
X1903060Y2771200D01*
X1901790Y2783860D01*
X1904320Y2800310D01*
X1908120Y2809180D01*
X1914450Y2818030D01*
X1923310Y2824360D01*
X1932170Y2825630D01*
X1941040Y2823100D01*
X1947370Y2816770D01*
G01X1548840Y3375000D02*
Y3450950D01*
X1580480D01*
X1590610Y3447150D01*
X1596940Y3442090D01*
X1599470Y3431960D01*
X1596940Y3421840D01*
X1589350Y3415510D01*
X1580480Y3411710D01*
X1548840D01*
G01X1580480D02*
X1599470Y3375000D01*
G01X1650940Y3406640D02*
X1659800Y3415510D01*
X1667400Y3420570D01*
X1677530Y3423100D01*
X1686390Y3420570D01*
X1692720Y3415510D01*
X1697780Y3407910D01*
X1699050Y3399050D01*
X1697780Y3391450D01*
X1692720Y3383860D01*
X1685120Y3377530D01*
X1676260Y3375000D01*
X1666130Y3377530D01*
X1657270Y3385120D01*
X1652210Y3396520D01*
X1650940Y3409180D01*
X1653470Y3425630D01*
X1657270Y3434500D01*
X1663600Y3443350D01*
X1672460Y3449680D01*
X1681320Y3450950D01*
X1690190Y3448420D01*
X1696520Y3442090D01*
G01X1747990Y3390190D02*
X1755580Y3381330D01*
X1765710Y3376270D01*
X1777100Y3375000D01*
X1787230Y3376270D01*
X1797360Y3382590D01*
X1803680Y3390190D01*
X1804950Y3397780D01*
X1802420Y3406640D01*
X1793560Y3412970D01*
X1784700Y3415510D01*
X1773300D01*
G01X1784700D02*
X1792290Y3419300D01*
X1798620Y3425630D01*
X1801150Y3433230D01*
X1798620Y3440820D01*
X1792290Y3447150D01*
X1780900Y3450950D01*
X1769510Y3449680D01*
X1758110Y3444620D01*
G01X1548840Y3250000D02*
Y3325950D01*
X1580480D01*
X1590610Y3322150D01*
X1596940Y3317090D01*
X1599470Y3306960D01*
X1596940Y3296840D01*
X1589350Y3290510D01*
X1580480Y3286710D01*
X1548840D01*
G01X1580480D02*
X1599470Y3250000D01*
G01X1690190D02*
Y3325950D01*
X1643350Y3271520D01*
X1706640D01*
G01X1754310Y3258860D02*
X1763180Y3252530D01*
X1773300Y3250000D01*
X1783430Y3252530D01*
X1792290Y3260120D01*
X1798620Y3271520D01*
X1801150Y3282910D01*
Y3296840D01*
X1798620Y3308230D01*
X1792290Y3318350D01*
X1784700Y3323420D01*
X1775830Y3325950D01*
X1765710Y3323420D01*
X1758110Y3318350D01*
X1753050Y3310760D01*
X1750520Y3300630D01*
X1753050Y3291770D01*
X1759380Y3282910D01*
X1766970Y3277850D01*
X1775830Y3276580D01*
X1785960Y3279110D01*
X1793560Y3285440D01*
X1801150Y3296840D01*
G01X1605700Y3002010D02*
X1601900Y2994420D01*
X1599370Y2985560D01*
Y2975430D01*
X1603170Y2964040D01*
X1609500Y2955180D01*
X1617090Y2948850D01*
X1629750Y2943780D01*
X1641140Y2942520D01*
X1652540Y2945050D01*
X1660130Y2948850D01*
X1667730Y2956440D01*
X1672790Y2965300D01*
X1675320Y2974160D01*
Y2983030D01*
X1672790Y2991890D01*
X1668990Y2999480D01*
X1663930Y3005810D01*
G01Y3047160D02*
X1670260Y3054750D01*
X1674050Y3063610D01*
X1675320Y3075000D01*
X1672790Y3086400D01*
X1667730Y3095260D01*
X1658870Y3101590D01*
X1648740Y3102850D01*
X1638610Y3100320D01*
X1632280Y3093990D01*
X1627220Y3085130D01*
X1625950Y3076270D01*
X1627220Y3067410D01*
X1632280Y3056020D01*
X1599370Y3059810D01*
Y3093990D01*
G01X1660130Y3148000D02*
X1668990Y3155590D01*
X1674050Y3165720D01*
X1675320Y3177110D01*
X1674050Y3187240D01*
X1667730Y3197370D01*
X1660130Y3203690D01*
X1652540Y3204960D01*
X1643680Y3202430D01*
X1637350Y3193570D01*
X1634810Y3184710D01*
Y3173310D01*
G01Y3184710D02*
X1631020Y3192300D01*
X1624690Y3198630D01*
X1617090Y3201160D01*
X1609500Y3198630D01*
X1603170Y3192300D01*
X1599370Y3180910D01*
X1600640Y3169520D01*
X1605700Y3158120D01*
G01X1573840Y3675000D02*
Y3750950D01*
X1605480D01*
X1615610Y3747150D01*
X1621940Y3742090D01*
X1624470Y3731960D01*
X1621940Y3721840D01*
X1614350Y3715510D01*
X1605480Y3711710D01*
X1573840D01*
G01X1605480D02*
X1624470Y3675000D01*
G01X1675940Y3706640D02*
X1684800Y3715510D01*
X1692400Y3720570D01*
X1702530Y3723100D01*
X1711390Y3720570D01*
X1717720Y3715510D01*
X1722780Y3707910D01*
X1724050Y3699050D01*
X1722780Y3691450D01*
X1717720Y3683860D01*
X1710120Y3677530D01*
X1701260Y3675000D01*
X1691130Y3677530D01*
X1682270Y3685120D01*
X1677210Y3696520D01*
X1675940Y3709180D01*
X1678470Y3725630D01*
X1682270Y3734500D01*
X1688600Y3743350D01*
X1697460Y3749680D01*
X1706320Y3750950D01*
X1715190Y3748420D01*
X1721520Y3742090D01*
G01X1772990Y3686390D02*
X1780580Y3680060D01*
X1789440Y3676270D01*
X1800830Y3675000D01*
X1812230Y3677530D01*
X1821090Y3682590D01*
X1827420Y3691450D01*
X1828680Y3701580D01*
X1826150Y3711710D01*
X1819820Y3718040D01*
X1810960Y3723100D01*
X1802100Y3724370D01*
X1793240Y3723100D01*
X1781850Y3718040D01*
X1785640Y3750950D01*
X1819820D01*
G01X1573840Y3825000D02*
Y3900950D01*
X1605480D01*
X1615610Y3897150D01*
X1621940Y3892090D01*
X1624470Y3881960D01*
X1621940Y3871840D01*
X1614350Y3865510D01*
X1605480Y3861710D01*
X1573840D01*
G01X1605480D02*
X1624470Y3825000D01*
G01X1675940Y3856640D02*
X1684800Y3865510D01*
X1692400Y3870570D01*
X1702530Y3873100D01*
X1711390Y3870570D01*
X1717720Y3865510D01*
X1722780Y3857910D01*
X1724050Y3849050D01*
X1722780Y3841450D01*
X1717720Y3833860D01*
X1710120Y3827530D01*
X1701260Y3825000D01*
X1691130Y3827530D01*
X1682270Y3835120D01*
X1677210Y3846520D01*
X1675940Y3859180D01*
X1678470Y3875630D01*
X1682270Y3884500D01*
X1688600Y3893350D01*
X1697460Y3899680D01*
X1706320Y3900950D01*
X1715190Y3898420D01*
X1721520Y3892090D01*
G01X1816030Y3825000D02*
Y3900950D01*
X1769190Y3846520D01*
X1832480D01*
G01X1573840Y3525000D02*
Y3600950D01*
X1605480D01*
X1615610Y3597150D01*
X1621940Y3592090D01*
X1624470Y3581960D01*
X1621940Y3571840D01*
X1614350Y3565510D01*
X1605480Y3561710D01*
X1573840D01*
G01X1605480D02*
X1624470Y3525000D01*
G01X1675940Y3556640D02*
X1684800Y3565510D01*
X1692400Y3570570D01*
X1702530Y3573100D01*
X1711390Y3570570D01*
X1717720Y3565510D01*
X1722780Y3557910D01*
X1724050Y3549050D01*
X1722780Y3541450D01*
X1717720Y3533860D01*
X1710120Y3527530D01*
X1701260Y3525000D01*
X1691130Y3527530D01*
X1682270Y3535120D01*
X1677210Y3546520D01*
X1675940Y3559180D01*
X1678470Y3575630D01*
X1682270Y3584500D01*
X1688600Y3593350D01*
X1697460Y3599680D01*
X1706320Y3600950D01*
X1715190Y3598420D01*
X1721520Y3592090D01*
G01X1800830Y3525000D02*
Y3600950D01*
X1785640Y3585760D01*
G01Y3525000D02*
X1816020D01*
G01X1777000Y5782120D02*
X1769410Y5785920D01*
X1760550Y5788450D01*
X1750420D01*
X1739030Y5784650D01*
X1730170Y5778320D01*
X1723840Y5770730D01*
X1718770Y5758070D01*
X1717510Y5746680D01*
X1720040Y5735280D01*
X1723840Y5727690D01*
X1731430Y5720090D01*
X1740290Y5715030D01*
X1749150Y5712500D01*
X1758020D01*
X1766880Y5715030D01*
X1774470Y5718830D01*
X1780800Y5723890D01*
G01X1825940Y5775790D02*
X1833540Y5783390D01*
X1842400Y5787180D01*
X1852530Y5788450D01*
X1865190Y5785920D01*
X1874050Y5779590D01*
X1876580Y5772000D01*
X1875310Y5764400D01*
X1870250Y5758070D01*
X1844930Y5745410D01*
X1833540Y5736550D01*
X1825940Y5723890D01*
X1823410Y5712500D01*
X1876580D01*
G01X1922990Y5723890D02*
X1930580Y5717560D01*
X1939440Y5713770D01*
X1950830Y5712500D01*
X1962230Y5715030D01*
X1971090Y5720090D01*
X1977420Y5728950D01*
X1978680Y5739080D01*
X1976150Y5749210D01*
X1969820Y5755540D01*
X1960960Y5760600D01*
X1952100Y5761870D01*
X1943240Y5760600D01*
X1931850Y5755540D01*
X1935640Y5788450D01*
X1969820D01*
G01X1777000Y6044620D02*
X1769410Y6048420D01*
X1760550Y6050950D01*
X1750420D01*
X1739030Y6047150D01*
X1730170Y6040820D01*
X1723840Y6033230D01*
X1718770Y6020570D01*
X1717510Y6009180D01*
X1720040Y5997780D01*
X1723840Y5990190D01*
X1731430Y5982590D01*
X1740290Y5977530D01*
X1749150Y5975000D01*
X1758020D01*
X1766880Y5977530D01*
X1774470Y5981330D01*
X1780800Y5986390D01*
G01X1825940Y6038290D02*
X1833540Y6045890D01*
X1842400Y6049680D01*
X1852530Y6050950D01*
X1865190Y6048420D01*
X1874050Y6042090D01*
X1876580Y6034500D01*
X1875310Y6026900D01*
X1870250Y6020570D01*
X1844930Y6007910D01*
X1833540Y5999050D01*
X1825940Y5986390D01*
X1823410Y5975000D01*
X1876580D01*
G01X1966030D02*
Y6050950D01*
X1919190Y5996520D01*
X1982480D01*
G01X1375000Y7175740D02*
X1450950D01*
Y7144100D01*
X1447150Y7133970D01*
X1442090Y7127640D01*
X1431960Y7125110D01*
X1421840Y7127640D01*
X1415510Y7135230D01*
X1411710Y7144100D01*
Y7175740D01*
G01Y7144100D02*
X1375000Y7125110D01*
G01Y7034390D02*
X1450950D01*
X1396520Y7081230D01*
Y7017940D01*
G01X1500000Y7175740D02*
X1575950D01*
Y7144100D01*
X1572150Y7133970D01*
X1567090Y7127640D01*
X1556960Y7125110D01*
X1546840Y7127640D01*
X1540510Y7135230D01*
X1536710Y7144100D01*
Y7175740D01*
G01Y7144100D02*
X1500000Y7125110D01*
G01X1563290Y7073640D02*
X1570890Y7066040D01*
X1574680Y7057180D01*
X1575950Y7047050D01*
X1573420Y7034390D01*
X1567090Y7025530D01*
X1559500Y7023000D01*
X1551900Y7024270D01*
X1545570Y7029330D01*
X1532910Y7054650D01*
X1524050Y7066040D01*
X1511390Y7073640D01*
X1500000Y7076170D01*
Y7023000D01*
G01X1625000Y7175740D02*
X1700950D01*
Y7144100D01*
X1697150Y7133970D01*
X1692090Y7127640D01*
X1681960Y7125110D01*
X1671840Y7127640D01*
X1665510Y7135230D01*
X1661710Y7144100D01*
Y7175740D01*
G01Y7144100D02*
X1625000Y7125110D01*
G01Y7049590D02*
X1700950D01*
X1685760Y7064780D01*
G01X1625000D02*
Y7034400D01*
G01X2225000Y423420D02*
X2149050D01*
Y455060D01*
X2152850Y465190D01*
X2157910Y471520D01*
X2168040Y474050D01*
X2178160Y471520D01*
X2184490Y463930D01*
X2188290Y455060D01*
Y423420D01*
G01Y455060D02*
X2225000Y474050D01*
G01Y549570D02*
X2149050D01*
X2164240Y534380D01*
G01X2225000D02*
Y564760D01*
G01Y650410D02*
X2149050D01*
X2164240Y635220D01*
G01X2225000D02*
Y665600D01*
G01X2161710Y727200D02*
X2154110Y734800D01*
X2150320Y743660D01*
X2149050Y753790D01*
X2151580Y766450D01*
X2157910Y775310D01*
X2165500Y777840D01*
X2173100Y776570D01*
X2179430Y771510D01*
X2192090Y746190D01*
X2200950Y734800D01*
X2213610Y727200D01*
X2225000Y724670D01*
Y777840D01*
G01X1898420Y1175000D02*
Y1250950D01*
X1930060D01*
X1940190Y1247150D01*
X1946520Y1242090D01*
X1949050Y1231960D01*
X1946520Y1221840D01*
X1938930Y1215510D01*
X1930060Y1211710D01*
X1898420D01*
G01X1930060D02*
X1949050Y1175000D01*
G01X2024570D02*
Y1250950D01*
X2009380Y1235760D01*
G01Y1175000D02*
X2039760D01*
G01X2125410Y1250950D02*
X2115290Y1248420D01*
X2107690Y1242090D01*
X2102630Y1234500D01*
X2098830Y1224370D01*
X2097570Y1212970D01*
X2098830Y1201580D01*
X2102630Y1191450D01*
X2107690Y1183860D01*
X2115290Y1177530D01*
X2125410Y1175000D01*
X2135540Y1177530D01*
X2143140Y1183860D01*
X2148200Y1191450D01*
X2152000Y1201580D01*
X2153260Y1212970D01*
X2152000Y1224370D01*
X2148200Y1234500D01*
X2143140Y1242090D01*
X2135540Y1248420D01*
X2125410Y1250950D01*
G01X2198410Y1190190D02*
X2206000Y1181330D01*
X2216130Y1176270D01*
X2227520Y1175000D01*
X2237650Y1176270D01*
X2247780Y1182590D01*
X2254100Y1190190D01*
X2255370Y1197780D01*
X2252840Y1206640D01*
X2243980Y1212970D01*
X2235120Y1215510D01*
X2223720D01*
G01X2235120D02*
X2242710Y1219300D01*
X2249040Y1225630D01*
X2251570Y1233230D01*
X2249040Y1240820D01*
X2242710Y1247150D01*
X2231320Y1250950D01*
X2219930Y1249680D01*
X2208530Y1244620D01*
G01X1898420Y1375000D02*
Y1450950D01*
X1930060D01*
X1940190Y1447150D01*
X1946520Y1442090D01*
X1949050Y1431960D01*
X1946520Y1421840D01*
X1938930Y1415510D01*
X1930060Y1411710D01*
X1898420D01*
G01X1930060D02*
X1949050Y1375000D01*
G01X2024570D02*
Y1450950D01*
X2009380Y1435760D01*
G01Y1375000D02*
X2039760D01*
G01X2125410Y1450950D02*
X2115290Y1448420D01*
X2107690Y1442090D01*
X2102630Y1434500D01*
X2098830Y1424370D01*
X2097570Y1412970D01*
X2098830Y1401580D01*
X2102630Y1391450D01*
X2107690Y1383860D01*
X2115290Y1377530D01*
X2125410Y1375000D01*
X2135540Y1377530D01*
X2143140Y1383860D01*
X2148200Y1391450D01*
X2152000Y1401580D01*
X2153260Y1412970D01*
X2152000Y1424370D01*
X2148200Y1434500D01*
X2143140Y1442090D01*
X2135540Y1448420D01*
X2125410Y1450950D01*
G01X2241450Y1375000D02*
Y1450950D01*
X2194610Y1396520D01*
X2257900D01*
G01X2155380Y1652000D02*
X2151580Y1644410D01*
X2149050Y1635550D01*
Y1625420D01*
X2152850Y1614030D01*
X2159180Y1605170D01*
X2166770Y1598840D01*
X2179430Y1593770D01*
X2190820Y1592510D01*
X2202220Y1595040D01*
X2209810Y1598840D01*
X2217410Y1606430D01*
X2222470Y1615290D01*
X2225000Y1624150D01*
Y1633020D01*
X2222470Y1641880D01*
X2218670Y1649470D01*
X2213610Y1655800D01*
G01X2225000Y1724990D02*
X2223730Y1733860D01*
X2219940Y1743980D01*
X2213610Y1750310D01*
X2204750Y1752840D01*
X2195890Y1750310D01*
X2188290Y1742720D01*
X2184490Y1731320D01*
Y1718670D01*
X2181960Y1711070D01*
X2175630Y1704740D01*
X2166770Y1702210D01*
X2157910Y1706010D01*
X2151580Y1714870D01*
X2149050Y1724990D01*
X2151580Y1735120D01*
X2157910Y1743980D01*
X2166770Y1747780D01*
X2175630Y1745250D01*
X2181960Y1738920D01*
X2184490Y1731320D01*
Y1718670D01*
X2188290Y1707270D01*
X2195890Y1699680D01*
X2204750Y1697150D01*
X2213610Y1699680D01*
X2219940Y1706010D01*
X2223730Y1716130D01*
X2225000Y1724990D01*
G01Y1823300D02*
X2208550Y1825830D01*
X2194620Y1829630D01*
X2181960Y1834700D01*
X2168040Y1841030D01*
X2149050Y1851150D01*
Y1800520D01*
G01X2155380Y2302000D02*
X2151580Y2294410D01*
X2149050Y2285550D01*
Y2275420D01*
X2152850Y2264030D01*
X2159180Y2255170D01*
X2166770Y2248840D01*
X2179430Y2243770D01*
X2190820Y2242510D01*
X2202220Y2245040D01*
X2209810Y2248840D01*
X2217410Y2256430D01*
X2222470Y2265290D01*
X2225000Y2274150D01*
Y2283020D01*
X2222470Y2291880D01*
X2218670Y2299470D01*
X2213610Y2305800D01*
G01X2225000Y2374990D02*
X2223730Y2383860D01*
X2219940Y2393980D01*
X2213610Y2400310D01*
X2204750Y2402840D01*
X2195890Y2400310D01*
X2188290Y2392720D01*
X2184490Y2381320D01*
Y2368670D01*
X2181960Y2361070D01*
X2175630Y2354740D01*
X2166770Y2352210D01*
X2157910Y2356010D01*
X2151580Y2364870D01*
X2149050Y2374990D01*
X2151580Y2385120D01*
X2157910Y2393980D01*
X2166770Y2397780D01*
X2175630Y2395250D01*
X2181960Y2388920D01*
X2184490Y2381320D01*
Y2368670D01*
X2188290Y2357270D01*
X2195890Y2349680D01*
X2204750Y2347150D01*
X2213610Y2349680D01*
X2219940Y2356010D01*
X2223730Y2366130D01*
X2225000Y2374990D01*
G01Y2475830D02*
X2223730Y2484700D01*
X2219940Y2494820D01*
X2213610Y2501150D01*
X2204750Y2503680D01*
X2195890Y2501150D01*
X2188290Y2493560D01*
X2184490Y2482160D01*
Y2469510D01*
X2181960Y2461910D01*
X2175630Y2455580D01*
X2166770Y2453050D01*
X2157910Y2456850D01*
X2151580Y2465710D01*
X2149050Y2475830D01*
X2151580Y2485960D01*
X2157910Y2494820D01*
X2166770Y2498620D01*
X2175630Y2496090D01*
X2181960Y2489760D01*
X2184490Y2482160D01*
Y2469510D01*
X2188290Y2458110D01*
X2195890Y2450520D01*
X2204750Y2447990D01*
X2213610Y2450520D01*
X2219940Y2456850D01*
X2223730Y2466970D01*
X2225000Y2475830D01*
G01X1873840Y2837500D02*
Y2913450D01*
X1905480D01*
X1915610Y2909650D01*
X1921940Y2904590D01*
X1924470Y2894460D01*
X1921940Y2884340D01*
X1914350Y2878010D01*
X1905480Y2874210D01*
X1873840D01*
G01X1905480D02*
X1924470Y2837500D01*
G01X2015190D02*
Y2913450D01*
X1968350Y2859020D01*
X2031640D01*
G01X2072990Y2852690D02*
X2080580Y2843830D01*
X2090710Y2838770D01*
X2102100Y2837500D01*
X2112230Y2838770D01*
X2122360Y2845090D01*
X2128680Y2852690D01*
X2129950Y2860280D01*
X2127420Y2869140D01*
X2118560Y2875470D01*
X2109700Y2878010D01*
X2098300D01*
G01X2109700D02*
X2117290Y2881800D01*
X2123620Y2888130D01*
X2126150Y2895730D01*
X2123620Y2903320D01*
X2117290Y2909650D01*
X2105900Y2913450D01*
X2094510Y2912180D01*
X2083110Y2907120D01*
G01X1848840Y3350000D02*
Y3425950D01*
X1880480D01*
X1890610Y3422150D01*
X1896940Y3417090D01*
X1899470Y3406960D01*
X1896940Y3396840D01*
X1889350Y3390510D01*
X1880480Y3386710D01*
X1848840D01*
G01X1880480D02*
X1899470Y3350000D01*
G01X1990190D02*
Y3425950D01*
X1943350Y3371520D01*
X2006640D01*
G01X2075830Y3350000D02*
Y3425950D01*
X2060640Y3410760D01*
G01Y3350000D02*
X2091020D01*
G01X1730700Y3002010D02*
X1726900Y2994420D01*
X1724370Y2985560D01*
Y2975430D01*
X1728170Y2964040D01*
X1734500Y2955180D01*
X1742090Y2948850D01*
X1754750Y2943780D01*
X1766140Y2942520D01*
X1777540Y2945050D01*
X1785130Y2948850D01*
X1792730Y2956440D01*
X1797790Y2965300D01*
X1800320Y2974160D01*
Y2983030D01*
X1797790Y2991890D01*
X1793990Y2999480D01*
X1788930Y3005810D01*
G01Y3047160D02*
X1795260Y3054750D01*
X1799050Y3063610D01*
X1800320Y3075000D01*
X1797790Y3086400D01*
X1792730Y3095260D01*
X1783870Y3101590D01*
X1773740Y3102850D01*
X1763610Y3100320D01*
X1757280Y3093990D01*
X1752220Y3085130D01*
X1750950Y3076270D01*
X1752220Y3067410D01*
X1757280Y3056020D01*
X1724370Y3059810D01*
Y3093990D01*
G01X1737030Y3151790D02*
X1729430Y3159390D01*
X1725640Y3168250D01*
X1724370Y3178380D01*
X1726900Y3191040D01*
X1733230Y3199900D01*
X1740820Y3202430D01*
X1748420Y3201160D01*
X1754750Y3196100D01*
X1767410Y3170780D01*
X1776270Y3159390D01*
X1788930Y3151790D01*
X1800320Y3149260D01*
Y3202430D01*
G01X1977000Y3894620D02*
X1969410Y3898420D01*
X1960550Y3900950D01*
X1950420D01*
X1939030Y3897150D01*
X1930170Y3890820D01*
X1923840Y3883230D01*
X1918770Y3870570D01*
X1917510Y3859180D01*
X1920040Y3847780D01*
X1923840Y3840190D01*
X1931430Y3832590D01*
X1940290Y3827530D01*
X1949150Y3825000D01*
X1958020D01*
X1966880Y3827530D01*
X1974470Y3831330D01*
X1980800Y3836390D01*
G01X2022150D02*
X2029740Y3830060D01*
X2038600Y3826270D01*
X2049990Y3825000D01*
X2061390Y3827530D01*
X2070250Y3832590D01*
X2076580Y3841450D01*
X2077840Y3851580D01*
X2075310Y3861710D01*
X2068980Y3868040D01*
X2060120Y3873100D01*
X2051260Y3874370D01*
X2042400Y3873100D01*
X2031010Y3868040D01*
X2034800Y3900950D01*
X2068980D01*
G01X2150830Y3825000D02*
Y3900950D01*
X2135640Y3885760D01*
G01Y3825000D02*
X2166020D01*
G01X1948850Y3949680D02*
Y4025630D01*
X1980490D01*
X1990620Y4021830D01*
X1996950Y4016770D01*
X1999480Y4006640D01*
X1996950Y3996520D01*
X1989360Y3990190D01*
X1980490Y3986390D01*
X1948850D01*
G01X1980490D02*
X1999480Y3949680D01*
G01X2050950Y3981320D02*
X2059810Y3990190D01*
X2067410Y3995250D01*
X2077540Y3997780D01*
X2086400Y3995250D01*
X2092730Y3990190D01*
X2097790Y3982590D01*
X2099060Y3973730D01*
X2097790Y3966130D01*
X2092730Y3958540D01*
X2085130Y3952210D01*
X2076270Y3949680D01*
X2066140Y3952210D01*
X2057280Y3959800D01*
X2052220Y3971200D01*
X2050950Y3983860D01*
X2053480Y4000310D01*
X2057280Y4009180D01*
X2063610Y4018030D01*
X2072470Y4024360D01*
X2081330Y4025630D01*
X2090200Y4023100D01*
X2096530Y4016770D01*
G01X2173310Y3949680D02*
X2175840Y3966130D01*
X2179640Y3980060D01*
X2184710Y3992720D01*
X2191040Y4006640D01*
X2201160Y4025630D01*
X2150530D01*
G01X2586340Y3225000D02*
Y3300950D01*
X2617980D01*
X2628110Y3297150D01*
X2634440Y3292090D01*
X2636970Y3281960D01*
X2634440Y3271840D01*
X2626850Y3265510D01*
X2617980Y3261710D01*
X2586340D01*
G01X2617980D02*
X2636970Y3225000D01*
G01X2727690D02*
Y3300950D01*
X2680850Y3246520D01*
X2744140D01*
G01X2813330Y3300950D02*
X2803210Y3298420D01*
X2795610Y3292090D01*
X2790550Y3284500D01*
X2786750Y3274370D01*
X2785490Y3262970D01*
X2786750Y3251580D01*
X2790550Y3241450D01*
X2795610Y3233860D01*
X2803210Y3227530D01*
X2813330Y3225000D01*
X2823460Y3227530D01*
X2831060Y3233860D01*
X2836120Y3241450D01*
X2839920Y3251580D01*
X2841180Y3262970D01*
X2839920Y3274370D01*
X2836120Y3284500D01*
X2831060Y3292090D01*
X2823460Y3298420D01*
X2813330Y3300950D01*
G01X2548840Y3025000D02*
Y3100950D01*
X2580480D01*
X2590610Y3097150D01*
X2596940Y3092090D01*
X2599470Y3081960D01*
X2596940Y3071840D01*
X2589350Y3065510D01*
X2580480Y3061710D01*
X2548840D01*
G01X2580480D02*
X2599470Y3025000D01*
G01X2647150Y3040190D02*
X2654740Y3031330D01*
X2664870Y3026270D01*
X2676260Y3025000D01*
X2686390Y3026270D01*
X2696520Y3032590D01*
X2702840Y3040190D01*
X2704110Y3047780D01*
X2701580Y3056640D01*
X2692720Y3062970D01*
X2683860Y3065510D01*
X2672460D01*
G01X2683860D02*
X2691450Y3069300D01*
X2697780Y3075630D01*
X2700310Y3083230D01*
X2697780Y3090820D01*
X2691450Y3097150D01*
X2680060Y3100950D01*
X2668670Y3099680D01*
X2657270Y3094620D01*
G01X2773300Y3025000D02*
X2775830Y3041450D01*
X2779630Y3055380D01*
X2784700Y3068040D01*
X2791030Y3081960D01*
X2801150Y3100950D01*
X2750520D01*
G01X2298840Y6000000D02*
Y6075950D01*
X2330480D01*
X2340610Y6072150D01*
X2346940Y6067090D01*
X2349470Y6056960D01*
X2346940Y6046840D01*
X2339350Y6040510D01*
X2330480Y6036710D01*
X2298840D01*
G01X2330480D02*
X2349470Y6000000D01*
G01X2397150Y6015190D02*
X2404740Y6006330D01*
X2414870Y6001270D01*
X2426260Y6000000D01*
X2436390Y6001270D01*
X2446520Y6007590D01*
X2452840Y6015190D01*
X2454110Y6022780D01*
X2451580Y6031640D01*
X2442720Y6037970D01*
X2433860Y6040510D01*
X2422460D01*
G01X2433860D02*
X2441450Y6044300D01*
X2447780Y6050630D01*
X2450310Y6058230D01*
X2447780Y6065820D01*
X2441450Y6072150D01*
X2430060Y6075950D01*
X2418670Y6074680D01*
X2407270Y6069620D01*
G01X2497990Y6011390D02*
X2505580Y6005060D01*
X2514440Y6001270D01*
X2525830Y6000000D01*
X2537230Y6002530D01*
X2546090Y6007590D01*
X2552420Y6016450D01*
X2553680Y6026580D01*
X2551150Y6036710D01*
X2544820Y6043040D01*
X2535960Y6048100D01*
X2527100Y6049370D01*
X2518240Y6048100D01*
X2506850Y6043040D01*
X2510640Y6075950D01*
X2544820D01*
G01X2298840Y6125000D02*
Y6200950D01*
X2330480D01*
X2340610Y6197150D01*
X2346940Y6192090D01*
X2349470Y6181960D01*
X2346940Y6171840D01*
X2339350Y6165510D01*
X2330480Y6161710D01*
X2298840D01*
G01X2330480D02*
X2349470Y6125000D01*
G01X2397150Y6140190D02*
X2404740Y6131330D01*
X2414870Y6126270D01*
X2426260Y6125000D01*
X2436390Y6126270D01*
X2446520Y6132590D01*
X2452840Y6140190D01*
X2454110Y6147780D01*
X2451580Y6156640D01*
X2442720Y6162970D01*
X2433860Y6165510D01*
X2422460D01*
G01X2433860D02*
X2441450Y6169300D01*
X2447780Y6175630D01*
X2450310Y6183230D01*
X2447780Y6190820D01*
X2441450Y6197150D01*
X2430060Y6200950D01*
X2418670Y6199680D01*
X2407270Y6194620D01*
G01X2541030Y6125000D02*
Y6200950D01*
X2494190Y6146520D01*
X2557480D01*
G01X2901580Y644620D02*
X2893990Y648420D01*
X2885130Y650950D01*
X2875000D01*
X2863610Y647150D01*
X2854750Y640820D01*
X2848420Y633230D01*
X2843350Y620570D01*
X2842090Y609180D01*
X2844620Y597780D01*
X2848420Y590190D01*
X2856010Y582590D01*
X2864870Y577530D01*
X2873730Y575000D01*
X2882600D01*
X2891460Y577530D01*
X2899050Y581330D01*
X2905380Y586390D01*
G01X2974570Y575000D02*
Y650950D01*
X2959380Y635760D01*
G01Y575000D02*
X2989760D01*
G01X3075410Y650950D02*
X3065290Y648420D01*
X3057690Y642090D01*
X3052630Y634500D01*
X3048830Y624370D01*
X3047570Y612970D01*
X3048830Y601580D01*
X3052630Y591450D01*
X3057690Y583860D01*
X3065290Y577530D01*
X3075410Y575000D01*
X3085540Y577530D01*
X3093140Y583860D01*
X3098200Y591450D01*
X3102000Y601580D01*
X3103260Y612970D01*
X3102000Y624370D01*
X3098200Y634500D01*
X3093140Y642090D01*
X3085540Y648420D01*
X3075410Y650950D01*
G01X3148410Y590190D02*
X3156000Y581330D01*
X3166130Y576270D01*
X3177520Y575000D01*
X3187650Y576270D01*
X3197780Y582590D01*
X3204100Y590190D01*
X3205370Y597780D01*
X3202840Y606640D01*
X3193980Y612970D01*
X3185120Y615510D01*
X3173720D01*
G01X3185120D02*
X3192710Y619300D01*
X3199040Y625630D01*
X3201570Y633230D01*
X3199040Y640820D01*
X3192710Y647150D01*
X3181320Y650950D01*
X3169930Y649680D01*
X3158530Y644620D01*
G01X2800000Y1476580D02*
X2875950D01*
Y1444940D01*
X2872150Y1434810D01*
X2867090Y1428480D01*
X2856960Y1425950D01*
X2846840Y1428480D01*
X2840510Y1436070D01*
X2836710Y1444940D01*
Y1476580D01*
G01Y1444940D02*
X2800000Y1425950D01*
G01Y1350430D02*
X2875950D01*
X2860760Y1365620D01*
G01X2800000D02*
Y1335240D01*
G01X2875950Y1249590D02*
X2873420Y1259710D01*
X2867090Y1267310D01*
X2859500Y1272370D01*
X2849370Y1276170D01*
X2837970Y1277430D01*
X2826580Y1276170D01*
X2816450Y1272370D01*
X2808860Y1267310D01*
X2802530Y1259710D01*
X2800000Y1249590D01*
X2802530Y1239460D01*
X2808860Y1231860D01*
X2816450Y1226800D01*
X2826580Y1223000D01*
X2837970Y1221740D01*
X2849370Y1223000D01*
X2859500Y1226800D01*
X2867090Y1231860D01*
X2873420Y1239460D01*
X2875950Y1249590D01*
G01Y1148750D02*
X2873420Y1158870D01*
X2867090Y1166470D01*
X2859500Y1171530D01*
X2849370Y1175330D01*
X2837970Y1176590D01*
X2826580Y1175330D01*
X2816450Y1171530D01*
X2808860Y1166470D01*
X2802530Y1158870D01*
X2800000Y1148750D01*
X2802530Y1138620D01*
X2808860Y1131020D01*
X2816450Y1125960D01*
X2826580Y1122160D01*
X2837970Y1120900D01*
X2849370Y1122160D01*
X2859500Y1125960D01*
X2867090Y1131020D01*
X2873420Y1138620D01*
X2875950Y1148750D01*
G01X2723420Y2400000D02*
Y2475950D01*
X2755060D01*
X2765190Y2472150D01*
X2771520Y2467090D01*
X2774050Y2456960D01*
X2771520Y2446840D01*
X2763930Y2440510D01*
X2755060Y2436710D01*
X2723420D01*
G01X2755060D02*
X2774050Y2400000D01*
G01X2849570D02*
Y2475950D01*
X2834380Y2460760D01*
G01Y2400000D02*
X2864760D01*
G01X2950410Y2475950D02*
X2940290Y2473420D01*
X2932690Y2467090D01*
X2927630Y2459500D01*
X2923830Y2449370D01*
X2922570Y2437970D01*
X2923830Y2426580D01*
X2927630Y2416450D01*
X2932690Y2408860D01*
X2940290Y2402530D01*
X2950410Y2400000D01*
X2960540Y2402530D01*
X2968140Y2408860D01*
X2973200Y2416450D01*
X2977000Y2426580D01*
X2978260Y2437970D01*
X2977000Y2449370D01*
X2973200Y2459500D01*
X2968140Y2467090D01*
X2960540Y2473420D01*
X2950410Y2475950D01*
G01X3027200Y2463290D02*
X3034800Y2470890D01*
X3043660Y2474680D01*
X3053790Y2475950D01*
X3066450Y2473420D01*
X3075310Y2467090D01*
X3077840Y2459500D01*
X3076570Y2451900D01*
X3071510Y2445570D01*
X3046190Y2432910D01*
X3034800Y2424050D01*
X3027200Y2411390D01*
X3024670Y2400000D01*
X3077840D01*
G01X3144300Y2323000D02*
X3148100Y2330590D01*
X3150630Y2339450D01*
Y2349580D01*
X3146830Y2360970D01*
X3140500Y2369830D01*
X3132910Y2376160D01*
X3120250Y2381230D01*
X3108860Y2382490D01*
X3097460Y2379960D01*
X3089870Y2376160D01*
X3082270Y2368570D01*
X3077210Y2359710D01*
X3074680Y2350850D01*
Y2341980D01*
X3077210Y2333120D01*
X3081010Y2325530D01*
X3086070Y2319200D01*
G01X3074680Y2250010D02*
X3075950Y2241140D01*
X3079740Y2231020D01*
X3086070Y2224690D01*
X3094930Y2222160D01*
X3103790Y2224690D01*
X3111390Y2232280D01*
X3115190Y2243680D01*
Y2256330D01*
X3117720Y2263930D01*
X3124050Y2270260D01*
X3132910Y2272790D01*
X3141770Y2268990D01*
X3148100Y2260130D01*
X3150630Y2250010D01*
X3148100Y2239880D01*
X3141770Y2231020D01*
X3132910Y2227220D01*
X3124050Y2229750D01*
X3117720Y2236080D01*
X3115190Y2243680D01*
Y2256330D01*
X3111390Y2267730D01*
X3103790Y2275320D01*
X3094930Y2277850D01*
X3086070Y2275320D01*
X3079740Y2268990D01*
X3075950Y2258870D01*
X3074680Y2250010D01*
G01X3089870Y2177010D02*
X3081010Y2169420D01*
X3075950Y2159290D01*
X3074680Y2147900D01*
X3075950Y2137770D01*
X3082270Y2127640D01*
X3089870Y2121320D01*
X3097460Y2120050D01*
X3106320Y2122580D01*
X3112650Y2131440D01*
X3115190Y2140300D01*
Y2151700D01*
G01Y2140300D02*
X3118980Y2132710D01*
X3125310Y2126380D01*
X3132910Y2123850D01*
X3140500Y2126380D01*
X3146830Y2132710D01*
X3150630Y2144100D01*
X3149360Y2155490D01*
X3144300Y2166890D01*
G01X2723420Y2725000D02*
Y2800950D01*
X2755060D01*
X2765190Y2797150D01*
X2771520Y2792090D01*
X2774050Y2781960D01*
X2771520Y2771840D01*
X2763930Y2765510D01*
X2755060Y2761710D01*
X2723420D01*
G01X2755060D02*
X2774050Y2725000D01*
G01X2849570D02*
Y2800950D01*
X2834380Y2785760D01*
G01Y2725000D02*
X2864760D01*
G01X2950410Y2800950D02*
X2940290Y2798420D01*
X2932690Y2792090D01*
X2927630Y2784500D01*
X2923830Y2774370D01*
X2922570Y2762970D01*
X2923830Y2751580D01*
X2927630Y2741450D01*
X2932690Y2733860D01*
X2940290Y2727530D01*
X2950410Y2725000D01*
X2960540Y2727530D01*
X2968140Y2733860D01*
X2973200Y2741450D01*
X2977000Y2751580D01*
X2978260Y2762970D01*
X2977000Y2774370D01*
X2973200Y2784500D01*
X2968140Y2792090D01*
X2960540Y2798420D01*
X2950410Y2800950D01*
G01X3051250Y2725000D02*
Y2800950D01*
X3036060Y2785760D01*
G01Y2725000D02*
X3066440D01*
G01X2723840Y2525000D02*
Y2600950D01*
X2755480D01*
X2765610Y2597150D01*
X2771940Y2592090D01*
X2774470Y2581960D01*
X2771940Y2571840D01*
X2764350Y2565510D01*
X2755480Y2561710D01*
X2723840D01*
G01X2755480D02*
X2774470Y2525000D01*
G01X2828470Y2533860D02*
X2837340Y2527530D01*
X2847460Y2525000D01*
X2857590Y2527530D01*
X2866450Y2535120D01*
X2872780Y2546520D01*
X2875310Y2557910D01*
Y2571840D01*
X2872780Y2583230D01*
X2866450Y2593350D01*
X2858860Y2598420D01*
X2849990Y2600950D01*
X2839870Y2598420D01*
X2832270Y2593350D01*
X2827210Y2585760D01*
X2824680Y2575630D01*
X2827210Y2566770D01*
X2833540Y2557910D01*
X2841130Y2552850D01*
X2849990Y2551580D01*
X2860120Y2554110D01*
X2867720Y2560440D01*
X2875310Y2571840D01*
G01X2929310Y2533860D02*
X2938180Y2527530D01*
X2948300Y2525000D01*
X2958430Y2527530D01*
X2967290Y2535120D01*
X2973620Y2546520D01*
X2976150Y2557910D01*
Y2571840D01*
X2973620Y2583230D01*
X2967290Y2593350D01*
X2959700Y2598420D01*
X2950830Y2600950D01*
X2940710Y2598420D01*
X2933110Y2593350D01*
X2928050Y2585760D01*
X2925520Y2575630D01*
X2928050Y2566770D01*
X2934380Y2557910D01*
X2941970Y2552850D01*
X2950830Y2551580D01*
X2960960Y2554110D01*
X2968560Y2560440D01*
X2976150Y2571840D01*
G01X2967500Y3663660D02*
X3043450D01*
Y3632020D01*
X3039650Y3621890D01*
X3034590Y3615560D01*
X3024460Y3613030D01*
X3014340Y3615560D01*
X3008010Y3623150D01*
X3004210Y3632020D01*
Y3663660D01*
G01Y3632020D02*
X2967500Y3613030D01*
G01X2978890Y3565350D02*
X2972560Y3557760D01*
X2968770Y3548900D01*
X2967500Y3537510D01*
X2970030Y3526110D01*
X2975090Y3517250D01*
X2983950Y3510920D01*
X2994080Y3509660D01*
X3004210Y3512190D01*
X3010540Y3518520D01*
X3015600Y3527380D01*
X3016870Y3536240D01*
X3015600Y3545100D01*
X3010540Y3556490D01*
X3043450Y3552700D01*
Y3518520D01*
G01X2978890Y3464510D02*
X2972560Y3456920D01*
X2968770Y3448060D01*
X2967500Y3436670D01*
X2970030Y3425270D01*
X2975090Y3416410D01*
X2983950Y3410080D01*
X2994080Y3408820D01*
X3004210Y3411350D01*
X3010540Y3417680D01*
X3015600Y3426540D01*
X3016870Y3435400D01*
X3015600Y3444260D01*
X3010540Y3455650D01*
X3043450Y3451860D01*
Y3417680D01*
G01X2869620Y4510500D02*
X2873420Y4518090D01*
X2875950Y4526950D01*
Y4537080D01*
X2872150Y4548470D01*
X2865820Y4557330D01*
X2858230Y4563660D01*
X2845570Y4568730D01*
X2834180Y4569990D01*
X2822780Y4567460D01*
X2815190Y4563660D01*
X2807590Y4556070D01*
X2802530Y4547210D01*
X2800000Y4538350D01*
Y4529480D01*
X2802530Y4520620D01*
X2806330Y4513030D01*
X2811390Y4506700D01*
G01X2815190Y4465350D02*
X2806330Y4457760D01*
X2801270Y4447630D01*
X2800000Y4436240D01*
X2801270Y4426110D01*
X2807590Y4415980D01*
X2815190Y4409660D01*
X2822780Y4408390D01*
X2831640Y4410920D01*
X2837970Y4419780D01*
X2840510Y4428640D01*
Y4440040D01*
G01Y4428640D02*
X2844300Y4421050D01*
X2850630Y4414720D01*
X2858230Y4412190D01*
X2865820Y4414720D01*
X2872150Y4421050D01*
X2875950Y4432440D01*
X2874680Y4443830D01*
X2869620Y4455230D01*
G01X2800000Y4321470D02*
X2875950D01*
X2821520Y4368310D01*
Y4305020D01*
G01X2692500Y6751580D02*
X2768450D01*
Y6719940D01*
X2764650Y6709810D01*
X2759590Y6703480D01*
X2749460Y6700950D01*
X2739340Y6703480D01*
X2733010Y6711070D01*
X2729210Y6719940D01*
Y6751580D01*
G01Y6719940D02*
X2692500Y6700950D01*
G01Y6625430D02*
X2768450D01*
X2753260Y6640620D01*
G01X2692500D02*
Y6610240D01*
G01Y6524590D02*
X2768450D01*
X2753260Y6539780D01*
G01X2692500D02*
Y6509400D01*
G01X2701360Y6445270D02*
X2695030Y6436400D01*
X2692500Y6426280D01*
X2695030Y6416150D01*
X2702620Y6407290D01*
X2714020Y6400960D01*
X2725410Y6398430D01*
X2739340D01*
X2750730Y6400960D01*
X2760850Y6407290D01*
X2765920Y6414880D01*
X2768450Y6423750D01*
X2765920Y6433870D01*
X2760850Y6441470D01*
X2753260Y6446530D01*
X2743130Y6449060D01*
X2734270Y6446530D01*
X2725410Y6440200D01*
X2720350Y6432610D01*
X2719080Y6423750D01*
X2721610Y6413620D01*
X2727940Y6406020D01*
X2739340Y6398430D01*
G01X3148840Y1700000D02*
Y1775950D01*
X3180480D01*
X3190610Y1772150D01*
X3196940Y1767090D01*
X3199470Y1756960D01*
X3196940Y1746840D01*
X3189350Y1740510D01*
X3180480Y1736710D01*
X3148840D01*
G01X3180480D02*
X3199470Y1700000D01*
G01X3253470Y1708860D02*
X3262340Y1702530D01*
X3272460Y1700000D01*
X3282590Y1702530D01*
X3291450Y1710120D01*
X3297780Y1721520D01*
X3300310Y1732910D01*
Y1746840D01*
X3297780Y1758230D01*
X3291450Y1768350D01*
X3283860Y1773420D01*
X3274990Y1775950D01*
X3264870Y1773420D01*
X3257270Y1768350D01*
X3252210Y1760760D01*
X3249680Y1750630D01*
X3252210Y1741770D01*
X3258540Y1732910D01*
X3266130Y1727850D01*
X3274990Y1726580D01*
X3285120Y1729110D01*
X3292720Y1735440D01*
X3300310Y1746840D01*
G01X3375830Y1700000D02*
Y1775950D01*
X3360640Y1760760D01*
G01Y1700000D02*
X3391020D01*
G01X3219620Y2623000D02*
X3223420Y2630590D01*
X3225950Y2639450D01*
Y2649580D01*
X3222150Y2660970D01*
X3215820Y2669830D01*
X3208230Y2676160D01*
X3195570Y2681230D01*
X3184180Y2682490D01*
X3172780Y2679960D01*
X3165190Y2676160D01*
X3157590Y2668570D01*
X3152530Y2659710D01*
X3150000Y2650850D01*
Y2641980D01*
X3152530Y2633120D01*
X3156330Y2625530D01*
X3161390Y2619200D01*
G01X3150000Y2550010D02*
X3151270Y2541140D01*
X3155060Y2531020D01*
X3161390Y2524690D01*
X3170250Y2522160D01*
X3179110Y2524690D01*
X3186710Y2532280D01*
X3190510Y2543680D01*
Y2556330D01*
X3193040Y2563930D01*
X3199370Y2570260D01*
X3208230Y2572790D01*
X3217090Y2568990D01*
X3223420Y2560130D01*
X3225950Y2550010D01*
X3223420Y2539880D01*
X3217090Y2531020D01*
X3208230Y2527220D01*
X3199370Y2529750D01*
X3193040Y2536080D01*
X3190510Y2543680D01*
Y2556330D01*
X3186710Y2567730D01*
X3179110Y2575320D01*
X3170250Y2577850D01*
X3161390Y2575320D01*
X3155060Y2568990D01*
X3151270Y2558870D01*
X3150000Y2550010D01*
G01X3213290Y2473220D02*
X3220890Y2465620D01*
X3224680Y2456760D01*
X3225950Y2446630D01*
X3223420Y2433970D01*
X3217090Y2425110D01*
X3209500Y2422580D01*
X3201900Y2423850D01*
X3195570Y2428910D01*
X3182910Y2454230D01*
X3174050Y2465620D01*
X3161390Y2473220D01*
X3150000Y2475750D01*
Y2422580D01*
G01X3330380Y2689500D02*
X3326580Y2681910D01*
X3324050Y2673050D01*
Y2662920D01*
X3327850Y2651530D01*
X3334180Y2642670D01*
X3341770Y2636340D01*
X3354430Y2631270D01*
X3365820Y2630010D01*
X3377220Y2632540D01*
X3384810Y2636340D01*
X3392410Y2643930D01*
X3397470Y2652790D01*
X3400000Y2661650D01*
Y2670520D01*
X3397470Y2679380D01*
X3393670Y2686970D01*
X3388610Y2693300D01*
G01X3368360Y2738440D02*
X3359490Y2747300D01*
X3354430Y2754900D01*
X3351900Y2765030D01*
X3354430Y2773890D01*
X3359490Y2780220D01*
X3367090Y2785280D01*
X3375950Y2786550D01*
X3383550Y2785280D01*
X3391140Y2780220D01*
X3397470Y2772620D01*
X3400000Y2763760D01*
X3397470Y2753630D01*
X3389880Y2744770D01*
X3378480Y2739710D01*
X3365820Y2738440D01*
X3349370Y2740970D01*
X3340500Y2744770D01*
X3331650Y2751100D01*
X3325320Y2759960D01*
X3324050Y2768820D01*
X3326580Y2777690D01*
X3332910Y2784020D01*
G01X3391140Y2841810D02*
X3397470Y2850680D01*
X3400000Y2860800D01*
X3397470Y2870930D01*
X3389880Y2879790D01*
X3378480Y2886120D01*
X3367090Y2888650D01*
X3353160D01*
X3341770Y2886120D01*
X3331650Y2879790D01*
X3326580Y2872200D01*
X3324050Y2863330D01*
X3326580Y2853210D01*
X3331650Y2845610D01*
X3339240Y2840550D01*
X3349370Y2838020D01*
X3358230Y2840550D01*
X3367090Y2846880D01*
X3372150Y2854470D01*
X3373420Y2863330D01*
X3370890Y2873460D01*
X3364560Y2881060D01*
X3353160Y2888650D01*
G01X3382120Y3148000D02*
X3385920Y3155590D01*
X3388450Y3164450D01*
Y3174580D01*
X3384650Y3185970D01*
X3378320Y3194830D01*
X3370730Y3201160D01*
X3358070Y3206230D01*
X3346680Y3207490D01*
X3335280Y3204960D01*
X3327690Y3201160D01*
X3320090Y3193570D01*
X3315030Y3184710D01*
X3312500Y3175850D01*
Y3166980D01*
X3315030Y3158120D01*
X3318830Y3150530D01*
X3323890Y3144200D01*
G01X3312500Y3075010D02*
X3313770Y3066140D01*
X3317560Y3056020D01*
X3323890Y3049690D01*
X3332750Y3047160D01*
X3341610Y3049690D01*
X3349210Y3057280D01*
X3353010Y3068680D01*
Y3081330D01*
X3355540Y3088930D01*
X3361870Y3095260D01*
X3370730Y3097790D01*
X3379590Y3093990D01*
X3385920Y3085130D01*
X3388450Y3075010D01*
X3385920Y3064880D01*
X3379590Y3056020D01*
X3370730Y3052220D01*
X3361870Y3054750D01*
X3355540Y3061080D01*
X3353010Y3068680D01*
Y3081330D01*
X3349210Y3092730D01*
X3341610Y3100320D01*
X3332750Y3102850D01*
X3323890Y3100320D01*
X3317560Y3093990D01*
X3313770Y3083870D01*
X3312500Y3075010D01*
G01X3388450Y2974170D02*
X3385920Y2984290D01*
X3379590Y2991890D01*
X3372000Y2996950D01*
X3361870Y3000750D01*
X3350470Y3002010D01*
X3339080Y3000750D01*
X3328950Y2996950D01*
X3321360Y2991890D01*
X3315030Y2984290D01*
X3312500Y2974170D01*
X3315030Y2964040D01*
X3321360Y2956440D01*
X3328950Y2951380D01*
X3339080Y2947580D01*
X3350470Y2946320D01*
X3361870Y2947580D01*
X3372000Y2951380D01*
X3379590Y2956440D01*
X3385920Y2964040D01*
X3388450Y2974170D01*
G01X3494300Y3598000D02*
X3498100Y3605590D01*
X3500630Y3614450D01*
Y3624580D01*
X3496830Y3635970D01*
X3490500Y3644830D01*
X3482910Y3651160D01*
X3470250Y3656230D01*
X3458860Y3657490D01*
X3447460Y3654960D01*
X3439870Y3651160D01*
X3432270Y3643570D01*
X3427210Y3634710D01*
X3424680Y3625850D01*
Y3616980D01*
X3427210Y3608120D01*
X3431010Y3600530D01*
X3436070Y3594200D01*
G01X3424680Y3509810D02*
X3500630D01*
X3446200Y3556650D01*
Y3493360D01*
G01X3424680Y3424170D02*
X3500630D01*
X3485440Y3439360D01*
G01X3424680D02*
Y3408980D01*
G01X3599680Y6851160D02*
X3675630D01*
Y6819520D01*
X3671830Y6809390D01*
X3666770Y6803060D01*
X3656640Y6800530D01*
X3646520Y6803060D01*
X3640190Y6810650D01*
X3636390Y6819520D01*
Y6851160D01*
G01Y6819520D02*
X3599680Y6800530D01*
G01X3611070Y6752850D02*
X3604740Y6745260D01*
X3600950Y6736400D01*
X3599680Y6725010D01*
X3602210Y6713610D01*
X3607270Y6704750D01*
X3616130Y6698420D01*
X3626260Y6697160D01*
X3636390Y6699690D01*
X3642720Y6706020D01*
X3647780Y6714880D01*
X3649050Y6723740D01*
X3647780Y6732600D01*
X3642720Y6743990D01*
X3675630Y6740200D01*
Y6706020D01*
G01X3662970Y6648220D02*
X3670570Y6640620D01*
X3674360Y6631760D01*
X3675630Y6621630D01*
X3673100Y6608970D01*
X3666770Y6600110D01*
X3659180Y6597580D01*
X3651580Y6598850D01*
X3645250Y6603910D01*
X3632590Y6629230D01*
X3623730Y6640620D01*
X3611070Y6648220D01*
X3599680Y6650750D01*
Y6597580D01*
G01X3225320Y6748850D02*
X3149370D01*
Y6780490D01*
X3153170Y6790620D01*
X3158230Y6796950D01*
X3168360Y6799480D01*
X3178480Y6796950D01*
X3184810Y6789360D01*
X3188610Y6780490D01*
Y6748850D01*
G01Y6780490D02*
X3225320Y6799480D01*
G01X3213930Y6847160D02*
X3220260Y6854750D01*
X3224050Y6863610D01*
X3225320Y6875000D01*
X3222790Y6886400D01*
X3217730Y6895260D01*
X3208870Y6901590D01*
X3198740Y6902850D01*
X3188610Y6900320D01*
X3182280Y6893990D01*
X3177220Y6885130D01*
X3175950Y6876270D01*
X3177220Y6867410D01*
X3182280Y6856020D01*
X3149370Y6859810D01*
Y6893990D01*
G01X3225320Y6973310D02*
X3208870Y6975840D01*
X3194940Y6979640D01*
X3182280Y6984710D01*
X3168360Y6991040D01*
X3149370Y7001160D01*
Y6950530D01*
G01X4037820Y73850D02*
X3961870D01*
Y105490D01*
X3965670Y115620D01*
X3970730Y121950D01*
X3980860Y124480D01*
X3990980Y121950D01*
X3997310Y114360D01*
X4001110Y105490D01*
Y73850D01*
G01Y105490D02*
X4037820Y124480D01*
G01Y200000D02*
X4036550Y208870D01*
X4032760Y218990D01*
X4026430Y225320D01*
X4017570Y227850D01*
X4008710Y225320D01*
X4001110Y217730D01*
X3997310Y206330D01*
Y193680D01*
X3994780Y186080D01*
X3988450Y179750D01*
X3979590Y177220D01*
X3970730Y181020D01*
X3964400Y189880D01*
X3961870Y200000D01*
X3964400Y210130D01*
X3970730Y218990D01*
X3979590Y222790D01*
X3988450Y220260D01*
X3994780Y213930D01*
X3997310Y206330D01*
Y193680D01*
X4001110Y182280D01*
X4008710Y174690D01*
X4017570Y172160D01*
X4026430Y174690D01*
X4032760Y181020D01*
X4036550Y191140D01*
X4037820Y200000D01*
G01X3961870Y300840D02*
X3964400Y290720D01*
X3970730Y283120D01*
X3978320Y278060D01*
X3988450Y274260D01*
X3999850Y273000D01*
X4011240Y274260D01*
X4021370Y278060D01*
X4028960Y283120D01*
X4035290Y290720D01*
X4037820Y300840D01*
X4035290Y310970D01*
X4028960Y318570D01*
X4021370Y323630D01*
X4011240Y327430D01*
X3999850Y328690D01*
X3988450Y327430D01*
X3978320Y323630D01*
X3970730Y318570D01*
X3964400Y310970D01*
X3961870Y300840D01*
G01X3887820Y73850D02*
X3811870D01*
Y105490D01*
X3815670Y115620D01*
X3820730Y121950D01*
X3830860Y124480D01*
X3840980Y121950D01*
X3847310Y114360D01*
X3851110Y105490D01*
Y73850D01*
G01Y105490D02*
X3887820Y124480D01*
G01Y197470D02*
X3871370Y200000D01*
X3857440Y203800D01*
X3844780Y208870D01*
X3830860Y215200D01*
X3811870Y225320D01*
Y174690D01*
G01X3878960Y279320D02*
X3885290Y288190D01*
X3887820Y298310D01*
X3885290Y308440D01*
X3877700Y317300D01*
X3866300Y323630D01*
X3854910Y326160D01*
X3840980D01*
X3829590Y323630D01*
X3819470Y317300D01*
X3814400Y309710D01*
X3811870Y300840D01*
X3814400Y290720D01*
X3819470Y283120D01*
X3827060Y278060D01*
X3837190Y275530D01*
X3846050Y278060D01*
X3854910Y284390D01*
X3859970Y291980D01*
X3861240Y300840D01*
X3858710Y310970D01*
X3852380Y318570D01*
X3840980Y326160D01*
G01X3700320Y73850D02*
X3624370D01*
Y105490D01*
X3628170Y115620D01*
X3633230Y121950D01*
X3643360Y124480D01*
X3653480Y121950D01*
X3659810Y114360D01*
X3663610Y105490D01*
Y73850D01*
G01Y105490D02*
X3700320Y124480D01*
G01Y197470D02*
X3683870Y200000D01*
X3669940Y203800D01*
X3657280Y208870D01*
X3643360Y215200D01*
X3624370Y225320D01*
Y174690D01*
G01X3700320Y300840D02*
X3699050Y309710D01*
X3695260Y319830D01*
X3688930Y326160D01*
X3680070Y328690D01*
X3671210Y326160D01*
X3663610Y318570D01*
X3659810Y307170D01*
Y294520D01*
X3657280Y286920D01*
X3650950Y280590D01*
X3642090Y278060D01*
X3633230Y281860D01*
X3626900Y290720D01*
X3624370Y300840D01*
X3626900Y310970D01*
X3633230Y319830D01*
X3642090Y323630D01*
X3650950Y321100D01*
X3657280Y314770D01*
X3659810Y307170D01*
Y294520D01*
X3663610Y283120D01*
X3671210Y275530D01*
X3680070Y273000D01*
X3688930Y275530D01*
X3695260Y281860D01*
X3699050Y291980D01*
X3700320Y300840D01*
G01X3827000Y3469300D02*
X3819410Y3473100D01*
X3810550Y3475630D01*
X3800420D01*
X3789030Y3471830D01*
X3780170Y3465500D01*
X3773840Y3457910D01*
X3768770Y3445250D01*
X3767510Y3433860D01*
X3770040Y3422460D01*
X3773840Y3414870D01*
X3781430Y3407270D01*
X3790290Y3402210D01*
X3799150Y3399680D01*
X3808020D01*
X3816880Y3402210D01*
X3824470Y3406010D01*
X3830800Y3411070D01*
G01X3872150Y3414870D02*
X3879740Y3406010D01*
X3889870Y3400950D01*
X3901260Y3399680D01*
X3911390Y3400950D01*
X3921520Y3407270D01*
X3927840Y3414870D01*
X3929110Y3422460D01*
X3926580Y3431320D01*
X3917720Y3437650D01*
X3908860Y3440190D01*
X3897460D01*
G01X3908860D02*
X3916450Y3443980D01*
X3922780Y3450310D01*
X3925310Y3457910D01*
X3922780Y3465500D01*
X3916450Y3471830D01*
X3905060Y3475630D01*
X3893670Y3474360D01*
X3882270Y3469300D01*
G01X4000830Y3399680D02*
X4009700Y3400950D01*
X4019820Y3404740D01*
X4026150Y3411070D01*
X4028680Y3419930D01*
X4026150Y3428790D01*
X4018560Y3436390D01*
X4007160Y3440190D01*
X3994510D01*
X3986910Y3442720D01*
X3980580Y3449050D01*
X3978050Y3457910D01*
X3981850Y3466770D01*
X3990710Y3473100D01*
X4000830Y3475630D01*
X4010960Y3473100D01*
X4019820Y3466770D01*
X4023620Y3457910D01*
X4021090Y3449050D01*
X4014760Y3442720D01*
X4007160Y3440190D01*
X3994510D01*
X3983110Y3436390D01*
X3975520Y3428790D01*
X3972990Y3419930D01*
X3975520Y3411070D01*
X3981850Y3404740D01*
X3991970Y3400950D01*
X4000830Y3399680D01*
G01X4212820Y86350D02*
X4136870D01*
Y117990D01*
X4140670Y128120D01*
X4145730Y134450D01*
X4155860Y136980D01*
X4165980Y134450D01*
X4172310Y126860D01*
X4176110Y117990D01*
Y86350D01*
G01Y117990D02*
X4212820Y136980D01*
G01Y212500D02*
X4211550Y221370D01*
X4207760Y231490D01*
X4201430Y237820D01*
X4192570Y240350D01*
X4183710Y237820D01*
X4176110Y230230D01*
X4172310Y218830D01*
Y206180D01*
X4169780Y198580D01*
X4163450Y192250D01*
X4154590Y189720D01*
X4145730Y193520D01*
X4139400Y202380D01*
X4136870Y212500D01*
X4139400Y222630D01*
X4145730Y231490D01*
X4154590Y235290D01*
X4163450Y232760D01*
X4169780Y226430D01*
X4172310Y218830D01*
Y206180D01*
X4176110Y194780D01*
X4183710Y187190D01*
X4192570Y184660D01*
X4201430Y187190D01*
X4207760Y193520D01*
X4211550Y203640D01*
X4212820Y212500D01*
G01Y313340D02*
X4136870D01*
X4152060Y298150D01*
G01X4212820D02*
Y328530D01*
G01X4575320Y73850D02*
X4499370D01*
Y105490D01*
X4503170Y115620D01*
X4508230Y121950D01*
X4518360Y124480D01*
X4528480Y121950D01*
X4534810Y114360D01*
X4538610Y105490D01*
Y73850D01*
G01Y105490D02*
X4575320Y124480D01*
G01Y197470D02*
X4558870Y200000D01*
X4544940Y203800D01*
X4532280Y208870D01*
X4518360Y215200D01*
X4499370Y225320D01*
Y174690D01*
G01X4560130Y273000D02*
X4568990Y280590D01*
X4574050Y290720D01*
X4575320Y302110D01*
X4574050Y312240D01*
X4567730Y322370D01*
X4560130Y328690D01*
X4552540Y329960D01*
X4543680Y327430D01*
X4537350Y318570D01*
X4534810Y309710D01*
Y298310D01*
G01Y309710D02*
X4531020Y317300D01*
X4524690Y323630D01*
X4517090Y326160D01*
X4509500Y323630D01*
X4503170Y317300D01*
X4499370Y305910D01*
X4500640Y294520D01*
X4505700Y283120D01*
G01X4400320Y73850D02*
X4324370D01*
Y105490D01*
X4328170Y115620D01*
X4333230Y121950D01*
X4343360Y124480D01*
X4353480Y121950D01*
X4359810Y114360D01*
X4363610Y105490D01*
Y73850D01*
G01Y105490D02*
X4400320Y124480D01*
G01Y197470D02*
X4383870Y200000D01*
X4369940Y203800D01*
X4357280Y208870D01*
X4343360Y215200D01*
X4324370Y225320D01*
Y174690D01*
G01X4337030Y276790D02*
X4329430Y284390D01*
X4325640Y293250D01*
X4324370Y303380D01*
X4326900Y316040D01*
X4333230Y324900D01*
X4340820Y327430D01*
X4348420Y326160D01*
X4354750Y321100D01*
X4367410Y295780D01*
X4376270Y284390D01*
X4388930Y276790D01*
X4400320Y274260D01*
Y327430D01*
G01X4175320Y7048850D02*
X4099370D01*
Y7080490D01*
X4103170Y7090620D01*
X4108230Y7096950D01*
X4118360Y7099480D01*
X4128480Y7096950D01*
X4134810Y7089360D01*
X4138610Y7080490D01*
Y7048850D01*
G01Y7080490D02*
X4175320Y7099480D01*
G01Y7190200D02*
X4099370D01*
X4153800Y7143360D01*
Y7206650D01*
G01X4143680Y7251790D02*
X4134810Y7260650D01*
X4129750Y7268250D01*
X4127220Y7278380D01*
X4129750Y7287240D01*
X4134810Y7293570D01*
X4142410Y7298630D01*
X4151270Y7299900D01*
X4158870Y7298630D01*
X4166460Y7293570D01*
X4172790Y7285970D01*
X4175320Y7277110D01*
X4172790Y7266980D01*
X4165200Y7258120D01*
X4153800Y7253060D01*
X4141140Y7251790D01*
X4124690Y7254320D01*
X4115820Y7258120D01*
X4106970Y7264450D01*
X4100640Y7273310D01*
X4099370Y7282170D01*
X4101900Y7291040D01*
X4108230Y7297370D01*
G01X4325320Y7048850D02*
X4249370D01*
Y7080490D01*
X4253170Y7090620D01*
X4258230Y7096950D01*
X4268360Y7099480D01*
X4278480Y7096950D01*
X4284810Y7089360D01*
X4288610Y7080490D01*
Y7048850D01*
G01Y7080490D02*
X4325320Y7099480D01*
G01Y7190200D02*
X4249370D01*
X4303800Y7143360D01*
Y7206650D01*
G01X4325320Y7291040D02*
X4249370D01*
X4303800Y7244200D01*
Y7307490D01*
G01X4950320Y73850D02*
X4874370D01*
Y105490D01*
X4878170Y115620D01*
X4883230Y121950D01*
X4893360Y124480D01*
X4903480Y121950D01*
X4909810Y114360D01*
X4913610Y105490D01*
Y73850D01*
G01Y105490D02*
X4950320Y124480D01*
G01Y197470D02*
X4933870Y200000D01*
X4919940Y203800D01*
X4907280Y208870D01*
X4893360Y215200D01*
X4874370Y225320D01*
Y174690D01*
G01X4950320Y298310D02*
X4933870Y300840D01*
X4919940Y304640D01*
X4907280Y309710D01*
X4893360Y316040D01*
X4874370Y326160D01*
Y275530D01*
G01X4750320Y73850D02*
X4674370D01*
Y105490D01*
X4678170Y115620D01*
X4683230Y121950D01*
X4693360Y124480D01*
X4703480Y121950D01*
X4709810Y114360D01*
X4713610Y105490D01*
Y73850D01*
G01Y105490D02*
X4750320Y124480D01*
G01Y197470D02*
X4733870Y200000D01*
X4719940Y203800D01*
X4707280Y208870D01*
X4693360Y215200D01*
X4674370Y225320D01*
Y174690D01*
G01X4750320Y316040D02*
X4674370D01*
X4728800Y269200D01*
Y332490D01*
G01X4725000Y6673840D02*
X4649050D01*
Y6705480D01*
X4652850Y6715610D01*
X4657910Y6721940D01*
X4668040Y6724470D01*
X4678160Y6721940D01*
X4684490Y6714350D01*
X4688290Y6705480D01*
Y6673840D01*
G01Y6705480D02*
X4725000Y6724470D01*
G01Y6799990D02*
X4649050D01*
X4664240Y6784800D01*
G01X4725000D02*
Y6815180D01*
G01X4649050Y6900830D02*
X4651580Y6890710D01*
X4657910Y6883110D01*
X4665500Y6878050D01*
X4675630Y6874250D01*
X4687030Y6872990D01*
X4698420Y6874250D01*
X4708550Y6878050D01*
X4716140Y6883110D01*
X4722470Y6890710D01*
X4725000Y6900830D01*
X4722470Y6910960D01*
X4716140Y6918560D01*
X4708550Y6923620D01*
X4698420Y6927420D01*
X4687030Y6928680D01*
X4675630Y6927420D01*
X4665500Y6923620D01*
X4657910Y6918560D01*
X4651580Y6910960D01*
X4649050Y6900830D01*
G01X5257120Y2498000D02*
X5260920Y2505590D01*
X5263450Y2514450D01*
Y2524580D01*
X5259650Y2535970D01*
X5253320Y2544830D01*
X5245730Y2551160D01*
X5233070Y2556230D01*
X5221680Y2557490D01*
X5210280Y2554960D01*
X5202690Y2551160D01*
X5195090Y2543570D01*
X5190030Y2534710D01*
X5187500Y2525850D01*
Y2516980D01*
X5190030Y2508120D01*
X5193830Y2500530D01*
X5198890Y2494200D01*
G01X5187500Y2425010D02*
X5188770Y2416140D01*
X5192560Y2406020D01*
X5198890Y2399690D01*
X5207750Y2397160D01*
X5216610Y2399690D01*
X5224210Y2407280D01*
X5228010Y2418680D01*
Y2431330D01*
X5230540Y2438930D01*
X5236870Y2445260D01*
X5245730Y2447790D01*
X5254590Y2443990D01*
X5260920Y2435130D01*
X5263450Y2425010D01*
X5260920Y2414880D01*
X5254590Y2406020D01*
X5245730Y2402220D01*
X5236870Y2404750D01*
X5230540Y2411080D01*
X5228010Y2418680D01*
Y2431330D01*
X5224210Y2442730D01*
X5216610Y2450320D01*
X5207750Y2452850D01*
X5198890Y2450320D01*
X5192560Y2443990D01*
X5188770Y2433870D01*
X5187500Y2425010D01*
G01Y2308970D02*
X5263450D01*
X5209020Y2355810D01*
Y2292520D01*
G01X5244620Y2823000D02*
X5248420Y2830590D01*
X5250950Y2839450D01*
Y2849580D01*
X5247150Y2860970D01*
X5240820Y2869830D01*
X5233230Y2876160D01*
X5220570Y2881230D01*
X5209180Y2882490D01*
X5197780Y2879960D01*
X5190190Y2876160D01*
X5182590Y2868570D01*
X5177530Y2859710D01*
X5175000Y2850850D01*
Y2841980D01*
X5177530Y2833120D01*
X5181330Y2825530D01*
X5186390Y2819200D01*
G01X5175000Y2750010D02*
X5176270Y2741140D01*
X5180060Y2731020D01*
X5186390Y2724690D01*
X5195250Y2722160D01*
X5204110Y2724690D01*
X5211710Y2732280D01*
X5215510Y2743680D01*
Y2756330D01*
X5218040Y2763930D01*
X5224370Y2770260D01*
X5233230Y2772790D01*
X5242090Y2768990D01*
X5248420Y2760130D01*
X5250950Y2750010D01*
X5248420Y2739880D01*
X5242090Y2731020D01*
X5233230Y2727220D01*
X5224370Y2729750D01*
X5218040Y2736080D01*
X5215510Y2743680D01*
Y2756330D01*
X5211710Y2767730D01*
X5204110Y2775320D01*
X5195250Y2777850D01*
X5186390Y2775320D01*
X5180060Y2768990D01*
X5176270Y2758870D01*
X5175000Y2750010D01*
G01Y2649170D02*
X5250950D01*
X5235760Y2664360D01*
G01X5175000D02*
Y2633980D01*
G01X5302000Y3707120D02*
X5294410Y3710920D01*
X5285550Y3713450D01*
X5275420D01*
X5264030Y3709650D01*
X5255170Y3703320D01*
X5248840Y3695730D01*
X5243770Y3683070D01*
X5242510Y3671680D01*
X5245040Y3660280D01*
X5248840Y3652690D01*
X5256430Y3645090D01*
X5265290Y3640030D01*
X5274150Y3637500D01*
X5283020D01*
X5291880Y3640030D01*
X5299470Y3643830D01*
X5305800Y3648890D01*
G01X5347150Y3652690D02*
X5354740Y3643830D01*
X5364870Y3638770D01*
X5376260Y3637500D01*
X5386390Y3638770D01*
X5396520Y3645090D01*
X5402840Y3652690D01*
X5404110Y3660280D01*
X5401580Y3669140D01*
X5392720Y3675470D01*
X5383860Y3678010D01*
X5372460D01*
G01X5383860D02*
X5391450Y3681800D01*
X5397780Y3688130D01*
X5400310Y3695730D01*
X5397780Y3703320D01*
X5391450Y3709650D01*
X5380060Y3713450D01*
X5368670Y3712180D01*
X5357270Y3707120D01*
G01X5454310Y3646360D02*
X5463180Y3640030D01*
X5473300Y3637500D01*
X5483430Y3640030D01*
X5492290Y3647620D01*
X5498620Y3659020D01*
X5501150Y3670410D01*
Y3684340D01*
X5498620Y3695730D01*
X5492290Y3705850D01*
X5484700Y3710920D01*
X5475830Y3713450D01*
X5465710Y3710920D01*
X5458110Y3705850D01*
X5453050Y3698260D01*
X5450520Y3688130D01*
X5453050Y3679270D01*
X5459380Y3670410D01*
X5466970Y3665350D01*
X5475830Y3664080D01*
X5485960Y3666610D01*
X5493560Y3672940D01*
X5501150Y3684340D01*
G01X5423840Y7075000D02*
Y7150950D01*
X5455480D01*
X5465610Y7147150D01*
X5471940Y7142090D01*
X5474470Y7131960D01*
X5471940Y7121840D01*
X5464350Y7115510D01*
X5455480Y7111710D01*
X5423840D01*
G01X5455480D02*
X5474470Y7075000D01*
G01X5549990D02*
X5558860Y7076270D01*
X5568980Y7080060D01*
X5575310Y7086390D01*
X5577840Y7095250D01*
X5575310Y7104110D01*
X5567720Y7111710D01*
X5556320Y7115510D01*
X5543670D01*
X5536070Y7118040D01*
X5529740Y7124370D01*
X5527210Y7133230D01*
X5531010Y7142090D01*
X5539870Y7148420D01*
X5549990Y7150950D01*
X5560120Y7148420D01*
X5568980Y7142090D01*
X5572780Y7133230D01*
X5570250Y7124370D01*
X5563920Y7118040D01*
X5556320Y7115510D01*
X5543670D01*
X5532270Y7111710D01*
X5524680Y7104110D01*
X5522150Y7095250D01*
X5524680Y7086390D01*
X5531010Y7080060D01*
X5541130Y7076270D01*
X5549990Y7075000D01*
G01X5648300D02*
X5650830Y7091450D01*
X5654630Y7105380D01*
X5659700Y7118040D01*
X5666030Y7131960D01*
X5676150Y7150950D01*
X5625520D01*
G01X5200000Y6799260D02*
X5124050D01*
Y6830900D01*
X5127850Y6841030D01*
X5132910Y6847360D01*
X5143040Y6849890D01*
X5153160Y6847360D01*
X5159490Y6839770D01*
X5163290Y6830900D01*
Y6799260D01*
G01Y6830900D02*
X5200000Y6849890D01*
G01Y6925410D02*
X5198730Y6934280D01*
X5194940Y6944400D01*
X5188610Y6950730D01*
X5179750Y6953260D01*
X5170890Y6950730D01*
X5163290Y6943140D01*
X5159490Y6931740D01*
Y6919090D01*
X5156960Y6911490D01*
X5150630Y6905160D01*
X5141770Y6902630D01*
X5132910Y6906430D01*
X5126580Y6915290D01*
X5124050Y6925410D01*
X5126580Y6935540D01*
X5132910Y6944400D01*
X5141770Y6948200D01*
X5150630Y6945670D01*
X5156960Y6939340D01*
X5159490Y6931740D01*
Y6919090D01*
X5163290Y6907690D01*
X5170890Y6900100D01*
X5179750Y6897570D01*
X5188610Y6900100D01*
X5194940Y6906430D01*
X5198730Y6916550D01*
X5200000Y6925410D01*
G01X5414500Y6919620D02*
X5406910Y6923420D01*
X5398050Y6925950D01*
X5387920D01*
X5376530Y6922150D01*
X5367670Y6915820D01*
X5361340Y6908230D01*
X5356270Y6895570D01*
X5355010Y6884180D01*
X5357540Y6872780D01*
X5361340Y6865190D01*
X5368930Y6857590D01*
X5377790Y6852530D01*
X5386650Y6850000D01*
X5395520D01*
X5404380Y6852530D01*
X5411970Y6856330D01*
X5418300Y6861390D01*
G01X5463440Y6881640D02*
X5472300Y6890510D01*
X5479900Y6895570D01*
X5490030Y6898100D01*
X5498890Y6895570D01*
X5505220Y6890510D01*
X5510280Y6882910D01*
X5511550Y6874050D01*
X5510280Y6866450D01*
X5505220Y6858860D01*
X5497620Y6852530D01*
X5488760Y6850000D01*
X5478630Y6852530D01*
X5469770Y6860120D01*
X5464710Y6871520D01*
X5463440Y6884180D01*
X5465970Y6900630D01*
X5469770Y6909500D01*
X5476100Y6918350D01*
X5484960Y6924680D01*
X5493820Y6925950D01*
X5502690Y6923420D01*
X5509020Y6917090D01*
G01X5588330Y6850000D02*
X5597200Y6851270D01*
X5607320Y6855060D01*
X5613650Y6861390D01*
X5616180Y6870250D01*
X5613650Y6879110D01*
X5606060Y6886710D01*
X5594660Y6890510D01*
X5582010D01*
X5574410Y6893040D01*
X5568080Y6899370D01*
X5565550Y6908230D01*
X5569350Y6917090D01*
X5578210Y6923420D01*
X5588330Y6925950D01*
X5598460Y6923420D01*
X5607320Y6917090D01*
X5611120Y6908230D01*
X5608590Y6899370D01*
X5602260Y6893040D01*
X5594660Y6890510D01*
X5582010D01*
X5570610Y6886710D01*
X5563020Y6879110D01*
X5560490Y6870250D01*
X5563020Y6861390D01*
X5569350Y6855060D01*
X5579470Y6851270D01*
X5588330Y6850000D01*
G01X5414500Y6769620D02*
X5406910Y6773420D01*
X5398050Y6775950D01*
X5387920D01*
X5376530Y6772150D01*
X5367670Y6765820D01*
X5361340Y6758230D01*
X5356270Y6745570D01*
X5355010Y6734180D01*
X5357540Y6722780D01*
X5361340Y6715190D01*
X5368930Y6707590D01*
X5377790Y6702530D01*
X5386650Y6700000D01*
X5395520D01*
X5404380Y6702530D01*
X5411970Y6706330D01*
X5418300Y6711390D01*
G01X5463440Y6731640D02*
X5472300Y6740510D01*
X5479900Y6745570D01*
X5490030Y6748100D01*
X5498890Y6745570D01*
X5505220Y6740510D01*
X5510280Y6732910D01*
X5511550Y6724050D01*
X5510280Y6716450D01*
X5505220Y6708860D01*
X5497620Y6702530D01*
X5488760Y6700000D01*
X5478630Y6702530D01*
X5469770Y6710120D01*
X5464710Y6721520D01*
X5463440Y6734180D01*
X5465970Y6750630D01*
X5469770Y6759500D01*
X5476100Y6768350D01*
X5484960Y6774680D01*
X5493820Y6775950D01*
X5502690Y6773420D01*
X5509020Y6767090D01*
G01X5564280Y6763290D02*
X5571880Y6770890D01*
X5580740Y6774680D01*
X5590870Y6775950D01*
X5603530Y6773420D01*
X5612390Y6767090D01*
X5614920Y6759500D01*
X5613650Y6751900D01*
X5608590Y6745570D01*
X5583270Y6732910D01*
X5571880Y6724050D01*
X5564280Y6711390D01*
X5561750Y6700000D01*
X5614920D01*
G01X5498420Y675000D02*
Y750950D01*
X5530060D01*
X5540190Y747150D01*
X5546520Y742090D01*
X5549050Y731960D01*
X5546520Y721840D01*
X5538930Y715510D01*
X5530060Y711710D01*
X5498420D01*
G01X5530060D02*
X5549050Y675000D01*
G01X5624570D02*
Y750950D01*
X5609380Y735760D01*
G01Y675000D02*
X5639760D01*
G01X5725410D02*
Y750950D01*
X5710220Y735760D01*
G01Y675000D02*
X5740600D01*
G01X5826250Y750950D02*
X5816130Y748420D01*
X5808530Y742090D01*
X5803470Y734500D01*
X5799670Y724370D01*
X5798410Y712970D01*
X5799670Y701580D01*
X5803470Y691450D01*
X5808530Y683860D01*
X5816130Y677530D01*
X5826250Y675000D01*
X5836380Y677530D01*
X5843980Y683860D01*
X5849040Y691450D01*
X5852840Y701580D01*
X5854100Y712970D01*
X5852840Y724370D01*
X5849040Y734500D01*
X5843980Y742090D01*
X5836380Y748420D01*
X5826250Y750950D01*
G01X5523840Y850000D02*
Y925950D01*
X5555480D01*
X5565610Y922150D01*
X5571940Y917090D01*
X5574470Y906960D01*
X5571940Y896840D01*
X5564350Y890510D01*
X5555480Y886710D01*
X5523840D01*
G01X5555480D02*
X5574470Y850000D01*
G01X5647460D02*
X5649990Y866450D01*
X5653790Y880380D01*
X5658860Y893040D01*
X5665190Y906960D01*
X5675310Y925950D01*
X5624680D01*
G01X5750830Y850000D02*
Y925950D01*
X5735640Y910760D01*
G01Y850000D02*
X5766020D01*
G01X5523840Y1025000D02*
Y1100950D01*
X5555480D01*
X5565610Y1097150D01*
X5571940Y1092090D01*
X5574470Y1081960D01*
X5571940Y1071840D01*
X5564350Y1065510D01*
X5555480Y1061710D01*
X5523840D01*
G01X5555480D02*
X5574470Y1025000D01*
G01X5647460D02*
X5649990Y1041450D01*
X5653790Y1055380D01*
X5658860Y1068040D01*
X5665190Y1081960D01*
X5675310Y1100950D01*
X5624680D01*
G01X5750830D02*
X5740710Y1098420D01*
X5733110Y1092090D01*
X5728050Y1084500D01*
X5724250Y1074370D01*
X5722990Y1062970D01*
X5724250Y1051580D01*
X5728050Y1041450D01*
X5733110Y1033860D01*
X5740710Y1027530D01*
X5750830Y1025000D01*
X5760960Y1027530D01*
X5768560Y1033860D01*
X5773620Y1041450D01*
X5777420Y1051580D01*
X5778680Y1062970D01*
X5777420Y1074370D01*
X5773620Y1084500D01*
X5768560Y1092090D01*
X5760960Y1098420D01*
X5750830Y1100950D01*
G01X5523840Y1525000D02*
Y1600950D01*
X5555480D01*
X5565610Y1597150D01*
X5571940Y1592090D01*
X5574470Y1581960D01*
X5571940Y1571840D01*
X5564350Y1565510D01*
X5555480Y1561710D01*
X5523840D01*
G01X5555480D02*
X5574470Y1525000D01*
G01X5628470Y1533860D02*
X5637340Y1527530D01*
X5647460Y1525000D01*
X5657590Y1527530D01*
X5666450Y1535120D01*
X5672780Y1546520D01*
X5675310Y1557910D01*
Y1571840D01*
X5672780Y1583230D01*
X5666450Y1593350D01*
X5658860Y1598420D01*
X5649990Y1600950D01*
X5639870Y1598420D01*
X5632270Y1593350D01*
X5627210Y1585760D01*
X5624680Y1575630D01*
X5627210Y1566770D01*
X5633540Y1557910D01*
X5641130Y1552850D01*
X5649990Y1551580D01*
X5660120Y1554110D01*
X5667720Y1560440D01*
X5675310Y1571840D01*
G01X5750830Y1600950D02*
X5740710Y1598420D01*
X5733110Y1592090D01*
X5728050Y1584500D01*
X5724250Y1574370D01*
X5722990Y1562970D01*
X5724250Y1551580D01*
X5728050Y1541450D01*
X5733110Y1533860D01*
X5740710Y1527530D01*
X5750830Y1525000D01*
X5760960Y1527530D01*
X5768560Y1533860D01*
X5773620Y1541450D01*
X5777420Y1551580D01*
X5778680Y1562970D01*
X5777420Y1574370D01*
X5773620Y1584500D01*
X5768560Y1592090D01*
X5760960Y1598420D01*
X5750830Y1600950D01*
G01X5523840Y1350000D02*
Y1425950D01*
X5555480D01*
X5565610Y1422150D01*
X5571940Y1417090D01*
X5574470Y1406960D01*
X5571940Y1396840D01*
X5564350Y1390510D01*
X5555480Y1386710D01*
X5523840D01*
G01X5555480D02*
X5574470Y1350000D01*
G01X5625940Y1381640D02*
X5634800Y1390510D01*
X5642400Y1395570D01*
X5652530Y1398100D01*
X5661390Y1395570D01*
X5667720Y1390510D01*
X5672780Y1382910D01*
X5674050Y1374050D01*
X5672780Y1366450D01*
X5667720Y1358860D01*
X5660120Y1352530D01*
X5651260Y1350000D01*
X5641130Y1352530D01*
X5632270Y1360120D01*
X5627210Y1371520D01*
X5625940Y1384180D01*
X5628470Y1400630D01*
X5632270Y1409500D01*
X5638600Y1418350D01*
X5647460Y1424680D01*
X5656320Y1425950D01*
X5665190Y1423420D01*
X5671520Y1417090D01*
G01X5750830Y1350000D02*
X5759700Y1351270D01*
X5769820Y1355060D01*
X5776150Y1361390D01*
X5778680Y1370250D01*
X5776150Y1379110D01*
X5768560Y1386710D01*
X5757160Y1390510D01*
X5744510D01*
X5736910Y1393040D01*
X5730580Y1399370D01*
X5728050Y1408230D01*
X5731850Y1417090D01*
X5740710Y1423420D01*
X5750830Y1425950D01*
X5760960Y1423420D01*
X5769820Y1417090D01*
X5773620Y1408230D01*
X5771090Y1399370D01*
X5764760Y1393040D01*
X5757160Y1390510D01*
X5744510D01*
X5733110Y1386710D01*
X5725520Y1379110D01*
X5722990Y1370250D01*
X5725520Y1361390D01*
X5731850Y1355060D01*
X5741970Y1351270D01*
X5750830Y1350000D01*
G01X5523840Y1175000D02*
Y1250950D01*
X5555480D01*
X5565610Y1247150D01*
X5571940Y1242090D01*
X5574470Y1231960D01*
X5571940Y1221840D01*
X5564350Y1215510D01*
X5555480Y1211710D01*
X5523840D01*
G01X5555480D02*
X5574470Y1175000D01*
G01X5625940Y1206640D02*
X5634800Y1215510D01*
X5642400Y1220570D01*
X5652530Y1223100D01*
X5661390Y1220570D01*
X5667720Y1215510D01*
X5672780Y1207910D01*
X5674050Y1199050D01*
X5672780Y1191450D01*
X5667720Y1183860D01*
X5660120Y1177530D01*
X5651260Y1175000D01*
X5641130Y1177530D01*
X5632270Y1185120D01*
X5627210Y1196520D01*
X5625940Y1209180D01*
X5628470Y1225630D01*
X5632270Y1234500D01*
X5638600Y1243350D01*
X5647460Y1249680D01*
X5656320Y1250950D01*
X5665190Y1248420D01*
X5671520Y1242090D01*
G01X5729310Y1183860D02*
X5738180Y1177530D01*
X5748300Y1175000D01*
X5758430Y1177530D01*
X5767290Y1185120D01*
X5773620Y1196520D01*
X5776150Y1207910D01*
Y1221840D01*
X5773620Y1233230D01*
X5767290Y1243350D01*
X5759700Y1248420D01*
X5750830Y1250950D01*
X5740710Y1248420D01*
X5733110Y1243350D01*
X5728050Y1235760D01*
X5725520Y1225630D01*
X5728050Y1216770D01*
X5734380Y1207910D01*
X5741970Y1202850D01*
X5750830Y1201580D01*
X5760960Y1204110D01*
X5768560Y1210440D01*
X5776150Y1221840D01*
G01X5907120Y4185500D02*
X5910920Y4193090D01*
X5913450Y4201950D01*
Y4212080D01*
X5909650Y4223470D01*
X5903320Y4232330D01*
X5895730Y4238660D01*
X5883070Y4243730D01*
X5871680Y4244990D01*
X5860280Y4242460D01*
X5852690Y4238660D01*
X5845090Y4231070D01*
X5840030Y4222210D01*
X5837500Y4213350D01*
Y4204480D01*
X5840030Y4195620D01*
X5843830Y4188030D01*
X5848890Y4181700D01*
G01X5837500Y4097310D02*
X5913450D01*
X5859020Y4144150D01*
Y4080860D01*
G01X5900790Y4035720D02*
X5908390Y4028120D01*
X5912180Y4019260D01*
X5913450Y4009130D01*
X5910920Y3996470D01*
X5904590Y3987610D01*
X5897000Y3985080D01*
X5889400Y3986350D01*
X5883070Y3991410D01*
X5870410Y4016730D01*
X5861550Y4028120D01*
X5848890Y4035720D01*
X5837500Y4038250D01*
Y3985080D01*
G01X5819620Y4773000D02*
X5823420Y4780590D01*
X5825950Y4789450D01*
Y4799580D01*
X5822150Y4810970D01*
X5815820Y4819830D01*
X5808230Y4826160D01*
X5795570Y4831230D01*
X5784180Y4832490D01*
X5772780Y4829960D01*
X5765190Y4826160D01*
X5757590Y4818570D01*
X5752530Y4809710D01*
X5750000Y4800850D01*
Y4791980D01*
X5752530Y4783120D01*
X5756330Y4775530D01*
X5761390Y4769200D01*
G01X5750000Y4684810D02*
X5825950D01*
X5771520Y4731650D01*
Y4668360D01*
G01X5765190Y4627010D02*
X5756330Y4619420D01*
X5751270Y4609290D01*
X5750000Y4597900D01*
X5751270Y4587770D01*
X5757590Y4577640D01*
X5765190Y4571320D01*
X5772780Y4570050D01*
X5781640Y4572580D01*
X5787970Y4581440D01*
X5790510Y4590300D01*
Y4601700D01*
G01Y4590300D02*
X5794300Y4582710D01*
X5800630Y4576380D01*
X5808230Y4573850D01*
X5815820Y4576380D01*
X5822150Y4582710D01*
X5825950Y4594100D01*
X5824680Y4605490D01*
X5819620Y4616890D01*
G01X5648840Y5100000D02*
Y5175950D01*
X5680480D01*
X5690610Y5172150D01*
X5696940Y5167090D01*
X5699470Y5156960D01*
X5696940Y5146840D01*
X5689350Y5140510D01*
X5680480Y5136710D01*
X5648840D01*
G01X5680480D02*
X5699470Y5100000D01*
G01X5753470Y5108860D02*
X5762340Y5102530D01*
X5772460Y5100000D01*
X5782590Y5102530D01*
X5791450Y5110120D01*
X5797780Y5121520D01*
X5800310Y5132910D01*
Y5146840D01*
X5797780Y5158230D01*
X5791450Y5168350D01*
X5783860Y5173420D01*
X5774990Y5175950D01*
X5764870Y5173420D01*
X5757270Y5168350D01*
X5752210Y5160760D01*
X5749680Y5150630D01*
X5752210Y5141770D01*
X5758540Y5132910D01*
X5766130Y5127850D01*
X5774990Y5126580D01*
X5785120Y5129110D01*
X5792720Y5135440D01*
X5800310Y5146840D01*
G01X5847990Y5111390D02*
X5855580Y5105060D01*
X5864440Y5101270D01*
X5875830Y5100000D01*
X5887230Y5102530D01*
X5896090Y5107590D01*
X5902420Y5116450D01*
X5903680Y5126580D01*
X5901150Y5136710D01*
X5894820Y5143040D01*
X5885960Y5148100D01*
X5877100Y5149370D01*
X5868240Y5148100D01*
X5856850Y5143040D01*
X5860640Y5175950D01*
X5894820D01*
G01X5976590Y4919300D02*
X5969000Y4923100D01*
X5960140Y4925630D01*
X5950010D01*
X5938620Y4921830D01*
X5929760Y4915500D01*
X5923430Y4907910D01*
X5918360Y4895250D01*
X5917100Y4883860D01*
X5919630Y4872460D01*
X5923430Y4864870D01*
X5931020Y4857270D01*
X5939880Y4852210D01*
X5948740Y4849680D01*
X5957610D01*
X5966470Y4852210D01*
X5974060Y4856010D01*
X5980390Y4861070D01*
G01X6049580Y4849680D02*
Y4925630D01*
X6034390Y4910440D01*
G01Y4849680D02*
X6064770D01*
G01X6150420Y4925630D02*
X6140300Y4923100D01*
X6132700Y4916770D01*
X6127640Y4909180D01*
X6123840Y4899050D01*
X6122580Y4887650D01*
X6123840Y4876260D01*
X6127640Y4866130D01*
X6132700Y4858540D01*
X6140300Y4852210D01*
X6150420Y4849680D01*
X6160550Y4852210D01*
X6168150Y4858540D01*
X6173210Y4866130D01*
X6177010Y4876260D01*
X6178270Y4887650D01*
X6177010Y4899050D01*
X6173210Y4909180D01*
X6168150Y4916770D01*
X6160550Y4923100D01*
X6150420Y4925630D01*
G01X6251260Y4849680D02*
Y4925630D01*
X6236070Y4910440D01*
G01Y4849680D02*
X6266450D01*
G01X5723420Y5574680D02*
Y5650630D01*
X5755060D01*
X5765190Y5646830D01*
X5771520Y5641770D01*
X5774050Y5631640D01*
X5771520Y5621520D01*
X5763930Y5615190D01*
X5755060Y5611390D01*
X5723420D01*
G01X5755060D02*
X5774050Y5574680D01*
G01X5849570D02*
Y5650630D01*
X5834380Y5635440D01*
G01Y5574680D02*
X5864760D01*
G01X5950410D02*
Y5650630D01*
X5935220Y5635440D01*
G01Y5574680D02*
X5965600D01*
G01X6023410Y5586070D02*
X6031000Y5579740D01*
X6039860Y5575950D01*
X6051250Y5574680D01*
X6062650Y5577210D01*
X6071510Y5582270D01*
X6077840Y5591130D01*
X6079100Y5601260D01*
X6076570Y5611390D01*
X6070240Y5617720D01*
X6061380Y5622780D01*
X6052520Y5624050D01*
X6043660Y5622780D01*
X6032270Y5617720D01*
X6036060Y5650630D01*
X6070240D01*
G01X5798840Y6230000D02*
Y6305950D01*
X5830480D01*
X5840610Y6302150D01*
X5846940Y6297090D01*
X5849470Y6286960D01*
X5846940Y6276840D01*
X5839350Y6270510D01*
X5830480Y6266710D01*
X5798840D01*
G01X5830480D02*
X5849470Y6230000D01*
G01X5924990D02*
X5933860Y6231270D01*
X5943980Y6235060D01*
X5950310Y6241390D01*
X5952840Y6250250D01*
X5950310Y6259110D01*
X5942720Y6266710D01*
X5931320Y6270510D01*
X5918670D01*
X5911070Y6273040D01*
X5904740Y6279370D01*
X5902210Y6288230D01*
X5906010Y6297090D01*
X5914870Y6303420D01*
X5924990Y6305950D01*
X5935120Y6303420D01*
X5943980Y6297090D01*
X5947780Y6288230D01*
X5945250Y6279370D01*
X5938920Y6273040D01*
X5931320Y6270510D01*
X5918670D01*
X5907270Y6266710D01*
X5899680Y6259110D01*
X5897150Y6250250D01*
X5899680Y6241390D01*
X5906010Y6235060D01*
X5916130Y6231270D01*
X5924990Y6230000D01*
G01X6004310Y6238860D02*
X6013180Y6232530D01*
X6023300Y6230000D01*
X6033430Y6232530D01*
X6042290Y6240120D01*
X6048620Y6251520D01*
X6051150Y6262910D01*
Y6276840D01*
X6048620Y6288230D01*
X6042290Y6298350D01*
X6034700Y6303420D01*
X6025830Y6305950D01*
X6015710Y6303420D01*
X6008110Y6298350D01*
X6003050Y6290760D01*
X6000520Y6280630D01*
X6003050Y6271770D01*
X6009380Y6262910D01*
X6016970Y6257850D01*
X6025830Y6256580D01*
X6035960Y6259110D01*
X6043560Y6265440D01*
X6051150Y6276840D01*
G01X5900000Y7623840D02*
X5824050D01*
Y7655480D01*
X5827850Y7665610D01*
X5832910Y7671940D01*
X5843040Y7674470D01*
X5853160Y7671940D01*
X5859490Y7664350D01*
X5863290Y7655480D01*
Y7623840D01*
G01Y7655480D02*
X5900000Y7674470D01*
G01X5891140Y7728470D02*
X5897470Y7737340D01*
X5900000Y7747460D01*
X5897470Y7757590D01*
X5889880Y7766450D01*
X5878480Y7772780D01*
X5867090Y7775310D01*
X5853160D01*
X5841770Y7772780D01*
X5831650Y7766450D01*
X5826580Y7758860D01*
X5824050Y7749990D01*
X5826580Y7739870D01*
X5831650Y7732270D01*
X5839240Y7727210D01*
X5849370Y7724680D01*
X5858230Y7727210D01*
X5867090Y7733540D01*
X5872150Y7741130D01*
X5873420Y7749990D01*
X5870890Y7760120D01*
X5864560Y7767720D01*
X5853160Y7775310D01*
G01X5836710Y7826780D02*
X5829110Y7834380D01*
X5825320Y7843240D01*
X5824050Y7853370D01*
X5826580Y7866030D01*
X5832910Y7874890D01*
X5840500Y7877420D01*
X5848100Y7876150D01*
X5854430Y7871090D01*
X5867090Y7845770D01*
X5875950Y7834380D01*
X5888610Y7826780D01*
X5900000Y7824250D01*
Y7877420D01*
G01X6317880Y5639500D02*
X6314080Y5631910D01*
X6311550Y5623050D01*
Y5612920D01*
X6315350Y5601530D01*
X6321680Y5592670D01*
X6329270Y5586340D01*
X6341930Y5581270D01*
X6353320Y5580010D01*
X6364720Y5582540D01*
X6372310Y5586340D01*
X6379910Y5593930D01*
X6384970Y5602790D01*
X6387500Y5611650D01*
Y5620520D01*
X6384970Y5629380D01*
X6381170Y5636970D01*
X6376110Y5643300D01*
G01Y5684650D02*
X6382440Y5692240D01*
X6386230Y5701100D01*
X6387500Y5712490D01*
X6384970Y5723890D01*
X6379910Y5732750D01*
X6371050Y5739080D01*
X6360920Y5740340D01*
X6350790Y5737810D01*
X6344460Y5731480D01*
X6339400Y5722620D01*
X6338130Y5713760D01*
X6339400Y5704900D01*
X6344460Y5693510D01*
X6311550Y5697300D01*
Y5731480D01*
G01X6355860Y5789280D02*
X6346990Y5798140D01*
X6341930Y5805740D01*
X6339400Y5815870D01*
X6341930Y5824730D01*
X6346990Y5831060D01*
X6354590Y5836120D01*
X6363450Y5837390D01*
X6371050Y5836120D01*
X6378640Y5831060D01*
X6384970Y5823460D01*
X6387500Y5814600D01*
X6384970Y5804470D01*
X6377380Y5795610D01*
X6365980Y5790550D01*
X6353320Y5789280D01*
X6336870Y5791810D01*
X6328000Y5795610D01*
X6319150Y5801940D01*
X6312820Y5810800D01*
X6311550Y5819660D01*
X6314080Y5828530D01*
X6320410Y5834860D01*
G01X6225000Y7573840D02*
X6149050D01*
Y7605480D01*
X6152850Y7615610D01*
X6157910Y7621940D01*
X6168040Y7624470D01*
X6178160Y7621940D01*
X6184490Y7614350D01*
X6188290Y7605480D01*
Y7573840D01*
G01Y7605480D02*
X6225000Y7624470D01*
G01Y7699990D02*
X6223730Y7708860D01*
X6219940Y7718980D01*
X6213610Y7725310D01*
X6204750Y7727840D01*
X6195890Y7725310D01*
X6188290Y7717720D01*
X6184490Y7706320D01*
Y7693670D01*
X6181960Y7686070D01*
X6175630Y7679740D01*
X6166770Y7677210D01*
X6157910Y7681010D01*
X6151580Y7689870D01*
X6149050Y7699990D01*
X6151580Y7710120D01*
X6157910Y7718980D01*
X6166770Y7722780D01*
X6175630Y7720250D01*
X6181960Y7713920D01*
X6184490Y7706320D01*
Y7693670D01*
X6188290Y7682270D01*
X6195890Y7674680D01*
X6204750Y7672150D01*
X6213610Y7674680D01*
X6219940Y7681010D01*
X6223730Y7691130D01*
X6225000Y7699990D01*
G01Y7800830D02*
X6223730Y7809700D01*
X6219940Y7819820D01*
X6213610Y7826150D01*
X6204750Y7828680D01*
X6195890Y7826150D01*
X6188290Y7818560D01*
X6184490Y7807160D01*
Y7794510D01*
X6181960Y7786910D01*
X6175630Y7780580D01*
X6166770Y7778050D01*
X6157910Y7781850D01*
X6151580Y7790710D01*
X6149050Y7800830D01*
X6151580Y7810960D01*
X6157910Y7819820D01*
X6166770Y7823620D01*
X6175630Y7821090D01*
X6181960Y7814760D01*
X6184490Y7807160D01*
Y7794510D01*
X6188290Y7783110D01*
X6195890Y7775520D01*
X6204750Y7772990D01*
X6213610Y7775520D01*
X6219940Y7781850D01*
X6223730Y7791970D01*
X6225000Y7800830D01*
G01X6305380Y7627000D02*
X6301580Y7619410D01*
X6299050Y7610550D01*
Y7600420D01*
X6302850Y7589030D01*
X6309180Y7580170D01*
X6316770Y7573840D01*
X6329430Y7568770D01*
X6340820Y7567510D01*
X6352220Y7570040D01*
X6359810Y7573840D01*
X6367410Y7581430D01*
X6372470Y7590290D01*
X6375000Y7599150D01*
Y7608020D01*
X6372470Y7616880D01*
X6368670Y7624470D01*
X6363610Y7630800D01*
G01X6375000Y7697460D02*
X6358550Y7699990D01*
X6344620Y7703790D01*
X6331960Y7708860D01*
X6318040Y7715190D01*
X6299050Y7725310D01*
Y7674680D01*
G01X6375000Y7816030D02*
X6299050D01*
X6353480Y7769190D01*
Y7832480D01*
G01X6723840Y3000000D02*
Y3075950D01*
X6755480D01*
X6765610Y3072150D01*
X6771940Y3067090D01*
X6774470Y3056960D01*
X6771940Y3046840D01*
X6764350Y3040510D01*
X6755480Y3036710D01*
X6723840D01*
G01X6755480D02*
X6774470Y3000000D01*
G01X6825940Y3063290D02*
X6833540Y3070890D01*
X6842400Y3074680D01*
X6852530Y3075950D01*
X6865190Y3073420D01*
X6874050Y3067090D01*
X6876580Y3059500D01*
X6875310Y3051900D01*
X6870250Y3045570D01*
X6844930Y3032910D01*
X6833540Y3024050D01*
X6825940Y3011390D01*
X6823410Y3000000D01*
X6876580D01*
G01X6966030D02*
Y3075950D01*
X6919190Y3021520D01*
X6982480D01*
G01X6777000Y4719620D02*
X6769410Y4723420D01*
X6760550Y4725950D01*
X6750420D01*
X6739030Y4722150D01*
X6730170Y4715820D01*
X6723840Y4708230D01*
X6718770Y4695570D01*
X6717510Y4684180D01*
X6720040Y4672780D01*
X6723840Y4665190D01*
X6731430Y4657590D01*
X6740290Y4652530D01*
X6749150Y4650000D01*
X6758020D01*
X6766880Y4652530D01*
X6774470Y4656330D01*
X6780800Y4661390D01*
G01X6825940Y4713290D02*
X6833540Y4720890D01*
X6842400Y4724680D01*
X6852530Y4725950D01*
X6865190Y4723420D01*
X6874050Y4717090D01*
X6876580Y4709500D01*
X6875310Y4701900D01*
X6870250Y4695570D01*
X6844930Y4682910D01*
X6833540Y4674050D01*
X6825940Y4661390D01*
X6823410Y4650000D01*
X6876580D01*
G01X6948300D02*
X6950830Y4666450D01*
X6954630Y4680380D01*
X6959700Y4693040D01*
X6966030Y4706960D01*
X6976150Y4725950D01*
X6925520D01*
G01X6777000Y4869620D02*
X6769410Y4873420D01*
X6760550Y4875950D01*
X6750420D01*
X6739030Y4872150D01*
X6730170Y4865820D01*
X6723840Y4858230D01*
X6718770Y4845570D01*
X6717510Y4834180D01*
X6720040Y4822780D01*
X6723840Y4815190D01*
X6731430Y4807590D01*
X6740290Y4802530D01*
X6749150Y4800000D01*
X6758020D01*
X6766880Y4802530D01*
X6774470Y4806330D01*
X6780800Y4811390D01*
G01X6825940Y4863290D02*
X6833540Y4870890D01*
X6842400Y4874680D01*
X6852530Y4875950D01*
X6865190Y4873420D01*
X6874050Y4867090D01*
X6876580Y4859500D01*
X6875310Y4851900D01*
X6870250Y4845570D01*
X6844930Y4832910D01*
X6833540Y4824050D01*
X6825940Y4811390D01*
X6823410Y4800000D01*
X6876580D01*
G01X6950830D02*
X6959700Y4801270D01*
X6969820Y4805060D01*
X6976150Y4811390D01*
X6978680Y4820250D01*
X6976150Y4829110D01*
X6968560Y4836710D01*
X6957160Y4840510D01*
X6944510D01*
X6936910Y4843040D01*
X6930580Y4849370D01*
X6928050Y4858230D01*
X6931850Y4867090D01*
X6940710Y4873420D01*
X6950830Y4875950D01*
X6960960Y4873420D01*
X6969820Y4867090D01*
X6973620Y4858230D01*
X6971090Y4849370D01*
X6964760Y4843040D01*
X6957160Y4840510D01*
X6944510D01*
X6933110Y4836710D01*
X6925520Y4829110D01*
X6922990Y4820250D01*
X6925520Y4811390D01*
X6931850Y4805060D01*
X6941970Y4801270D01*
X6950830Y4800000D01*
G01X6777000Y4569620D02*
X6769410Y4573420D01*
X6760550Y4575950D01*
X6750420D01*
X6739030Y4572150D01*
X6730170Y4565820D01*
X6723840Y4558230D01*
X6718770Y4545570D01*
X6717510Y4534180D01*
X6720040Y4522780D01*
X6723840Y4515190D01*
X6731430Y4507590D01*
X6740290Y4502530D01*
X6749150Y4500000D01*
X6758020D01*
X6766880Y4502530D01*
X6774470Y4506330D01*
X6780800Y4511390D01*
G01X6825940Y4563290D02*
X6833540Y4570890D01*
X6842400Y4574680D01*
X6852530Y4575950D01*
X6865190Y4573420D01*
X6874050Y4567090D01*
X6876580Y4559500D01*
X6875310Y4551900D01*
X6870250Y4545570D01*
X6844930Y4532910D01*
X6833540Y4524050D01*
X6825940Y4511390D01*
X6823410Y4500000D01*
X6876580D01*
G01X6929310Y4508860D02*
X6938180Y4502530D01*
X6948300Y4500000D01*
X6958430Y4502530D01*
X6967290Y4510120D01*
X6973620Y4521520D01*
X6976150Y4532910D01*
Y4546840D01*
X6973620Y4558230D01*
X6967290Y4568350D01*
X6959700Y4573420D01*
X6950830Y4575950D01*
X6940710Y4573420D01*
X6933110Y4568350D01*
X6928050Y4560760D01*
X6925520Y4550630D01*
X6928050Y4541770D01*
X6934380Y4532910D01*
X6941970Y4527850D01*
X6950830Y4526580D01*
X6960960Y4529110D01*
X6968560Y4535440D01*
X6976150Y4546840D01*
G01X6460920Y5050000D02*
Y5125950D01*
X6492560D01*
X6502690Y5122150D01*
X6509020Y5117090D01*
X6511550Y5106960D01*
X6509020Y5096840D01*
X6501430Y5090510D01*
X6492560Y5086710D01*
X6460920D01*
G01X6492560D02*
X6511550Y5050000D01*
G01X6587070D02*
Y5125950D01*
X6571880Y5110760D01*
G01Y5050000D02*
X6602260D01*
G01X6687910D02*
Y5125950D01*
X6672720Y5110760D01*
G01Y5050000D02*
X6703100D01*
G01X6788750D02*
Y5125950D01*
X6773560Y5110760D01*
G01Y5050000D02*
X6803940D01*
G01X6530380Y5727000D02*
X6526580Y5719410D01*
X6524050Y5710550D01*
Y5700420D01*
X6527850Y5689030D01*
X6534180Y5680170D01*
X6541770Y5673840D01*
X6554430Y5668770D01*
X6565820Y5667510D01*
X6577220Y5670040D01*
X6584810Y5673840D01*
X6592410Y5681430D01*
X6597470Y5690290D01*
X6600000Y5699150D01*
Y5708020D01*
X6597470Y5716880D01*
X6593670Y5724470D01*
X6588610Y5730800D01*
G01Y5772150D02*
X6594940Y5779740D01*
X6598730Y5788600D01*
X6600000Y5799990D01*
X6597470Y5811390D01*
X6592410Y5820250D01*
X6583550Y5826580D01*
X6573420Y5827840D01*
X6563290Y5825310D01*
X6556960Y5818980D01*
X6551900Y5810120D01*
X6550630Y5801260D01*
X6551900Y5792400D01*
X6556960Y5781010D01*
X6524050Y5784800D01*
Y5818980D01*
G01X6600000Y5898300D02*
X6583550Y5900830D01*
X6569620Y5904630D01*
X6556960Y5909700D01*
X6543040Y5916030D01*
X6524050Y5926150D01*
Y5875520D01*
G01X6700000Y7573840D02*
X6624050D01*
Y7605480D01*
X6627850Y7615610D01*
X6632910Y7621940D01*
X6643040Y7624470D01*
X6653160Y7621940D01*
X6659490Y7614350D01*
X6663290Y7605480D01*
Y7573840D01*
G01Y7605480D02*
X6700000Y7624470D01*
G01X6691140Y7678470D02*
X6697470Y7687340D01*
X6700000Y7697460D01*
X6697470Y7707590D01*
X6689880Y7716450D01*
X6678480Y7722780D01*
X6667090Y7725310D01*
X6653160D01*
X6641770Y7722780D01*
X6631650Y7716450D01*
X6626580Y7708860D01*
X6624050Y7699990D01*
X6626580Y7689870D01*
X6631650Y7682270D01*
X6639240Y7677210D01*
X6649370Y7674680D01*
X6658230Y7677210D01*
X6667090Y7683540D01*
X6672150Y7691130D01*
X6673420Y7699990D01*
X6670890Y7710120D01*
X6664560Y7717720D01*
X6653160Y7725310D01*
G01X6700000Y7816030D02*
X6624050D01*
X6678480Y7769190D01*
Y7832480D01*
G01X6480380Y7627000D02*
X6476580Y7619410D01*
X6474050Y7610550D01*
Y7600420D01*
X6477850Y7589030D01*
X6484180Y7580170D01*
X6491770Y7573840D01*
X6504430Y7568770D01*
X6515820Y7567510D01*
X6527220Y7570040D01*
X6534810Y7573840D01*
X6542410Y7581430D01*
X6547470Y7590290D01*
X6550000Y7599150D01*
Y7608020D01*
X6547470Y7616880D01*
X6543670Y7624470D01*
X6538610Y7630800D01*
G01X6550000Y7697460D02*
X6533550Y7699990D01*
X6519620Y7703790D01*
X6506960Y7708860D01*
X6493040Y7715190D01*
X6474050Y7725310D01*
Y7674680D01*
G01X6534810Y7772990D02*
X6543670Y7780580D01*
X6548730Y7790710D01*
X6550000Y7802100D01*
X6548730Y7812230D01*
X6542410Y7822360D01*
X6534810Y7828680D01*
X6527220Y7829950D01*
X6518360Y7827420D01*
X6512030Y7818560D01*
X6509490Y7809700D01*
Y7798300D01*
G01Y7809700D02*
X6505700Y7817290D01*
X6499370Y7823620D01*
X6491770Y7826150D01*
X6484180Y7823620D01*
X6477850Y7817290D01*
X6474050Y7805900D01*
X6475320Y7794510D01*
X6480380Y7783110D01*
G01X6805380Y7627000D02*
X6801580Y7619410D01*
X6799050Y7610550D01*
Y7600420D01*
X6802850Y7589030D01*
X6809180Y7580170D01*
X6816770Y7573840D01*
X6829430Y7568770D01*
X6840820Y7567510D01*
X6852220Y7570040D01*
X6859810Y7573840D01*
X6867410Y7581430D01*
X6872470Y7590290D01*
X6875000Y7599150D01*
Y7608020D01*
X6872470Y7616880D01*
X6868670Y7624470D01*
X6863610Y7630800D01*
G01X6843360Y7675940D02*
X6834490Y7684800D01*
X6829430Y7692400D01*
X6826900Y7702530D01*
X6829430Y7711390D01*
X6834490Y7717720D01*
X6842090Y7722780D01*
X6850950Y7724050D01*
X6858550Y7722780D01*
X6866140Y7717720D01*
X6872470Y7710120D01*
X6875000Y7701260D01*
X6872470Y7691130D01*
X6864880Y7682270D01*
X6853480Y7677210D01*
X6840820Y7675940D01*
X6824370Y7678470D01*
X6815500Y7682270D01*
X6806650Y7688600D01*
X6800320Y7697460D01*
X6799050Y7706320D01*
X6801580Y7715190D01*
X6807910Y7721520D01*
G01X6875000Y7798300D02*
X6858550Y7800830D01*
X6844620Y7804630D01*
X6831960Y7809700D01*
X6818040Y7816030D01*
X6799050Y7826150D01*
Y7775520D01*
G01X7352000Y5544620D02*
X7344410Y5548420D01*
X7335550Y5550950D01*
X7325420D01*
X7314030Y5547150D01*
X7305170Y5540820D01*
X7298840Y5533230D01*
X7293770Y5520570D01*
X7292510Y5509180D01*
X7295040Y5497780D01*
X7298840Y5490190D01*
X7306430Y5482590D01*
X7315290Y5477530D01*
X7324150Y5475000D01*
X7333020D01*
X7341880Y5477530D01*
X7349470Y5481330D01*
X7355800Y5486390D01*
G01X7400940Y5506640D02*
X7409800Y5515510D01*
X7417400Y5520570D01*
X7427530Y5523100D01*
X7436390Y5520570D01*
X7442720Y5515510D01*
X7447780Y5507910D01*
X7449050Y5499050D01*
X7447780Y5491450D01*
X7442720Y5483860D01*
X7435120Y5477530D01*
X7426260Y5475000D01*
X7416130Y5477530D01*
X7407270Y5485120D01*
X7402210Y5496520D01*
X7400940Y5509180D01*
X7403470Y5525630D01*
X7407270Y5534500D01*
X7413600Y5543350D01*
X7422460Y5549680D01*
X7431320Y5550950D01*
X7440190Y5548420D01*
X7446520Y5542090D01*
G01X7497990Y5486390D02*
X7505580Y5480060D01*
X7514440Y5476270D01*
X7525830Y5475000D01*
X7537230Y5477530D01*
X7546090Y5482590D01*
X7552420Y5491450D01*
X7553680Y5501580D01*
X7551150Y5511710D01*
X7544820Y5518040D01*
X7535960Y5523100D01*
X7527100Y5524370D01*
X7518240Y5523100D01*
X7506850Y5518040D01*
X7510640Y5550950D01*
X7544820D01*
G01X7352000Y7194620D02*
X7344410Y7198420D01*
X7335550Y7200950D01*
X7325420D01*
X7314030Y7197150D01*
X7305170Y7190820D01*
X7298840Y7183230D01*
X7293770Y7170570D01*
X7292510Y7159180D01*
X7295040Y7147780D01*
X7298840Y7140190D01*
X7306430Y7132590D01*
X7315290Y7127530D01*
X7324150Y7125000D01*
X7333020D01*
X7341880Y7127530D01*
X7349470Y7131330D01*
X7355800Y7136390D01*
G01X7422460Y7125000D02*
X7424990Y7141450D01*
X7428790Y7155380D01*
X7433860Y7168040D01*
X7440190Y7181960D01*
X7450310Y7200950D01*
X7399680D01*
G01X7497990Y7136390D02*
X7505580Y7130060D01*
X7514440Y7126270D01*
X7525830Y7125000D01*
X7537230Y7127530D01*
X7546090Y7132590D01*
X7552420Y7141450D01*
X7553680Y7151580D01*
X7551150Y7161710D01*
X7544820Y7168040D01*
X7535960Y7173100D01*
X7527100Y7174370D01*
X7518240Y7173100D01*
X7506850Y7168040D01*
X7510640Y7200950D01*
X7544820D01*
G01X7298840Y7275000D02*
Y7350950D01*
X7330480D01*
X7340610Y7347150D01*
X7346940Y7342090D01*
X7349470Y7331960D01*
X7346940Y7321840D01*
X7339350Y7315510D01*
X7330480Y7311710D01*
X7298840D01*
G01X7330480D02*
X7349470Y7275000D01*
G01X7403470Y7283860D02*
X7412340Y7277530D01*
X7422460Y7275000D01*
X7432590Y7277530D01*
X7441450Y7285120D01*
X7447780Y7296520D01*
X7450310Y7307910D01*
Y7321840D01*
X7447780Y7333230D01*
X7441450Y7343350D01*
X7433860Y7348420D01*
X7424990Y7350950D01*
X7414870Y7348420D01*
X7407270Y7343350D01*
X7402210Y7335760D01*
X7399680Y7325630D01*
X7402210Y7316770D01*
X7408540Y7307910D01*
X7416130Y7302850D01*
X7424990Y7301580D01*
X7435120Y7304110D01*
X7442720Y7310440D01*
X7450310Y7321840D01*
G01X7497990Y7290190D02*
X7505580Y7281330D01*
X7515710Y7276270D01*
X7527100Y7275000D01*
X7537230Y7276270D01*
X7547360Y7282590D01*
X7553680Y7290190D01*
X7554950Y7297780D01*
X7552420Y7306640D01*
X7543560Y7312970D01*
X7534700Y7315510D01*
X7523300D01*
G01X7534700D02*
X7542290Y7319300D01*
X7548620Y7325630D01*
X7551150Y7333230D01*
X7548620Y7340820D01*
X7542290Y7347150D01*
X7530900Y7350950D01*
X7519510Y7349680D01*
X7508110Y7344620D01*
G01X7352000Y7519620D02*
X7344410Y7523420D01*
X7335550Y7525950D01*
X7325420D01*
X7314030Y7522150D01*
X7305170Y7515820D01*
X7298840Y7508230D01*
X7293770Y7495570D01*
X7292510Y7484180D01*
X7295040Y7472780D01*
X7298840Y7465190D01*
X7306430Y7457590D01*
X7315290Y7452530D01*
X7324150Y7450000D01*
X7333020D01*
X7341880Y7452530D01*
X7349470Y7456330D01*
X7355800Y7461390D01*
G01X7400940Y7481640D02*
X7409800Y7490510D01*
X7417400Y7495570D01*
X7427530Y7498100D01*
X7436390Y7495570D01*
X7442720Y7490510D01*
X7447780Y7482910D01*
X7449050Y7474050D01*
X7447780Y7466450D01*
X7442720Y7458860D01*
X7435120Y7452530D01*
X7426260Y7450000D01*
X7416130Y7452530D01*
X7407270Y7460120D01*
X7402210Y7471520D01*
X7400940Y7484180D01*
X7403470Y7500630D01*
X7407270Y7509500D01*
X7413600Y7518350D01*
X7422460Y7524680D01*
X7431320Y7525950D01*
X7440190Y7523420D01*
X7446520Y7517090D01*
G01X7525830Y7450000D02*
Y7525950D01*
X7510640Y7510760D01*
G01Y7450000D02*
X7541020D01*
G01X7827000Y1469300D02*
X7819410Y1473100D01*
X7810550Y1475630D01*
X7800420D01*
X7789030Y1471830D01*
X7780170Y1465500D01*
X7773840Y1457910D01*
X7768770Y1445250D01*
X7767510Y1433860D01*
X7770040Y1422460D01*
X7773840Y1414870D01*
X7781430Y1407270D01*
X7790290Y1402210D01*
X7799150Y1399680D01*
X7808020D01*
X7816880Y1402210D01*
X7824470Y1406010D01*
X7830800Y1411070D01*
G01X7875940Y1462970D02*
X7883540Y1470570D01*
X7892400Y1474360D01*
X7902530Y1475630D01*
X7915190Y1473100D01*
X7924050Y1466770D01*
X7926580Y1459180D01*
X7925310Y1451580D01*
X7920250Y1445250D01*
X7894930Y1432590D01*
X7883540Y1423730D01*
X7875940Y1411070D01*
X7873410Y1399680D01*
X7926580D01*
G01X8000830D02*
Y1475630D01*
X7985640Y1460440D01*
G01Y1399680D02*
X8016020D01*
G01X7827000Y1619300D02*
X7819410Y1623100D01*
X7810550Y1625630D01*
X7800420D01*
X7789030Y1621830D01*
X7780170Y1615500D01*
X7773840Y1607910D01*
X7768770Y1595250D01*
X7767510Y1583860D01*
X7770040Y1572460D01*
X7773840Y1564870D01*
X7781430Y1557270D01*
X7790290Y1552210D01*
X7799150Y1549680D01*
X7808020D01*
X7816880Y1552210D01*
X7824470Y1556010D01*
X7830800Y1561070D01*
G01X7875940Y1612970D02*
X7883540Y1620570D01*
X7892400Y1624360D01*
X7902530Y1625630D01*
X7915190Y1623100D01*
X7924050Y1616770D01*
X7926580Y1609180D01*
X7925310Y1601580D01*
X7920250Y1595250D01*
X7894930Y1582590D01*
X7883540Y1573730D01*
X7875940Y1561070D01*
X7873410Y1549680D01*
X7926580D01*
G01X8000830Y1625630D02*
X7990710Y1623100D01*
X7983110Y1616770D01*
X7978050Y1609180D01*
X7974250Y1599050D01*
X7972990Y1587650D01*
X7974250Y1576260D01*
X7978050Y1566130D01*
X7983110Y1558540D01*
X7990710Y1552210D01*
X8000830Y1549680D01*
X8010960Y1552210D01*
X8018560Y1558540D01*
X8023620Y1566130D01*
X8027420Y1576260D01*
X8028680Y1587650D01*
X8027420Y1599050D01*
X8023620Y1609180D01*
X8018560Y1616770D01*
X8010960Y1623100D01*
X8000830Y1625630D01*
G01X7402000Y6969620D02*
X7394410Y6973420D01*
X7385550Y6975950D01*
X7375420D01*
X7364030Y6972150D01*
X7355170Y6965820D01*
X7348840Y6958230D01*
X7343770Y6945570D01*
X7342510Y6934180D01*
X7345040Y6922780D01*
X7348840Y6915190D01*
X7356430Y6907590D01*
X7365290Y6902530D01*
X7374150Y6900000D01*
X7383020D01*
X7391880Y6902530D01*
X7399470Y6906330D01*
X7405800Y6911390D01*
G01X7450940Y6931640D02*
X7459800Y6940510D01*
X7467400Y6945570D01*
X7477530Y6948100D01*
X7486390Y6945570D01*
X7492720Y6940510D01*
X7497780Y6932910D01*
X7499050Y6924050D01*
X7497780Y6916450D01*
X7492720Y6908860D01*
X7485120Y6902530D01*
X7476260Y6900000D01*
X7466130Y6902530D01*
X7457270Y6910120D01*
X7452210Y6921520D01*
X7450940Y6934180D01*
X7453470Y6950630D01*
X7457270Y6959500D01*
X7463600Y6968350D01*
X7472460Y6974680D01*
X7481320Y6975950D01*
X7490190Y6973420D01*
X7496520Y6967090D01*
G01X7547990Y6915190D02*
X7555580Y6906330D01*
X7565710Y6901270D01*
X7577100Y6900000D01*
X7587230Y6901270D01*
X7597360Y6907590D01*
X7603680Y6915190D01*
X7604950Y6922780D01*
X7602420Y6931640D01*
X7593560Y6937970D01*
X7584700Y6940510D01*
X7573300D01*
G01X7584700D02*
X7592290Y6944300D01*
X7598620Y6950630D01*
X7601150Y6958230D01*
X7598620Y6965820D01*
X7592290Y6972150D01*
X7580900Y6975950D01*
X7569510Y6974680D01*
X7558110Y6969620D01*
G01X8152000Y2194620D02*
X8144410Y2198420D01*
X8135550Y2200950D01*
X8125420D01*
X8114030Y2197150D01*
X8105170Y2190820D01*
X8098840Y2183230D01*
X8093770Y2170570D01*
X8092510Y2159180D01*
X8095040Y2147780D01*
X8098840Y2140190D01*
X8106430Y2132590D01*
X8115290Y2127530D01*
X8124150Y2125000D01*
X8133020D01*
X8141880Y2127530D01*
X8149470Y2131330D01*
X8155800Y2136390D01*
G01X8200940Y2188290D02*
X8208540Y2195890D01*
X8217400Y2199680D01*
X8227530Y2200950D01*
X8240190Y2198420D01*
X8249050Y2192090D01*
X8251580Y2184500D01*
X8250310Y2176900D01*
X8245250Y2170570D01*
X8219930Y2157910D01*
X8208540Y2149050D01*
X8200940Y2136390D01*
X8198410Y2125000D01*
X8251580D01*
G01X8301780Y2188290D02*
X8309380Y2195890D01*
X8318240Y2199680D01*
X8328370Y2200950D01*
X8341030Y2198420D01*
X8349890Y2192090D01*
X8352420Y2184500D01*
X8351150Y2176900D01*
X8346090Y2170570D01*
X8320770Y2157910D01*
X8309380Y2149050D01*
X8301780Y2136390D01*
X8299250Y2125000D01*
X8352420D01*
G01X8461340Y4712500D02*
Y4788450D01*
X8492980D01*
X8503110Y4784650D01*
X8509440Y4779590D01*
X8511970Y4769460D01*
X8509440Y4759340D01*
X8501850Y4753010D01*
X8492980Y4749210D01*
X8461340D01*
G01X8492980D02*
X8511970Y4712500D01*
G01X8563440Y4775790D02*
X8571040Y4783390D01*
X8579900Y4787180D01*
X8590030Y4788450D01*
X8602690Y4785920D01*
X8611550Y4779590D01*
X8614080Y4772000D01*
X8612810Y4764400D01*
X8607750Y4758070D01*
X8582430Y4745410D01*
X8571040Y4736550D01*
X8563440Y4723890D01*
X8560910Y4712500D01*
X8614080D01*
G01X8664280Y4744140D02*
X8673140Y4753010D01*
X8680740Y4758070D01*
X8690870Y4760600D01*
X8699730Y4758070D01*
X8706060Y4753010D01*
X8711120Y4745410D01*
X8712390Y4736550D01*
X8711120Y4728950D01*
X8706060Y4721360D01*
X8698460Y4715030D01*
X8689600Y4712500D01*
X8679470Y4715030D01*
X8670610Y4722620D01*
X8665550Y4734020D01*
X8664280Y4746680D01*
X8666810Y4763130D01*
X8670610Y4772000D01*
X8676940Y4780850D01*
X8685800Y4787180D01*
X8694660Y4788450D01*
X8703530Y4785920D01*
X8709860Y4779590D01*
G01X8461340Y5000000D02*
Y5075950D01*
X8492980D01*
X8503110Y5072150D01*
X8509440Y5067090D01*
X8511970Y5056960D01*
X8509440Y5046840D01*
X8501850Y5040510D01*
X8492980Y5036710D01*
X8461340D01*
G01X8492980D02*
X8511970Y5000000D01*
G01X8563440Y5063290D02*
X8571040Y5070890D01*
X8579900Y5074680D01*
X8590030Y5075950D01*
X8602690Y5073420D01*
X8611550Y5067090D01*
X8614080Y5059500D01*
X8612810Y5051900D01*
X8607750Y5045570D01*
X8582430Y5032910D01*
X8571040Y5024050D01*
X8563440Y5011390D01*
X8560910Y5000000D01*
X8614080D01*
G01X8688330D02*
X8697200Y5001270D01*
X8707320Y5005060D01*
X8713650Y5011390D01*
X8716180Y5020250D01*
X8713650Y5029110D01*
X8706060Y5036710D01*
X8694660Y5040510D01*
X8682010D01*
X8674410Y5043040D01*
X8668080Y5049370D01*
X8665550Y5058230D01*
X8669350Y5067090D01*
X8678210Y5073420D01*
X8688330Y5075950D01*
X8698460Y5073420D01*
X8707320Y5067090D01*
X8711120Y5058230D01*
X8708590Y5049370D01*
X8702260Y5043040D01*
X8694660Y5040510D01*
X8682010D01*
X8670610Y5036710D01*
X8663020Y5029110D01*
X8660490Y5020250D01*
X8663020Y5011390D01*
X8669350Y5005060D01*
X8679470Y5001270D01*
X8688330Y5000000D01*
G01X8461340Y4875000D02*
Y4950950D01*
X8492980D01*
X8503110Y4947150D01*
X8509440Y4942090D01*
X8511970Y4931960D01*
X8509440Y4921840D01*
X8501850Y4915510D01*
X8492980Y4911710D01*
X8461340D01*
G01X8492980D02*
X8511970Y4875000D01*
G01X8563440Y4938290D02*
X8571040Y4945890D01*
X8579900Y4949680D01*
X8590030Y4950950D01*
X8602690Y4948420D01*
X8611550Y4942090D01*
X8614080Y4934500D01*
X8612810Y4926900D01*
X8607750Y4920570D01*
X8582430Y4907910D01*
X8571040Y4899050D01*
X8563440Y4886390D01*
X8560910Y4875000D01*
X8614080D01*
G01X8685800D02*
X8688330Y4891450D01*
X8692130Y4905380D01*
X8697200Y4918040D01*
X8703530Y4931960D01*
X8713650Y4950950D01*
X8663020D01*
G01X8573840Y6075000D02*
Y6150950D01*
X8605480D01*
X8615610Y6147150D01*
X8621940Y6142090D01*
X8624470Y6131960D01*
X8621940Y6121840D01*
X8614350Y6115510D01*
X8605480Y6111710D01*
X8573840D01*
G01X8605480D02*
X8624470Y6075000D01*
G01X8675940Y6138290D02*
X8683540Y6145890D01*
X8692400Y6149680D01*
X8702530Y6150950D01*
X8715190Y6148420D01*
X8724050Y6142090D01*
X8726580Y6134500D01*
X8725310Y6126900D01*
X8720250Y6120570D01*
X8694930Y6107910D01*
X8683540Y6099050D01*
X8675940Y6086390D01*
X8673410Y6075000D01*
X8726580D01*
G01X8800830D02*
Y6150950D01*
X8785640Y6135760D01*
G01Y6075000D02*
X8816020D01*
G01X8548840Y5900000D02*
Y5975950D01*
X8580480D01*
X8590610Y5972150D01*
X8596940Y5967090D01*
X8599470Y5956960D01*
X8596940Y5946840D01*
X8589350Y5940510D01*
X8580480Y5936710D01*
X8548840D01*
G01X8580480D02*
X8599470Y5900000D01*
G01X8650940Y5963290D02*
X8658540Y5970890D01*
X8667400Y5974680D01*
X8677530Y5975950D01*
X8690190Y5973420D01*
X8699050Y5967090D01*
X8701580Y5959500D01*
X8700310Y5951900D01*
X8695250Y5945570D01*
X8669930Y5932910D01*
X8658540Y5924050D01*
X8650940Y5911390D01*
X8648410Y5900000D01*
X8701580D01*
G01X8747990Y5915190D02*
X8755580Y5906330D01*
X8765710Y5901270D01*
X8777100Y5900000D01*
X8787230Y5901270D01*
X8797360Y5907590D01*
X8803680Y5915190D01*
X8804950Y5922780D01*
X8802420Y5931640D01*
X8793560Y5937970D01*
X8784700Y5940510D01*
X8773300D01*
G01X8784700D02*
X8792290Y5944300D01*
X8798620Y5950630D01*
X8801150Y5958230D01*
X8798620Y5965820D01*
X8792290Y5972150D01*
X8780900Y5975950D01*
X8769510Y5974680D01*
X8758110Y5969620D01*
G01X8736340Y7392500D02*
Y7468450D01*
X8767980D01*
X8778110Y7464650D01*
X8784440Y7459590D01*
X8786970Y7449460D01*
X8784440Y7439340D01*
X8776850Y7433010D01*
X8767980Y7429210D01*
X8736340D01*
G01X8767980D02*
X8786970Y7392500D01*
G01X8862490D02*
X8871360Y7393770D01*
X8881480Y7397560D01*
X8887810Y7403890D01*
X8890340Y7412750D01*
X8887810Y7421610D01*
X8880220Y7429210D01*
X8868820Y7433010D01*
X8856170D01*
X8848570Y7435540D01*
X8842240Y7441870D01*
X8839710Y7450730D01*
X8843510Y7459590D01*
X8852370Y7465920D01*
X8862490Y7468450D01*
X8872620Y7465920D01*
X8881480Y7459590D01*
X8885280Y7450730D01*
X8882750Y7441870D01*
X8876420Y7435540D01*
X8868820Y7433010D01*
X8856170D01*
X8844770Y7429210D01*
X8837180Y7421610D01*
X8834650Y7412750D01*
X8837180Y7403890D01*
X8843510Y7397560D01*
X8853630Y7393770D01*
X8862490Y7392500D01*
G01X8978530D02*
Y7468450D01*
X8931690Y7414020D01*
X8994980D01*
G01X9323840Y2687500D02*
Y2763450D01*
X9355480D01*
X9365610Y2759650D01*
X9371940Y2754590D01*
X9374470Y2744460D01*
X9371940Y2734340D01*
X9364350Y2728010D01*
X9355480Y2724210D01*
X9323840D01*
G01X9355480D02*
X9374470Y2687500D01*
G01X9425940Y2750790D02*
X9433540Y2758390D01*
X9442400Y2762180D01*
X9452530Y2763450D01*
X9465190Y2760920D01*
X9474050Y2754590D01*
X9476580Y2747000D01*
X9475310Y2739400D01*
X9470250Y2733070D01*
X9444930Y2720410D01*
X9433540Y2711550D01*
X9425940Y2698890D01*
X9423410Y2687500D01*
X9476580D01*
G01X9529310Y2696360D02*
X9538180Y2690030D01*
X9548300Y2687500D01*
X9558430Y2690030D01*
X9567290Y2697620D01*
X9573620Y2709020D01*
X9576150Y2720410D01*
Y2734340D01*
X9573620Y2745730D01*
X9567290Y2755850D01*
X9559700Y2760920D01*
X9550830Y2763450D01*
X9540710Y2760920D01*
X9533110Y2755850D01*
X9528050Y2748260D01*
X9525520Y2738130D01*
X9528050Y2729270D01*
X9534380Y2720410D01*
X9541970Y2715350D01*
X9550830Y2714080D01*
X9560960Y2716610D01*
X9568560Y2722940D01*
X9576150Y2734340D01*
G01X9311340Y4062500D02*
Y4138450D01*
X9342980D01*
X9353110Y4134650D01*
X9359440Y4129590D01*
X9361970Y4119460D01*
X9359440Y4109340D01*
X9351850Y4103010D01*
X9342980Y4099210D01*
X9311340D01*
G01X9342980D02*
X9361970Y4062500D01*
G01X9409650Y4077690D02*
X9417240Y4068830D01*
X9427370Y4063770D01*
X9438760Y4062500D01*
X9448890Y4063770D01*
X9459020Y4070090D01*
X9465340Y4077690D01*
X9466610Y4085280D01*
X9464080Y4094140D01*
X9455220Y4100470D01*
X9446360Y4103010D01*
X9434960D01*
G01X9446360D02*
X9453950Y4106800D01*
X9460280Y4113130D01*
X9462810Y4120730D01*
X9460280Y4128320D01*
X9453950Y4134650D01*
X9442560Y4138450D01*
X9431170Y4137180D01*
X9419770Y4132120D01*
G01X9514280Y4125790D02*
X9521880Y4133390D01*
X9530740Y4137180D01*
X9540870Y4138450D01*
X9553530Y4135920D01*
X9562390Y4129590D01*
X9564920Y4122000D01*
X9563650Y4114400D01*
X9558590Y4108070D01*
X9533270Y4095410D01*
X9521880Y4086550D01*
X9514280Y4073890D01*
X9511750Y4062500D01*
X9564920D01*
G54D16*
G01X891090Y100000D02*
Y227000D01*
X931300D01*
X944170Y220650D01*
X952220Y212180D01*
X955430Y195250D01*
X952220Y178320D01*
X942560Y167730D01*
X931300Y161380D01*
X891090D01*
G01X931300D02*
X955430Y100000D01*
G01X1052800D02*
Y227000D01*
X1033500Y201600D01*
G01Y100000D02*
X1072100D01*
G01X1146950Y125400D02*
X1156600Y110580D01*
X1169470Y102120D01*
X1183950Y100000D01*
X1196820Y102120D01*
X1209690Y112700D01*
X1217730Y125400D01*
X1219340Y138100D01*
X1216120Y152910D01*
X1204860Y163500D01*
X1193600Y167730D01*
X1179120D01*
G01X1193600D02*
X1203250Y174080D01*
X1211300Y184660D01*
X1214510Y197370D01*
X1211300Y210070D01*
X1203250Y220650D01*
X1188770Y227000D01*
X1174300Y224880D01*
X1159820Y216420D01*
G01X891090Y275000D02*
Y402000D01*
X931300D01*
X944170Y395650D01*
X952220Y387180D01*
X955430Y370250D01*
X952220Y353320D01*
X942560Y342730D01*
X931300Y336380D01*
X891090D01*
G01X931300D02*
X955430Y275000D01*
G01X1052800D02*
Y402000D01*
X1033500Y376600D01*
G01Y275000D02*
X1072100D01*
G01X1151770Y380830D02*
X1161430Y393530D01*
X1172690Y399880D01*
X1185560Y402000D01*
X1201640Y397770D01*
X1212910Y387180D01*
X1216120Y374490D01*
X1214510Y361780D01*
X1208080Y351200D01*
X1175910Y330030D01*
X1161430Y315220D01*
X1151770Y294050D01*
X1148560Y275000D01*
X1216120D01*
G01X1187340Y3645170D02*
Y3772170D01*
X1219510D01*
X1232380Y3765820D01*
X1242030Y3757350D01*
X1250080Y3744660D01*
X1256510Y3729830D01*
X1258120Y3708670D01*
X1256510Y3687500D01*
X1250080Y3672680D01*
X1242030Y3659980D01*
X1232380Y3651520D01*
X1219510Y3645170D01*
X1187340D01*
G01X1324920Y3659980D02*
X1336180Y3649400D01*
X1349050Y3645170D01*
X1361920Y3649400D01*
X1373180Y3662100D01*
X1381230Y3681150D01*
X1384440Y3700200D01*
Y3723490D01*
X1381230Y3742540D01*
X1373180Y3759470D01*
X1363530Y3767940D01*
X1352270Y3772170D01*
X1339400Y3767940D01*
X1329750Y3759470D01*
X1323310Y3746770D01*
X1320100Y3729830D01*
X1323310Y3715020D01*
X1331360Y3700200D01*
X1341010Y3691730D01*
X1352270Y3689620D01*
X1365140Y3693850D01*
X1374790Y3704440D01*
X1384440Y3723490D01*
G01X1187870Y3825000D02*
Y3952000D01*
X1220040D01*
X1232910Y3945650D01*
X1242560Y3937180D01*
X1250610Y3924490D01*
X1257040Y3909660D01*
X1258650Y3888500D01*
X1257040Y3867330D01*
X1250610Y3852510D01*
X1242560Y3839810D01*
X1232910Y3831350D01*
X1220040Y3825000D01*
X1187870D01*
G01X1352800D02*
X1364060Y3827120D01*
X1376930Y3833460D01*
X1384970Y3844050D01*
X1388190Y3858870D01*
X1384970Y3873680D01*
X1375320Y3886380D01*
X1360840Y3892730D01*
X1344760D01*
X1335100Y3896970D01*
X1327060Y3907550D01*
X1323840Y3922370D01*
X1328670Y3937180D01*
X1339930Y3947770D01*
X1352800Y3952000D01*
X1365670Y3947770D01*
X1376930Y3937180D01*
X1381760Y3922370D01*
X1378540Y3907550D01*
X1370500Y3896970D01*
X1360840Y3892730D01*
X1344760D01*
X1330280Y3886380D01*
X1320630Y3873680D01*
X1317410Y3858870D01*
X1320630Y3844050D01*
X1328670Y3833460D01*
X1341540Y3827120D01*
X1352800Y3825000D01*
G01X1175000Y4608910D02*
X1302000D01*
Y4568700D01*
X1295650Y4555830D01*
X1287180Y4547780D01*
X1270250Y4544570D01*
X1253320Y4547780D01*
X1242730Y4557440D01*
X1236380Y4568700D01*
Y4608910D01*
G01Y4568700D02*
X1175000Y4544570D01*
G01Y4450420D02*
X1202510Y4447200D01*
X1225800Y4442370D01*
X1246970Y4435940D01*
X1270250Y4427900D01*
X1302000Y4415030D01*
Y4479370D01*
G01X1195170Y5786710D02*
X1322170D01*
Y5746500D01*
X1315820Y5733630D01*
X1307350Y5725580D01*
X1290420Y5722370D01*
X1273490Y5725580D01*
X1262900Y5735240D01*
X1256550Y5746500D01*
Y5786710D01*
G01Y5746500D02*
X1195170Y5722370D01*
G01Y5625000D02*
X1322170D01*
X1296770Y5644300D01*
G01X1195170D02*
Y5605700D01*
G01Y5495460D02*
X1197290Y5484200D01*
X1203630Y5471330D01*
X1214220Y5463290D01*
X1229040Y5460070D01*
X1243850Y5463290D01*
X1256550Y5472940D01*
X1262900Y5487420D01*
Y5503500D01*
X1267140Y5513160D01*
X1277720Y5521200D01*
X1292540Y5524420D01*
X1307350Y5519590D01*
X1317940Y5508330D01*
X1322170Y5495460D01*
X1317940Y5482590D01*
X1307350Y5471330D01*
X1292540Y5466500D01*
X1277720Y5469720D01*
X1267140Y5477760D01*
X1262900Y5487420D01*
Y5503500D01*
X1256550Y5517980D01*
X1243850Y5527630D01*
X1229040Y5530850D01*
X1214220Y5527630D01*
X1203630Y5519590D01*
X1197290Y5506720D01*
X1195170Y5495460D01*
G01X2908650Y516420D02*
X2899000Y522770D01*
X2887740Y527000D01*
X2874870D01*
X2860390Y520650D01*
X2849130Y510070D01*
X2841090Y497370D01*
X2834650Y476200D01*
X2833040Y457150D01*
X2836260Y438100D01*
X2841090Y425400D01*
X2850740Y412700D01*
X2862000Y404230D01*
X2873260Y400000D01*
X2884520D01*
X2895780Y404230D01*
X2905430Y410580D01*
X2913480Y419050D01*
G01X3002800Y400000D02*
Y527000D01*
X2983500Y501600D01*
G01Y400000D02*
X3022100D01*
G01X3132340Y527000D02*
X3119470Y522770D01*
X3109820Y512180D01*
X3103380Y499490D01*
X3098560Y482550D01*
X3096950Y463500D01*
X3098560Y444450D01*
X3103380Y427510D01*
X3109820Y414810D01*
X3119470Y404230D01*
X3132340Y400000D01*
X3145210Y404230D01*
X3154860Y414810D01*
X3161300Y427510D01*
X3166120Y444450D01*
X3167730Y463500D01*
X3166120Y482550D01*
X3161300Y499490D01*
X3154860Y512180D01*
X3145210Y522770D01*
X3132340Y527000D01*
G01X3281180Y400000D02*
Y527000D01*
X3221660Y435980D01*
X3302100D01*
G01X6150000Y6437500D02*
Y6362500D01*
X6225000D01*
G01X6150000Y6987500D02*
Y7062500D01*
X6225000D01*
G01X5983580Y7608650D02*
X5977230Y7599000D01*
X5973000Y7587740D01*
Y7574870D01*
X5979350Y7560390D01*
X5989930Y7549130D01*
X6002630Y7541090D01*
X6023800Y7534650D01*
X6042850Y7533040D01*
X6061900Y7536260D01*
X6074600Y7541090D01*
X6087300Y7550740D01*
X6095770Y7562000D01*
X6100000Y7573260D01*
Y7584520D01*
X6095770Y7595780D01*
X6089420Y7605430D01*
X6080950Y7613480D01*
G01X6047090Y7672230D02*
X6032270Y7683500D01*
X6023800Y7693150D01*
X6019570Y7706020D01*
X6023800Y7717280D01*
X6032270Y7725320D01*
X6044970Y7731760D01*
X6059780Y7733370D01*
X6072490Y7731760D01*
X6085190Y7725320D01*
X6095770Y7715670D01*
X6100000Y7704410D01*
X6095770Y7691540D01*
X6083070Y7680280D01*
X6064020Y7673840D01*
X6042850Y7672230D01*
X6015340Y7675450D01*
X6000510Y7680280D01*
X5985700Y7688320D01*
X5975120Y7699580D01*
X5973000Y7710840D01*
X5977230Y7722100D01*
X5987820Y7730150D01*
G01X5973000Y7832340D02*
X5977230Y7819470D01*
X5987820Y7809820D01*
X6000510Y7803380D01*
X6017450Y7798560D01*
X6036500Y7796950D01*
X6055550Y7798560D01*
X6072490Y7803380D01*
X6085190Y7809820D01*
X6095770Y7819470D01*
X6100000Y7832340D01*
X6095770Y7845210D01*
X6085190Y7854860D01*
X6072490Y7861300D01*
X6055550Y7866120D01*
X6036500Y7867730D01*
X6017450Y7866120D01*
X6000510Y7861300D01*
X5987820Y7854860D01*
X5977230Y7845210D01*
X5973000Y7832340D01*
G01X6737870Y2825000D02*
Y2952000D01*
X6770040D01*
X6782910Y2945650D01*
X6792560Y2937180D01*
X6800610Y2924490D01*
X6807040Y2909660D01*
X6808650Y2888500D01*
X6807040Y2867330D01*
X6800610Y2852510D01*
X6792560Y2839810D01*
X6782910Y2831350D01*
X6770040Y2825000D01*
X6737870D01*
G01X6872230Y2930830D02*
X6881890Y2943530D01*
X6893150Y2949880D01*
X6906020Y2952000D01*
X6922100Y2947770D01*
X6933370Y2937180D01*
X6936580Y2924490D01*
X6934970Y2911780D01*
X6928540Y2901200D01*
X6896370Y2880030D01*
X6881890Y2865220D01*
X6872230Y2844050D01*
X6869020Y2825000D01*
X6936580D01*
G01X6708580Y5658650D02*
X6702230Y5649000D01*
X6698000Y5637740D01*
Y5624870D01*
X6704350Y5610390D01*
X6714930Y5599130D01*
X6727630Y5591090D01*
X6748800Y5584650D01*
X6767850Y5583040D01*
X6786900Y5586260D01*
X6799600Y5591090D01*
X6812300Y5600740D01*
X6820770Y5612000D01*
X6825000Y5623260D01*
Y5634520D01*
X6820770Y5645780D01*
X6814420Y5655430D01*
X6805950Y5663480D01*
G01Y5717410D02*
X6816540Y5727060D01*
X6822880Y5738320D01*
X6825000Y5752800D01*
X6820770Y5767280D01*
X6812300Y5778540D01*
X6797490Y5786580D01*
X6780550Y5788190D01*
X6763620Y5784970D01*
X6753030Y5776930D01*
X6744570Y5765670D01*
X6742450Y5754410D01*
X6744570Y5743150D01*
X6753030Y5728670D01*
X6698000Y5733500D01*
Y5776930D01*
G01X6825000Y5882340D02*
X6822880Y5893600D01*
X6816540Y5906470D01*
X6805950Y5914510D01*
X6791130Y5917730D01*
X6776320Y5914510D01*
X6763620Y5904860D01*
X6757270Y5890380D01*
Y5874300D01*
X6753030Y5864640D01*
X6742450Y5856600D01*
X6727630Y5853380D01*
X6712820Y5858210D01*
X6702230Y5869470D01*
X6698000Y5882340D01*
X6702230Y5895210D01*
X6712820Y5906470D01*
X6727630Y5911300D01*
X6742450Y5908080D01*
X6753030Y5900040D01*
X6757270Y5890380D01*
Y5874300D01*
X6763620Y5859820D01*
X6776320Y5850170D01*
X6791130Y5846950D01*
X6805950Y5850170D01*
X6816540Y5858210D01*
X6822880Y5871080D01*
X6825000Y5882340D01*
G01X6775000Y6362500D02*
X6850000D01*
Y6437500D01*
G01X6775000Y7062500D02*
X6850000D01*
Y6987500D01*
G01X7233650Y5866420D02*
X7224000Y5872770D01*
X7212740Y5877000D01*
X7199870D01*
X7185390Y5870650D01*
X7174130Y5860070D01*
X7166090Y5847370D01*
X7159650Y5826200D01*
X7158040Y5807150D01*
X7161260Y5788100D01*
X7166090Y5775400D01*
X7175740Y5762700D01*
X7187000Y5754230D01*
X7198260Y5750000D01*
X7209520D01*
X7220780Y5754230D01*
X7230430Y5760580D01*
X7238480Y5769050D01*
G01X7324580Y5750000D02*
X7327800Y5777510D01*
X7332630Y5800800D01*
X7339060Y5821970D01*
X7347100Y5845250D01*
X7359970Y5877000D01*
X7295630D01*
G01X7426770Y5855830D02*
X7436430Y5868530D01*
X7447690Y5874880D01*
X7460560Y5877000D01*
X7476640Y5872770D01*
X7487910Y5862180D01*
X7491120Y5849490D01*
X7489510Y5836780D01*
X7483080Y5826200D01*
X7450910Y5805030D01*
X7436430Y5790220D01*
X7426770Y5769050D01*
X7423560Y5750000D01*
X7491120D01*
G01X6933580Y5733650D02*
X6927230Y5724000D01*
X6923000Y5712740D01*
Y5699870D01*
X6929350Y5685390D01*
X6939930Y5674130D01*
X6952630Y5666090D01*
X6973800Y5659650D01*
X6992850Y5658040D01*
X7011900Y5661260D01*
X7024600Y5666090D01*
X7037300Y5675740D01*
X7045770Y5687000D01*
X7050000Y5698260D01*
Y5709520D01*
X7045770Y5720780D01*
X7039420Y5730430D01*
X7030950Y5738480D01*
G01Y5792410D02*
X7041540Y5802060D01*
X7047880Y5813320D01*
X7050000Y5827800D01*
X7045770Y5842280D01*
X7037300Y5853540D01*
X7022490Y5861580D01*
X7005550Y5863190D01*
X6988620Y5859970D01*
X6978030Y5851930D01*
X6969570Y5840670D01*
X6967450Y5829410D01*
X6969570Y5818150D01*
X6978030Y5803670D01*
X6923000Y5808500D01*
Y5851930D01*
G01X7035190Y5929990D02*
X7045770Y5941250D01*
X7050000Y5954120D01*
X7045770Y5966990D01*
X7033070Y5978250D01*
X7014020Y5986300D01*
X6994970Y5989510D01*
X6971680D01*
X6952630Y5986300D01*
X6935700Y5978250D01*
X6927230Y5968600D01*
X6923000Y5957340D01*
X6927230Y5944470D01*
X6935700Y5934820D01*
X6948400Y5928380D01*
X6965340Y5925170D01*
X6980150Y5928380D01*
X6994970Y5936430D01*
X7003440Y5946080D01*
X7005550Y5957340D01*
X7001320Y5970210D01*
X6990730Y5979860D01*
X6971680Y5989510D01*
G01X7466090Y5300000D02*
Y5427000D01*
X7506300D01*
X7519170Y5420650D01*
X7527220Y5412180D01*
X7530430Y5395250D01*
X7527220Y5378320D01*
X7517560Y5367730D01*
X7506300Y5361380D01*
X7466090D01*
G01X7506300D02*
X7530430Y5300000D01*
G01X7624580D02*
X7627800Y5327510D01*
X7632630Y5350800D01*
X7639060Y5371970D01*
X7647100Y5395250D01*
X7659970Y5427000D01*
X7595630D01*
G01X7721950Y5319050D02*
X7731600Y5308460D01*
X7742860Y5302120D01*
X7757340Y5300000D01*
X7771820Y5304230D01*
X7783080Y5312700D01*
X7791120Y5327510D01*
X7792730Y5344450D01*
X7789510Y5361380D01*
X7781470Y5371970D01*
X7770210Y5380430D01*
X7758950Y5382550D01*
X7747690Y5380430D01*
X7733210Y5371970D01*
X7738040Y5427000D01*
X7781470D01*
G01X7628590Y7262500D02*
Y7389500D01*
X7668800D01*
X7681670Y7383150D01*
X7689720Y7374680D01*
X7692930Y7357750D01*
X7689720Y7340820D01*
X7680060Y7330230D01*
X7668800Y7323880D01*
X7628590D01*
G01X7668800D02*
X7692930Y7262500D01*
G01X7787080D02*
X7790300Y7290010D01*
X7795130Y7313300D01*
X7801560Y7334470D01*
X7809600Y7357750D01*
X7822470Y7389500D01*
X7758130D01*
G01X7889270Y7315410D02*
X7900540Y7330230D01*
X7910190Y7338700D01*
X7923060Y7342930D01*
X7934320Y7338700D01*
X7942360Y7330230D01*
X7948800Y7317530D01*
X7950410Y7302720D01*
X7948800Y7290010D01*
X7942360Y7277310D01*
X7932710Y7266730D01*
X7921450Y7262500D01*
X7908580Y7266730D01*
X7897320Y7279430D01*
X7890880Y7298480D01*
X7889270Y7319650D01*
X7892490Y7347160D01*
X7897320Y7361990D01*
X7905360Y7376800D01*
X7916620Y7387380D01*
X7927880Y7389500D01*
X7939140Y7385270D01*
X7947190Y7374680D01*
G01X7933580Y6346150D02*
X7927230Y6336500D01*
X7923000Y6325240D01*
Y6312370D01*
X7929350Y6297890D01*
X7939930Y6286630D01*
X7952630Y6278590D01*
X7973800Y6272150D01*
X7992850Y6270540D01*
X8011900Y6273760D01*
X8024600Y6278590D01*
X8037300Y6288240D01*
X8045770Y6299500D01*
X8050000Y6310760D01*
Y6322020D01*
X8045770Y6333280D01*
X8039420Y6342930D01*
X8030950Y6350980D01*
G01Y6404910D02*
X8041540Y6414560D01*
X8047880Y6425820D01*
X8050000Y6440300D01*
X8045770Y6454780D01*
X8037300Y6466040D01*
X8022490Y6474080D01*
X8005550Y6475690D01*
X7988620Y6472470D01*
X7978030Y6464430D01*
X7969570Y6453170D01*
X7967450Y6441910D01*
X7969570Y6430650D01*
X7978030Y6416170D01*
X7923000Y6421000D01*
Y6464430D01*
G01X8050000Y6589140D02*
X7923000D01*
X8014020Y6529620D01*
Y6610060D01*
G01X7921080Y6783650D02*
X7914730Y6774000D01*
X7910500Y6762740D01*
Y6749870D01*
X7916850Y6735390D01*
X7927430Y6724130D01*
X7940130Y6716090D01*
X7961300Y6709650D01*
X7980350Y6708040D01*
X7999400Y6711260D01*
X8012100Y6716090D01*
X8024800Y6725740D01*
X8033270Y6737000D01*
X8037500Y6748260D01*
Y6759520D01*
X8033270Y6770780D01*
X8026920Y6780430D01*
X8018450Y6788480D01*
G01Y6842410D02*
X8029040Y6852060D01*
X8035380Y6863320D01*
X8037500Y6877800D01*
X8033270Y6892280D01*
X8024800Y6903540D01*
X8009990Y6911580D01*
X7993050Y6913190D01*
X7976120Y6909970D01*
X7965530Y6901930D01*
X7957070Y6890670D01*
X7954950Y6879410D01*
X7957070Y6868150D01*
X7965530Y6853670D01*
X7910500Y6858500D01*
Y6901930D01*
G01X8018450Y6971950D02*
X8029040Y6981600D01*
X8035380Y6992860D01*
X8037500Y7007340D01*
X8033270Y7021820D01*
X8024800Y7033080D01*
X8009990Y7041120D01*
X7993050Y7042730D01*
X7976120Y7039510D01*
X7965530Y7031470D01*
X7957070Y7020210D01*
X7954950Y7008950D01*
X7957070Y6997690D01*
X7965530Y6983210D01*
X7910500Y6988040D01*
Y7031470D01*
G01X8850370Y6075000D02*
Y6202000D01*
X8882540D01*
X8895410Y6195650D01*
X8905060Y6187180D01*
X8913110Y6174490D01*
X8919540Y6159660D01*
X8921150Y6138500D01*
X8919540Y6117330D01*
X8913110Y6102510D01*
X8905060Y6089810D01*
X8895410Y6081350D01*
X8882540Y6075000D01*
X8850370D01*
G01X9015300D02*
Y6202000D01*
X8996000Y6176600D01*
G01Y6075000D02*
X9034600D01*
G01X9350370Y3175000D02*
Y3302000D01*
X9382540D01*
X9395410Y3295650D01*
X9405060Y3287180D01*
X9413110Y3274490D01*
X9419540Y3259660D01*
X9421150Y3238500D01*
X9419540Y3217330D01*
X9413110Y3202510D01*
X9405060Y3189810D01*
X9395410Y3181350D01*
X9382540Y3175000D01*
X9350370D01*
G01X9479910Y3200400D02*
X9489560Y3185580D01*
X9502430Y3177120D01*
X9516910Y3175000D01*
X9529780Y3177120D01*
X9542650Y3187700D01*
X9550690Y3200400D01*
X9552300Y3213100D01*
X9549080Y3227910D01*
X9537820Y3238500D01*
X9526560Y3242730D01*
X9512080D01*
G01X9526560D02*
X9536210Y3249080D01*
X9544260Y3259660D01*
X9547470Y3272370D01*
X9544260Y3285070D01*
X9536210Y3295650D01*
X9521730Y3302000D01*
X9507260Y3299880D01*
X9492780Y3291420D01*
G01X9287870Y4525000D02*
Y4652000D01*
X9320040D01*
X9332910Y4645650D01*
X9342560Y4637180D01*
X9350610Y4624490D01*
X9357040Y4609660D01*
X9358650Y4588500D01*
X9357040Y4567330D01*
X9350610Y4552510D01*
X9342560Y4539810D01*
X9332910Y4531350D01*
X9320040Y4525000D01*
X9287870D01*
G01X9422230Y4577910D02*
X9433500Y4592730D01*
X9443150Y4601200D01*
X9456020Y4605430D01*
X9467280Y4601200D01*
X9475320Y4592730D01*
X9481760Y4580030D01*
X9483370Y4565220D01*
X9481760Y4552510D01*
X9475320Y4539810D01*
X9465670Y4529230D01*
X9454410Y4525000D01*
X9441540Y4529230D01*
X9430280Y4541930D01*
X9423840Y4560980D01*
X9422230Y4582150D01*
X9425450Y4609660D01*
X9430280Y4624490D01*
X9438320Y4639300D01*
X9449580Y4649880D01*
X9460840Y4652000D01*
X9472100Y4647770D01*
X9480150Y4637180D01*
G01X9800000Y6158910D02*
X9927000D01*
Y6118700D01*
X9920650Y6105830D01*
X9912180Y6097780D01*
X9895250Y6094570D01*
X9878320Y6097780D01*
X9867730Y6107440D01*
X9861380Y6118700D01*
Y6158910D01*
G01Y6118700D02*
X9800000Y6094570D01*
G01X9905830Y6027770D02*
X9918530Y6018110D01*
X9924880Y6006850D01*
X9927000Y5993980D01*
X9922770Y5977900D01*
X9912180Y5966630D01*
X9899490Y5963420D01*
X9886780Y5965030D01*
X9876200Y5971460D01*
X9855030Y6003630D01*
X9840220Y6018110D01*
X9819050Y6027770D01*
X9800000Y6030980D01*
Y5963420D01*
G01X9927000Y5867660D02*
X9922770Y5880530D01*
X9912180Y5890180D01*
X9899490Y5896620D01*
X9882550Y5901440D01*
X9863500Y5903050D01*
X9844450Y5901440D01*
X9827510Y5896620D01*
X9814810Y5890180D01*
X9804230Y5880530D01*
X9800000Y5867660D01*
X9804230Y5854790D01*
X9814810Y5845140D01*
X9827510Y5838700D01*
X9844450Y5833880D01*
X9863500Y5832270D01*
X9882550Y5833880D01*
X9899490Y5838700D01*
X9912180Y5845140D01*
X9922770Y5854790D01*
X9927000Y5867660D01*
G54D17*
G01X577200Y1399000D02*
X297800D01*
Y1526000D01*
G01Y1363500D02*
X577200D01*
Y1236500D01*
G01X297800D02*
Y1363500D01*
G01X577200Y1236500D02*
X297800D01*
G01Y1526000D02*
X577200D01*
G01X297500Y1565000D02*
X577500D01*
G01X297500Y1685000D02*
Y1565000D01*
G01X577500D02*
Y1685000D01*
X297500D01*
G01X246000Y4110000D02*
Y2840500D01*
X245500Y2840000D01*
X729500D01*
Y4110000D01*
X246000D01*
X245500Y4109500D01*
G01X683070Y636670D02*
X670370Y628620D01*
X661900Y618980D01*
X657670Y607720D01*
X661900Y594850D01*
X670370Y585200D01*
X683070Y575550D01*
X700000Y572330D01*
X784670D01*
G01X657670Y507170D02*
X784670D01*
Y468570D01*
X778320Y455700D01*
X763500Y446050D01*
X746570Y442830D01*
X729640Y446050D01*
X716940Y454090D01*
X710580Y468570D01*
Y507170D01*
G01X657670Y345500D02*
X784670D01*
X759270Y364800D01*
G01X657670D02*
Y326200D01*
G01X577200Y1526000D02*
Y1399000D01*
G01X377500Y2027500D02*
Y1747500D01*
G01D02*
X497500D01*
Y2027500D01*
G01X377500Y2452500D02*
Y2172500D01*
G01D02*
X497500D01*
Y2452500D01*
G01Y2027500D02*
X377500D01*
G01X497500Y2452500D02*
X377500D01*
G01X820570Y4096940D02*
X807870Y4088900D01*
X799400Y4079250D01*
X795170Y4067990D01*
X799400Y4055120D01*
X807870Y4045470D01*
X820570Y4035810D01*
X837500Y4032600D01*
X922170D01*
G01X795170Y3935230D02*
X922170D01*
X896770Y3954530D01*
G01X795170D02*
Y3915930D01*
G01X1115000Y1335000D02*
X835000D01*
G01X1115000Y1215000D02*
Y1335000D01*
G01X835000D02*
Y1215000D01*
X1115000D01*
G01X1202500Y2910000D02*
X922500D01*
G01X1202500Y2790000D02*
Y2910000D01*
G01X922500D02*
Y2790000D01*
X1202500D01*
G01X1157500Y4675000D02*
X1017500D01*
Y4375000D01*
X1157500D01*
Y4675000D01*
G01Y5787500D02*
X1017500D01*
Y5487500D01*
X1157500D01*
Y5787500D01*
G01X1186500Y6572800D02*
Y6852200D01*
X1313500D01*
G01Y6572800D02*
X1186500D01*
G01X1024000D02*
Y6852200D01*
X1151000D01*
G01Y6572800D02*
X1024000D01*
G01X1151000Y6852200D02*
Y6572800D01*
G01X913330Y7658060D02*
X921380Y7645360D01*
X931020Y7636890D01*
X942280Y7632660D01*
X955150Y7636890D01*
X964800Y7645360D01*
X974450Y7658060D01*
X977670Y7674990D01*
Y7759660D01*
G01X1042830Y7632660D02*
Y7759660D01*
X1081430D01*
X1094300Y7753310D01*
X1103950Y7738490D01*
X1107170Y7721560D01*
X1103950Y7704630D01*
X1095910Y7691930D01*
X1081430Y7685570D01*
X1042830D01*
G01X1169120Y7658060D02*
X1178760Y7643240D01*
X1191630Y7634780D01*
X1206110Y7632660D01*
X1218980Y7634780D01*
X1231840Y7645360D01*
X1239880Y7658060D01*
X1241490Y7670760D01*
X1238280Y7685570D01*
X1227020Y7696160D01*
X1215760Y7700390D01*
X1201280D01*
G01X1215760D02*
X1225410Y7706740D01*
X1233450Y7717320D01*
X1236670Y7730030D01*
X1233450Y7742730D01*
X1225410Y7753310D01*
X1210930Y7759660D01*
X1196460Y7757540D01*
X1181980Y7749080D01*
G01X1690000Y1335000D02*
X1410000D01*
G01X1690000Y1215000D02*
Y1335000D01*
G01X1410000D02*
Y1215000D01*
X1690000D01*
G01X1652500Y2910000D02*
X1372500D01*
G01X1652500Y2790000D02*
Y2910000D01*
G01X1372500D02*
Y2790000D01*
X1652500D01*
G01X1672800Y4301000D02*
X1952200D01*
Y4174000D01*
G01X1672800D02*
Y4301000D01*
G01X1952200Y4174000D02*
X1672800D01*
G01X1952200Y4336500D02*
X1672800D01*
Y4463500D01*
G01D02*
X1952200D01*
G01X1615000Y4665000D02*
Y4785000D01*
G01X1335000D02*
Y4665000D01*
X1615000D01*
G01Y4785000D02*
X1335000D01*
G01X1977500Y5685000D02*
X1697500D01*
G01D02*
Y5565000D01*
X1977500D01*
G01Y5960000D02*
X1697500D01*
G01D02*
Y5840000D01*
X1977500D01*
G01X1313500Y6852200D02*
Y6572800D01*
G01X1851000Y1339700D02*
Y1060300D01*
X1724000D01*
G01Y1339700D02*
X1851000D01*
G01X1724000Y1060300D02*
Y1339700D01*
G01X1990000Y2090000D02*
Y1810000D01*
G01D02*
X2110000D01*
Y2090000D01*
G01D02*
X1990000D01*
G01Y2402500D02*
Y2122500D01*
G01X2110000Y2402500D02*
X1990000D01*
G01Y2122500D02*
X2110000D01*
Y2402500D01*
G01X2164700Y2936500D02*
X1885300D01*
Y3063500D01*
G01X2164700D02*
Y2936500D01*
G01X1885300Y3063500D02*
X2164700D01*
G01X2139700Y3186500D02*
X1860300D01*
Y3313500D01*
G01X2139700D02*
Y3186500D01*
G01X1860300Y3313500D02*
X2139700D01*
G01X2175000Y3325000D02*
X2525000D01*
Y3525000D01*
X2175000D01*
Y3325000D01*
G01X1790000Y4500000D02*
Y4850000D01*
G01X1952200Y4463500D02*
Y4336500D01*
G01X1885300Y5013500D02*
X2164700D01*
Y4886500D01*
G01X1885300D02*
Y5013500D01*
G01X2164700Y4886500D02*
X1885300D01*
G01Y5176000D02*
X2164700D01*
Y5049000D01*
G01X1885300D02*
Y5176000D01*
G01X2164700Y5049000D02*
X1885300D01*
G01X1900000Y5345000D02*
Y5205000D01*
X2200000D01*
Y5345000D01*
X1900000D01*
G01X2237500Y5562500D02*
Y5962500D01*
X2012500D01*
Y5562500D01*
X2237500D01*
G01X1900000Y5520000D02*
Y5380000D01*
X2200000D01*
Y5520000D01*
X1900000D01*
G01X1977500Y5565000D02*
Y5685000D01*
G01Y5840000D02*
Y5960000D01*
G01X2158500Y6371000D02*
X2666000D01*
X2666500Y6370500D01*
Y6854500D01*
X2158500D01*
Y6371000D01*
X2159000Y6370500D01*
G01X1974000Y6935300D02*
Y7214700D01*
X2101000D01*
G01Y6935300D02*
X1974000D01*
G01X2101000Y7214700D02*
Y6935300D01*
G01X2136500D02*
Y7214700D01*
X2263500D01*
G01Y6935300D02*
X2136500D01*
G01X1881500Y7283000D02*
Y7767000D01*
X2643000D01*
X2643500Y7766500D01*
Y7283000D01*
X1881500D01*
G01X2451000Y714700D02*
Y435300D01*
X2324000D01*
G01D02*
Y714700D01*
G01X2787500Y430000D02*
Y570000D01*
X2487500D01*
Y430000D01*
X2787500D01*
G01X2612500Y942500D02*
Y1082500D01*
X2312500D01*
Y942500D01*
X2612500D01*
G01X2312500Y907500D02*
Y767500D01*
X2612500D01*
Y907500D01*
X2312500D01*
G01X2324000Y714700D02*
X2451000D01*
G01X2927200Y774000D02*
X2647800D01*
Y901000D01*
G01D02*
X2927200D01*
G01Y949000D02*
X2647800D01*
Y1076000D01*
G01X2497500Y602500D02*
X2777500D01*
G01X2497500Y722500D02*
Y602500D01*
G01X2777500D02*
Y722500D01*
X2497500D01*
G01X2624000Y1147800D02*
Y1427200D01*
X2751000D01*
G01Y1147800D02*
X2624000D01*
G01X2589700Y1149000D02*
X2310300D01*
Y1276000D01*
G01X2589700D02*
Y1149000D01*
G01X2310300Y1276000D02*
X2589700D01*
G01Y1311500D02*
X2310300D01*
Y1438500D01*
G01X2589700D02*
Y1311500D01*
G01X2310300Y1438500D02*
X2589700D01*
G01X2647800Y1076000D02*
X2927200D01*
G01X2410300Y2336500D02*
Y2463500D01*
G01X2689700Y2336500D02*
X2410300D01*
G01X2689700Y2661500D02*
X2410300D01*
Y2788500D01*
G01D02*
X2689700D01*
G01Y2499000D02*
X2410300D01*
Y2626000D01*
G01D02*
X2689700D01*
G01X2410300Y2463500D02*
X2689700D01*
Y2336500D01*
G01X2539700Y3186500D02*
X2260300D01*
Y3313500D01*
G01X2539700D02*
Y3186500D01*
G01X2260300Y3313500D02*
X2539700D01*
G01X2502200Y2999000D02*
X2222800D01*
Y3126000D01*
G01X2502200D02*
Y2999000D01*
G01X2222800Y3126000D02*
X2502200D01*
G01X2515000Y3802500D02*
Y3922500D01*
G01X2235000D02*
Y3802500D01*
X2515000D01*
G01X2514700Y3961500D02*
X2235300D01*
Y4088500D01*
G01X2514700D02*
Y3961500D01*
G01X2235300Y4088500D02*
X2514700D01*
G01X2240000Y4402500D02*
Y4122500D01*
G01D02*
X2360000D01*
Y4402500D01*
G01X2390000D02*
Y4122500D01*
G01D02*
X2510000D01*
Y4402500D01*
G01X2515000Y3922500D02*
X2235000D01*
G01X2640000Y4297500D02*
X2760000D01*
G01Y4577500D02*
X2640000D01*
Y4297500D01*
G01X2210000Y4850000D02*
Y4500000D01*
G01X2539700Y4724000D02*
X2260300D01*
Y4851000D01*
G01X2539700D02*
Y4724000D01*
G01X2360000Y4402500D02*
X2240000D01*
G01X2510000D02*
X2390000D01*
G01X2539700Y5211500D02*
X2260300D01*
Y5338500D01*
G01X2539700D02*
Y5211500D01*
G01X2260300Y5013500D02*
X2539700D01*
Y4886500D01*
G01X2260300D02*
Y5013500D01*
G01X2539700Y4886500D02*
X2260300D01*
G01Y5176000D02*
X2539700D01*
Y5049000D01*
G01X2260300D02*
Y5176000D01*
G01X2539700Y5049000D02*
X2260300D01*
G01Y4851000D02*
X2539700D01*
G01X2260300Y5338500D02*
X2539700D01*
G01Y5374000D02*
X2260300D01*
Y5501000D01*
G01X2539700D02*
Y5374000D01*
G01X2260300Y5501000D02*
X2539700D01*
G01X2552200Y5611500D02*
X2272800D01*
Y5738500D01*
G01X2552200D02*
Y5611500D01*
G01X2272800Y5738500D02*
X2552200D01*
G01Y5774000D02*
X2272800D01*
Y5901000D01*
G01X2552200D02*
Y5774000D01*
G01X2272800Y5901000D02*
X2552200D01*
G01X2250790Y6574400D02*
X2258830Y6561700D01*
X2268480Y6553230D01*
X2279740Y6549000D01*
X2292610Y6553230D01*
X2302260Y6561700D01*
X2311920Y6574400D01*
X2315130Y6591330D01*
Y6676000D01*
G01X2380330Y6549000D02*
Y6676000D01*
X2418930D01*
X2431800Y6669650D01*
X2441460Y6654830D01*
X2444670Y6637900D01*
X2441460Y6620970D01*
X2433410Y6608270D01*
X2418930Y6601910D01*
X2380330D01*
G01X2511470Y6654830D02*
X2521130Y6667530D01*
X2532390Y6673880D01*
X2545260Y6676000D01*
X2561340Y6671770D01*
X2572610Y6661180D01*
X2575820Y6648490D01*
X2574210Y6635780D01*
X2567780Y6625200D01*
X2535610Y6604030D01*
X2521130Y6589220D01*
X2511470Y6568050D01*
X2508260Y6549000D01*
X2575820D01*
G01X2263500Y7214700D02*
Y6935300D01*
G01X2301420Y6930440D02*
Y7209840D01*
X2428420D01*
G01Y6930440D02*
X2301420D01*
G01X2428420Y7209840D02*
Y6930440D01*
G01X2466800D02*
Y7209840D01*
X2593800D01*
G01Y6930440D02*
X2466800D01*
G01X2593800Y7209840D02*
Y6930440D01*
G01X2927200Y901000D02*
Y774000D01*
G01Y1076000D02*
Y949000D01*
G01X2751000Y1427200D02*
Y1147800D01*
G01X2689700Y2788500D02*
Y2661500D01*
G01Y2626000D02*
Y2499000D01*
G01X2865020Y3950000D02*
Y3800000D01*
X3015020D01*
G01X3074000Y3397800D02*
Y3677200D01*
X3201000D01*
G01Y3397800D02*
X3074000D01*
G01X2760000Y4297500D02*
Y4577500D01*
G01X2865020Y6250000D02*
Y6400000D01*
X3015020D01*
G01X2799000Y6435300D02*
Y6714700D01*
X2926000D01*
G01Y6435300D02*
X2799000D01*
G01X2926000Y6714700D02*
Y6435300D01*
G01X2766940Y7328060D02*
X2779640Y7336100D01*
X2788110Y7345750D01*
X2792340Y7357010D01*
X2788110Y7369880D01*
X2779640Y7379530D01*
X2766940Y7389190D01*
X2750010Y7392400D01*
X2665340D01*
G01X2686510Y7459200D02*
X2673810Y7468860D01*
X2667460Y7480120D01*
X2665340Y7492990D01*
X2669570Y7509070D01*
X2680160Y7520340D01*
X2692850Y7523550D01*
X2705560Y7521940D01*
X2716140Y7515510D01*
X2737310Y7483340D01*
X2752120Y7468860D01*
X2773290Y7459200D01*
X2792340Y7455990D01*
Y7523550D01*
G01X3439700Y986500D02*
X3160300D01*
Y1113500D01*
G01X3439700D02*
Y986500D01*
G01Y811500D02*
X3160300D01*
Y938500D01*
G01X3439700D02*
Y811500D01*
G01X3160300Y938500D02*
X3439700D01*
G01X3160300Y1638500D02*
X3439700D01*
Y1511500D01*
G01X3160300D02*
Y1638500D01*
G01X3439700Y1511500D02*
X3160300D01*
G01X3439700Y1336500D02*
X3160300D01*
Y1463500D01*
G01X3439700D02*
Y1336500D01*
G01X3160300Y1463500D02*
X3439700D01*
G01Y1161500D02*
X3160300D01*
Y1288500D01*
G01X3439700D02*
Y1161500D01*
G01X3160300Y1288500D02*
X3439700D01*
G01X3160300Y1113500D02*
X3439700D01*
G01X3347500Y2122500D02*
Y2402500D01*
G01X3227500Y2122500D02*
X3347500D01*
G01Y2402500D02*
X3227500D01*
Y2122500D01*
G01X3440000Y2565000D02*
Y2285000D01*
G01D02*
X3560000D01*
Y2565000D01*
G01D02*
X3440000D01*
G01Y2890000D02*
Y2610000D01*
G01X3560000Y2890000D02*
X3440000D01*
G01Y2610000D02*
X3560000D01*
Y2890000D01*
G01Y2935000D02*
Y3215000D01*
G01X3440000Y2935000D02*
X3560000D01*
G01Y3215000D02*
X3440000D01*
Y2935000D01*
G01X3201000Y3677200D02*
Y3397800D01*
G01X3360000Y3397500D02*
Y3677500D01*
G01X3240000Y3397500D02*
X3360000D01*
G01Y3677500D02*
X3240000D01*
Y3397500D01*
G01X3401000Y7014700D02*
Y6735300D01*
X3274000D01*
G01Y7014700D02*
X3401000D01*
G01X3274000Y6735300D02*
Y7014700D01*
G01X3563500D02*
Y6735300D01*
X3436500D01*
G01Y7014700D02*
X3563500D01*
G01X3436500Y6735300D02*
Y7014700D01*
G01X3968500Y7767000D02*
Y7283000D01*
X3207000D01*
X3206500Y7283500D01*
Y7767000D01*
X3968500D01*
G01X4088500Y639700D02*
Y360300D01*
X3961500D01*
G01D02*
Y639700D01*
G01X3913500D02*
Y360300D01*
X3786500D01*
G01D02*
Y639700D01*
G01X3738500D02*
Y360300D01*
X3611500D01*
G01D02*
Y639700D01*
G01X3961500D02*
X4088500D01*
G01X3786500D02*
X3913500D01*
G01X3611500D02*
X3738500D01*
G01X3760000Y3565000D02*
X4040000D01*
G01X3760000Y3685000D02*
Y3565000D01*
G01X4040000D02*
Y3685000D01*
X3760000D01*
G01X3978060Y7483070D02*
X3986100Y7470370D01*
X3995750Y7461900D01*
X4007010Y7457670D01*
X4019880Y7461900D01*
X4029530Y7470370D01*
X4039190Y7483070D01*
X4042400Y7500000D01*
Y7584670D01*
G01X4104380Y7476720D02*
X4114030Y7466130D01*
X4125290Y7459790D01*
X4139770Y7457670D01*
X4154250Y7461900D01*
X4165510Y7470370D01*
X4173550Y7485180D01*
X4175160Y7502120D01*
X4171940Y7519050D01*
X4163900Y7529640D01*
X4152640Y7538100D01*
X4141380Y7540220D01*
X4130120Y7538100D01*
X4115640Y7529640D01*
X4120470Y7584670D01*
X4163900D01*
G01X4263500Y639700D02*
Y360300D01*
X4136500D01*
G01D02*
Y639700D01*
G01X4613500D02*
Y360300D01*
X4486500D01*
G01D02*
Y639700D01*
G01X4438500D02*
Y360300D01*
X4311500D01*
G01D02*
Y639700D01*
G01X4136500D02*
X4263500D01*
G01X4486500D02*
X4613500D01*
G01X4311500D02*
X4438500D01*
G01X4213500Y7014700D02*
Y6735300D01*
X4086500D01*
G01Y7014700D02*
X4213500D01*
G01X4086500Y6735300D02*
Y7014700D01*
G01X4376000D02*
Y6735300D01*
X4249000D01*
G01Y7014700D02*
X4376000D01*
G01X4249000Y6735300D02*
Y7014700D01*
G01X4427640Y7774890D02*
Y7525320D01*
X5446130D01*
X5447370Y7526560D01*
Y7774670D01*
X5447150Y7774890D01*
X4427640D01*
G01X4963500Y639700D02*
Y360300D01*
X4836500D01*
G01D02*
Y639700D01*
G01X4788500D02*
Y360300D01*
X4661500D01*
G01D02*
Y639700D01*
G01X4836500D02*
X4963500D01*
G01X4661500D02*
X4788500D01*
G01X5190000Y3735000D02*
X4910000D01*
G01D02*
Y3615000D01*
X5190000D01*
G01X5063500Y6952200D02*
Y6672800D01*
X4936500D01*
G01Y6952200D02*
X5063500D01*
G01X4936500Y6672800D02*
Y6952200D01*
G01X4901000D02*
Y6672800D01*
X4774000D01*
G01Y6952200D02*
X4901000D01*
G01X4774000Y6672800D02*
Y6952200D01*
G01X5464700Y649000D02*
X5185300D01*
Y776000D01*
G01D02*
X5464700D01*
G01X5185300Y938500D02*
X5464700D01*
Y811500D01*
G01X5185300D02*
Y938500D01*
G01X5464700Y811500D02*
X5185300D01*
G01Y986500D02*
Y1113500D01*
G01X5464700Y986500D02*
X5185300D01*
G01X5464700Y1511500D02*
X5185300D01*
Y1638500D01*
G01Y1463500D02*
X5464700D01*
Y1336500D01*
G01X5185300D02*
Y1463500D01*
G01X5464700Y1336500D02*
X5185300D01*
G01Y1113500D02*
X5464700D01*
Y986500D01*
G01X5185300Y1288500D02*
X5464700D01*
Y1161500D01*
G01X5185300D02*
Y1288500D01*
G01X5464700Y1161500D02*
X5185300D01*
G01Y1638500D02*
X5464700D01*
G01X5135000Y2285000D02*
Y2565000D01*
G01X5015000Y2285000D02*
X5135000D01*
G01Y2565000D02*
X5015000D01*
Y2285000D01*
G01X5135000Y2610000D02*
Y2890000D01*
G01X5015000Y2610000D02*
X5135000D01*
G01Y2890000D02*
X5015000D01*
Y2610000D01*
G01X5465020Y3950000D02*
Y3800000D01*
X5315020D01*
G01X5190000Y3615000D02*
Y3735000D01*
G01X5465020Y6250000D02*
Y6400000D01*
X5315020D01*
G01X5103060Y7375400D02*
X5111100Y7362700D01*
X5120750Y7354230D01*
X5132010Y7350000D01*
X5144880Y7354230D01*
X5154530Y7362700D01*
X5164190Y7375400D01*
X5167400Y7392330D01*
Y7477000D01*
G01X5229380Y7375400D02*
X5239030Y7360580D01*
X5251900Y7352120D01*
X5266380Y7350000D01*
X5279250Y7352120D01*
X5292120Y7362700D01*
X5300160Y7375400D01*
X5301770Y7388100D01*
X5298550Y7402910D01*
X5287290Y7413500D01*
X5276030Y7417730D01*
X5261550D01*
G01X5276030D02*
X5285680Y7424080D01*
X5293730Y7434660D01*
X5296940Y7447370D01*
X5293730Y7460070D01*
X5285680Y7470650D01*
X5271200Y7477000D01*
X5256730Y7474880D01*
X5242250Y7466420D01*
G01X5464700Y776000D02*
Y649000D01*
G01Y1638500D02*
Y1511500D01*
G01X5797500Y3972500D02*
Y4252500D01*
G01X5677500Y3972500D02*
X5797500D01*
G01Y4252500D02*
X5677500D01*
Y3972500D01*
G01X5710000Y4560000D02*
Y4840000D01*
G01X5590000Y4560000D02*
X5710000D01*
G01Y4840000D02*
X5590000D01*
Y4560000D01*
G01X5989700Y5199000D02*
X5710300D01*
Y5326000D01*
G01Y5538500D02*
X5989700D01*
Y5411500D01*
G01X5710300D02*
Y5538500D01*
G01X5989700Y5411500D02*
X5710300D01*
G01Y5326000D02*
X5989700D01*
G01X6064700Y6336500D02*
X5785300D01*
Y6463500D01*
G01D02*
X6064700D01*
G01X6077200Y7036500D02*
X5797800D01*
Y7163500D01*
G01X5685000Y6815000D02*
X5965000D01*
G01X5685000Y6935000D02*
Y6815000D01*
G01X5965000D02*
Y6935000D01*
X5685000D01*
G01Y6665000D02*
X5965000D01*
G01X5685000Y6785000D02*
Y6665000D01*
G01X5965000D02*
Y6785000D01*
X5685000D01*
G01X5926000Y7527200D02*
Y7247800D01*
X5799000D01*
G01Y7527200D02*
X5926000D01*
G01X5799000Y7247800D02*
Y7527200D01*
G01X5797800Y7163500D02*
X6077200D01*
G01X6412500Y5115000D02*
X6062500D01*
G01X5989700Y5326000D02*
Y5199000D01*
G01X6227500Y5085000D02*
X5947500D01*
G01X6227500Y4965000D02*
Y5085000D01*
G01X5947500D02*
Y4965000D01*
X6227500D01*
G01X6062500Y5535000D02*
X6412500D01*
G01X6365000Y6165000D02*
Y5885000D01*
G01X6485000Y6165000D02*
X6365000D01*
G01Y5885000D02*
X6485000D01*
Y6165000D01*
G01X6064700Y6463500D02*
Y6336500D01*
G01X6077200Y7163500D02*
Y7036500D01*
G01X6276000Y7527200D02*
Y7247800D01*
X6149000D01*
G01Y7527200D02*
X6276000D01*
G01X6149000Y7247800D02*
Y7527200D01*
G01X6107500Y7537500D02*
X5967500D01*
Y7237500D01*
X6107500D01*
Y7537500D01*
G01X6315000Y7527500D02*
Y7247500D01*
G01X6435000Y7527500D02*
X6315000D01*
G01Y7247500D02*
X6435000D01*
Y7527500D01*
G01X6906000Y2152000D02*
X6398000D01*
Y120000D01*
X6906000D01*
Y2152000D01*
G01X6550400Y1359940D02*
X6537700Y1351900D01*
X6529230Y1342250D01*
X6525000Y1330990D01*
X6529230Y1318120D01*
X6537700Y1308470D01*
X6550400Y1298810D01*
X6567330Y1295600D01*
X6652000D01*
G01X6577910Y1228800D02*
X6592730Y1217530D01*
X6601200Y1207880D01*
X6605430Y1195010D01*
X6601200Y1183750D01*
X6592730Y1175710D01*
X6580030Y1169270D01*
X6565220Y1167660D01*
X6552510Y1169270D01*
X6539810Y1175710D01*
X6529230Y1185360D01*
X6525000Y1196620D01*
X6529230Y1209490D01*
X6541930Y1220750D01*
X6560980Y1227190D01*
X6582150Y1228800D01*
X6609660Y1225580D01*
X6624490Y1220750D01*
X6639300Y1212710D01*
X6649880Y1201450D01*
X6652000Y1190190D01*
X6647770Y1178930D01*
X6637180Y1170880D01*
G01X6690000Y4747500D02*
X6410000D01*
G01X6690000Y4627500D02*
Y4747500D01*
G01X6410000D02*
Y4627500D01*
X6690000D01*
G01Y4777500D02*
Y4897500D01*
G01X6410000D02*
Y4777500D01*
X6690000D01*
G01Y4597500D02*
X6410000D01*
G01X6690000Y4477500D02*
Y4597500D01*
G01X6410000D02*
Y4477500D01*
X6690000D01*
G01X6460300Y5276000D02*
X6739700D01*
Y5149000D01*
G01X6460300D02*
Y5276000D01*
G01X6739700Y5149000D02*
X6460300D01*
G01X6690000Y4897500D02*
X6410000D01*
G01X6870000Y6262500D02*
X6730000D01*
Y5962500D01*
X6870000D01*
Y6262500D01*
G01X6577500Y6252500D02*
Y5972500D01*
G01D02*
X6697500D01*
Y6252500D01*
G01D02*
X6577500D01*
G01X6763500Y7527200D02*
Y7247800D01*
X6636500D01*
G01Y7527200D02*
X6763500D01*
G01X6636500Y7247800D02*
Y7527200D01*
G01X6477500Y7527500D02*
Y7247500D01*
G01X6597500Y7527500D02*
X6477500D01*
G01Y7247500D02*
X6597500D01*
Y7527500D01*
G01X6802500Y7247500D02*
X6922500D01*
G01Y7527500D02*
X6802500D01*
Y7247500D01*
G01X7325000Y2805000D02*
Y2945000D01*
X7025000D01*
Y2805000D01*
X7325000D01*
G01X7314700Y2974000D02*
X7035300D01*
Y3101000D01*
G01X7314700D02*
Y2974000D01*
G01X7035300Y3101000D02*
X7314700D01*
G01X6980000Y6037500D02*
X7120000D01*
Y6337500D01*
X6980000D01*
Y6037500D01*
G01X7390000Y6585000D02*
X7110000D01*
G01D02*
Y6465000D01*
X7390000D01*
G01X6950000Y7057500D02*
Y6917500D01*
X7250000D01*
Y7057500D01*
X6950000D01*
G01X7240000Y7090000D02*
Y7210000D01*
G01X6960000D02*
Y7090000D01*
X7240000D01*
G01X7239700Y7249000D02*
X6960300D01*
Y7376000D01*
G01X7239700D02*
Y7249000D01*
G01X6960300Y7376000D02*
X7239700D01*
G01X7240000Y7210000D02*
X6960000D01*
G01Y7415000D02*
X7240000D01*
G01X6960000Y7535000D02*
Y7415000D01*
G01X7240000D02*
Y7535000D01*
X6960000D01*
G01X6922500Y7247500D02*
Y7527500D01*
G01X7825000Y700000D02*
Y1050000D01*
X7625000D01*
Y700000D01*
X7825000D01*
G01X7422500Y1390000D02*
X7702500D01*
G01X7422500Y1510000D02*
Y1390000D01*
G01X7702500D02*
Y1510000D01*
X7422500D01*
G01Y1540000D02*
X7702500D01*
G01X7422500Y1660000D02*
Y1540000D01*
G01X7702500D02*
Y1660000D01*
X7422500D01*
G01X7722500Y2102500D02*
X8002500D01*
G01X7722500Y2222500D02*
Y2102500D01*
G01X8002500D02*
Y2222500D01*
X7722500D01*
G01X7340870Y3425000D02*
X7420250Y3679000D01*
X7499630Y3425000D01*
G01X7471050Y3513900D02*
X7369450D01*
G01X7604400Y3679000D02*
Y3496970D01*
X7617100Y3458860D01*
X7642500Y3433460D01*
X7674250Y3425000D01*
X7706000Y3433460D01*
X7731400Y3458860D01*
X7744100Y3496970D01*
Y3679000D01*
G01X7928250D02*
Y3425000D01*
G01X7855230Y3679000D02*
X8001270D01*
G01X8182250Y3425000D02*
X8156850Y3429230D01*
X8134630Y3446160D01*
X8115570Y3471560D01*
X8102870Y3501200D01*
X8096520Y3535070D01*
Y3568930D01*
X8102870Y3602800D01*
X8115570Y3632440D01*
X8134630Y3657830D01*
X8156850Y3674770D01*
X8182250Y3679000D01*
X8207650Y3674770D01*
X8229870Y3657830D01*
X8248930Y3632440D01*
X8261630Y3602800D01*
X8267980Y3568930D01*
Y3535070D01*
X8261630Y3501200D01*
X8248930Y3471560D01*
X8229870Y3446160D01*
X8207650Y3429230D01*
X8182250Y3425000D01*
G01X8363230D02*
Y3679000D01*
X8509270Y3425000D01*
Y3679000D01*
G01X8690250Y3425000D02*
X8664850Y3429230D01*
X8642630Y3446160D01*
X8623570Y3471560D01*
X8610870Y3501200D01*
X8604520Y3535070D01*
Y3568930D01*
X8610870Y3602800D01*
X8623570Y3632440D01*
X8642630Y3657830D01*
X8664850Y3674770D01*
X8690250Y3679000D01*
X8715650Y3674770D01*
X8737870Y3657830D01*
X8756930Y3632440D01*
X8769630Y3602800D01*
X8775980Y3568930D01*
Y3535070D01*
X8769630Y3501200D01*
X8756930Y3471560D01*
X8737870Y3446160D01*
X8715650Y3429230D01*
X8690250Y3425000D01*
G01X8861700D02*
Y3679000D01*
X8944250Y3467330D01*
X9026800Y3679000D01*
Y3425000D01*
G01X9198250D02*
X9172850Y3429230D01*
X9150630Y3446160D01*
X9131570Y3471560D01*
X9118870Y3501200D01*
X9112520Y3535070D01*
Y3568930D01*
X9118870Y3602800D01*
X9131570Y3632440D01*
X9150630Y3657830D01*
X9172850Y3674770D01*
X9198250Y3679000D01*
X9223650Y3674770D01*
X9245870Y3657830D01*
X9264930Y3632440D01*
X9277630Y3602800D01*
X9283980Y3568930D01*
Y3535070D01*
X9277630Y3501200D01*
X9264930Y3471560D01*
X9245870Y3446160D01*
X9223650Y3429230D01*
X9198250Y3425000D01*
G01X9382400Y3679000D02*
Y3496970D01*
X9395100Y3458860D01*
X9420500Y3433460D01*
X9452250Y3425000D01*
X9484000Y3433460D01*
X9509400Y3458860D01*
X9522100Y3496970D01*
Y3679000D01*
G01X9639570Y3458860D02*
X9664980Y3437700D01*
X9693550Y3425000D01*
X9718950D01*
X9744350Y3437700D01*
X9763400Y3458860D01*
X9772930Y3488500D01*
X9766580Y3518130D01*
X9750700Y3543530D01*
X9722120Y3560470D01*
X9684030Y3568930D01*
X9661800Y3585860D01*
X9652270Y3615500D01*
X9658630Y3645130D01*
X9674500Y3666290D01*
X9696720Y3679000D01*
X9718950D01*
X9741180Y3670540D01*
X9760230Y3649370D01*
G01X7350000Y6407500D02*
Y6267500D01*
X7650000D01*
Y6407500D01*
X7350000D01*
G01X7755000Y6262500D02*
X7895000D01*
Y6562500D01*
X7755000D01*
Y6262500D01*
G01X7390000Y6465000D02*
Y6585000D01*
G01X7600000Y7232500D02*
Y7092500D01*
X7900000D01*
Y7232500D01*
X7600000D01*
G01X7907500Y6987500D02*
X7767500D01*
Y6687500D01*
X7907500D01*
Y6987500D01*
G01X7615000Y6835000D02*
X7335000D01*
G01X7615000Y6715000D02*
Y6835000D01*
G01X7335000D02*
Y6715000D01*
X7615000D01*
G01X9987500Y6287500D02*
Y7387500D01*
X8087500D01*
Y6237500D01*
X9987500D01*
Y6287500D01*
G01X8300000Y675000D02*
X9600000D01*
Y1625000D01*
X8300000D01*
Y675000D01*
G01X8460300Y5174000D02*
Y5301000D01*
G01X8739700Y5174000D02*
X8460300D01*
G01Y5626000D02*
X8739700D01*
Y5499000D01*
G01X8460300D02*
Y5626000D01*
G01X8739700Y5499000D02*
X8460300D01*
G01Y5463500D02*
X8739700D01*
Y5336500D01*
G01X8460300D02*
Y5463500D01*
G01X8739700Y5336500D02*
X8460300D01*
G01Y5301000D02*
X8739700D01*
Y5174000D01*
G01X8539700Y6036500D02*
X8260300D01*
Y6163500D01*
G01X8539700D02*
Y6036500D01*
G01X8260300Y6163500D02*
X8539700D01*
G01X8260300Y6001000D02*
X8539700D01*
Y5874000D01*
G01X8260300D02*
Y6001000D01*
G01X8539700Y5874000D02*
X8260300D01*
G01X9075000Y6170000D02*
Y6030000D01*
X9375000D01*
Y6170000D01*
X9075000D01*
G01X9002200Y7499000D02*
X8722800D01*
Y7626000D01*
G01X9002200D02*
Y7499000D01*
G01X8722800Y7626000D02*
X9002200D01*
G01X9335300Y2951000D02*
X9614700D01*
Y2824000D01*
G01X9335300D02*
Y2951000D01*
G01X9614700Y2824000D02*
X9335300D01*
G01X9325000Y3132500D02*
Y2992500D01*
X9625000D01*
Y3132500D01*
X9325000D01*
G01X9322800Y4301000D02*
X9602200D01*
Y4174000D01*
G01X9322800D02*
Y4301000D01*
G01X9602200Y4174000D02*
X9322800D01*
G01X9312500Y4482500D02*
Y4342500D01*
X9612500D01*
Y4482500D01*
X9312500D01*
G01X9712500Y6030000D02*
Y6170000D01*
X9412500D01*
Y6030000D01*
X9712500D01*
G54D18*
G01X204190Y3975000D02*
Y4053690D01*
X192520Y4037950D01*
G01Y3975000D02*
X215870D01*
G01X179190Y4425000D02*
Y4503690D01*
X167520Y4487950D01*
G01Y4425000D02*
X190870D01*
G01X154190Y5525000D02*
Y5603690D01*
X142520Y5587950D01*
G01Y5525000D02*
X165870D01*
G01X98770Y7076830D02*
X177460D01*
Y7052500D01*
X173520Y7044710D01*
X168280Y7039850D01*
X157790Y7037900D01*
X147290Y7039850D01*
X140740Y7045690D01*
X136800Y7052500D01*
Y7076830D01*
G01Y7052500D02*
X98770Y7037900D01*
G01Y6959220D02*
Y6998150D01*
X177460D01*
Y6959220D01*
G01X139430Y6974790D02*
Y6998150D01*
G01X109260Y6920440D02*
X102700Y6912660D01*
X98770Y6903900D01*
Y6896110D01*
X102700Y6888330D01*
X109260Y6882490D01*
X118440Y6879570D01*
X127620Y6881510D01*
X135490Y6886380D01*
X140740Y6895140D01*
X143360Y6906820D01*
X148610Y6913630D01*
X157790Y6916550D01*
X166970Y6914600D01*
X173520Y6909740D01*
X177460Y6902920D01*
Y6896110D01*
X174840Y6889300D01*
X168280Y6883460D01*
G01X98770Y6801860D02*
Y6840790D01*
X177460D01*
Y6801860D01*
G01X139430Y6817430D02*
Y6840790D01*
G01X177460Y6742650D02*
X98770D01*
G01X177460Y6765030D02*
Y6720260D01*
G01X1033760Y2185490D02*
X1041540Y2178930D01*
X1050300Y2175000D01*
X1058090D01*
X1065870Y2178930D01*
X1071710Y2185490D01*
X1074630Y2194670D01*
X1072690Y2203850D01*
X1067820Y2211720D01*
X1059060Y2216970D01*
X1047380Y2219590D01*
X1040570Y2224840D01*
X1037650Y2234020D01*
X1039600Y2243200D01*
X1044460Y2249750D01*
X1051280Y2253690D01*
X1058090D01*
X1064900Y2251070D01*
X1070740Y2244510D01*
G01X1132870Y2253690D02*
Y2175000D01*
G01X1110490Y2253690D02*
X1155260D01*
G01X1187220Y2175000D02*
X1211550Y2253690D01*
X1235890Y2175000D01*
G01X1227130Y2202540D02*
X1195980D01*
G01X1268830Y2190740D02*
X1274660Y2181560D01*
X1282450Y2176310D01*
X1291210Y2175000D01*
X1298990Y2176310D01*
X1306780Y2182870D01*
X1311640Y2190740D01*
X1312620Y2198610D01*
X1310670Y2207790D01*
X1303860Y2214340D01*
X1297050Y2216970D01*
X1288290D01*
G01X1297050D02*
X1302890Y2220900D01*
X1307750Y2227460D01*
X1309700Y2235330D01*
X1307750Y2243200D01*
X1302890Y2249750D01*
X1294130Y2253690D01*
X1285370Y2252380D01*
X1276610Y2247130D01*
G01X1350420Y2240580D02*
X1356260Y2248440D01*
X1363080Y2252380D01*
X1370860Y2253690D01*
X1380590Y2251070D01*
X1387410Y2244510D01*
X1389350Y2236640D01*
X1388380Y2228770D01*
X1384490Y2222210D01*
X1365020Y2209100D01*
X1356260Y2199920D01*
X1350420Y2186800D01*
X1348480Y2175000D01*
X1389350D01*
G01X1447590D02*
Y2253690D01*
X1435920Y2237950D01*
G01Y2175000D02*
X1459270D01*
G01X1500970D02*
Y2253690D01*
X1526270Y2188110D01*
X1551580Y2253690D01*
Y2175000D01*
G01X1585490D02*
Y2253690D01*
X1608850D01*
X1616630Y2249750D01*
X1622470Y2240580D01*
X1624420Y2230080D01*
X1622470Y2219590D01*
X1617610Y2211720D01*
X1608850Y2207790D01*
X1585490D01*
G01X879190Y6400000D02*
Y6478690D01*
X867520Y6462950D01*
G01Y6400000D02*
X890870D01*
G01X2329190Y1525000D02*
Y1603690D01*
X2317520Y1587950D01*
G01Y1525000D02*
X2340870D01*
G01X2700000Y7648770D02*
Y7727460D01*
X2688330Y7711720D01*
G01Y7648770D02*
X2711680D01*
G01X3175000Y7348770D02*
Y7427460D01*
X3163330Y7411720D01*
G01Y7348770D02*
X3186680D01*
G01X4375000Y7598770D02*
Y7677460D01*
X4363330Y7661720D01*
G01Y7598770D02*
X4386680D01*
G54D19*
G01X1975000Y5450000D02*
X2045000D01*
X2075000Y5480000D01*
Y5420000D01*
X2045000Y5450000D01*
G01Y5480000D02*
Y5420000D01*
G01X2075000Y5450000D02*
X2135000D01*
G01X1975000Y5275000D02*
X2045000D01*
X2075000Y5305000D01*
Y5245000D01*
X2045000Y5275000D01*
G01Y5305000D02*
Y5245000D01*
G01X2075000Y5275000D02*
X2135000D01*
G01X7150000Y2750000D02*
X7090010Y2750950D01*
G01X7179520Y2719530D02*
X7180470Y2779520D01*
G01X7249990Y2748420D02*
X7180000Y2749530D01*
X7149530Y2720000D01*
X7150470Y2780000D01*
X7180000Y2749530D01*
G01X7175000Y4925000D02*
X7174880Y4985000D01*
G01X7145060Y4894940D02*
X7205060Y4895060D01*
G01X7175200Y4825000D02*
X7175060Y4895000D01*
X7145000Y4924940D01*
X7205000Y4925060D01*
X7175060Y4895000D01*
G01X7175000Y4925000D02*
X7174880Y4985000D01*
G01X7145060Y4894940D02*
X7205060Y4895060D01*
G01X7175200Y4825000D02*
X7175060Y4895000D01*
X7145000Y4924940D01*
X7205000Y4925060D01*
X7175060Y4895000D01*
G01X7175000Y4925000D02*
X7174880Y4985000D01*
G01X7145060Y4894940D02*
X7205060Y4895060D01*
G01X7175200Y4825000D02*
X7175060Y4895000D01*
X7145000Y4924940D01*
X7205000Y4925060D01*
X7175060Y4895000D01*
G01X7200000Y4925000D02*
X7199880Y4985000D01*
G01X7170060Y4894940D02*
X7230060Y4895060D01*
G01X7200200Y4825000D02*
X7200060Y4895000D01*
X7170000Y4924940D01*
X7230000Y4925060D01*
X7200060Y4895000D01*
G01X7175000Y4925000D02*
X7174880Y4985000D01*
G01X7145060Y4894940D02*
X7205060Y4895060D01*
G01X7175200Y4825000D02*
X7175060Y4895000D01*
X7145000Y4924940D01*
X7205000Y4925060D01*
X7175060Y4895000D01*
G01X7350000Y6150000D02*
X7680000D01*
Y6050000D01*
X7350000D01*
Y6150000D01*
G01X7510000Y6015000D02*
X7570000D01*
G01X7480000Y6045000D02*
Y5985000D01*
G01X7410000Y6015000D02*
X7480000D01*
X7510000Y6045000D01*
Y5985000D01*
X7480000Y6015000D01*
G01X9012500Y3275000D02*
Y2945000D01*
X8912500D01*
Y3275000D01*
X9012500D01*
G01X8852500Y3115000D02*
Y3055000D01*
G01X8882500Y3145000D02*
X8822500D01*
G01X8852500Y3215000D02*
Y3145000D01*
X8882500Y3115000D01*
X8822500D01*
X8852500Y3145000D01*
G01X8925000Y4125000D02*
Y4455000D01*
X9025000D01*
Y4125000D01*
X8925000D01*
G01X9085000Y4285000D02*
Y4345000D01*
G01X9055000Y4255000D02*
X9115000D01*
G01X9085000Y4185000D02*
Y4255000D01*
X9055000Y4285000D01*
X9115000D01*
X9085000Y4255000D01*
G01X9150000Y6100000D02*
X9220000D01*
X9250000Y6130000D01*
Y6070000D01*
X9220000Y6100000D01*
G01X9480000Y4425000D02*
X9540000D01*
G01X9450000Y4455000D02*
Y4395000D01*
G01X9380000Y4425000D02*
X9450000D01*
X9480000Y4455000D01*
Y4395000D01*
X9450000Y4425000D01*
G01X9220000Y6130000D02*
Y6070000D01*
G01X9250000Y6100000D02*
X9310000D01*
M02*
