G04 ================== begin FILE IDENTIFICATION RECORD ==================*
G04 Layout Name:  Mic_Array_main_250pcs.brd*
G04 Film Name:    SOLDERMASK_BOTTOM*
G04 File Format:  Gerber RS274X*
G04 File Origin:  Cadence Allegro 16.6-P004*
G04 Origin Date:  Fri May 13 11:46:30 2016*
G04 *
G04 Layer:  PIN/SOLDERMASK_BOTTOM*
G04 Layer:  VIA CLASS/SOLDERMASK_BOTTOM*
G04 Layer:  PACKAGE GEOMETRY/SOLDERMASK_BOTTOM*
G04 Layer:  BOARD GEOMETRY/SOLDERMASK_BOTTOM*
G04 *
G04 Offset:    (0.0000 0.0000)*
G04 Mirror:    No*
G04 Mode:      Positive*
G04 Rotation:  0*
G04 FullContactRelief:  No*
G04 UndefLineWidth:     0.0000*
G04 ================== end FILE IDENTIFICATION RECORD ====================*
%FSLAX25Y25*MOMM*%
%IR0*IPPOS*OFA0.00000B0.00000*MIA0B0*SFA1.00000B1.00000*%
%ADD28R,1.4X.8*%
%ADD11C,.7*%
%ADD18R,1.65X.55*%
%ADD17R,1.0414X.8636*%
%ADD20R,.8636X1.0414*%
%ADD22R,1.1X1.*%
%ADD27R,1.X1.1*%
%ADD21R,1.X1.7*%
%ADD24R,1.4X1.6*%
%ADD19C,1.1*%
%ADD25R,.55X.6*%
%ADD14C,1.7*%
%ADD26R,2.6X1.85*%
%ADD15C,1.8*%
%ADD30C,2.8*%
%ADD10C,5.05*%
%ADD12C,1.65*%
%ADD16R,1.8X1.8*%
%ADD13R,1.65X1.65*%
%ADD23R,.635X.5588*%
%ADD29C,3.8999*%
%LPD*%
G75*
G54D10*
X350000Y350000D03*
Y7650000D03*
X9650000Y350000D03*
Y7650000D03*
G54D20*
X2887500Y5047480D03*
Y5177520D03*
Y5409980D03*
Y5540020D03*
X3600000Y6565020D03*
Y6434980D03*
X3290020Y6309980D03*
Y6440020D03*
X3337500Y6772480D03*
Y6902520D03*
X3500000Y6772480D03*
Y6902520D03*
X3725000Y6565020D03*
Y6434980D03*
X3965020Y6309980D03*
Y6440020D03*
X4465020Y6309980D03*
Y6440020D03*
X4900000Y859980D03*
Y990020D03*
Y1247480D03*
Y1377520D03*
X5115020Y6309980D03*
Y6440020D03*
X7237500Y4302520D03*
Y4172480D03*
X7400000Y3115020D03*
Y2984980D03*
X7362500Y5227520D03*
Y5097480D03*
X7537500Y5227520D03*
Y5097480D03*
X8250000Y3190020D03*
Y3059980D03*
X8150000Y4209980D03*
Y4340020D03*
X8062500Y6090020D03*
Y5959980D03*
X7900000Y6090020D03*
Y5959980D03*
G54D11*
X162500Y1650000D03*
X150000Y2150000D03*
X162500Y2650000D03*
Y4650000D03*
Y5150000D03*
Y5650000D03*
Y6150000D03*
Y6650000D03*
Y7150000D03*
X575000Y4250000D03*
X550000Y5387500D03*
X1087470Y3187530D03*
X1250000Y6900000D03*
X1087500D03*
X825000Y7837500D03*
X1287500Y3900000D03*
X1675000Y4612500D03*
X1337500Y4875000D03*
X1675000D03*
X1587500Y5625000D03*
X1675000Y5300000D03*
X1587500Y5900000D03*
Y7000000D03*
X1725000Y7387500D03*
X1325000Y7837500D03*
X2112500Y3425000D03*
X2162500Y3862500D03*
X2075000Y3662500D03*
X2200000Y4325000D03*
X2087500Y4150000D03*
X2112500Y4450000D03*
X1837500Y5275000D03*
Y5450000D03*
X2600000Y2300000D03*
X2587500Y3675000D03*
X2575000Y3425000D03*
X2462500Y4637500D03*
X2587500Y4475000D03*
X2612500Y4725000D03*
X2587500Y4372480D03*
X2612500Y4862500D03*
X2212500Y4950000D03*
Y5112500D03*
X2275000Y6187500D03*
X2450000Y6125000D03*
X2275000Y6062500D03*
X2675000Y7050000D03*
Y6950000D03*
X3100000Y1400000D03*
X3025000Y3475000D03*
Y4025000D03*
X2775000Y5075000D03*
X3037500Y5062500D03*
X3112500Y5562500D03*
X2775000Y5475000D03*
X3012500Y5500000D03*
X2725000Y5925000D03*
X3112500Y6937500D03*
X2925000Y7325000D03*
X2825000Y7200000D03*
Y7837500D03*
X3575000Y437500D03*
X3234980Y762500D03*
X3550000Y1125000D03*
Y1425000D03*
X3512500Y1737500D03*
X3387500D03*
X3262500D03*
X3525000Y1900000D03*
X3400000Y2350000D03*
Y2025000D03*
X3525000Y2175000D03*
X3400000Y2675000D03*
Y3100000D03*
X3387500Y3612500D03*
X3400000Y4050000D03*
X3150000Y4025000D03*
X3400000Y4512500D03*
X3150000Y4475000D03*
X3175000Y5175000D03*
X3300000D03*
X3175000Y5425000D03*
X3275000D03*
X3175000Y5275000D03*
X3300000D03*
X3325000Y5712500D03*
X3287500Y6187500D03*
X3412500Y6000000D03*
Y6187500D03*
X3537500D03*
X3387500Y6650000D03*
X3500000D03*
X3287500Y6562500D03*
X3225000Y6940020D03*
X3925000Y900000D03*
X3862500Y1940480D03*
X3937500Y2000000D03*
X3800000Y2187500D03*
X3825000Y2075000D03*
X3800000Y2712500D03*
X4050000Y2825000D03*
X3800000Y2612500D03*
X4050000Y2950000D03*
X3850000Y3125000D03*
Y3275000D03*
X3625000D03*
X3975000Y3500000D03*
X3850000D03*
X3612500Y3437500D03*
X4000000Y4150000D03*
X3737500Y4850000D03*
X3875000Y5450000D03*
X3750000Y5325000D03*
X3987530Y5587530D03*
X3962500Y6187500D03*
X3825000D03*
X3962500Y6562500D03*
X3762500Y6900000D03*
X3650000D03*
X4287500Y425000D03*
X4112500Y1962500D03*
Y2075000D03*
X4150000Y3500000D03*
Y3600000D03*
X4137500Y4075000D03*
X4262500D03*
X4212500Y3950000D03*
X4487500Y4025000D03*
X4512500Y4575000D03*
X4462500Y6187500D03*
X4312500Y6175000D03*
X4112500D03*
X4462500Y6562500D03*
X4325000Y7837500D03*
X5000000Y425000D03*
X4637500D03*
X4650000Y1525000D03*
X4775000Y1500000D03*
X4650000Y1650000D03*
Y1775000D03*
X4775000D03*
Y1900000D03*
X4650000D03*
Y2037500D03*
X5000000Y3562500D03*
X4637500Y4675000D03*
X4862500Y4425000D03*
X5000000D03*
X4662500Y5712500D03*
X4600000Y5500000D03*
X4825000Y6187500D03*
X4725000Y6189160D03*
X4812500Y6562500D03*
X4762500Y7000000D03*
X4637500Y7287500D03*
X4550000Y7475000D03*
X5025000Y825000D03*
Y925000D03*
Y1225000D03*
X5025110Y1775110D03*
X5025000Y1900000D03*
X5075000Y2225000D03*
X5187500Y2500000D03*
Y2825000D03*
X5075000Y2956250D03*
X5125000Y3562500D03*
X5062500Y4287500D03*
X5125000Y4400000D03*
X5312500D03*
X5225000Y4600000D03*
X5200000Y4775000D03*
X5325000D03*
X5275000Y5250000D03*
X5325000Y4950000D03*
X5200000D03*
X5250000Y5125000D03*
X5275000Y5737500D03*
Y5575000D03*
Y5400000D03*
X5037500Y5700000D03*
Y5487500D03*
X5115020Y6187500D03*
X5275000Y5900000D03*
X5050000Y6100000D03*
X5012500Y6562500D03*
X5219110Y6555890D03*
X5375000Y6862500D03*
X5150000Y6750000D03*
X5250000Y7050000D03*
X5087500Y7000000D03*
X5425000Y7012500D03*
X5062500Y7475000D03*
X5325000Y7837500D03*
X5525000Y1050000D03*
Y875000D03*
Y1400000D03*
Y1225000D03*
Y1575000D03*
X5600000Y4300000D03*
X5837500Y4187500D03*
X5825000Y3975000D03*
X5750000Y4775000D03*
X5925000Y4537500D03*
X5750000Y4625000D03*
X5612500Y5212500D03*
X5662500Y5587500D03*
X5612500Y5937500D03*
X5737500Y6587500D03*
Y6437500D03*
X5750000Y7100000D03*
X5600000Y6950000D03*
X5750000Y7225000D03*
X5862500Y7575000D03*
X5625000Y7225000D03*
X5825000Y7837500D03*
X6250000Y3775000D03*
X6350000D03*
X6250000Y3975000D03*
Y3875000D03*
X6350000D03*
Y3975000D03*
X6325000Y4750000D03*
Y4650000D03*
X6225000Y4750000D03*
Y4650000D03*
Y4550000D03*
X6325000D03*
Y4850000D03*
X6225000D03*
X6162500Y5587500D03*
Y5812500D03*
X6287500Y5950000D03*
X5990020Y6312500D03*
X6325000Y6537500D03*
X6387500Y6312500D03*
X6002520Y6612500D03*
X6325000Y7112500D03*
X6225000D03*
X6100000Y6725000D03*
X6325000Y6712500D03*
Y6887500D03*
X6112500Y7012500D03*
X6375000Y7575000D03*
X6325000Y7837500D03*
X6450000Y3775000D03*
Y3975000D03*
Y3875000D03*
X6837500Y4100000D03*
Y4337500D03*
X6737500Y4687500D03*
Y4537500D03*
Y4837500D03*
X6675000Y5587500D03*
Y5812500D03*
X6525000Y6050000D03*
X6500000Y6537500D03*
X6675000D03*
X6762500Y7112500D03*
X6650000D03*
X6500000Y6887500D03*
X6675000Y6712500D03*
Y6887500D03*
X6500000Y6712500D03*
X6537500Y7575000D03*
X6825000Y7837500D03*
X7250000Y3850000D03*
Y3950000D03*
X7125000Y4575000D03*
Y4475000D03*
X7325000Y4575000D03*
X7225000D03*
Y4475000D03*
X7325000D03*
X7012500Y4950000D03*
X7300000Y5587500D03*
X7212500Y6000000D03*
X7175000Y6400000D03*
X7112500Y6825000D03*
X7300000Y6987500D03*
X7297520Y7475000D03*
Y7312500D03*
Y7150000D03*
X7325000Y7837500D03*
X7600000Y2725000D03*
Y2825000D03*
X7500000Y2625000D03*
X7400000D03*
X7500000Y2725000D03*
X7400000D03*
X7500000Y2825000D03*
X7400000D03*
Y3375000D03*
X7500000D03*
Y3275000D03*
X7400000D03*
X7450000Y3850000D03*
X7350000D03*
X7725000D03*
X7500000Y3475000D03*
X7400000D03*
X7350000Y3950000D03*
X7450000D03*
X7775000Y4562500D03*
X7525000Y4575000D03*
X7425000D03*
Y4475000D03*
X7662500Y5162500D03*
X7362500Y5350000D03*
X7500000Y5812500D03*
X7425000Y6462500D03*
X7550000Y6900000D03*
X7412500Y6887500D03*
X8150000Y137500D03*
X8162500Y612500D03*
X8249810Y2900260D03*
X8025000Y3150000D03*
X8175000Y4600000D03*
Y4500000D03*
X7925000Y5150000D03*
Y5512500D03*
X7950000Y5325000D03*
X8150000Y5862500D03*
X8062500Y6225000D03*
X7825000Y7837500D03*
X8650000Y137500D03*
X8662500Y612500D03*
X8632500Y2367500D03*
X8349810Y2900260D03*
X8449810D03*
X8700000Y3375000D03*
Y3275000D03*
X8600000Y3375000D03*
Y3275000D03*
Y3475000D03*
X8700000D03*
X8701280Y3898370D03*
Y3998370D03*
Y4098370D03*
X8601280Y3898370D03*
Y3998370D03*
Y4098370D03*
X8375000Y4600000D03*
X8275000D03*
Y4500000D03*
X8375000D03*
X8425000Y5150000D03*
X8412500Y5562500D03*
Y5475000D03*
Y5325000D03*
X8662500Y6162500D03*
X8325000Y7837500D03*
X9150000Y137500D03*
X9162500Y612500D03*
X8800000Y3375000D03*
Y3275000D03*
Y3475000D03*
X8801280Y3898370D03*
Y3998370D03*
Y4098370D03*
X8775000Y5225000D03*
X8800000Y5125000D03*
X8787500Y5425000D03*
X8812500Y5562500D03*
X8825000Y6037500D03*
Y7837500D03*
X9275000Y3062500D03*
X9325000Y7837500D03*
X9850000Y637500D03*
Y1137500D03*
Y1637500D03*
Y2137500D03*
Y2637500D03*
Y3137500D03*
Y3637500D03*
Y4137500D03*
Y4637500D03*
Y5137500D03*
Y5637500D03*
Y6137500D03*
X9725000Y6250000D03*
G54D12*
X360500Y2967000D03*
Y3221000D03*
Y3475000D03*
Y3729000D03*
X614500Y2967000D03*
Y3221000D03*
Y3475000D03*
Y3729000D03*
Y3983000D03*
X2008500Y7398000D03*
Y7652000D03*
X2262500Y7398000D03*
Y7652000D03*
X2539500Y6485500D03*
Y6739500D03*
X2285500D03*
X2516500Y7398000D03*
X3587500Y7652000D03*
Y7398000D03*
X3333500Y7652000D03*
X3841500D03*
Y7398000D03*
X5063880Y7650100D03*
X4809880D03*
X5317880D03*
X6779000Y247000D03*
X6525000D03*
X6779000Y501000D03*
X6525000D03*
X6779000Y755000D03*
X6525000D03*
X6779000Y1009000D03*
X6525000D03*
X6779000Y1263000D03*
X6525000D03*
X6779000Y1517000D03*
X6525000D03*
X6779000Y1771000D03*
X6525000D03*
X6779000Y2025000D03*
G54D30*
X8827500Y6817500D03*
X9517500D03*
G54D21*
X5027500Y4012500D03*
X5347500D03*
G54D13*
X360500Y3983000D03*
X2285500Y6485500D03*
X2516500Y7652000D03*
X3333500Y7398000D03*
X4555880Y7650100D03*
X6525000Y2025000D03*
G54D22*
X7012500Y5242500D03*
Y5082500D03*
X7187500Y5242500D03*
Y5082500D03*
X7562500Y2970000D03*
Y3130000D03*
X7400000Y4157500D03*
Y4317500D03*
X8412500Y3045000D03*
Y3205000D03*
X8325000Y4195000D03*
Y4355000D03*
X8712500Y6042500D03*
Y5882500D03*
G54D23*
X7286100Y4850000D03*
X7463900Y4753480D03*
Y4943980D03*
G54D14*
X350000Y4437500D03*
Y5037500D03*
Y5550000D03*
Y6150000D03*
X362500Y6650000D03*
Y7250000D03*
X850000Y4437500D03*
Y5037500D03*
Y5550000D03*
Y6150000D03*
X862500Y6650000D03*
Y7250000D03*
G54D15*
X687500Y821000D03*
X1433500Y7612500D03*
G54D24*
X7367500Y6000000D03*
X7607500D03*
G54D16*
X687500Y1075000D03*
X1687500Y7612500D03*
G54D25*
X7730000Y3280000D03*
Y3020000D03*
X7920000Y3280000D03*
X7825000D03*
X7920000Y3020000D03*
X7825000D03*
G54D26*
Y3150000D03*
G54D17*
X790020Y1500000D03*
X659980D03*
X684980Y2262500D03*
X815020D03*
X722480Y4250000D03*
X527520Y5225000D03*
X397480D03*
X709980D03*
Y5387500D03*
X552520Y6337500D03*
X422480D03*
X734980D03*
X722480Y7450000D03*
X852520Y4250000D03*
X840020Y5225000D03*
Y5387500D03*
X865020Y6337500D03*
X852520Y7450000D03*
X1834980Y2012500D03*
X1965020D03*
X2527520Y837500D03*
X2397480D03*
Y1012500D03*
X2527520D03*
X2834980Y5925000D03*
X2965020D03*
X3815020Y900000D03*
X3684980D03*
X3815020Y725000D03*
X3684980D03*
X3659980Y1450000D03*
X3790020D03*
X3659980Y1150000D03*
X3790020D03*
X4490020Y3925000D03*
X4359980D03*
X5375000Y5250000D03*
Y5900000D03*
X5505040Y5250000D03*
Y5900000D03*
X6897480Y3262500D03*
X7027520D03*
X7372480Y6200000D03*
X7502520D03*
X8134980Y5325000D03*
X8265020D03*
G54D27*
X7755000Y4000000D03*
X7595000D03*
G54D18*
X1058500Y1506500D03*
Y1887500D03*
Y1760500D03*
Y1633500D03*
Y2268500D03*
Y2141500D03*
Y2014500D03*
X1566500Y1506500D03*
Y1633500D03*
Y1760500D03*
Y1887500D03*
Y2014500D03*
Y2141500D03*
Y2268500D03*
G54D19*
X1825000Y1625000D03*
G54D28*
X7635000Y4197500D03*
Y4387500D03*
X7865000Y4292500D03*
Y4197500D03*
Y4387500D03*
X8272500Y6125000D03*
Y5935000D03*
X8502500Y6125000D03*
Y6030000D03*
Y5935000D03*
G54D29*
X8750000Y925000D03*
X9350000D03*
X9050000Y1395000D03*
M02*
