G04 ================== begin FILE IDENTIFICATION RECORD ==================*
G04 Layout Name:  D:/sop1hc/Microphone/schematic/V020/8Mics/allegro/8MICS_V021.brd*
G04 Film Name:    BOTTOM*
G04 File Format:  Gerber RS274X*
G04 File Origin:  Cadence Allegro 16.6-P004*
G04 Origin Date:  Wed Apr 06 11:01:09 2016*
G04 *
G04 Layer:  BOARD GEOMETRY/OUTLINE*
G04 Layer:  MANUFACTURING/PHOTOPLOT_OUTLINE*
G04 Layer:  ETCH/BOTTOM*
G04 Layer:  PIN/BOTTOM*
G04 Layer:  VIA CLASS/BOTTOM*
G04 *
G04 Offset:    (0.0000 0.0000)*
G04 Mirror:    No*
G04 Mode:      Positive*
G04 Rotation:  0*
G04 FullContactRelief:  No*
G04 UndefLineWidth:     0.0000*
G04 ================== end FILE IDENTIFICATION RECORD ====================*
%FSLAX25Y25*MOIN*%
%IR0*IPPOS*OFA0.00000B0.00000*MIA0B0*SFA1.00000B1.00000*%
%ADD10C,.024*%
%ADD11C,.03937*%
%ADD13C,.064961*%
%ADD14R,.064961X.064961*%
%ADD15C,.062988*%
%ADD12R,.04724X.04724*%
%ADD16R,.062988X.062988*%
%ADD17C,.003937*%
%ADD18C,.015748*%
%ADD19C,.008*%
%ADD20C,.01*%
%ADD21C,.02*%
G75*
%LPD*%
G75*
G54D10*
X-316000Y76000D03*
X-280000Y12000D03*
X-287283Y128083D03*
X-295500Y150500D03*
X-241417Y13083D03*
X-231417Y187083D03*
X-206875Y-9089D03*
X-200417Y21083D03*
X-162917Y171083D03*
X-139417Y29083D03*
X-152783Y50583D03*
X-141417Y126083D03*
X-156417Y165583D03*
X-119917Y100083D03*
G54D20*
G01X-316000Y76000D02*
Y71000D01*
X-301000Y56000D01*
Y33000D01*
X-280000Y12000D01*
G01X-316000Y76000D02*
X-300500Y91500D01*
Y145500D01*
X-295500Y150500D01*
G01X-287283Y128083D02*
X-289000Y126366D01*
Y49500D01*
X-262000Y22500D01*
G01X-295500Y150500D02*
X-286000Y160000D01*
X-243268D01*
X-239917Y163351D01*
G01X-206875Y-9089D02*
X-215965Y0D01*
X-264500D01*
X-276500Y12000D01*
X-280000D01*
G01X-252000Y74500D02*
X-240500D01*
G01X-252000D02*
Y84433D01*
X-253500Y85933D01*
Y94500D01*
G01X-234500Y138000D02*
X-243500Y131500D01*
Y104500D01*
G01X-230917Y163083D02*
X-236287D01*
X-236555Y163351D01*
X-239917D01*
G01X-156417Y165583D02*
X-157973Y167139D01*
X-226861D01*
G01X-230917Y163083D02*
X-226861Y167139D01*
G01X-231417Y187083D02*
X-227500D01*
X-226500Y186083D01*
Y167500D01*
X-226861Y167139D01*
G01X-139417Y29083D02*
X-166000Y2500D01*
X-195286D01*
X-206875Y-9089D01*
G01X-200417Y21083D02*
Y16917D01*
X-195500Y12000D01*
X-177500D01*
X-152783Y36717D01*
Y50583D01*
G01X-139417Y29083D02*
Y32583D01*
X-119917Y52083D01*
Y100083D01*
G54D11*
X-311000Y123000D03*
X-308500Y70500D03*
X-307930Y45237D03*
X-292841Y140000D03*
X-264500Y5500D03*
X-263000Y-3500D03*
X-262000Y22500D03*
X-273000Y64000D03*
X-261000Y125500D03*
X-253500Y155000D03*
X-262000Y182000D03*
X-224000Y119000D03*
X-234500Y138000D03*
X-234086Y180813D03*
X-216000Y74000D03*
Y82500D03*
X-215500Y134360D03*
Y144000D03*
X-182000Y-4000D03*
X-183500Y16500D03*
X-160500Y63000D03*
X-165500Y95000D03*
X-184500Y129500D03*
X-174500Y117500D03*
X-184000Y154500D03*
X-185000Y186500D03*
X-131500Y33500D03*
X-141500Y48000D03*
X-156500Y109500D03*
X-127000Y56000D03*
X-124500Y132000D03*
G54D21*
G01X-311000Y123000D02*
X-321000Y113000D01*
Y70500D01*
X-307930Y57430D01*
Y45237D01*
G01X-262000Y182000D02*
X-269500D01*
X-307000Y144500D01*
Y127000D01*
X-311000Y123000D01*
G01X-263000Y-3500D02*
X-271000D01*
X-307930Y33430D01*
Y45237D01*
G01X-264500Y5500D02*
Y13000D01*
X-284500Y33000D01*
X-291000D01*
X-294500Y36500D01*
Y56500D01*
X-308500Y70500D01*
G01X-309000D02*
X-308500D01*
G01D02*
X-292841Y86159D01*
Y140000D01*
G01D02*
X-261000D01*
Y125500D01*
G01X-182000Y-4000D02*
X-192500D01*
X-203500Y-15000D01*
X-209000D01*
X-220500Y-3500D01*
X-263000D01*
G01X-252000Y66232D02*
X-260232D01*
X-263000Y69000D01*
Y102000D01*
X-260500Y104500D01*
X-253500D01*
G01Y155000D02*
Y104500D01*
G01Y155000D02*
X-243862D01*
X-243779Y155083D01*
X-239917D01*
G01X-262000Y182000D02*
X-250000D01*
X-241500Y190500D01*
X-189000D01*
X-185000Y186500D01*
G01X-223500Y94500D02*
X-227000Y91000D01*
Y70500D01*
X-233000Y64500D01*
X-240500D01*
G01X-196000Y64000D02*
X-201000Y59000D01*
Y58500D01*
X-204500Y55000D01*
X-237500D01*
X-240500Y58000D01*
Y64500D01*
G01X-223500Y94500D02*
X-213500D01*
G01X-233500D02*
X-223500D01*
G01X-243500D02*
X-233500D01*
G01X-215500Y144000D02*
X-228000D01*
X-230917Y146917D01*
Y154815D01*
G01X-196000Y64000D02*
X-192643Y67357D01*
Y67857D01*
X-165500Y95000D01*
G01X-193500Y94500D02*
X-183500D01*
G01X-203500D02*
X-193500D01*
G01X-213500D02*
X-203500D01*
G01X-216000Y82500D02*
Y74000D01*
G01X-215500Y144000D02*
Y134360D01*
G01X-160500Y63000D02*
X-156500D01*
X-141500Y48000D01*
G01X-174500Y117500D02*
Y104000D01*
X-165500Y95000D01*
G01D02*
X-178252D01*
X-178752Y94500D01*
X-183500D01*
G01X-141417Y126083D02*
X-148000Y119500D01*
X-164000D01*
X-165500Y118000D01*
Y95000D01*
G01X-185000Y186500D02*
X-181500Y183000D01*
X-168000D01*
X-138000Y153000D01*
Y150500D01*
X-124500Y137000D01*
Y132000D01*
G01D02*
Y123000D01*
X-127000Y120500D01*
Y56000D01*
G54D12*
X-252000Y66232D03*
Y74500D03*
X-239917Y155083D03*
X-230917Y154815D03*
X-239917Y163351D03*
X-230917Y163083D03*
G54D13*
X-253500Y94500D03*
X-223500D03*
X-233500D03*
X-243500D03*
X-223500Y104500D03*
X-233500D03*
X-243500D03*
X-196000Y64000D03*
X-206000D03*
X-216000D03*
X-196000Y74000D03*
X-206000D03*
X-193500Y94500D03*
X-203500D03*
X-213500D03*
X-193500Y104500D03*
X-203500D03*
X-213500D03*
X-183500Y94500D03*
Y104500D03*
G54D14*
X-253500D03*
X-216000Y74000D03*
G54D15*
X-240500Y64500D03*
G54D16*
Y74500D03*
G54D17*
G01X-218000Y197000D02*
G02X-109000Y88000I0J-109000D01*
G02X-217000Y-20000I-108000J0D01*
G02X-327000Y90000I0J110000D01*
G02X-220000Y197000I107000J0D01*
G01X-218000D01*
G54D18*
G01X-262000Y22500D02*
X-201834D01*
X-200417Y21083D01*
G54D19*
G01X-273000Y64000D02*
X-252000Y43000D01*
X-193500D01*
X-189000Y47500D01*
Y59000D01*
X-156500Y91500D01*
Y109500D01*
G01X-203500Y104500D02*
Y113500D01*
X-204000Y114000D01*
X-229934D01*
X-230500Y114566D01*
Y122700D01*
X-229700Y123500D01*
X-185000D01*
X-176500Y132000D01*
Y138200D01*
X-175700Y139000D01*
X-134500D01*
X-133000Y137500D01*
Y44500D01*
X-172000Y5500D01*
X-233834D01*
X-241417Y13083D01*
G01X-224000Y119000D02*
X-184000D01*
X-173000Y130000D01*
Y133700D01*
X-172200Y134500D01*
X-138000D01*
X-136500Y133000D01*
Y121500D01*
X-142500Y115500D01*
X-150000D01*
X-150500Y115000D01*
Y90500D01*
X-183500Y57500D01*
Y16500D01*
G01X-184500Y129500D02*
Y151131D01*
X-184000Y151631D01*
Y154500D01*
M02*
