G04 ================== begin FILE IDENTIFICATION RECORD ==================*
G04 Layout Name:  D:/sop1hc/Microphone/schematic/V020/8Mics/allegro/8MICS_V021.brd*
G04 Film Name:    SOLDERMASK_BOTTOM*
G04 File Format:  Gerber RS274X*
G04 File Origin:  Cadence Allegro 16.6-P004*
G04 Origin Date:  Wed Apr 06 11:01:09 2016*
G04 *
G04 Layer:  BOARD GEOMETRY/OUTLINE*
G04 Layer:  MANUFACTURING/PHOTOPLOT_OUTLINE*
G04 Layer:  VIA CLASS/SOLDERMASK_BOTTOM*
G04 Layer:  PIN/SOLDERMASK_BOTTOM*
G04 Layer:  PACKAGE GEOMETRY/SOLDERMASK_BOTTOM*
G04 *
G04 Offset:    (0.0000 0.0000)*
G04 Mirror:    No*
G04 Mode:      Positive*
G04 Rotation:  0*
G04 FullContactRelief:  No*
G04 UndefLineWidth:     0.0000*
G04 ================== end FILE IDENTIFICATION RECORD ====================*
%FSLAX25Y25*MOIN*%
%IR0*IPPOS*OFA0.00000B0.00000*MIA0B0*SFA1.00000B1.00000*%
%ADD11C,.04528*%
%ADD15C,.07087*%
%ADD13C,.064961*%
%ADD12R,.055118X.055118*%
%ADD10C,.044*%
%ADD16R,.07087X.07087*%
%ADD14R,.064961X.064961*%
%ADD17C,.003937*%
G75*
%LPD*%
G75*
G54D10*
X-316000Y76000D03*
X-280000Y12000D03*
X-287283Y128083D03*
X-295500Y150500D03*
X-241417Y13083D03*
X-231417Y187083D03*
X-206875Y-9089D03*
X-200417Y21083D03*
X-162917Y171083D03*
X-139417Y29083D03*
X-152783Y50583D03*
X-141417Y126083D03*
X-156417Y165583D03*
X-119917Y100083D03*
G54D11*
X-311000Y123000D03*
X-308500Y70500D03*
X-307930Y45237D03*
X-292841Y140000D03*
X-264500Y5500D03*
X-263000Y-3500D03*
X-262000Y22500D03*
X-273000Y64000D03*
X-261000Y125500D03*
X-253500Y155000D03*
X-262000Y182000D03*
X-224000Y119000D03*
X-234500Y138000D03*
X-234086Y180813D03*
X-216000Y74000D03*
Y82500D03*
X-215500Y134360D03*
Y144000D03*
X-182000Y-4000D03*
X-183500Y16500D03*
X-160500Y63000D03*
X-165500Y95000D03*
X-184500Y129500D03*
X-174500Y117500D03*
X-184000Y154500D03*
X-185000Y186500D03*
X-131500Y33500D03*
X-141500Y48000D03*
X-156500Y109500D03*
X-127000Y56000D03*
X-124500Y132000D03*
G54D12*
X-252000Y66232D03*
Y74500D03*
X-239917Y155083D03*
X-230917Y154815D03*
X-239917Y163351D03*
X-230917Y163083D03*
G54D13*
X-253500Y94500D03*
X-223500D03*
X-233500D03*
X-243500D03*
X-223500Y104500D03*
X-233500D03*
X-243500D03*
X-196000Y64000D03*
X-206000D03*
X-216000D03*
X-196000Y74000D03*
X-206000D03*
X-193500Y94500D03*
X-203500D03*
X-213500D03*
X-193500Y104500D03*
X-203500D03*
X-213500D03*
X-183500Y94500D03*
Y104500D03*
G54D14*
X-253500D03*
X-216000Y74000D03*
G54D15*
X-240500Y64500D03*
G54D16*
Y74500D03*
G54D17*
G01X-218000Y197000D02*
G02X-109000Y88000I0J-109000D01*
G02X-217000Y-20000I-108000J0D01*
G02X-327000Y90000I0J110000D01*
G02X-220000Y197000I107000J0D01*
G01X-218000D01*
M02*
